<svg width="22" height="20" viewBox="0 0 22 20" fill="none" xmlns="http://www.w3.org/2000/svg">
<path d="M2.93941 14.3781C2.08146 10.9463 1.65249 9.23035 2.55332 8.07665C3.45415 6.92285 5.22286 6.92285 8.76027 6.92285H13.391C16.9284 6.92285 18.6971 6.92285 19.5979 8.07665C20.4988 9.23035 20.0698 10.9463 19.2119 14.3781C18.6662 16.5608 18.3933 17.6521 17.5796 18.2875C16.7658 18.9229 15.6409 18.9229 13.391 18.9229H8.76027C6.51041 18.9229 5.38548 18.9229 4.5717 18.2875C3.75792 17.6521 3.48508 16.5608 2.93941 14.3781Z" stroke="#FF453A" stroke-width="0.9"/>
<path d="M18.5756 7.42285L17.8652 4.8175C17.5913 3.8129 17.4543 3.3106 17.1734 2.93231C16.8936 2.55558 16.5134 2.26519 16.0764 2.09437C15.6375 1.92285 15.1169 1.92285 14.0756 1.92285M3.57556 7.42285L4.28596 4.8175C4.55988 3.8129 4.69684 3.3106 4.97777 2.93231C5.25755 2.55558 5.63772 2.26519 6.07478 2.09437C6.51364 1.92285 7.03428 1.92285 8.07556 1.92285" stroke="#FF453A" stroke-width="0.9"/>
<path d="M8.07581 1.92285C8.07581 1.37057 8.52353 0.922852 9.07581 0.922852H13.0758C13.6281 0.922852 14.0758 1.37057 14.0758 1.92285C14.0758 2.47513 13.6281 2.92285 13.0758 2.92285H9.07581C8.52353 2.92285 8.07581 2.47513 8.07581 1.92285Z" stroke="#FF453A" stroke-width="0.9"/>
<path d="M2.43148 7.81861L4.20436 7.01613L10.9614 6.81543L18.1867 7.01613L19.5916 7.81842L20.2702 9.69459L19.5916 13.1412L18.1867 17.7539L16.9513 18.843L10.9614 19.077L5.59031 18.843L3.70257 17.7539L2.43148 13.1412L1.88854 9.69459L2.43148 7.81861Z" fill="#FF453A"/>
</svg>
