<svg width="21" height="20" viewBox="0 0 21 20" fill="none" xmlns="http://www.w3.org/2000/svg">
<path d="M19.4778 1.19884C19.5163 1.27818 19.5555 1.37764 19.6033 1.48865C19.6398 1.60529 19.6893 1.73169 19.7181 1.87778C19.7272 1.91315 19.7354 1.9503 19.7443 1.98775C19.7522 2.02475 19.7558 2.06398 19.7625 2.1032C19.7742 2.1818 19.7884 2.26113 19.7912 2.34579C19.7965 2.43016 19.8042 2.51468 19.8005 2.60304C19.7995 2.64611 19.7993 2.69111 19.7986 2.73522C19.7977 2.77962 19.7913 2.82477 19.7884 2.86961C19.7842 2.9155 19.7818 2.9602 19.7755 3.00549C19.7682 3.05123 19.7613 3.09681 19.7543 3.14284C19.7431 3.23476 19.7189 3.32668 19.6985 3.41859C19.6781 3.51036 19.6474 3.60154 19.6221 3.69331C19.5897 3.78345 19.5625 3.87521 19.5252 3.96447C19.4891 4.05372 19.4547 4.14208 19.4127 4.22911C19.3742 4.31614 19.3304 4.4017 19.2869 4.48503C19.2452 4.56939 19.1954 4.65036 19.1513 4.73117C19.1017 4.81036 19.0566 4.88925 19.0063 4.96474C18.9086 5.11586 18.8082 5.25869 18.7085 5.38998C18.69 5.41529 18.6707 5.43986 18.6518 5.46384C18.4247 5.63953 18.1507 5.80501 17.854 5.79494C17.5742 5.78591 17.3229 5.63154 17.0565 5.56182C16.0689 5.30428 14.8591 5.82469 14.2611 6.62692C14.2611 6.62692 15.0423 5.83313 16.0538 6.01682C16.2661 6.05633 16.4889 6.13759 16.7168 6.27969C18.028 7.09494 17.4502 7.59759 18.8042 7.99471C19.1035 8.08263 19.351 8.19512 19.5498 8.32952C19.5498 8.32952 19.5498 8.32952 19.5504 8.33011C20.2494 8.80464 20.3308 9.54678 19.8638 10.4005C19.9809 10.1866 20.1725 10.0058 20.2835 9.77146C20.5524 9.20413 20.5777 8.63354 20.3203 8.05451C20.0899 7.53454 19.5825 7.13727 19.4396 6.57867C19.3282 6.13967 19.4476 5.66573 19.6156 5.25381C19.6272 5.22657 19.6386 5.19875 19.6501 5.1724C19.6738 5.11808 19.6961 5.06154 19.7197 5.00603C19.7549 4.90997 19.7941 4.81436 19.8267 4.71504C19.8601 4.61602 19.8924 4.51641 19.9207 4.41413C19.9507 4.31333 19.9746 4.20898 19.9985 4.10626C20.0228 4.00384 20.0389 3.89712 20.0583 3.7944C20.0712 3.68931 20.0879 3.58629 20.0952 3.48135C20.1023 3.37715 20.1119 3.27472 20.1097 3.17274C20.1095 3.12109 20.1104 3.07076 20.1101 3.02088C20.1084 2.97041 20.1042 2.92068 20.1014 2.87095C20.0973 2.82225 20.0955 2.77281 20.0894 2.72456C20.0828 2.67675 20.0758 2.62939 20.0693 2.58173C20.0592 2.48818 20.0364 2.3973 20.0172 2.31042C20.0011 2.2225 19.9722 2.13932 19.9475 2.05895C19.9343 2.01869 19.9238 1.97887 19.9096 1.94128C19.8946 1.90353 19.8798 1.86682 19.8649 1.83086C19.8122 1.68447 19.7403 1.56207 19.6852 1.45032C19.6196 1.3436 19.5646 1.25139 19.5141 1.17768C19.4086 1.03544 19.3474 0.95462 19.3474 0.95462C19.3474 0.95462 19.3952 1.04313 19.4778 1.19884Z" fill="#8CC63E"/>
<path d="M18.8046 7.99487C17.4507 7.59775 18.0285 7.09509 16.7171 6.27984C16.4893 6.13775 16.2664 6.05634 16.0542 6.01697C14.9727 6.17904 14.0075 6.90209 13.5878 7.99546L13.5781 8.02151C13.5781 8.02151 13.4839 8.26662 13.3195 8.69615C13.2988 8.74988 13.2772 8.80731 13.2539 8.86681C13.2428 8.897 13.2316 8.92764 13.2191 8.95947C13.2055 8.98922 13.1922 9.0203 13.1786 9.05153C13.1234 9.17808 13.0631 9.31455 12.9989 9.46064C12.9663 9.5345 12.9332 9.60969 12.8985 9.68828C12.8642 9.76643 12.8306 9.84858 12.7892 9.92599C12.7092 10.086 12.6252 10.2541 12.5368 10.4298C12.4923 10.5173 12.4505 10.6106 12.4 10.6982C12.3502 10.7874 12.2992 10.8774 12.2468 10.968C12.1947 11.0605 12.1421 11.1552 12.0886 11.2497C12.0614 11.2984 12.0344 11.346 12.0063 11.3949C11.9785 11.4419 11.9477 11.488 11.9183 11.5352C11.7966 11.7254 11.6729 11.9208 11.5459 12.1203C11.4086 12.312 11.2688 12.5091 11.127 12.7085C10.9787 12.9046 10.8199 13.0951 10.6618 13.2964C10.6228 13.3476 10.5814 13.3951 10.5386 13.4413C10.4961 13.4893 10.4532 13.5368 10.4113 13.5846C10.3256 13.6803 10.2393 13.7776 10.1532 13.875C9.975 14.0625 9.78835 14.2456 9.60126 14.4351C9.50342 14.5231 9.40574 14.6121 9.30775 14.7006C9.20814 14.7893 9.11164 14.8841 9.0064 14.9648C8.79918 15.1297 8.59537 15.3095 8.37571 15.4608C8.26766 15.5406 8.15858 15.6196 8.05127 15.6988C7.93893 15.7718 7.82703 15.845 7.71602 15.9182C7.65948 15.9543 7.60383 15.9919 7.54788 16.0278C7.49163 16.0641 7.43376 16.0959 7.37633 16.1301C7.26177 16.198 7.14735 16.2648 7.03324 16.332C6.91838 16.3973 6.80026 16.4548 6.68481 16.5167C6.56833 16.5778 6.45347 16.6403 6.3355 16.6926C6.21754 16.7472 6.10031 16.8015 5.98486 16.856C5.86808 16.9089 5.75026 16.9544 5.63348 17.0038C5.40213 17.1046 5.16768 17.1814 4.93989 17.2673C4.48105 17.4174 4.03701 17.5512 3.61828 17.6421C3.19999 17.7371 2.80865 17.8081 2.46037 17.853C2.11077 17.9009 1.80275 17.9259 1.5492 17.9399C1.29492 17.9547 1.0951 17.9542 0.959669 17.9532C0.893211 17.9517 0.84185 17.9508 0.808103 17.9499C0.79197 17.9498 0.779093 17.9492 0.769176 17.9489C0.760147 17.9477 0.755263 17.9474 0.755263 17.9474L0.753486 17.947C0.651654 17.9412 0.553225 18.0011 0.515629 18.1012C0.468709 18.2248 0.531023 18.3632 0.654466 18.4098C0.654466 18.4098 0.658314 18.4108 0.667935 18.4142C0.67652 18.4179 0.691025 18.4228 0.708342 18.4292C0.744606 18.4412 0.798631 18.4594 0.869381 18.4828C1.00896 18.5261 1.21336 18.5904 1.47638 18.6546C1.74029 18.7202 2.06325 18.7915 2.43787 18.8527C2.81264 18.9182 3.23937 18.97 3.71168 19.0063C4.18295 19.0452 4.69729 19.0517 5.24731 19.0403C5.5198 19.0257 5.80443 19.0192 6.09306 18.9879C6.23663 18.9734 6.38375 18.9631 6.53192 18.9446C6.67934 18.9247 6.82853 18.9045 6.97862 18.8839C7.13063 18.8657 7.28086 18.8359 7.43317 18.8083C7.58532 18.7792 7.74 18.7539 7.89408 18.7202C8.04875 18.6844 8.20372 18.6485 8.35884 18.6121C8.43699 18.5932 8.51633 18.5765 8.59389 18.555C8.6707 18.5331 8.74856 18.5113 8.82641 18.4893C8.98331 18.4438 9.14005 18.3987 9.2971 18.3536C9.45266 18.301 9.60866 18.2479 9.76452 18.1949C10.0813 18.0938 10.3845 17.9616 10.6974 17.8388C10.8545 17.7796 11.0025 17.7045 11.1557 17.6361C11.3081 17.5651 11.4599 17.494 11.6117 17.4236C11.9066 17.2697 12.2044 17.1157 12.4949 16.9534C12.6377 16.8684 12.7788 16.7836 12.9206 16.6989C12.9912 16.656 13.0614 16.6138 13.1326 16.5713C13.2035 16.5299 13.2735 16.4861 13.3399 16.4406C13.6084 16.258 13.8806 16.0799 14.1383 15.8943C14.3923 15.7025 14.6421 15.5142 14.8867 15.3291C15.1204 15.1322 15.3496 14.9392 15.573 14.7517C15.6286 14.7044 15.6861 14.658 15.7392 14.6096C15.7907 14.561 15.8431 14.5132 15.8951 14.4644C15.9981 14.3679 16.1004 14.2728 16.2001 14.1786C16.3006 14.0847 16.3994 13.9916 16.4962 13.9009C16.5928 13.8097 16.6792 13.7147 16.7688 13.6241C16.9457 13.4409 17.1146 13.2643 17.2756 13.0975C17.3586 13.0143 17.431 12.929 17.5028 12.8476C17.5747 12.7652 17.6446 12.6845 17.7118 12.6072C17.8478 12.4515 17.9752 12.3057 18.0922 12.1703C18.1218 12.1366 18.1506 12.1033 18.1788 12.0713C18.2056 12.0377 18.2306 12.0048 18.2559 11.9732C18.3071 11.9095 18.3555 11.8488 18.4008 11.7915C18.7679 11.3262 18.9773 11.0607 18.9773 11.0607C19.1645 10.8213 19.329 10.5397 19.4434 10.241C19.6872 9.60599 19.7106 8.94156 19.551 8.33012C19.5504 8.32952 19.5504 8.32952 19.5504 8.32952C19.3513 8.19542 19.104 8.08279 18.8046 7.99487Z" fill="#DC0D28"/>
<path d="M20.0696 2.58173C20.0596 2.48818 20.0368 2.3973 20.0175 2.31042C20.0014 2.2225 19.9725 2.13932 19.9478 2.05895C19.9347 2.01869 19.9241 1.97887 19.9099 1.94128C19.895 1.90353 19.8802 1.86682 19.8652 1.83086C19.8125 1.68447 19.7406 1.56207 19.6855 1.45032C19.62 1.3436 19.5649 1.25139 19.5144 1.17768C19.4089 1.03544 19.3478 0.95462 19.3478 0.95462C19.3478 0.95462 19.3953 1.04313 19.4779 1.19884C19.5164 1.27818 19.5556 1.37764 19.6034 1.48865C19.6398 1.60529 19.6894 1.73169 19.7181 1.87778C19.7273 1.91315 19.7354 1.9503 19.7443 1.98775C19.7523 2.02476 19.7559 2.06398 19.7625 2.1032C19.7709 2.15989 19.7792 2.21732 19.7852 2.27638C19.9176 2.40589 20.019 2.56145 20.0896 2.72293C20.083 2.67601 20.0759 2.62909 20.0696 2.58173Z" fill="#8CC63E"/>
<path d="M19.4401 6.57882C19.3286 6.13981 19.4481 5.66587 19.616 5.25395C19.6276 5.22672 19.639 5.19889 19.6505 5.17255C19.6742 5.11823 19.6966 5.06169 19.7201 5.00618C19.7553 4.91012 19.7945 4.8145 19.8271 4.71519C19.8606 4.61617 19.8928 4.51655 19.9211 4.41428C19.9511 4.31348 19.975 4.20913 19.999 4.10641C20.0232 4.00398 20.0394 3.89727 20.0588 3.79455C20.0716 3.68946 20.0884 3.58644 20.0956 3.4815C20.1027 3.3773 20.1123 3.27487 20.1101 3.17289C20.11 3.12123 20.1109 3.07091 20.1106 3.02103C20.1088 2.97056 20.1046 2.92082 20.1018 2.87109C20.0977 2.8224 20.0959 2.77296 20.0898 2.72471C20.0898 2.72412 20.0898 2.72397 20.0897 2.72323C20.0191 2.5616 19.9178 2.40618 19.7852 2.27667C19.7876 2.29976 19.7909 2.32226 19.7913 2.34609C19.7966 2.43046 19.8043 2.51497 19.8006 2.60334C19.7996 2.64641 19.7994 2.6914 19.7987 2.73551C19.7978 2.77992 19.7914 2.82506 19.7885 2.86991C19.7843 2.91579 19.782 2.96049 19.7756 3.00578C19.7684 3.05152 19.7614 3.09711 19.7544 3.14314C19.7432 3.23506 19.7191 3.32697 19.6986 3.41889C19.6782 3.51066 19.6476 3.60183 19.6223 3.6936C19.5898 3.78374 19.5626 3.87551 19.5253 3.96476C19.4892 4.05401 19.4549 4.14238 19.4128 4.22941C19.3743 4.31644 19.3305 4.40199 19.287 4.48532C19.2453 4.56969 19.1955 4.65065 19.1514 4.73147C19.1018 4.81066 19.0567 4.88955 19.0064 4.96503C18.9087 5.11615 18.8083 5.25899 18.7086 5.39027C18.6901 5.41558 18.6708 5.44016 18.6519 5.46413C18.4248 5.63982 18.1509 5.8053 17.8541 5.79524C17.5744 5.78621 17.323 5.63183 17.0566 5.56212C16.0691 5.30457 14.8592 5.82499 14.2612 6.62722C14.2612 6.62722 15.0424 5.83343 16.054 6.01711C16.2662 6.05663 16.489 6.13789 16.7169 6.27998C18.0282 7.09524 17.4503 7.59789 18.8043 7.99501C18.9531 8.03867 19.0893 8.0884 19.2127 8.14406C19.3777 7.78705 19.5247 7.42205 19.6516 7.04876C19.5597 6.90164 19.4831 6.74755 19.4401 6.57882Z" fill="#8CC63E"/>
<path d="M19.213 8.14391C19.0895 8.08826 18.9533 8.03853 18.8046 7.99487C17.4507 7.59775 18.0286 7.09509 16.7172 6.27984C16.4894 6.13775 16.2665 6.05634 16.0542 6.01697C14.9727 6.17904 14.0075 6.90209 13.5879 7.99546L13.5781 8.02151C13.5781 8.02151 13.484 8.26662 13.3195 8.69615C13.2988 8.74988 13.2772 8.80731 13.254 8.86681C13.2429 8.89701 13.2316 8.92764 13.2192 8.95947C13.2056 8.98922 13.1922 9.0203 13.1786 9.05153C13.1234 9.17808 13.0632 9.31455 12.9989 9.46064C12.9664 9.5345 12.9332 9.60969 12.8986 9.68828C12.8642 9.76643 12.8306 9.84858 12.7892 9.92599C12.7093 10.086 12.6252 10.2541 12.5368 10.4298C12.4923 10.5173 12.4505 10.6106 12.4001 10.6982C12.3502 10.7874 12.2993 10.8774 12.2469 10.968C12.1948 11.0605 12.1421 11.1552 12.0887 11.2497C12.0614 11.2984 12.0345 11.346 12.0064 11.3949C11.9785 11.4419 11.9477 11.488 11.9183 11.5352C11.7966 11.7254 11.6729 11.9208 11.5459 12.1203C11.4087 12.312 11.2688 12.5091 11.127 12.7085C10.9787 12.9046 10.8199 13.0951 10.6618 13.2964C10.6229 13.3476 10.5814 13.3951 10.5387 13.4413C10.4962 13.4893 10.4533 13.5368 10.4114 13.5846C10.3257 13.6803 10.2394 13.7776 10.1532 13.875C9.97503 14.0625 9.78838 14.2456 9.60129 14.4351C9.50346 14.5231 9.40577 14.6121 9.30778 14.7006C9.20817 14.7893 9.11167 14.8841 9.00643 14.9648C8.79921 15.1297 8.5954 15.3095 8.37574 15.4608C8.2677 15.5406 8.15861 15.6196 8.0513 15.6988C7.93896 15.7718 7.82706 15.845 7.71605 15.9182C7.65951 15.9543 7.60386 15.9919 7.54791 16.0278C7.49166 16.0641 7.43379 16.0959 7.37636 16.1301C7.2618 16.198 7.14738 16.2648 7.03327 16.332C6.91841 16.3973 6.80029 16.4548 6.68484 16.5167C6.56836 16.5778 6.4535 16.6403 6.33553 16.6926C6.21757 16.7472 6.10034 16.8015 5.98489 16.856C5.87965 16.9039 5.77338 16.9458 5.66785 16.9901C11.1514 16.4267 16.9334 13.0747 19.213 8.14391Z" fill="url(#paint0_linear_717_12015)"/>
<defs>
<linearGradient id="paint0_linear_717_12015" x1="12.4404" y1="6.01697" x2="12.4404" y2="16.9901" gradientUnits="userSpaceOnUse">
<stop stop-color="#FF5117"/>
<stop offset="1" stop-color="#DC0D28"/>
</linearGradient>
</defs>
</svg>
