<svg width="200" height="67" viewBox="0 0 200 67" fill="none" xmlns="http://www.w3.org/2000/svg">
<g clip-path="url(#clip0_3076_6216)">
<path fill-rule="evenodd" clip-rule="evenodd" d="M52.1441 41.7009C51.3839 43.5199 50.4512 45.2619 49.3588 46.9029C47.5485 49.6593 44.997 53.0902 41.8444 53.1176C39.0368 53.1449 38.3144 51.2902 34.5009 51.3107C30.6874 51.3312 29.8899 53.1517 27.084 53.1261C23.9245 53.0971 21.5063 49.9974 19.6977 47.2427C14.6375 39.5389 14.1081 30.5064 17.2283 25.6938C18.1718 24.1235 19.4862 22.8086 21.0562 21.8647C22.6263 20.9208 24.404 20.3767 26.2335 20.28C29.5842 20.28 31.6899 22.1159 34.4599 22.1159C37.1446 22.1159 38.7841 20.2749 42.6573 20.2749C44.2666 20.3481 45.8399 20.7763 47.2644 21.5285C48.6889 22.2808 49.9295 23.3387 50.8975 24.6264C49.3211 25.4985 48.0276 26.8039 47.17 28.3882C46.3124 29.9725 45.9267 31.7693 46.0584 33.566C46.1901 35.3627 46.8337 37.084 47.9132 38.5262C48.9926 39.9685 50.4626 41.0715 52.1493 41.7044" fill="white"/>
<path fill-rule="evenodd" clip-rule="evenodd" d="M39.7165 17.1991C40.5089 16.235 41.1017 15.1229 41.4602 13.9275C41.8188 12.7322 41.9361 11.4774 41.8051 10.2363C39.2514 10.5389 36.9076 11.7993 35.2472 13.7629C34.4324 14.6806 33.8203 15.7599 33.451 16.9302C33.0817 18.1006 32.9634 19.3357 33.1039 20.5548C34.3869 20.5256 35.647 20.2089 36.7914 19.6282C37.9358 19.0474 38.9354 18.2173 39.7165 17.1991Z" fill="white"/>
<path fill-rule="evenodd" clip-rule="evenodd" d="M87.9071 39.1222C87.0751 39.1211 86.2696 39.4152 85.634 39.9522C84.9532 40.5097 84.4812 41.2814 84.2951 42.1416C84.204 42.4801 84.1519 42.8279 84.1397 43.1782V45.7177C84.1101 46.7527 84.4766 47.7599 85.1644 48.5338C85.4963 48.9061 85.9058 49.2012 86.364 49.3983C86.8222 49.5953 87.318 49.6897 87.8166 49.6747C88.3982 49.6987 88.9766 49.5761 89.4985 49.3183C90.0204 49.0605 90.4692 48.6757 90.8035 48.1991C91.5631 47.046 91.9358 45.6811 91.8675 44.302C91.9228 43.0049 91.5731 41.7228 90.8667 40.6336C90.5387 40.1559 90.0968 39.7673 89.5809 39.5032C89.0651 39.239 88.4916 39.1075 87.9122 39.1205L87.9071 39.1222ZM149.955 38.9122C149.32 38.8935 148.692 39.0538 148.144 39.3749C147.595 39.6959 147.148 40.1646 146.853 40.7275C146.213 41.8362 145.896 43.1025 145.94 44.3822C145.901 45.6447 146.217 46.8928 146.853 47.984C147.153 48.5356 147.596 48.9956 148.137 49.3149C148.677 49.6341 149.294 49.8007 149.922 49.7969C150.549 49.793 151.164 49.6189 151.7 49.293C152.237 48.9671 152.675 48.5016 152.967 47.9464C153.62 46.8533 153.949 45.597 153.915 44.3242C153.951 43.0648 153.638 41.82 153.01 40.7275C152.72 40.1707 152.281 39.7057 151.742 39.385C151.202 39.0642 150.584 38.9005 149.956 38.9122H149.955ZM104.674 39.1222C103.842 39.1206 103.037 39.4148 102.401 39.9522C101.719 40.5099 101.243 41.2811 101.052 42.1416C100.955 42.4794 100.898 42.8272 100.881 43.1782V45.7177C100.853 46.7524 101.219 47.7591 101.906 48.5338C102.238 48.9063 102.648 49.2016 103.106 49.3987C103.565 49.5958 104.061 49.69 104.56 49.6747C105.142 49.6999 105.722 49.578 106.245 49.3201C106.768 49.0622 107.217 48.6766 107.552 48.1991C108.316 47.0476 108.692 45.6823 108.626 44.302C108.678 43.0046 108.326 41.7231 107.62 40.6336C107.291 40.1562 106.849 39.7679 106.333 39.5038C105.817 39.2397 105.244 39.108 104.664 39.1205L104.674 39.1222ZM69.6337 33.6931H69.5756C69.3604 34.6768 69.0325 35.9884 68.5663 37.7509L66.8073 43.349H72.4908L70.7096 37.7509C70.5166 37.1822 70.1563 35.6656 69.6354 33.6931H69.6337ZM175.669 38.7447C175.133 38.7576 174.608 38.8989 174.138 39.1569C173.669 39.4149 173.267 39.782 172.969 40.2272C172.363 41.0141 172.013 41.9676 171.965 42.9596H179.028C179.094 42.014 178.865 41.0711 178.372 40.2613C178.097 39.7914 177.702 39.4036 177.226 39.1379C176.751 38.8722 176.213 38.7382 175.669 38.7499V38.7447ZM75.0662 51.8196L73.0903 45.7126H66.2181L64.3293 51.8196H60.8181L67.6253 30.737H71.8367L78.685 51.8196H75.0662ZM93.2013 50.3424C92.6042 50.9913 91.8758 51.5056 91.0646 51.8513C90.2534 52.197 89.3779 52.3661 88.4963 52.3474C87.6425 52.4058 86.7885 52.2354 86.0224 51.8538C85.2563 51.4723 84.6058 50.8934 84.138 50.1768V58.3263H80.789V41.7607C80.789 40.128 80.7105 38.6253 80.6182 36.6562H83.6018L83.7896 39.2179H83.8477C84.3848 38.3424 85.1458 37.6261 86.0521 37.1428C86.9584 36.6594 87.9772 36.4266 89.0035 36.4682C89.8668 36.4536 90.722 36.6368 91.5036 37.0039C92.2851 37.371 92.9721 37.9122 93.5121 38.586C94.7706 40.1784 95.4111 42.1721 95.3155 44.1995C95.4401 46.4447 94.6813 48.6495 93.2013 50.3424ZM109.967 50.3424C109.367 50.9914 108.637 51.5057 107.824 51.8513C107.01 52.197 106.133 52.3661 105.25 52.3474C104.395 52.4047 103.54 52.2334 102.773 51.851C102.006 51.4686 101.355 50.8891 100.886 50.1717V58.3212H97.5357V41.7556C97.5357 40.1229 97.4759 38.6201 97.3922 36.651H100.374L100.572 39.2127H100.63C101.167 38.3376 101.927 37.6215 102.832 37.1382C103.737 36.6548 104.755 36.4218 105.781 36.4631C106.644 36.4473 107.499 36.6301 108.281 36.9972C109.062 37.3644 109.749 37.9062 110.288 38.5808C111.55 40.1714 112.192 42.1661 112.095 44.1944C112.218 46.4419 111.457 48.6484 109.975 50.3424H109.967ZM129.557 50.462C127.935 51.7791 125.877 52.4397 123.791 52.3132C121.875 52.4045 119.973 51.9477 118.308 50.9965L119.095 48.1718C120.575 49.049 122.267 49.5055 123.988 49.492C125.053 49.5553 126.108 49.2501 126.975 48.6277C127.322 48.3522 127.599 47.9989 127.784 47.5962C127.968 47.1936 128.056 46.753 128.039 46.3103C128.046 45.91 127.972 45.5124 127.821 45.1414C127.671 44.7704 127.447 44.4337 127.163 44.1517C126.31 43.4156 125.317 42.8602 124.244 42.519C120.543 41.1414 118.691 39.1227 118.688 36.4631C118.668 35.6494 118.833 34.8417 119.172 34.1017C119.512 33.3617 120.015 32.7091 120.646 32.1936C122.121 31.0295 123.967 30.4386 125.844 30.5303C127.503 30.4741 129.151 30.8173 130.65 31.531L129.796 34.296C128.546 33.634 127.149 33.2991 125.735 33.3225C124.725 33.2681 123.729 33.5791 122.929 34.1986C122.658 34.4391 122.441 34.7348 122.294 35.0659C122.147 35.397 122.072 35.7558 122.075 36.1182C122.069 36.5154 122.153 36.9088 122.321 37.2686C122.49 37.6284 122.738 37.9452 123.047 38.1949C123.979 38.8963 125.017 39.4456 126.121 39.8224C127.645 40.3545 129.022 41.2372 130.143 42.3995C131.013 43.4194 131.473 44.7274 131.43 46.0678C131.457 46.8933 131.303 47.7146 130.979 48.4741C130.654 49.2336 130.167 49.9126 129.552 50.4636L129.557 50.462ZM141.477 39.4108H137.93V46.7014C137.93 48.5799 138.514 49.5158 139.833 49.5158C140.326 49.5288 140.819 49.479 141.3 49.3673L141.375 51.929C140.522 52.2089 139.627 52.3372 138.729 52.3081C138.144 52.3417 137.557 52.2498 137.01 52.0386C136.462 51.8275 135.966 51.5019 135.555 51.0836C134.668 49.9062 134.25 48.441 134.383 46.9729V39.4125H132.216V36.6544H134.383V33.9476L137.93 32.9416V36.6493H141.477V39.4108ZM155.425 50.0299C154.717 50.799 153.851 51.4048 152.886 51.8053C151.92 52.2058 150.879 52.3913 149.835 52.3491C148.833 52.3941 147.833 52.2178 146.906 51.8326C145.98 51.4474 145.149 50.8628 144.474 50.1204C143.122 48.5671 142.411 46.558 142.485 44.5C142.398 42.3734 143.132 40.2948 144.534 38.6936C145.238 37.9373 146.098 37.3437 147.055 36.9541C148.012 36.5645 149.042 36.3881 150.074 36.4375C151.084 36.3938 152.09 36.5709 153.024 36.9561C153.958 37.3413 154.796 37.9254 155.481 38.6679C156.815 40.2148 157.51 42.2116 157.425 44.2525C157.509 46.3632 156.793 48.4279 155.42 50.0333L155.425 50.0299ZM167.683 39.7233C167.323 39.6576 166.957 39.629 166.59 39.6379C166.052 39.6132 165.516 39.7237 165.031 39.9594C164.546 40.1951 164.128 40.5484 163.815 40.9871C163.217 41.8742 162.918 42.929 162.961 43.9979V51.8248H159.612V41.5439C159.612 39.7951 159.539 38.2307 159.481 36.6544H162.43L162.557 39.8053H162.649C162.969 38.8343 163.557 37.9734 164.345 37.3221C165.058 36.7795 165.926 36.4801 166.823 36.4682C167.112 36.4531 167.402 36.4605 167.69 36.4904V39.72L167.683 39.7233ZM182.14 45.3232H171.967C171.957 45.9597 172.084 46.5909 172.338 47.1744C172.593 47.7579 172.969 48.2802 173.442 48.7063C174.391 49.439 175.571 49.8074 176.769 49.7447C178.175 49.7599 179.571 49.5072 180.883 49.0001L181.417 51.3501C179.793 52.013 178.048 52.3311 176.294 52.2842C175.272 52.3407 174.249 52.1846 173.29 51.826C172.332 51.4674 171.457 50.914 170.723 50.2007C170.031 49.4478 169.495 48.5647 169.147 47.6027C168.799 46.6407 168.646 45.6191 168.696 44.5974C168.623 42.5178 169.288 40.4794 170.575 38.8439C171.212 38.0475 172.028 37.4115 172.955 36.9871C173.883 36.5627 174.897 36.3616 175.917 36.4C176.889 36.3447 177.858 36.5405 178.732 36.9685C179.607 37.3965 180.356 38.0424 180.909 38.8439C181.844 40.294 182.315 41.9948 182.259 43.7196C182.267 44.2574 182.225 44.7947 182.135 45.3249L182.14 45.3232Z" fill="white"/>
<path d="M70.5132 25.1916C69.6581 25.5321 68.7414 25.6904 67.8217 25.6562C67.1143 25.7161 66.4024 25.6222 65.7348 25.3809C65.0672 25.1396 64.4598 24.7566 63.9542 24.2583C63.4486 23.76 63.0568 23.1582 62.8059 22.4942C62.5549 21.8302 62.4506 21.1197 62.5002 20.4116C62.4616 19.6729 62.5797 18.9345 62.8468 18.2447C63.1139 17.555 63.5239 16.9296 64.0499 16.4095C64.5759 15.8895 65.2059 15.4866 65.8987 15.2274C66.5914 14.9682 67.3312 14.8586 68.0693 14.9056C68.9385 14.8736 69.804 15.0321 70.6054 15.3701L70.1887 16.885C69.5408 16.6105 68.8429 16.4738 68.1393 16.4836C67.6365 16.4547 67.1334 16.5356 66.665 16.7207C66.1965 16.9058 65.774 17.1907 65.4268 17.5555C65.0795 17.9203 64.8158 18.3564 64.654 18.8333C64.4922 19.3103 64.4362 19.8167 64.4898 20.3175C64.4388 20.8129 64.4968 21.3135 64.6596 21.7841C64.8224 22.2548 65.0862 22.6841 65.4324 23.0421C65.7786 23.4 66.1989 23.6778 66.6639 23.8562C67.1288 24.0346 67.6272 24.1092 68.124 24.0747C68.8334 24.0846 69.5377 23.9528 70.1955 23.6871L70.5064 25.1883L70.5132 25.1916Z" fill="white"/>
<path d="M73.9613 17.9678V21.0931H74.2396L76.5588 17.9678H78.825L75.8261 21.2776C76.8611 21.4313 77.4964 22.2527 78.0053 23.4567C78.2392 24.0152 78.5176 24.8485 78.8592 25.506H76.8798C76.6058 24.9894 76.3728 24.4521 76.1831 23.899C76.0792 23.4595 75.8277 23.0691 75.4705 22.7927C75.1134 22.5164 74.6722 22.371 74.2208 22.3808H73.9732V25.506H72.0707V17.9747L73.9613 17.9678Z" fill="white"/>
<path d="M84.0458 21.8187C82.7018 21.788 81.4158 22.0818 81.4158 23.226C81.403 23.3714 81.4223 23.5178 81.4721 23.6549C81.522 23.7921 81.6014 23.9168 81.7046 24.02C81.8078 24.1232 81.9324 24.2025 82.0696 24.2524C82.2067 24.3023 82.3531 24.3215 82.4985 24.3087C82.8241 24.3156 83.1434 24.2189 83.4104 24.0326C83.6774 23.8463 83.8784 23.58 83.9843 23.2721C84.0257 23.1371 84.0458 22.9965 84.0441 22.8554V21.8187H84.0458ZM84.2934 25.4991L84.1705 24.6639H84.1226C83.8526 24.9884 83.5126 25.2475 83.1281 25.4217C82.7436 25.596 82.3245 25.6808 81.9025 25.6698C81.5975 25.6878 81.2921 25.6431 81.005 25.5384C80.718 25.4337 80.4554 25.2712 80.2336 25.0611C80.0117 24.8509 79.8354 24.5976 79.7153 24.3166C79.5952 24.0357 79.5341 23.733 79.5355 23.4275C79.5355 21.525 81.2211 20.5652 84.0048 20.5823V20.4576C84.0048 19.9624 83.8033 19.1444 82.4678 19.1444C81.755 19.1457 81.0556 19.3379 80.4423 19.7011L80.0718 18.4646C80.9043 18.0073 81.8427 17.7775 82.7923 17.7986C83.2176 17.7505 83.6483 17.8 84.0516 17.9432C84.4549 18.0865 84.8203 18.3196 85.1201 18.6252C85.4198 18.9307 85.646 19.3005 85.7816 19.7065C85.9171 20.1125 85.9583 20.544 85.9022 20.9683V23.6905C85.8929 24.2952 85.9288 24.8998 86.0098 25.4991H84.2934Z" fill="white"/>
<path d="M89.5056 17.9678V20.3349C89.5056 21.2315 89.8301 21.7574 90.8206 21.7574C91.2809 21.7512 91.7286 21.606 92.1048 21.3407V17.9678H94.0056V25.4992H92.1048V22.6079H92.0741C91.4754 22.9489 90.7973 23.1256 90.1084 23.1202C89.7641 23.1546 89.4165 23.1107 89.0915 22.9918C88.7666 22.8729 88.4727 22.682 88.232 22.4335C87.9912 22.185 87.8097 21.8852 87.7011 21.5567C87.5925 21.2282 87.5595 20.8794 87.6048 20.5363V17.9747L89.5056 17.9678Z" fill="white"/>
<path d="M97.8277 17.9678V20.6747C97.8277 21.8701 97.7799 22.6711 97.7201 23.7214H97.7662C98.1675 22.8384 98.4015 22.2834 98.7909 21.5013L100.647 17.9747H102.939V25.506H101.131V22.8129C101.131 21.6054 101.177 21.0504 101.254 19.6261H101.19C100.82 20.5227 100.572 21.064 100.202 21.7916C99.614 22.905 98.9344 24.2662 98.2837 25.5027H96.0106V17.9712L97.8277 17.9678Z" fill="white"/>
<path d="M106.814 21.0144H107.603C108.577 21.0144 109.381 20.7361 109.381 20.0239C109.381 19.4194 108.855 19.0949 107.726 19.0949C107.421 19.0977 107.117 19.1187 106.814 19.158V21.0144ZM106.797 24.3531C107.106 24.3866 107.416 24.4026 107.726 24.401C108.592 24.401 109.644 24.167 109.644 23.2874C109.644 22.4335 108.809 22.1569 107.618 22.1569H106.799L106.797 24.3531ZM104.956 18.0599C105.861 17.9336 106.774 17.8708 107.688 17.8721C108.956 17.8721 111.246 18.0429 111.246 19.7746C111.231 20.1923 111.066 20.5906 110.782 20.8973C110.498 21.2041 110.114 21.3989 109.699 21.4464V21.4755C110.812 21.6463 111.577 22.2645 111.577 23.3182C111.577 25.3897 108.857 25.5913 107.342 25.5913C106.397 25.5913 105.393 25.5281 104.951 25.4837V18.0599H104.956Z" fill="white"/>
<path d="M117.177 21.8188C115.83 21.788 114.549 22.0818 114.549 23.2261C114.536 23.3715 114.555 23.5181 114.604 23.6554C114.654 23.7927 114.734 23.9174 114.837 24.0206C114.94 24.1239 115.065 24.2033 115.202 24.2531C115.339 24.3029 115.486 24.3218 115.631 24.3088C115.957 24.3152 116.276 24.2184 116.542 24.0321C116.809 23.8458 117.01 23.5797 117.116 23.2721C117.158 23.1373 117.179 22.9967 117.179 22.8554V21.8188H117.177ZM117.425 25.4991L117.3 24.664H117.254C116.983 24.9881 116.643 25.2469 116.259 25.421C115.874 25.5952 115.456 25.6803 115.034 25.6699C114.729 25.6876 114.423 25.6427 114.136 25.5379C113.85 25.4331 113.587 25.2707 113.365 25.0606C113.144 24.8505 112.967 24.5972 112.847 24.3164C112.727 24.0355 112.665 23.733 112.667 23.4275C112.667 21.5251 114.352 20.5653 117.138 20.5823V20.4577C117.138 19.9624 116.936 19.1444 115.601 19.1444C114.888 19.1454 114.188 19.3376 113.575 19.7011L113.203 18.4647C114.036 18.0077 114.975 17.778 115.925 17.7986C116.35 17.7505 116.781 17.8 117.184 17.9432C117.588 18.0864 117.953 18.3196 118.253 18.6252C118.552 18.9308 118.778 19.3006 118.914 19.7066C119.049 20.1126 119.09 20.5441 119.033 20.9683V23.6905C119.024 24.2952 119.06 24.8998 119.141 25.4991H117.425Z" fill="white"/>
<path d="M123.626 14.8887C123.656 15.5547 123.936 16.0193 124.461 16.0193C125.019 16.0193 125.298 15.5547 125.357 14.8887H126.611C126.62 15.1719 126.569 15.454 126.461 15.716C126.353 15.978 126.191 16.2141 125.985 16.4087C125.779 16.6034 125.534 16.7522 125.266 16.8452C124.998 16.9382 124.714 16.9734 124.432 16.9484C124.155 16.9711 123.876 16.9336 123.615 16.8383C123.354 16.743 123.117 16.5923 122.92 16.3965C122.723 16.2008 122.571 15.9646 122.474 15.7043C122.377 15.444 122.338 15.1657 122.358 14.8887H123.626ZM122.837 17.9628V20.6696C122.837 21.865 122.791 22.666 122.729 23.7163H122.777C123.178 22.8333 123.411 22.2783 123.802 21.4962L125.658 17.9696H127.962V25.501H126.151V22.8112C126.151 21.6038 126.199 21.047 126.276 19.6244H126.216C125.846 20.521 125.598 21.0624 125.228 21.7899C124.638 22.9034 123.957 24.2646 123.308 25.501H121.035V17.9696L122.837 17.9628Z" fill="white"/>
<path d="M135.507 17.9678V19.4366H133.249V25.4992H131.347V19.4366H129.089V17.9678H135.507Z" fill="white"/>
<path d="M141.09 20.9358C141.121 20.7102 141.104 20.4804 141.041 20.2616C140.977 20.0429 140.868 19.84 140.721 19.6662C140.574 19.4925 140.391 19.3517 140.186 19.2533C139.98 19.1548 139.756 19.1008 139.529 19.0948C139.058 19.1233 138.616 19.3292 138.292 19.6708C137.967 20.0125 137.784 20.4646 137.78 20.9358H141.09ZM137.78 22.2662C137.791 22.5512 137.862 22.8307 137.987 23.0868C138.113 23.343 138.29 23.5701 138.509 23.7536C138.727 23.9372 138.981 24.0732 139.255 24.1528C139.529 24.2325 139.816 24.2542 140.099 24.2164C140.811 24.2352 141.519 24.1194 142.188 23.875L142.466 25.1899C141.627 25.5093 140.735 25.667 139.838 25.6545C139.323 25.7019 138.804 25.6366 138.316 25.4633C137.829 25.29 137.385 25.0126 137.016 24.6506C136.647 24.2885 136.361 23.8505 136.177 23.3668C135.994 22.8831 135.919 22.3653 135.956 21.8495C135.911 21.3372 135.973 20.8213 136.138 20.3341C136.302 19.8469 136.565 19.399 136.911 19.0184C137.257 18.6378 137.678 18.3328 138.147 18.1226C138.616 17.9124 139.124 17.8015 139.638 17.7969C140.1 17.7979 140.557 17.8969 140.979 18.0872C141.4 18.2775 141.776 18.5548 142.083 18.901C142.389 19.2472 142.619 19.6544 142.757 20.0958C142.895 20.5371 142.938 21.0027 142.883 21.4618C142.885 21.7307 142.864 21.9992 142.82 22.2644L137.78 22.2662Z" fill="white"/>
<path d="M149.458 21.0144H150.247C151.22 21.0144 152.025 20.7361 152.025 20.0239C152.025 19.4194 151.499 19.0949 150.37 19.0949C150.065 19.0977 149.76 19.1187 149.458 19.158V21.0144ZM149.441 24.3531C149.749 24.3866 150.059 24.4026 150.37 24.401C151.236 24.401 152.288 24.167 152.288 23.2874C152.288 22.4335 151.452 22.1569 150.262 22.1569H149.442V24.3531H149.441ZM147.6 18.0599C148.505 17.9335 149.418 17.8708 150.332 17.8721C151.599 17.8721 153.89 18.0429 153.89 19.7746C153.874 20.1923 153.71 20.5906 153.426 20.8973C153.142 21.2041 152.758 21.3989 152.342 21.4464V21.4755C153.456 21.6463 154.221 22.2645 154.221 23.3182C154.221 25.3897 151.5 25.5913 149.986 25.5913C149.041 25.5913 148.037 25.5281 147.595 25.4837V18.0599H147.6Z" fill="white"/>
</g>
<defs>
<clipPath id="clip0_3076_6216">
<rect width="200" height="66.9951" rx="8" fill="white"/>
</clipPath>
</defs>
</svg>
