<svg width="20" height="19" viewBox="0 0 20 19" fill="none" xmlns="http://www.w3.org/2000/svg">
<path d="M1.94317 13.9772C1.08522 10.5454 0.656247 8.82947 1.55708 7.67577C2.45791 6.52197 4.22662 6.52197 7.76403 6.52197H12.3947C15.9321 6.52197 17.7008 6.52197 18.6016 7.67577C19.5025 8.82947 19.0735 10.5454 18.2156 13.9772C17.6699 16.1599 17.397 17.2512 16.5833 17.8866C15.7695 18.522 14.6446 18.522 12.3947 18.522H7.76403C5.51417 18.522 4.38924 18.522 3.57546 17.8866C2.76168 17.2512 2.48884 16.1599 1.94317 13.9772Z" stroke="#BDBDBD" stroke-width="0.9"/>
<path d="M17.5793 7.02148L16.8689 4.41613C16.595 3.41153 16.458 2.90923 16.1771 2.53094C15.8973 2.15421 15.5171 1.86382 15.0801 1.693C14.6412 1.52148 14.1206 1.52148 13.0793 1.52148M2.57928 7.02148L3.28968 4.41613C3.5636 3.41153 3.70056 2.90923 3.98149 2.53094C4.26127 2.15421 4.64144 1.86382 5.0785 1.693C5.51736 1.52148 6.038 1.52148 7.07928 1.52148" stroke="#BDBDBD" stroke-width="0.9"/>
<path d="M7.07959 1.52197C7.07959 0.969693 7.52731 0.521973 8.07959 0.521973H12.0796C12.6319 0.521973 13.0796 0.969693 13.0796 1.52197C13.0796 2.07425 12.6319 2.52197 12.0796 2.52197H8.07959C7.52731 2.52197 7.07959 2.07425 7.07959 1.52197Z" stroke="#BDBDBD" stroke-width="0.9"/>
</svg>
