<svg width="51" height="50" viewBox="0 0 51 50" fill="none" xmlns="http://www.w3.org/2000/svg">
<circle cx="25.5986" cy="25" r="24" stroke="#FF453A" stroke-width="2"/>
<path d="M17.4624 29.4552C16.6044 26.0234 16.1755 24.3075 17.0763 23.1538C17.9771 22 19.7458 22 23.2833 22H27.9139C31.4513 22 33.22 22 34.1208 23.1538C35.0217 24.3075 34.5927 26.0234 33.7348 29.4552C33.1891 31.6379 32.9162 32.7292 32.1025 33.3646C31.2887 34 30.1638 34 27.9139 34H23.2833C21.0334 34 19.9085 34 19.0947 33.3646C18.2809 32.7292 18.0081 31.6379 17.4624 29.4552Z" stroke="#FF453A" stroke-width="1.5"/>
<path d="M33.0986 22.5L32.3882 19.8946C32.1143 18.89 31.9773 18.3877 31.6964 18.0095C31.4166 17.6327 31.0364 17.3423 30.5994 17.1715C30.1605 17 29.6399 17 28.5986 17M18.0986 22.5L18.809 19.8946C19.083 18.89 19.2199 18.3877 19.5008 18.0095C19.7806 17.6327 20.1608 17.3423 20.5979 17.1715C21.0367 17 21.5574 17 22.5986 17" stroke="#FF453A" stroke-width="1.5"/>
<path d="M22.5986 17C22.5986 16.4477 23.0464 16 23.5986 16H27.5986C28.1509 16 28.5986 16.4477 28.5986 17C28.5986 17.5523 28.1509 18 27.5986 18H23.5986C23.0464 18 22.5986 17.5523 22.5986 17Z" stroke="#FF453A" stroke-width="1.5"/>
</svg>
