<svg width="24" height="25" viewBox="0 0 24 25" fill="none" xmlns="http://www.w3.org/2000/svg">
<path d="M3.86376 16.9552C3.00581 13.5234 2.57684 11.8075 3.47767 10.6538C4.3785 9.5 6.14721 9.5 9.68462 9.5H14.3153C17.8527 9.5 19.6214 9.5 20.5222 10.6538C21.4231 11.8075 20.9941 13.5234 20.1362 16.9552C19.5905 19.1379 19.3176 20.2292 18.5039 20.8646C17.6901 21.5 16.5652 21.5 14.3153 21.5H9.68462C7.43476 21.5 6.30983 21.5 5.49605 20.8646C4.68227 20.2292 4.40943 19.1379 3.86376 16.9552Z" stroke="#00FF0A" stroke-width="1.5"/>
<path d="M19.5 10L18.7896 7.39465C18.5157 6.39005 18.3787 5.88775 18.0978 5.50946C17.818 5.13273 17.4378 4.84234 17.0008 4.67152C16.5619 4.5 16.0413 4.5 15 4.5M4.5 10L5.2104 7.39465C5.48432 6.39005 5.62128 5.88775 5.90221 5.50946C6.18199 5.13273 6.56216 4.84234 6.99922 4.67152C7.43808 4.5 7.95872 4.5 9 4.5" stroke="#00FF0A" stroke-width="1.5"/>
<path d="M9 4.5C9 3.94772 9.44772 3.5 10 3.5H14C14.5523 3.5 15 3.94772 15 4.5C15 5.05228 14.5523 5.5 14 5.5H10C9.44772 5.5 9 5.05228 9 4.5Z" stroke="#00FF0A" stroke-width="1.5"/>
</svg>
