<svg width="19" height="20" viewBox="0 0 19 20" fill="none" xmlns="http://www.w3.org/2000/svg">
<rect y="0.5" width="19" height="19" rx="9.5" fill="#FF453A"/>
<path d="M8.28847 13.2575C8.21154 13.2572 8.13548 13.2411 8.06502 13.2102C7.99456 13.1794 7.9312 13.1343 7.87889 13.0779L5.15209 10.1772C5.05015 10.0685 4.99555 9.92388 5.00028 9.77499C5.00263 9.70127 5.01947 9.62873 5.04985 9.56152C5.08023 9.4943 5.12355 9.43373 5.17733 9.38326C5.23112 9.33279 5.29432 9.29341 5.36333 9.26736C5.43234 9.24131 5.5058 9.22911 5.57952 9.23146C5.72841 9.23619 5.86932 9.29988 5.97125 9.40851L8.28286 11.8716L13.0015 6.70976C13.0493 6.65013 13.1089 6.60092 13.1765 6.56515C13.2441 6.52938 13.3183 6.50781 13.3945 6.50176C13.4708 6.49571 13.5474 6.50531 13.6198 6.52997C13.6922 6.55462 13.7588 6.59382 13.8155 6.64515C13.8722 6.69648 13.9178 6.75886 13.9495 6.82845C13.9812 6.89804 13.9984 6.97338 13.9999 7.04985C14.0014 7.12631 13.9873 7.20227 13.9584 7.27308C13.9295 7.34389 13.8864 7.40804 13.8318 7.46159L8.70366 13.0723C8.65184 13.1297 8.58871 13.1758 8.51822 13.2077C8.44774 13.2395 8.37142 13.2565 8.29408 13.2575H8.28847Z" fill="white"/>
</svg>
