<svg width="9" height="8" viewBox="0 0 9 8" fill="none" xmlns="http://www.w3.org/2000/svg">
<path d="M3.28847 7.25745C3.21154 7.2572 3.13548 7.24114 3.06502 7.21025C2.99456 7.17936 2.9312 7.13432 2.87889 7.07791L0.152085 4.17717C0.0501536 4.06855 -0.00445081 3.92388 0.000284134 3.77499C0.00262864 3.70127 0.0194708 3.62873 0.049849 3.56152C0.0802271 3.4943 0.123546 3.43373 0.177333 3.38326C0.23112 3.33279 0.294322 3.29341 0.363329 3.26736C0.432336 3.24131 0.505798 3.22911 0.57952 3.23146C0.728407 3.23619 0.869316 3.29988 0.971248 3.40851L3.28286 5.87161L8.00146 0.709759C8.04934 0.65013 8.10891 0.60092 8.17651 0.565151C8.24411 0.529382 8.3183 0.50781 8.39454 0.501759C8.47077 0.495708 8.54744 0.505307 8.61983 0.529965C8.69223 0.554623 8.75881 0.593821 8.81551 0.64515C8.8722 0.696479 8.9178 0.758856 8.94951 0.82845C8.98121 0.898043 8.99836 0.973385 8.99989 1.04985C9.00142 1.12631 8.9873 1.20227 8.9584 1.27308C8.9295 1.34389 8.88644 1.40804 8.83184 1.46159L3.70366 7.0723C3.65184 7.12973 3.58871 7.17582 3.51822 7.20768C3.44774 7.23954 3.37142 7.25649 3.29408 7.25745H3.28847Z" fill="white"/>
</svg>
