<svg width="25" height="25" viewBox="0 0 25 25" fill="none" xmlns="http://www.w3.org/2000/svg">
<g clip-path="url(#clip0_1304_6653)">
<path d="M12.6992 0.5C6.08244 0.5 0.699219 5.88322 0.699219 12.5C0.699219 19.1168 6.08244 24.5 12.6992 24.5C19.316 24.5 24.6992 19.1168 24.6992 12.5C24.6992 5.88322 19.316 0.5 12.6992 0.5ZM12.6992 22.6679C7.0925 22.6679 2.53128 18.1064 2.53128 12.5C2.53128 6.89328 7.0925 2.33206 12.6992 2.33206C18.3056 2.33206 22.8672 6.89328 22.8672 12.5C22.8672 18.1067 18.3056 22.6679 12.6992 22.6679Z" fill="#BDBDBD"/>
<path d="M15.7285 14.2338L13.6153 12.1205V7.76723C13.6153 7.26126 13.2052 6.8512 12.6992 6.8512C12.1933 6.8512 11.7832 7.26126 11.7832 7.76723V12.5001C11.7832 12.7431 11.8797 12.9758 12.0516 13.1477L14.4333 15.5294C14.6122 15.7083 14.8464 15.7978 15.0809 15.7978C15.3151 15.7978 15.5496 15.7083 15.7285 15.5291C16.0864 15.1715 16.0864 14.5913 15.7285 14.2338Z" fill="#BDBDBD"/>
</g>
<defs>
<clipPath id="clip0_1304_6653">
<rect width="24" height="24" fill="white" transform="translate(0.699219 0.5)"/>
</clipPath>
</defs>
</svg>
