<svg width="23" height="18" viewBox="0 0 23 18" fill="none" xmlns="http://www.w3.org/2000/svg">
<path d="M15.6823 0.818241C15.7131 0.881709 15.7445 0.961281 15.7828 1.05009C15.8119 1.1434 15.8516 1.24452 15.8745 1.36139C15.8819 1.38969 15.8884 1.41941 15.8955 1.44937C15.9019 1.47897 15.9047 1.51035 15.9101 1.54173C15.9194 1.6046 15.9308 1.66807 15.933 1.7358C15.9373 1.8033 15.9434 1.87091 15.9405 1.9416C15.9397 1.97606 15.9395 2.01206 15.9389 2.04734C15.9382 2.08286 15.9331 2.11898 15.9308 2.15486C15.9275 2.19157 15.9256 2.22733 15.9205 2.26356C15.9147 2.30015 15.9091 2.33662 15.9035 2.37344C15.8945 2.44698 15.8752 2.52051 15.8589 2.59404C15.8426 2.66746 15.818 2.7404 15.7978 2.81381C15.7719 2.88592 15.7501 2.95934 15.7202 3.03074C15.6913 3.10214 15.6639 3.17283 15.6302 3.24246C15.5995 3.31208 15.5644 3.38052 15.5296 3.44719C15.4962 3.51468 15.4564 3.57945 15.4211 3.64411C15.3815 3.70746 15.3454 3.77057 15.3051 3.83096C15.2269 3.95185 15.1467 4.06612 15.0669 4.17115C15.052 4.1914 15.0367 4.21105 15.0215 4.23024C14.8399 4.37079 14.6207 4.50317 14.3833 4.49512C14.1595 4.4879 13.9584 4.3644 13.7453 4.30863C12.9552 4.10259 11.9874 4.51892 11.509 5.16071C11.509 5.16071 12.1339 4.52567 12.9432 4.67262C13.113 4.70424 13.2912 4.76924 13.4735 4.88292C14.5225 5.53512 14.0602 5.93724 15.1435 6.25494C15.3829 6.32527 15.5809 6.41527 15.7399 6.52278C15.7399 6.52278 15.7399 6.52278 15.7404 6.52326C16.2996 6.90288 16.3647 7.49659 15.9912 8.17958C16.0848 8.00848 16.238 7.86378 16.3269 7.67634C16.542 7.22247 16.5623 6.766 16.3563 6.30278C16.172 5.8868 15.7661 5.56899 15.6518 5.1221C15.5626 4.7709 15.6582 4.39175 15.7926 4.06221C15.8018 4.04043 15.8109 4.01816 15.8202 3.99709C15.8391 3.95363 15.857 3.9084 15.8758 3.86399C15.904 3.78715 15.9354 3.71065 15.9614 3.6312C15.9882 3.55198 16.014 3.47229 16.0366 3.39047C16.0607 3.30983 16.0797 3.22635 16.0989 3.14418C16.1183 3.06224 16.1312 2.97686 16.1468 2.89469C16.1571 2.81061 16.1704 2.7282 16.1762 2.64425C16.1819 2.56089 16.1896 2.47895 16.1878 2.39736C16.1877 2.35604 16.1884 2.31578 16.1882 2.27587C16.1868 2.2355 16.1835 2.19571 16.1812 2.15592C16.1779 2.11697 16.1765 2.07742 16.1716 2.03882C16.1663 2.00057 16.1607 1.96268 16.1555 1.92455C16.1475 1.84971 16.1292 1.77701 16.1138 1.7075C16.1009 1.63717 16.0778 1.57062 16.0581 1.50632C16.0475 1.47412 16.0391 1.44226 16.0278 1.41219C16.0158 1.38199 16.004 1.35263 15.992 1.32385C15.9498 1.20675 15.8923 1.10882 15.8482 1.01942C15.7958 0.934047 15.7517 0.860277 15.7114 0.801308C15.6269 0.687516 15.578 0.622864 15.578 0.622864C15.578 0.622864 15.6163 0.693673 15.6823 0.818241Z" fill="#8CC63E"/>
<path d="M15.1437 6.25505C14.0606 5.93735 14.5228 5.53523 13.4737 4.88303C13.2915 4.76935 13.1132 4.70423 12.9433 4.67273C12.0781 4.80239 11.306 5.38082 10.9703 6.25552L10.9625 6.27636C10.9625 6.27636 10.8872 6.47245 10.7556 6.81608C10.739 6.85906 10.7217 6.905 10.7031 6.9526C10.6943 6.97676 10.6853 7.00127 10.6753 7.02673C10.6644 7.05053 10.6538 7.0754 10.6429 7.10038C10.5987 7.20162 10.5505 7.3108 10.4991 7.42767C10.4731 7.48675 10.4465 7.54691 10.4188 7.60978C10.3914 7.6723 10.3645 7.73802 10.3313 7.79995C10.2674 7.92795 10.2001 8.06246 10.1294 8.20302C10.0938 8.273 10.0604 8.3476 10.02 8.4177C9.98013 8.4891 9.93939 8.56109 9.89748 8.63356C9.8558 8.70756 9.81364 8.78335 9.7709 8.85889C9.74911 8.89785 9.72756 8.93598 9.70506 8.97505C9.6828 9.01271 9.65817 9.04953 9.63461 9.08731C9.53727 9.23946 9.43828 9.39577 9.33669 9.55538C9.22692 9.70872 9.11502 9.86645 9.00158 10.0259C8.88294 10.1828 8.75588 10.3352 8.62942 10.4963C8.59828 10.5372 8.56512 10.5753 8.5309 10.6122C8.49692 10.6506 8.46258 10.6886 8.42907 10.7268C8.36051 10.8034 8.29148 10.8812 8.22256 10.9591C8.08 11.1092 7.93068 11.2556 7.78101 11.4072C7.70274 11.4777 7.62459 11.5488 7.5462 11.6196C7.46651 11.6906 7.38931 11.7665 7.30512 11.831C7.13934 11.9629 6.97629 12.1068 6.80057 12.2278C6.71413 12.2916 6.62686 12.3548 6.54102 12.4182C6.45114 12.4766 6.36162 12.5352 6.27282 12.5937C6.22758 12.6226 6.18306 12.6526 6.1383 12.6814C6.09331 12.7104 6.04701 12.7359 6.00106 12.7632C5.90941 12.8176 5.81788 12.871 5.72659 12.9248C5.6347 12.977 5.54021 13.023 5.44785 13.0725C5.35466 13.1214 5.26277 13.1714 5.1684 13.2132C5.07403 13.2569 4.98025 13.3003 4.88789 13.3439C4.79446 13.3863 4.70021 13.4227 4.60678 13.4622C4.42171 13.5429 4.23414 13.6043 4.05191 13.673C3.68484 13.7931 3.32961 13.9001 2.99462 13.9728C2.66 14.0488 2.34692 14.1057 2.0683 14.1415C1.78861 14.1799 1.5422 14.1999 1.33936 14.211C1.13593 14.2229 0.97608 14.2225 0.867735 14.2217C0.814569 14.2205 0.77348 14.2198 0.746483 14.2191C0.733576 14.219 0.723274 14.2185 0.715341 14.2183C0.708118 14.2173 0.70421 14.2171 0.70421 14.2171L0.702789 14.2167C0.621323 14.2121 0.54258 14.2601 0.512504 14.3401C0.474967 14.439 0.524818 14.5497 0.623573 14.587C0.623573 14.587 0.626651 14.5878 0.634348 14.5905C0.641216 14.5935 0.65282 14.5974 0.666674 14.6025C0.695685 14.6121 0.738904 14.6267 0.795505 14.6454C0.907166 14.6801 1.07069 14.7315 1.28111 14.7828C1.49223 14.8353 1.7506 14.8924 2.0503 14.9413C2.35012 14.9937 2.69149 15.0352 3.06934 15.0642C3.44636 15.0953 3.85784 15.1005 4.29785 15.0914C4.51584 15.0797 4.74355 15.0745 4.97445 15.0495C5.0893 15.0379 5.207 15.0296 5.32553 15.0148C5.44347 14.9989 5.56283 14.9827 5.68289 14.9663C5.8045 14.9517 5.92469 14.9279 6.04653 14.9058C6.16826 14.8825 6.292 14.8623 6.41526 14.8353C6.539 14.8066 6.66298 14.778 6.78707 14.7489C6.84959 14.7337 6.91306 14.7203 6.97511 14.7032C7.03656 14.6856 7.09885 14.6682 7.16113 14.6506C7.28665 14.6142 7.41204 14.5781 7.53768 14.542C7.66213 14.5 7.78693 14.4575 7.91162 14.4151C8.16501 14.3342 8.40764 14.2284 8.65796 14.1302C8.78359 14.0828 8.902 14.0228 9.02456 13.9681C9.14652 13.9112 9.26789 13.8544 9.38938 13.798C9.62525 13.6749 9.86349 13.5517 10.0959 13.4218C10.2102 13.3539 10.323 13.286 10.4365 13.2183C10.493 13.184 10.5491 13.1502 10.606 13.1162C10.6628 13.0831 10.7188 13.048 10.7719 13.0117C10.9867 12.8655 11.2045 12.7231 11.4106 12.5746C11.6138 12.4212 11.8137 12.2705 12.0093 12.1224C12.1963 11.9649 12.3797 11.8105 12.5584 11.6605C12.6029 11.6227 12.6489 11.5855 12.6914 11.5468C12.7326 11.508 12.7745 11.4697 12.8161 11.4306C12.8985 11.3534 12.9803 11.2774 13.0601 11.202C13.1405 11.1269 13.2195 11.0524 13.2969 10.9799C13.3742 10.9069 13.4434 10.8309 13.515 10.7584C13.6565 10.6118 13.7916 10.4706 13.9205 10.3371C13.9869 10.2706 14.0448 10.2024 14.1022 10.1373C14.1598 10.0713 14.2157 10.0068 14.2694 9.94495C14.3782 9.82039 14.4802 9.70375 14.5737 9.59541C14.5974 9.56841 14.6205 9.54177 14.643 9.51619C14.6644 9.48931 14.6845 9.46302 14.7047 9.43768C14.7457 9.38677 14.7844 9.33822 14.8206 9.29239C15.1143 8.92011 15.2818 8.70768 15.2818 8.70768C15.4316 8.51621 15.5632 8.29088 15.6547 8.05193C15.8497 7.54395 15.8684 7.0124 15.7408 6.52325C15.7403 6.52277 15.7403 6.52277 15.7403 6.52277C15.5811 6.41549 15.3832 6.32538 15.1437 6.25505Z" fill="#DC0D28"/>
<path d="M16.1557 1.92455C16.1477 1.84971 16.1294 1.77701 16.1141 1.7075C16.1011 1.63717 16.0781 1.57062 16.0583 1.50632C16.0477 1.47412 16.0393 1.44226 16.028 1.41219C16.016 1.38199 16.0042 1.35263 15.9922 1.32385C15.9501 1.20675 15.8925 1.10882 15.8485 1.01942C15.796 0.934047 15.752 0.860277 15.7116 0.801309C15.6271 0.687516 15.5782 0.622864 15.5782 0.622864C15.5782 0.622864 15.6163 0.693673 15.6823 0.818241C15.7131 0.881709 15.7445 0.961281 15.7827 1.05009C15.8119 1.1434 15.8515 1.24452 15.8745 1.36139C15.8819 1.38969 15.8884 1.41941 15.8955 1.44937C15.9019 1.47897 15.9047 1.51035 15.91 1.54173C15.9168 1.58708 15.9234 1.63302 15.9282 1.68027C16.0341 1.78388 16.1152 1.90833 16.1717 2.03751C16.1664 1.99998 16.1607 1.96244 16.1557 1.92455Z" fill="#8CC63E"/>
<path d="M15.652 5.12223C15.5629 4.77102 15.6584 4.39187 15.7928 4.06234C15.8021 4.04055 15.8112 4.01829 15.8204 3.99721C15.8394 3.95375 15.8572 3.90852 15.8761 3.86412C15.9042 3.78727 15.9356 3.71078 15.9617 3.63132C15.9884 3.55211 16.0143 3.47242 16.0369 3.39059C16.0609 3.30996 16.08 3.22648 16.0992 3.1443C16.1186 3.06236 16.1315 2.97699 16.147 2.89481C16.1573 2.81074 16.1707 2.72833 16.1765 2.64437C16.1822 2.56101 16.1899 2.47907 16.1881 2.39749C16.188 2.35616 16.1887 2.3159 16.1884 2.276C16.187 2.23562 16.1837 2.19583 16.1814 2.15605C16.1781 2.11709 16.1767 2.07754 16.1719 2.03894C16.1719 2.03847 16.1719 2.03835 16.1717 2.03776C16.1153 1.90845 16.0343 1.78412 15.9282 1.68051C15.9301 1.69898 15.9327 1.71698 15.933 1.73605C15.9373 1.80354 15.9434 1.87115 15.9405 1.94184C15.9397 1.9763 15.9395 2.0123 15.9389 2.04758C15.9382 2.08311 15.9331 2.11922 15.9308 2.1551C15.9275 2.19181 15.9256 2.22757 15.9205 2.2638C15.9147 2.30039 15.9091 2.33686 15.9035 2.37369C15.8945 2.44722 15.8752 2.52075 15.8589 2.59428C15.8426 2.6677 15.818 2.74064 15.7978 2.81405C15.7719 2.88617 15.7501 2.95958 15.7202 3.03098C15.6913 3.10238 15.6639 3.17308 15.6302 3.2427C15.5995 3.31233 15.5644 3.38077 15.5296 3.44743C15.4962 3.51493 15.4564 3.5797 15.4211 3.64435C15.3815 3.7077 15.3454 3.77081 15.3051 3.8312C15.2269 3.9521 15.1467 4.06636 15.0669 4.17139C15.052 4.19164 15.0367 4.2113 15.0215 4.23048C14.8399 4.37103 14.6207 4.50342 14.3833 4.49536C14.1595 4.48814 13.9584 4.36464 13.7453 4.30887C12.9552 4.10283 11.9874 4.51916 11.509 5.16095C11.509 5.16095 12.1339 4.52591 12.9432 4.67286C13.113 4.70448 13.2912 4.76948 13.4735 4.88316C14.5225 5.53536 14.0602 5.93748 15.1435 6.25518C15.2625 6.29011 15.3714 6.3299 15.4702 6.37442C15.6022 6.08881 15.7198 5.79681 15.8212 5.49818C15.7477 5.38048 15.6865 5.25722 15.652 5.12223Z" fill="#8CC63E"/>
<path d="M15.4704 6.37429C15.3716 6.32976 15.2627 6.28998 15.1437 6.25505C14.0606 5.93735 14.5228 5.53523 13.4737 4.88303C13.2915 4.76935 13.1132 4.70423 12.9434 4.67273C12.0781 4.80239 11.306 5.38082 10.9703 6.25552L10.9625 6.27636C10.9625 6.27636 10.8872 6.47245 10.7556 6.81608C10.739 6.85906 10.7218 6.905 10.7032 6.9526C10.6943 6.97676 10.6853 7.00127 10.6753 7.02673C10.6644 7.05053 10.6538 7.0754 10.6429 7.10038C10.5987 7.20162 10.5505 7.3108 10.4991 7.42767C10.4731 7.48675 10.4466 7.54691 10.4189 7.60978C10.3914 7.6723 10.3645 7.73802 10.3314 7.79995C10.2674 7.92795 10.2002 8.06246 10.1295 8.20302C10.0938 8.273 10.0604 8.3476 10.0201 8.4177C9.98015 8.4891 9.93942 8.56109 9.8975 8.63356C9.85582 8.70756 9.81367 8.78335 9.77092 8.85889C9.74913 8.89785 9.72758 8.93598 9.70508 8.97505C9.68282 9.01271 9.65819 9.04953 9.63463 9.08731C9.5373 9.23946 9.43831 9.39577 9.33671 9.55538C9.22694 9.70872 9.11505 9.86645 9.00161 10.0259C8.88296 10.1828 8.75591 10.3352 8.62944 10.4963C8.5983 10.5372 8.56515 10.5753 8.53093 10.6122C8.49694 10.6506 8.4626 10.6886 8.42909 10.7268C8.36053 10.8034 8.2915 10.8812 8.22259 10.9591C8.08002 11.1092 7.9307 11.2556 7.78103 11.4072C7.70276 11.4777 7.62461 11.5488 7.54623 11.6196C7.46654 11.6906 7.38933 11.7665 7.30514 11.831C7.13937 11.9629 6.97632 12.1068 6.8006 12.2278C6.71416 12.2916 6.62689 12.3548 6.54104 12.4182C6.45117 12.4766 6.36165 12.5352 6.27284 12.5937C6.22761 12.6226 6.18309 12.6526 6.13833 12.6814C6.09333 12.7104 6.04703 12.7359 6.00109 12.7632C5.90944 12.8176 5.81791 12.871 5.72661 12.9248C5.63473 12.977 5.54024 13.023 5.44788 13.0725C5.35469 13.1214 5.2628 13.1714 5.16843 13.2132C5.07405 13.2569 4.98027 13.3004 4.88791 13.3439C4.80372 13.3823 4.7187 13.4158 4.63428 13.4512C9.02115 13.0005 13.6467 10.3189 15.4704 6.37429Z" fill="url(#paint0_linear_717_11989)"/>
<path d="M21.7845 4.88458C21.8115 4.94011 21.8389 5.00974 21.8724 5.08744C21.8979 5.16909 21.9326 5.25757 21.9527 5.35983C21.9591 5.3846 21.9648 5.4106 21.971 5.43681C21.9766 5.46272 21.9791 5.49017 21.9838 5.51763C21.9919 5.57265 22.0019 5.62818 22.0039 5.68745C22.0076 5.7465 22.013 5.80566 22.0104 5.86752C22.0097 5.89767 22.0096 5.92917 22.009 5.96004C22.0084 5.99112 22.004 6.02272 22.0019 6.05412C21.999 6.08624 21.9973 6.11753 21.9929 6.14923C21.9878 6.18125 21.9829 6.21316 21.9781 6.24538C21.9702 6.30972 21.9533 6.37406 21.939 6.4384C21.9247 6.50264 21.9033 6.56647 21.8855 6.6307C21.8628 6.6938 21.8438 6.75804 21.8177 6.82051C21.7924 6.88299 21.7684 6.94485 21.7389 7.00577C21.712 7.06669 21.6813 7.12658 21.6509 7.18491C21.6216 7.24397 21.5868 7.30064 21.556 7.35721C21.5212 7.41264 21.4896 7.46786 21.4544 7.5207C21.386 7.62649 21.3158 7.72647 21.246 7.81837C21.233 7.83609 21.2195 7.85329 21.2063 7.87007C21.0473 7.99306 20.8556 8.10889 20.6478 8.10185C20.452 8.09553 20.2761 7.98746 20.0896 7.93866C19.3983 7.75838 18.5514 8.12267 18.1328 8.68424C18.1328 8.68424 18.6797 8.12858 19.3877 8.25716C19.5363 8.28482 19.6922 8.3417 19.8518 8.44117C20.7697 9.01185 20.3652 9.3637 21.313 9.64169C21.5225 9.70323 21.6957 9.78197 21.8349 9.87605C21.8349 9.87605 21.8349 9.87605 21.8353 9.87647C22.3246 10.2086 22.3816 10.7281 22.0547 11.3258C22.1367 11.176 22.2708 11.0494 22.3485 10.8854C22.5367 10.4883 22.5544 10.0889 22.3743 9.68355C22.2129 9.31957 21.8578 9.04148 21.7578 8.65046C21.6798 8.34315 21.7634 8.0114 21.881 7.72305C21.8891 7.70399 21.897 7.68451 21.9051 7.66607C21.9217 7.62804 21.9373 7.58847 21.9538 7.54961C21.9785 7.48237 22.0059 7.41544 22.0287 7.34592C22.0521 7.2766 22.0747 7.20687 22.0945 7.13528C22.1155 7.06472 22.1322 6.99168 22.149 6.91977C22.166 6.84807 22.1773 6.77337 22.1909 6.70147C22.1999 6.62791 22.2116 6.55579 22.2167 6.48233C22.2216 6.40939 22.2284 6.3377 22.2268 6.26631C22.2267 6.23015 22.2273 6.19492 22.2271 6.16001C22.2259 6.12468 22.223 6.08986 22.221 6.05505C22.2181 6.02096 22.2169 5.98636 22.2126 5.95258C22.208 5.91911 22.2031 5.88596 22.1985 5.8526C22.1915 5.78712 22.1755 5.7235 22.1621 5.66268C22.1508 5.60114 22.1306 5.54291 22.1133 5.48665C22.104 5.45847 22.0967 5.4306 22.0867 5.40428C22.0763 5.37786 22.0659 5.35217 22.0555 5.32699C22.0186 5.22452 21.9682 5.13884 21.9297 5.06061C21.8838 4.98591 21.8452 4.92136 21.8099 4.86976C21.736 4.77019 21.6932 4.71362 21.6932 4.71362C21.6932 4.71362 21.7267 4.77558 21.7845 4.88458Z" fill="#8CC63E"/>
<path d="M21.3132 9.64179C20.3655 9.36381 20.77 9.01195 19.852 8.44127C19.6925 8.34181 19.5365 8.28482 19.3879 8.25726C18.6309 8.37072 17.9552 8.87685 17.6615 9.64221L17.6547 9.66044C17.6547 9.66044 17.5888 9.83202 17.4736 10.1327C17.4591 10.1703 17.444 10.2105 17.4277 10.2522C17.42 10.2733 17.4121 10.2947 17.4034 10.317C17.3939 10.3378 17.3845 10.3596 17.375 10.3815C17.3364 10.47 17.2942 10.5656 17.2492 10.6678C17.2264 10.7195 17.2032 10.7722 17.179 10.8272C17.1549 10.8819 17.1314 10.9394 17.1024 10.9936C17.0465 11.1056 16.9876 11.2233 16.9258 11.3463C16.8946 11.4075 16.8654 11.4728 16.83 11.5341C16.7951 11.5966 16.7595 11.6596 16.7228 11.723C16.6863 11.7877 16.6494 11.8541 16.612 11.9202C16.593 11.9542 16.5741 11.9876 16.5544 12.0218C16.5349 12.0547 16.5134 12.087 16.4928 12.12C16.4076 12.2532 16.321 12.3899 16.2321 12.5296C16.1361 12.6638 16.0381 12.8018 15.9389 12.9413C15.8351 13.0786 15.7239 13.212 15.6132 13.3529C15.586 13.3887 15.557 13.422 15.527 13.4543C15.4973 13.4879 15.4673 13.5211 15.4379 13.5546C15.3779 13.6216 15.3175 13.6897 15.2572 13.7579C15.1325 13.8891 15.0018 14.0173 14.8709 14.1499C14.8024 14.2116 14.734 14.2738 14.6654 14.3358C14.5957 14.3979 14.5281 14.4643 14.4545 14.5207C14.3094 14.6362 14.1668 14.7621 14.013 14.8679C13.9374 14.9238 13.861 14.9791 13.7859 15.0345C13.7072 15.0856 13.6289 15.1369 13.5512 15.1881C13.5116 15.2134 13.4727 15.2397 13.4335 15.2649C13.3941 15.2903 13.3536 15.3125 13.3134 15.3365C13.2332 15.384 13.1531 15.4307 13.0733 15.4778C12.9929 15.5235 12.9102 15.5638 12.8294 15.6071C12.7478 15.6499 12.6674 15.6936 12.5849 15.7302C12.5023 15.7684 12.4202 15.8064 12.3394 15.8446C12.2577 15.8817 12.1752 15.9135 12.0934 15.9481C11.9315 16.0186 11.7674 16.0724 11.6079 16.1325C11.2867 16.2375 10.9759 16.3312 10.6828 16.3948C10.39 16.4613 10.1161 16.5111 9.87226 16.5425C9.62754 16.576 9.41193 16.5935 9.23444 16.6033C9.05644 16.6136 8.91657 16.6133 8.82177 16.6126C8.77525 16.6116 8.7393 16.611 8.71567 16.6103C8.70438 16.6102 8.69537 16.6098 8.68842 16.6096C8.6821 16.6088 8.67868 16.6086 8.67868 16.6086L8.67744 16.6083C8.60616 16.6042 8.53726 16.6462 8.51094 16.7162C8.4781 16.8027 8.52172 16.8996 8.60813 16.9322C8.60813 16.9322 8.61082 16.933 8.61755 16.9354C8.62356 16.9379 8.63372 16.9414 8.64584 16.9458C8.67122 16.9542 8.70904 16.967 8.75857 16.9833C8.85627 17.0137 8.99935 17.0587 9.18347 17.1036C9.3682 17.1495 9.59428 17.1995 9.85651 17.2422C10.1189 17.2881 10.4176 17.3244 10.7482 17.3498C11.0781 17.377 11.4381 17.3816 11.8231 17.3736C12.0139 17.3634 12.2131 17.3588 12.4151 17.3369C12.5156 17.3268 12.6186 17.3195 12.7223 17.3066C12.8255 17.2927 12.93 17.2785 13.035 17.2641C13.1414 17.2514 13.2466 17.2305 13.3532 17.2112C13.4597 17.1909 13.568 17.1731 13.6759 17.1495C13.7841 17.1244 13.8926 17.0994 14.0012 17.0739C14.0559 17.0606 14.1114 17.0489 14.1657 17.0339C14.2195 17.0186 14.274 17.0033 14.3285 16.9879C14.4383 16.9561 14.548 16.9245 14.658 16.8929C14.7669 16.8561 14.8761 16.8189 14.9852 16.7818C15.2069 16.711 15.4192 16.6185 15.6382 16.5325C15.7481 16.4911 15.8518 16.4385 15.959 16.3907C16.0657 16.341 16.1719 16.2912 16.2782 16.2419C16.4846 16.1341 16.6931 16.0264 16.8964 15.9127C16.9964 15.8533 17.0952 15.7939 17.1944 15.7346C17.2438 15.7046 17.293 15.6751 17.3428 15.6453C17.3924 15.6163 17.4414 15.5856 17.4879 15.5538C17.6759 15.426 17.8664 15.3013 18.0468 15.1714C18.2246 15.0371 18.3995 14.9053 18.5707 14.7757C18.7343 14.6379 18.8948 14.5028 19.0511 14.3715C19.0901 14.3385 19.1303 14.306 19.1674 14.2721C19.2035 14.2381 19.2402 14.2046 19.2765 14.1704C19.3487 14.1029 19.4203 14.0364 19.4901 13.9704C19.5604 13.9047 19.6295 13.8395 19.6973 13.776C19.765 13.7122 19.8255 13.6457 19.8882 13.5823C20.012 13.454 20.1302 13.3304 20.2429 13.2136C20.301 13.1554 20.3517 13.0957 20.402 13.0387C20.4523 12.981 20.5012 12.9245 20.5482 12.8705C20.6435 12.7615 20.7327 12.6594 20.8145 12.5646C20.8352 12.541 20.8554 12.5177 20.8751 12.4953C20.8939 12.4718 20.9114 12.4488 20.9291 12.4266C20.965 12.382 20.9988 12.3396 21.0305 12.2995C21.2875 11.9737 21.4341 11.7878 21.4341 11.7878C21.5652 11.6203 21.6803 11.4231 21.7604 11.2141C21.931 10.7696 21.9474 10.3045 21.8357 9.87647C21.8353 9.87605 21.8353 9.87605 21.8353 9.87605C21.6959 9.78218 21.5228 9.70334 21.3132 9.64179Z" fill="#DC0D28"/>
<path d="M22.1988 5.8526C22.1917 5.78712 22.1758 5.7235 22.1623 5.66268C22.151 5.60114 22.1308 5.54291 22.1135 5.48665C22.1043 5.45847 22.0969 5.4306 22.087 5.40428C22.0765 5.37786 22.0662 5.35217 22.0557 5.32699C22.0188 5.22452 21.9685 5.13884 21.9299 5.06061C21.884 4.98591 21.8455 4.92136 21.8101 4.86976C21.7363 4.77019 21.6935 4.71362 21.6935 4.71362C21.6935 4.71362 21.7267 4.77558 21.7846 4.88458C21.8115 4.94011 21.8389 5.00974 21.8724 5.08744C21.8979 5.16909 21.9326 5.25757 21.9527 5.35983C21.9591 5.3846 21.9648 5.4106 21.9711 5.43681C21.9766 5.46272 21.9791 5.49017 21.9838 5.51763C21.9897 5.55731 21.9955 5.59751 21.9996 5.63885C22.0924 5.72951 22.1633 5.8384 22.2128 5.95144C22.2081 5.9186 22.2031 5.88575 22.1988 5.8526Z" fill="#8CC63E"/>
<path d="M21.7581 8.65057C21.68 8.34327 21.7636 8.01151 21.8812 7.72317C21.8893 7.7041 21.8973 7.68462 21.9054 7.66618C21.922 7.62816 21.9376 7.58858 21.9541 7.54972C21.9787 7.48248 22.0062 7.41555 22.029 7.34603C22.0524 7.27671 22.075 7.20699 22.0948 7.13539C22.1158 7.06483 22.1325 6.99179 22.1493 6.91988C22.1663 6.84819 22.1776 6.77348 22.1911 6.70158C22.2002 6.62802 22.2119 6.55591 22.2169 6.48245C22.2219 6.40951 22.2286 6.33781 22.2271 6.26642C22.227 6.23026 22.2276 6.19504 22.2274 6.16012C22.2262 6.12479 22.2233 6.08998 22.2213 6.05516C22.2184 6.02108 22.2171 5.98647 22.2129 5.95269C22.2129 5.95228 22.2129 5.95218 22.2128 5.95166C22.1634 5.83852 22.0925 5.72973 21.9997 5.63907C22.0013 5.65523 22.0036 5.67098 22.0039 5.68766C22.0076 5.74672 22.013 5.80588 22.0104 5.86773C22.0097 5.89788 22.0096 5.92938 22.0091 5.96026C22.0085 5.99134 22.004 6.02294 22.0019 6.05433C21.999 6.08645 21.9974 6.11774 21.9929 6.14945C21.9879 6.18146 21.983 6.21337 21.9781 6.2456C21.9702 6.30994 21.9534 6.37428 21.9391 6.43862C21.9248 6.50286 21.9033 6.56668 21.8856 6.63092C21.8629 6.69402 21.8438 6.75825 21.8177 6.82073C21.7925 6.88321 21.7684 6.94506 21.739 7.00598C21.7121 7.06691 21.6814 7.12679 21.6509 7.18512C21.6217 7.24418 21.5869 7.30086 21.556 7.35743C21.5213 7.41286 21.4897 7.46808 21.4545 7.52092C21.3861 7.62671 21.3159 7.72669 21.246 7.81859C21.2331 7.83631 21.2196 7.85351 21.2063 7.87029C21.0474 7.99328 20.8556 8.10911 20.6479 8.10206C20.4521 8.09574 20.2761 7.98768 20.0896 7.93888C19.3984 7.7586 18.5515 8.12289 18.1329 8.68445C18.1329 8.68445 18.6797 8.1288 19.3878 8.25737C19.5364 8.28504 19.6923 8.34192 19.8519 8.44138C20.7697 9.01206 20.3652 9.36392 21.3131 9.6419C21.4172 9.67247 21.5125 9.70728 21.5989 9.74624C21.7144 9.49633 21.8173 9.24083 21.9061 8.97953C21.8418 8.87654 21.7882 8.76869 21.7581 8.65057Z" fill="#8CC63E"/>
<path d="M21.5991 9.74613C21.5127 9.70717 21.4173 9.67236 21.3132 9.64179C20.3655 9.36381 20.77 9.01195 19.852 8.44127C19.6926 8.34181 19.5365 8.28482 19.388 8.25726C18.6309 8.37072 17.9552 8.87685 17.6615 9.64221L17.6547 9.66044C17.6547 9.66044 17.5888 9.83202 17.4737 10.1327C17.4592 10.1703 17.444 10.2105 17.4278 10.2522C17.42 10.2733 17.4121 10.2947 17.4034 10.317C17.3939 10.3378 17.3846 10.3596 17.375 10.3815C17.3364 10.47 17.2942 10.5656 17.2493 10.6678C17.2265 10.7195 17.2032 10.7722 17.179 10.8272C17.155 10.8819 17.1314 10.9394 17.1024 10.9936C17.0465 11.1056 16.9876 11.2233 16.9258 11.3463C16.8946 11.4075 16.8654 11.4728 16.83 11.5341C16.7951 11.5966 16.7595 11.6596 16.7228 11.723C16.6863 11.7877 16.6495 11.8541 16.6121 11.9202C16.593 11.9542 16.5741 11.9876 16.5544 12.0218C16.535 12.0547 16.5134 12.087 16.4928 12.12C16.4076 12.2532 16.321 12.3899 16.2321 12.5296C16.1361 12.6638 16.0382 12.8018 15.9389 12.9413C15.8351 13.0786 15.7239 13.212 15.6133 13.3529C15.586 13.3887 15.557 13.422 15.5271 13.4543C15.4973 13.4879 15.4673 13.5211 15.438 13.5546C15.378 13.6216 15.3176 13.6897 15.2573 13.7579C15.1325 13.8891 15.0019 14.0173 14.8709 14.1499C14.8024 14.2116 14.734 14.2738 14.6654 14.3358C14.5957 14.3979 14.5282 14.4643 14.4545 14.5207C14.3094 14.6362 14.1668 14.7621 14.013 14.8679C13.9374 14.9238 13.861 14.9791 13.7859 15.0345C13.7073 15.0856 13.6289 15.1369 13.5512 15.1881C13.5117 15.2134 13.4727 15.2397 13.4335 15.2649C13.3942 15.2903 13.3537 15.3125 13.3135 15.3365C13.2333 15.384 13.1532 15.4307 13.0733 15.4778C12.9929 15.5235 12.9102 15.5638 12.8294 15.6071C12.7479 15.6499 12.6675 15.6936 12.5849 15.7302C12.5023 15.7684 12.4202 15.8064 12.3394 15.8446C12.2658 15.8781 12.1914 15.9075 12.1175 15.9384C15.956 15.5441 20.0034 13.1977 21.5991 9.74613Z" fill="url(#paint1_linear_717_11989)"/>
<defs>
<linearGradient id="paint0_linear_717_11989" x1="10.0523" y1="4.67273" x2="10.0523" y2="13.4512" gradientUnits="userSpaceOnUse">
<stop stop-color="#FF5117"/>
<stop offset="1" stop-color="#DC0D28"/>
</linearGradient>
<linearGradient id="paint1_linear_717_11989" x1="16.8583" y1="8.25726" x2="16.8583" y2="15.9384" gradientUnits="userSpaceOnUse">
<stop stop-color="#FF5117"/>
<stop offset="1" stop-color="#DC0D28"/>
</linearGradient>
</defs>
</svg>
