<svg width="22" height="22" viewBox="0 0 22 22" fill="none" xmlns="http://www.w3.org/2000/svg">
<path fill-rule="evenodd" clip-rule="evenodd" d="M1.40363 15.2057H3.46293V21.812H1.40363V15.2057Z" fill="#FFAA67"/>
<path fill-rule="evenodd" clip-rule="evenodd" d="M4.86656 13.2032C4.86656 11.5579 4.4374 10.41 3.85255 9.75185C3.43369 9.28068 2.93204 9.05127 2.43328 9.05127C1.93451 9.05127 1.43287 9.28068 1.014 9.75185C0.42916 10.41 0 11.5579 0 13.2032C0 13.8091 0.299424 14.4174 0.75659 14.8721C1.21334 15.326 1.82455 15.6242 2.43328 15.6242C3.04201 15.6242 3.65321 15.326 4.10997 14.8721C4.56713 14.4174 4.86656 13.8091 4.86656 13.2032Z" fill="#EEDBC1"/>
<path fill-rule="evenodd" clip-rule="evenodd" d="M18.2937 14.8177H20.353V21.8194H18.2937V14.8177Z" fill="#FFAA67"/>
<path fill-rule="evenodd" clip-rule="evenodd" d="M19.5288 12.3462V9.05127H19.117V12.3462H17.0577V9.05127H16.6458V12.597C16.6532 13.4841 16.8843 14.1332 17.3204 14.5657C17.7636 15.0056 18.4271 15.2292 19.3229 15.2292C20.2125 15.2292 20.8765 15.006 21.3213 14.5661C21.7587 14.1332 21.9922 13.4841 22 12.597V9.05127H21.5882V12.3462H19.5288Z" fill="#EEDBC1"/>
<path fill-rule="evenodd" clip-rule="evenodd" d="M11.0857 9.875C8.25372 9.875 5.93741 12.543 5.93741 15.847C5.93741 19.1514 8.25372 21.819 11.0857 21.819C13.9181 21.819 16.2339 19.1514 16.2339 15.847C16.2339 12.543 13.9181 9.875 11.0857 9.875Z" fill="#4AC099"/>
<path fill-rule="evenodd" clip-rule="evenodd" d="M11.0857 11.5225C9.16762 11.5225 7.58484 13.4491 7.58484 15.847C7.58484 18.2449 9.16762 20.1716 11.0857 20.1716C13.0041 20.1716 14.5865 18.2449 14.5865 15.847C14.5865 13.4491 13.0041 11.5225 11.0857 11.5225Z" fill="#EEDBC1"/>
<path fill-rule="evenodd" clip-rule="evenodd" d="M9.29653 0.796336L9.63302 0.180603L9.01729 0.517094C8.33463 0.888933 7.7648 1.43789 7.36777 2.10621C6.97073 2.77453 6.76116 3.53751 6.76111 4.31487C6.76111 6.70161 8.69892 8.63942 11.0857 8.63942C12.7236 8.63942 14.1499 7.72714 14.8838 6.38365L15.2199 5.76792L14.6042 6.104C14.0304 6.41728 13.3869 6.58102 12.7331 6.58011C10.5737 6.58011 8.82042 4.82723 8.82042 2.66742C8.82042 1.98991 8.99299 1.35235 9.29653 0.796336Z" fill="#FFAA67"/>
<path fill-rule="evenodd" clip-rule="evenodd" d="M12.8163 0.927303L12.6326 0.562805L11.8835 2.04839L10.2389 2.30168L11.4205 3.47343L11.1532 5.11552L12.6326 4.35399L14.1116 5.11552L13.8447 3.47343L15.026 2.30168L13.3814 2.04839L12.8163 0.927303Z" fill="#4AC099"/>
</svg>
