<svg width="22" height="22" viewBox="0 0 22 22" fill="none" xmlns="http://www.w3.org/2000/svg">
<g clip-path="url(#clip0_509_10059)">
<path d="M21.9702 8.84317C21.9396 8.52318 21.6863 8.26988 21.3663 8.23929C21.187 8.22219 16.9471 7.8481 14.478 10.3172C13.9426 10.8526 13.5411 11.4712 13.2404 12.1136C12.7453 10.0862 11.8646 8.40411 10.6555 7.19506C9.16533 5.70486 6.95665 4.7134 4.26835 4.32793C2.26807 4.04107 0.710495 4.18437 0.645182 4.19068C0.325194 4.22128 0.071893 4.47458 0.0412993 4.79457C0.0350258 4.85988 -0.108275 6.41741 0.178541 8.41774C0.564014 11.106 1.55543 13.3148 3.04567 14.8049C4.53587 16.2951 6.74455 17.2866 9.43285 17.672C10.4229 17.814 11.3043 17.8506 11.9501 17.8506C12.5353 17.8505 12.9265 17.8206 13.0301 17.8116C13.1186 17.8192 13.3883 17.8391 13.7809 17.8391C15.1541 17.8391 18.0281 17.5957 19.8923 15.7314C22.3613 13.2625 21.9873 9.02252 21.9702 8.84317Z" fill="#BFFB32"/>
<path d="M17.8681 12.5501C17.6062 12.2882 17.1815 12.2882 16.9195 12.5501L13.2387 16.231L7.53354 10.5258C7.27164 10.2639 6.84694 10.2639 6.58496 10.5258C6.32298 10.7877 6.32302 11.2124 6.58496 11.4743L12.7266 17.616C12.8576 17.747 13.0292 17.8125 13.2009 17.8125C13.2134 17.8125 13.2261 17.8114 13.2387 17.8106C13.2513 17.8114 13.2639 17.8125 13.2765 17.8125C13.4481 17.8125 13.6198 17.747 13.7507 17.616L17.868 13.4986C18.1301 13.2367 18.1301 12.812 17.8681 12.5501Z" fill="#8CDC52"/>
<path d="M21.3663 8.23933C21.187 8.22222 16.947 7.84814 14.478 10.3172C13.9426 10.8526 13.5411 11.4713 13.2404 12.1137C13.2339 12.087 13.227 12.0605 13.2204 12.0339V17.8247C13.3548 17.8321 13.5455 17.8391 13.7809 17.8391C15.154 17.8391 18.0281 17.5958 19.8923 15.7314C22.3613 13.2624 21.9873 9.02247 21.9702 8.84317C21.9396 8.52322 21.6863 8.26992 21.3663 8.23933Z" fill="#8CDC52"/>
<path d="M16.9196 12.55L13.2387 16.231L13.2204 16.2126V17.8115C13.2265 17.8111 13.2326 17.811 13.2387 17.8106C13.2513 17.8113 13.2639 17.8124 13.2765 17.8124C13.4482 17.8124 13.6198 17.7469 13.7508 17.6159L17.8681 13.4986C18.13 13.2367 18.13 12.812 17.8681 12.55C17.6062 12.2881 17.1815 12.2881 16.9196 12.55Z" fill="#5DC378"/>
</g>
<defs>
<clipPath id="clip0_509_10059">
<rect width="22" height="22" fill="white"/>
</clipPath>
</defs>
</svg>
