<svg width="27" height="19" viewBox="0 0 27 19" fill="none" xmlns="http://www.w3.org/2000/svg">
<path d="M1.31217 16.0657H25.2672C25.7433 16.0657 26.1294 16.4518 26.1294 16.9279C26.1294 17.4041 25.7434 17.7901 25.2672 17.7901H1.31217C0.836046 17.7901 0.45 17.4041 0.45 16.9279C0.45 16.4517 0.835995 16.0657 1.31217 16.0657Z" stroke="#BDBDBD" stroke-width="0.9"/>
<path d="M14.3652 3.6241L14.595 3.64532L14.9289 3.69472C19.9536 4.43817 23.8742 8.55149 24.3358 13.6632H2.24364C2.70539 8.54868 6.63126 4.43273 11.6559 3.69196L11.9388 3.65026L12.2201 3.62407C12.573 3.59123 12.9293 3.57228 13.2897 3.57228C13.6501 3.57228 14.0094 3.59124 14.3652 3.6241Z" stroke="#BDBDBD" stroke-width="0.9"/>
</svg>
