<svg width="200" height="67" viewBox="0 0 200 67" fill="none" xmlns="http://www.w3.org/2000/svg">
<g clip-path="url(#clip0_3076_6188)">
<path d="M17.1533 13.3071C16.9196 13.3868 16.7168 13.5378 16.5734 13.7388C16.43 13.9397 16.3533 14.1806 16.354 14.4275V53.5004C16.3536 53.7447 16.4292 53.9831 16.5702 54.1826C16.7113 54.3821 16.9108 54.5329 17.1413 54.614L37.898 33.9494L17.1533 13.3071Z" fill="#00D6FF"/>
<path d="M43.7473 28.1343L18.1301 13.3976C17.9835 13.3119 17.8201 13.2594 17.6511 13.2434C17.482 13.2275 17.3115 13.2486 17.1516 13.3054L37.8963 33.9528L43.7473 28.1343Z" fill="#00F076"/>
<path d="M18.1318 54.5266L43.749 39.7865L37.8912 33.9561L17.1345 54.6205C17.2972 54.6801 17.4712 54.7025 17.6438 54.6863C17.8163 54.67 17.9831 54.6155 18.1318 54.5266Z" fill="#FF3A44"/>
<path d="M43.7558 39.7864L52.0882 34.9926C52.265 34.8863 52.4114 34.7361 52.513 34.5566C52.6145 34.377 52.6679 34.1742 52.6679 33.9679C52.6679 33.7616 52.6145 33.5588 52.513 33.3792C52.4114 33.1997 52.265 33.0495 52.0882 32.9432L43.7473 28.1426L37.898 33.9627L43.7558 39.7864Z" fill="#FFD000"/>
<path d="M98.8686 38.4089C98.0001 38.3893 97.1367 38.5459 96.3305 38.8692C95.5242 39.1925 94.7918 39.6757 94.1774 40.2899C93.5631 40.9041 93.0796 41.6363 92.7561 42.4425C92.4326 43.2487 92.2758 44.1121 92.2952 44.9805C92.2888 45.8455 92.4545 46.7032 92.7826 47.5036C93.1107 48.304 93.5947 49.0311 94.2063 49.6427C94.818 50.2544 95.5451 50.7384 96.3455 51.0665C97.1459 51.3946 98.0036 51.5603 98.8686 51.5539C99.7369 51.573 100.6 51.416 101.406 51.0925C102.212 50.7689 102.945 50.2854 103.559 49.6711C104.173 49.0568 104.656 48.3245 104.979 47.5184C105.303 46.7122 105.46 45.8489 105.44 44.9805C105.473 44.1089 105.325 43.2398 105.006 42.4279C104.687 41.616 104.204 40.8786 103.587 40.2618C102.97 39.645 102.233 39.162 101.421 38.8432C100.609 38.5244 99.7402 38.3765 98.8686 38.4089ZM98.8686 48.8026C97.8678 48.7249 96.9332 48.2725 96.2514 47.5358C95.5697 46.7991 95.191 45.8323 95.191 44.8286C95.191 43.8248 95.5697 42.858 96.2514 42.1212C96.9332 41.3845 97.8678 40.9321 98.8686 40.8544C99.3756 40.8578 99.8766 40.9652 100.34 41.1701C100.804 41.375 101.221 41.673 101.565 42.0456C101.909 42.4182 102.173 42.8574 102.34 43.3361C102.507 43.8148 102.574 44.3229 102.537 44.8286C102.561 45.3313 102.485 45.8338 102.313 46.3069C102.141 46.7799 101.876 47.2139 101.535 47.5837C101.194 47.9536 100.782 48.2518 100.324 48.4611C99.8665 48.6704 99.3716 48.7864 98.8686 48.8026ZM84.6527 38.4089C83.7844 38.3895 82.9212 38.5463 82.1152 38.8697C81.3091 39.1931 80.5769 39.6764 79.9628 40.2905C79.3486 40.9047 78.8653 41.6368 78.5419 42.4429C78.2185 43.249 78.0617 44.1122 78.0811 44.9805C78.0747 45.8454 78.2404 46.7029 78.5683 47.5032C78.8963 48.3035 79.3801 49.0306 79.9916 49.6422C80.6031 50.2539 81.3301 50.7378 82.1303 51.066C82.9305 51.3942 83.7879 51.56 84.6527 51.5539C85.5211 51.573 86.3844 51.416 87.1905 51.0925C87.9965 50.7689 88.7287 50.2854 89.3428 49.6711C89.9569 49.0568 90.4403 48.3245 90.7637 47.5184C91.087 46.7122 91.2437 45.8489 91.2244 44.9805C91.2567 44.1089 91.1088 43.2398 90.79 42.4279C90.4712 41.616 89.9883 40.8786 89.3715 40.2618C88.7547 39.645 88.0173 39.162 87.2053 38.8432C86.3934 38.5244 85.5244 38.3765 84.6527 38.4089ZM84.6527 48.8026C83.652 48.7249 82.7174 48.2725 82.0356 47.5358C81.3539 46.7991 80.9752 45.8323 80.9752 44.8286C80.9752 43.8248 81.3539 42.858 82.0356 42.1212C82.7174 41.3845 83.652 40.9321 84.6527 40.8544C85.1599 40.8575 85.661 40.9648 86.1249 41.1696C86.5889 41.3744 87.0058 41.6724 87.3498 42.045C87.6938 42.4177 87.9575 42.8571 88.1246 43.3359C88.2917 43.8147 88.3586 44.3228 88.3211 44.8286C88.3454 45.3314 88.2693 45.8339 88.0974 46.3071C87.9254 46.7802 87.6611 47.2143 87.3196 47.5842C86.9782 47.9541 86.5665 48.2523 86.1087 48.4615C85.6508 48.6707 85.1559 48.7866 84.6527 48.8026ZM67.6874 40.3951V43.1463H74.259C74.1637 44.458 73.6246 45.6982 72.7305 46.6627C72.072 47.3233 71.2841 47.8406 70.4163 48.1824C69.5485 48.5242 68.6194 48.6831 67.6874 48.6489C66.7275 48.6589 65.7756 48.4745 64.8888 48.1069C64.0021 47.7394 63.1989 47.1963 62.5275 46.5102C61.8561 45.8242 61.3305 45.0093 60.9822 44.1149C60.6339 43.2204 60.4702 42.2647 60.5009 41.3053C60.4832 40.3492 60.6559 39.3994 61.0088 38.5107C61.3618 37.622 61.8879 36.8124 62.5567 36.129C63.2255 35.4456 64.0235 34.9021 64.9043 34.53C65.7851 34.1579 66.7312 33.9647 67.6874 33.9617C69.556 33.9801 71.3519 34.6881 72.7305 35.9496L74.7167 33.9617C72.8727 32.18 70.4034 31.1928 67.8393 31.2122C66.4989 31.1875 65.1671 31.4302 63.9216 31.9261C62.676 32.422 61.5417 33.1611 60.5851 34.1003C59.6285 35.0395 58.8686 36.16 58.3499 37.3962C57.8311 38.6324 57.564 39.9595 57.564 41.3002C57.564 42.6408 57.8311 43.968 58.3499 45.2042C58.8686 46.4404 59.6285 47.5609 60.5851 48.5001C61.5417 49.4393 62.676 50.1784 63.9216 50.6743C65.1671 51.1702 66.4989 51.4129 67.8393 51.3883C69.1542 51.4618 70.4687 51.2391 71.686 50.7366C72.9032 50.2341 73.9921 49.4646 74.8721 48.485C76.485 46.7409 77.3608 44.4404 77.316 42.0653C77.3481 41.5001 77.2968 40.9333 77.164 40.3831L67.6874 40.3951ZM137.083 42.535C136.707 41.3611 135.975 40.3333 134.988 39.594C134.002 38.8547 132.81 38.4405 131.578 38.4089C130.737 38.4115 129.905 38.5869 129.134 38.9241C128.363 39.2613 127.67 39.7531 127.096 40.3691C126.523 40.9852 126.083 41.7124 125.802 42.5056C125.521 43.2988 125.406 44.1411 125.464 44.9805C125.441 45.8372 125.59 46.6898 125.902 47.4877C126.215 48.2857 126.684 49.0128 127.283 49.6258C127.882 50.2389 128.598 50.7255 129.388 51.0567C130.178 51.3879 131.027 51.557 131.884 51.5539C132.949 51.564 133.999 51.3028 134.935 50.7949C135.871 50.2869 136.662 49.549 137.235 48.6506L135.095 47.1221C134.765 47.6808 134.296 48.1439 133.733 48.4656C133.17 48.7873 132.532 48.9564 131.884 48.9563C131.21 48.9913 130.542 48.8199 129.968 48.465C129.395 48.1101 128.943 47.5885 128.673 46.9701L137.383 43.3L137.077 42.5366L137.083 42.535ZM128.217 44.6748C128.185 43.7294 128.516 42.8074 129.141 42.0974C129.766 41.3873 130.638 40.9427 131.58 40.8544C132.073 40.8371 132.562 40.9553 132.993 41.1961C133.425 41.437 133.782 41.7913 134.026 42.2207L128.219 44.6663L128.217 44.6748ZM121.033 50.9425H123.936V31.8338H121.033V50.9425ZM116.447 39.7854C115.524 38.8283 114.26 38.2756 112.931 38.2483C111.241 38.3258 109.646 39.0525 108.478 40.2772C107.311 41.5018 106.661 43.1298 106.665 44.8217C106.653 45.6551 106.806 46.4827 107.114 47.257C107.423 48.0312 107.882 48.7369 108.464 49.3334C109.046 49.9299 109.74 50.4055 110.507 50.7329C111.274 51.0604 112.097 51.2332 112.931 51.2414C113.569 51.2458 114.201 51.1105 114.782 50.845C115.363 50.5795 115.879 50.1902 116.293 49.7043H116.447V50.6232C116.531 51.466 116.304 52.3102 115.809 52.9974C115.314 53.6846 114.585 54.1674 113.759 54.3551C112.933 54.5427 112.067 54.4224 111.324 54.0167C110.58 53.611 110.011 52.9477 109.722 52.1516L107.276 53.2224C107.763 54.3583 108.573 55.3261 109.605 56.0056C110.638 56.6851 111.847 57.0464 113.083 57.0445C116.445 57.0445 119.197 55.0566 119.197 50.3191V38.706H116.445V39.7769L116.447 39.7854ZM113.084 48.8026C112.084 48.7249 111.149 48.2725 110.467 47.5358C109.786 46.7991 109.407 45.8323 109.407 44.8286C109.407 43.8248 109.786 42.858 110.467 42.1212C111.149 41.3845 112.084 40.9321 113.084 40.8544C114.053 40.9752 114.945 41.4458 115.591 42.1776C116.237 42.9095 116.594 43.8522 116.594 44.8286C116.594 45.8049 116.237 46.7477 115.591 47.4795C114.945 48.2114 114.053 48.6818 113.084 48.8026ZM150.38 31.8355H143.502V50.9442H146.405V43.7577H150.38C151.198 43.8166 152.021 43.7061 152.795 43.4332C153.569 43.1602 154.279 42.7306 154.88 42.1713C155.481 41.6119 155.961 40.9346 156.288 40.1818C156.616 39.429 156.785 38.6168 156.785 37.7957C156.785 36.9747 156.616 36.1624 156.288 35.4097C155.961 34.6569 155.481 33.9797 154.88 33.4203C154.279 32.8609 153.569 32.4314 152.795 32.1584C152.021 31.8855 151.198 31.7766 150.38 31.8355ZM150.532 41.0082H146.405V34.4365H150.532C151.398 34.4339 152.233 34.7666 152.86 35.365C153.487 35.9635 153.858 36.7812 153.896 37.6472C153.862 38.5285 153.497 39.3645 152.873 39.988C152.249 40.6115 151.413 40.9748 150.532 41.0082ZM168.11 38.2569C167.074 38.1743 166.038 38.4076 165.138 38.9259C164.238 39.4442 163.516 40.2232 163.067 41.1602L165.666 42.231C165.921 41.7767 166.302 41.406 166.763 41.1635C167.224 40.9211 167.745 40.8172 168.264 40.8647C168.988 40.8103 169.705 41.0322 170.272 41.4856C170.839 41.939 171.213 42.5904 171.319 43.3086V43.4622C170.431 42.9679 169.432 42.7055 168.416 42.6989C165.666 42.6989 162.913 44.2274 162.913 46.9787C162.938 47.5723 163.082 48.155 163.334 48.6928C163.587 49.2306 163.944 49.7127 164.385 50.1111C164.826 50.5094 165.342 50.816 165.903 51.013C166.463 51.21 167.057 51.2934 167.651 51.2584C168.366 51.2824 169.077 51.1272 169.718 50.8068C170.358 50.4865 170.909 50.0113 171.319 49.4243H171.473V50.9528H174.224V43.6091C174.112 42.0927 173.407 40.6814 172.263 39.6802C171.119 38.679 169.626 38.1683 168.108 38.2585L168.11 38.2569ZM167.806 48.8044C166.887 48.8044 165.512 48.3466 165.512 47.1221C165.512 45.5936 167.195 45.136 168.571 45.136C169.472 45.1384 170.361 45.347 171.169 45.7456C171.052 46.5672 170.652 47.3222 170.038 47.8803C169.425 48.4384 168.635 48.7646 167.806 48.8026V48.8044ZM183.859 38.7162L180.652 46.9701H180.498L177.136 38.7162H174.077L179.12 50.3294L176.217 56.7491H179.12L186.916 38.7129L183.859 38.7162ZM158.183 50.9442H161.086V31.8338H158.183V50.9442Z" fill="white"/>
<path d="M60.1986 18.5215L57.3209 26.2066H58.5933L59.3191 24.2357H62.3026L63.0182 26.2066H64.2888L61.4112 18.5215H60.1986ZM61.9064 23.0557H59.717L60.8117 20.0328L61.9064 23.0557Z" fill="white"/>
<path d="M69.7521 23.006V24.128L66.2323 18.5229H64.8216V26.2081H66.0034V20.3281L69.694 26.2081H70.9305V18.5229H69.7486L69.7521 23.006Z" fill="white"/>
<path d="M74.5237 18.5214H72.1242V26.2066H74.5237C75.0407 26.228 75.5566 26.1438 76.04 25.9591C76.5233 25.7744 76.9639 25.4931 77.3348 25.1323C78.0157 24.3726 78.3922 23.3883 78.3922 22.3682C78.3922 21.348 78.0157 20.3638 77.3348 19.6041C76.9644 19.2421 76.5241 18.9593 76.0408 18.7731C75.5575 18.587 75.0412 18.5014 74.5237 18.5214ZM74.5237 25.0247H73.306V19.7049H74.5237C74.882 19.683 75.241 19.7332 75.5795 19.8526C75.9181 19.972 76.2292 20.1582 76.4945 20.4C76.7439 20.663 76.9366 20.9743 77.0608 21.3147C77.1851 21.6552 77.2382 22.0175 77.2169 22.3793C77.2394 22.7394 77.1867 23.1002 77.0624 23.4389C76.938 23.7775 76.7446 24.0867 76.4945 24.3467C76.2275 24.5849 75.9157 24.7677 75.5774 24.8841C75.239 25.0005 74.8807 25.0483 74.5237 25.0247Z" fill="white"/>
<path d="M83.8416 22.3041C84.1892 21.9049 84.3782 21.392 84.3727 20.8627C84.3794 20.5482 84.3184 20.236 84.1938 19.9472C84.0691 19.6584 83.8838 19.3999 83.6503 19.1891C83.1879 18.7552 82.5765 18.5155 81.9425 18.5196H79.3995V26.2047H80.3867V23.2537H81.3721L83.3753 26.2098H84.7228V26.0169L82.6529 23.0675C83.1217 22.9493 83.539 22.6812 83.8416 22.3041ZM83.2028 20.8662C83.2071 21.0292 83.1754 21.1912 83.1098 21.3405C83.0443 21.4899 82.9466 21.623 82.8237 21.7303C82.5753 21.9589 82.2475 22.0815 81.91 22.0719H80.3952V19.7065H81.9732C82.1387 19.6952 82.3048 19.721 82.459 19.7822C82.6133 19.8434 82.7519 19.9384 82.8647 20.0601C83.0765 20.2742 83.1976 20.5616 83.2028 20.8627V20.8662Z" fill="white"/>
<path d="M88.8745 18.3881C88.3537 18.3767 87.8362 18.4739 87.3549 18.6732C86.8736 18.8725 86.4391 19.1697 86.0788 19.546C85.3569 20.309 84.9547 21.3195 84.9547 22.3698C84.9547 23.4202 85.3569 24.4307 86.0788 25.1937C86.4458 25.5608 86.8815 25.8521 87.361 26.0507C87.8406 26.2494 88.3546 26.3517 88.8736 26.3517C89.3927 26.3517 89.9067 26.2494 90.3862 26.0507C90.8658 25.8521 91.3015 25.5608 91.6685 25.1937C92.3892 24.4325 92.7907 23.4241 92.7907 22.3759C92.7907 21.3276 92.3892 20.3192 91.6685 19.5579C91.3095 19.1797 90.8756 18.8804 90.3946 18.679C89.9136 18.4776 89.3959 18.3785 88.8745 18.3881ZM88.8745 25.2381C88.5113 25.2449 88.1506 25.1776 87.8143 25.0402C87.4781 24.9027 87.1735 24.6981 86.919 24.4388C86.4085 23.8713 86.126 23.135 86.126 22.3716C86.126 21.6082 86.4085 20.8718 86.919 20.3043C87.4367 19.7884 88.1377 19.4986 88.8685 19.4986C89.5993 19.4986 90.3003 19.7884 90.818 20.3043C91.3302 20.8697 91.6138 21.6053 91.6138 22.3682C91.6138 23.131 91.3302 23.8667 90.818 24.432C90.5664 24.6922 90.2641 24.898 89.9298 25.0366C89.5955 25.1753 89.2363 25.2438 88.8745 25.2381Z" fill="white"/>
<path d="M94.9748 18.5229H93.793V26.2081H94.9748V18.5229Z" fill="white"/>
<path d="M98.5492 18.5213H96.1583V26.2064H98.5492C99.0659 26.2275 99.5814 26.143 100.064 25.9584C100.547 25.7737 100.988 25.4926 101.359 25.1322C102.038 24.3718 102.414 23.3878 102.414 22.368C102.414 21.3483 102.038 20.3644 101.359 19.604C100.988 19.2423 100.548 18.9598 100.065 18.7737C99.5823 18.5875 99.0664 18.5017 98.5492 18.5213ZM98.5492 25.0246H97.34V19.7048H98.5492C98.9072 19.6829 99.266 19.7331 99.6043 19.8525C99.9425 19.9719 100.253 20.158 100.518 20.3998C100.768 20.6627 100.961 20.974 101.086 21.3144C101.21 21.6549 101.263 22.0173 101.242 22.3792C101.264 22.7392 101.211 23.0998 101.087 23.4384C100.963 23.777 100.77 24.0862 100.52 24.3466C100.253 24.5847 99.9412 24.7674 99.6028 24.8838C99.2644 25.0002 98.9063 25.0481 98.5492 25.0246Z" fill="white"/>
<path d="M105.616 26.2066H106.798V19.705H110.147V26.2066H111.132V18.5215H105.614L105.616 26.2066Z" fill="white"/>
<path d="M115.135 18.5215H112.519V26.2066H113.701V23.2538H115.142C115.778 23.2521 116.389 23.0077 116.85 22.5707C117.078 22.3546 117.26 22.0943 117.384 21.8057C117.508 21.517 117.572 21.2061 117.572 20.8919C117.572 20.5777 117.508 20.2667 117.384 19.9781C117.26 19.6894 117.078 19.4292 116.85 19.2131C116.389 18.7703 115.775 18.5226 115.135 18.5215ZM116.047 21.6945C115.936 21.8188 115.798 21.9168 115.644 21.9815C115.489 22.0462 115.323 22.0759 115.156 22.0685H113.694V19.7032H115.156C115.321 19.6919 115.487 19.7177 115.642 19.7789C115.796 19.8401 115.935 19.9351 116.047 20.0568C116.262 20.2756 116.384 20.5685 116.389 20.8748C116.386 21.1822 116.264 21.4763 116.047 21.6945Z" fill="white"/>
<path d="M119.526 24.1282L119.607 23.0027V18.5215H118.425V26.2066H119.509L123.178 20.3265L123.154 21.4554V26.2066H124.335V18.5215H122.969L119.526 24.1282Z" fill="white"/>
<path d="M126.501 23.0964C126.518 23.5464 126.404 23.9916 126.171 24.3773C125.907 24.7486 125.555 25.049 125.147 25.2517L125.046 25.3047L125.703 26.2969L125.78 26.2576C126.354 25.9913 126.843 25.5731 127.196 25.0485C127.54 24.4569 127.709 23.7802 127.684 23.0964V19.7048H130.443V26.2081H131.624V18.5229H126.501V23.0964Z" fill="white"/>
<path d="M136.488 18.3881C135.967 18.3767 135.45 18.4739 134.969 18.6732C134.487 18.8725 134.053 19.1697 133.693 19.546C132.972 20.3096 132.57 21.3198 132.57 22.3698C132.57 23.4198 132.972 24.4301 133.693 25.1937C134.434 25.9348 135.44 26.351 136.488 26.351C137.537 26.351 138.542 25.9348 139.284 25.1937C140.005 24.4325 140.406 23.4241 140.406 22.3759C140.406 21.3276 140.005 20.3192 139.284 19.5579C138.925 19.1795 138.491 18.88 138.009 18.6786C137.528 18.4772 137.01 18.3783 136.488 18.3881ZM136.488 25.2381C136.125 25.2445 135.764 25.177 135.428 25.0396C135.092 24.9022 134.787 24.6978 134.533 24.4388C134.27 24.1638 134.065 23.8391 133.929 23.4837C133.793 23.1283 133.729 22.7493 133.742 22.369C133.729 21.9889 133.793 21.6101 133.93 21.2553C134.067 20.9005 134.275 20.5771 134.54 20.3043C135.057 19.7881 135.758 19.4981 136.488 19.4981C137.219 19.4981 137.92 19.7881 138.437 20.3043C138.949 20.8697 139.233 21.6053 139.233 22.3682C139.233 23.131 138.949 23.8667 138.437 24.432C138.185 24.6928 137.882 24.899 137.546 25.0377C137.211 25.1763 136.851 25.2445 136.488 25.2381Z" fill="white"/>
<path d="M150.149 18.7295V18.5229H148.752L146.02 22.0342V18.5229H144.838V22.0342L142.145 18.5759L142.131 18.5229H140.898V18.7295L143.842 22.4492L140.701 26.0066V26.2064H142.088L144.839 22.9V26.2064H146.021V22.9L148.805 26.2064H150.159V26.0066L147.116 22.4492L150.149 18.7295Z" fill="white"/>
<path d="M150.738 26.2064H155.271V25.0246H151.922V22.8574H154.878V21.872H151.922V19.7048H155.271V18.5229H150.738V26.2064Z" fill="white"/>
<path d="M160.985 21.674H157.438V18.5215H156.446V26.2066H157.431V22.8576H160.978V26.2066H162.16V18.5215H160.978L160.985 21.674Z" fill="white"/>
<path d="M164.659 24.1282L164.729 23.0027V18.5215H163.547V26.2066H164.652L168.31 20.3265L168.276 21.4572V26.2083H169.458V18.5232H168.112L164.659 24.1282Z" fill="white"/>
<path d="M170.639 26.2064H175.172V25.0246H171.823V22.8574H174.975V21.872H171.823V19.7048H175.172V18.5229H170.639V26.2064Z" fill="white"/>
<path d="M183.547 22.8491C183.342 22.5801 183.07 22.3683 182.76 22.2342C183.007 22.0955 183.219 21.9007 183.378 21.6655C183.574 21.3735 183.677 21.0285 183.672 20.6767C183.677 20.3871 183.62 20.0998 183.504 19.8345C183.387 19.5691 183.215 19.3322 182.999 19.1397C182.571 18.7403 182.007 18.5192 181.422 18.5215H178.719V26.2067H181.569C182.18 26.2107 182.769 25.9823 183.217 25.5679C183.444 25.3693 183.624 25.1236 183.745 24.848C183.866 24.5725 183.926 24.2737 183.919 23.9728C183.925 23.567 183.794 23.1711 183.547 22.8491ZM182.217 21.3821C182.114 21.4866 181.99 21.5672 181.853 21.618C181.716 21.6688 181.57 21.6886 181.424 21.6758H179.706V19.705H181.465C181.607 19.6954 181.748 19.7175 181.88 19.7698C182.012 19.8221 182.13 19.9033 182.227 20.0073C182.32 20.0964 182.394 20.2037 182.444 20.3224C182.494 20.4411 182.52 20.5689 182.519 20.6978C182.518 20.8266 182.49 20.954 182.438 21.072C182.387 21.1899 182.311 21.2943 182.217 21.3821ZM182.428 24.6986C182.325 24.8109 182.198 24.8986 182.057 24.9551C181.915 25.0116 181.762 25.0354 181.61 25.0248H179.706V22.8576H181.569C181.728 22.8489 181.887 22.8748 182.034 22.9338C182.182 22.9928 182.314 23.0834 182.423 23.1991C182.525 23.2959 182.606 23.4122 182.662 23.541C182.718 23.6698 182.748 23.8085 182.749 23.9489C182.744 24.231 182.629 24.4997 182.428 24.6986Z" fill="white"/>
</g>
<defs>
<clipPath id="clip0_3076_6188">
<rect width="200" height="66.9957" rx="8" fill="white"/>
</clipPath>
</defs>
</svg>
