<svg width="20" height="21" viewBox="0 0 20 21" fill="none" xmlns="http://www.w3.org/2000/svg">
<mask id="path-1-inside-1_410_17101" fill="white">
<path d="M18.4561 20.522H18.456L13.3816 20.5213C13.0454 20.5209 12.723 20.3871 12.4853 20.1493C12.2475 19.9115 12.1138 19.5891 12.1134 19.2529V14.1791C12.1133 14.067 12.0687 13.9595 11.9894 13.8803C11.9102 13.801 11.8027 13.7564 11.6906 13.7563H8.30815C8.19605 13.7564 8.08858 13.801 8.00931 13.8803C7.93005 13.9595 7.88546 14.067 7.88534 14.1791V19.2529C7.88495 19.5891 7.75121 19.9115 7.51344 20.1493C7.27567 20.3871 6.9533 20.5209 6.61703 20.5213L1.54408 20.522C1.37749 20.522 1.21252 20.4892 1.0586 20.4255C0.904674 20.3618 0.764814 20.2684 0.647005 20.1506C0.529196 20.0328 0.435746 19.8929 0.371994 19.739C0.308242 19.5851 0.275437 19.4201 0.275452 19.2535V9.48034C0.2756 9.30363 0.312598 9.1289 0.384083 8.96731C0.455569 8.80571 0.55997 8.6608 0.690619 8.54182L9.14602 0.853685C9.37898 0.640338 9.68341 0.521992 9.9993 0.521973C10.3152 0.521953 10.6196 0.640261 10.8526 0.853579L19.3094 8.54187C19.44 8.66086 19.5444 8.80577 19.6159 8.96737C19.6874 9.12896 19.7244 9.30369 19.7245 9.48039V19.2536C19.7246 19.4201 19.6918 19.5851 19.628 19.739C19.5643 19.8929 19.4708 20.0327 19.3531 20.1505C19.2353 20.2683 19.0954 20.3617 18.9415 20.4255C18.7876 20.4892 18.6227 20.522 18.4561 20.522ZM8.30815 12.9107H11.6906C12.0269 12.9111 12.3493 13.0448 12.5871 13.2826C12.8249 13.5204 12.9586 13.8428 12.959 14.1791V19.2529C12.9591 19.365 13.0037 19.4724 13.083 19.5517C13.1622 19.6309 13.2696 19.6755 13.3817 19.6757L18.4561 19.6764C18.5683 19.6763 18.6758 19.6318 18.7551 19.5525C18.8344 19.4732 18.8789 19.3657 18.8789 19.2535V9.48038C18.8789 9.42147 18.8665 9.36321 18.8427 9.30933C18.8189 9.25545 18.7841 9.20714 18.7405 9.16746L10.2839 1.47928C10.2062 1.40818 10.1047 1.36876 9.99935 1.36877C9.89404 1.36879 9.79255 1.40825 9.71489 1.47938L1.25949 9.16752C1.21592 9.20716 1.1811 9.25545 1.15726 9.30932C1.13343 9.36318 1.1211 9.42143 1.12106 9.48034V19.2535C1.12107 19.3091 1.13201 19.3641 1.15326 19.4154C1.17452 19.4667 1.20567 19.5133 1.24494 19.5525C1.28422 19.5918 1.33084 19.623 1.38215 19.6442C1.43345 19.6654 1.48844 19.6764 1.54398 19.6764L6.61693 19.6757C6.72902 19.6756 6.83649 19.631 6.91576 19.5517C6.99502 19.4724 7.03961 19.365 7.03973 19.2529V14.1791C7.04011 13.8428 7.17387 13.5204 7.41166 13.2826C7.64945 13.0448 7.97186 12.9111 8.30815 12.9107Z"/>
</mask>
<path d="M18.4561 20.522L18.4562 19.522H18.4561V20.522ZM18.456 20.522L18.4559 21.522H18.456V20.522ZM13.3816 20.5213L13.3803 21.5213H13.3815L13.3816 20.5213ZM12.1134 19.2529H11.1134L11.1134 19.254L12.1134 19.2529ZM12.1134 14.1791H13.1134L13.1134 14.178L12.1134 14.1791ZM11.6906 13.7563L11.6917 12.7563H11.6906V13.7563ZM8.30815 13.7563V12.7563L8.30708 12.7563L8.30815 13.7563ZM7.88534 14.1791L6.88534 14.178V14.1791H7.88534ZM7.88534 19.2529L8.88534 19.254V19.2529H7.88534ZM6.61703 20.5213L6.61716 21.5213H6.61827L6.61703 20.5213ZM1.54408 20.522L1.54395 19.522H1.54383L1.54408 20.522ZM0.275452 19.2535L1.27545 19.2536V19.2535H0.275452ZM0.275452 9.48034L-0.724548 9.4795V9.48034H0.275452ZM0.690619 8.54182L0.0178784 7.80194L0.0173219 7.80245L0.690619 8.54182ZM9.14602 0.853685L9.81877 1.59357L9.8214 1.59116L9.14602 0.853685ZM10.8526 0.853579L10.1773 1.59114L10.1799 1.5935L10.8526 0.853579ZM19.3094 8.54187L19.9828 7.80258L19.9821 7.80195L19.3094 8.54187ZM19.7245 9.48039H20.7245V9.47943L19.7245 9.48039ZM19.7245 19.2536H18.7245V19.2536L19.7245 19.2536ZM8.30815 12.9107V11.9107L8.30703 11.9107L8.30815 12.9107ZM11.6906 12.9107L11.6917 11.9107H11.6906V12.9107ZM12.959 14.1791H13.959L13.959 14.178L12.959 14.1791ZM12.959 19.2529H11.959L11.959 19.254L12.959 19.2529ZM13.3817 19.6757L13.3804 20.6757H13.3816L13.3817 19.6757ZM18.4561 19.6764L18.456 20.6764H18.4562L18.4561 19.6764ZM18.8789 19.2535L19.8789 19.2536V19.2535H18.8789ZM18.8789 9.48038H19.8789L19.8789 9.47933L18.8789 9.48038ZM18.7405 9.16746L19.414 8.42825L19.4132 8.42753L18.7405 9.16746ZM10.2839 1.47928L9.60875 2.217L9.61117 2.2192L10.2839 1.47928ZM9.71489 1.47938L10.3876 2.21926L10.3903 2.21685L9.71489 1.47938ZM1.25949 9.16752L0.586748 8.42764L0.586548 8.42782L1.25949 9.16752ZM1.12106 9.48034L0.121064 9.47975V9.48034H1.12106ZM1.12106 19.2535H0.121064V19.2536L1.12106 19.2535ZM1.54398 19.6764L1.54384 18.6764H1.54377L1.54398 19.6764ZM6.61693 19.6757L6.61706 20.6757L6.61807 20.6757L6.61693 19.6757ZM7.03973 19.2529L8.03973 19.254V19.2529H7.03973ZM7.03973 14.1791L6.03973 14.178V14.1791H7.03973ZM18.4561 19.522H18.456V21.522H18.4561V19.522ZM18.4561 19.522L13.3817 19.5213L13.3815 21.5213L18.4559 21.522L18.4561 19.522ZM13.3829 19.5213C13.3115 19.5212 13.243 19.4928 13.1924 19.4422L11.7781 20.8563C12.2031 21.2814 12.7793 21.5205 13.3803 21.5213L13.3829 19.5213ZM13.1924 19.4422C13.1419 19.3917 13.1135 19.3232 13.1134 19.2517L11.1134 19.254C11.1141 19.8551 11.3531 20.4313 11.7781 20.8563L13.1924 19.4422ZM13.1134 19.2529V14.1791H11.1134V19.2529H13.1134ZM13.1134 14.178C13.113 13.8011 12.9631 13.4397 12.6965 13.1732L11.2823 14.5874C11.1743 14.4794 11.1136 14.3329 11.1134 14.1802L13.1134 14.178ZM12.6965 13.1732C12.43 12.9066 12.0686 12.7567 11.6917 12.7563L11.6895 14.7563C11.5368 14.7561 11.3903 14.6954 11.2823 14.5874L12.6965 13.1732ZM11.6906 12.7563H8.30815V14.7563H11.6906V12.7563ZM8.30708 12.7563C7.93014 12.7567 7.56875 12.9066 7.3022 13.1732L8.71642 14.5874C8.60841 14.6954 8.46196 14.7561 8.30921 14.7563L8.30708 12.7563ZM7.3022 13.1732C7.03566 13.4397 6.88574 13.8011 6.88534 14.178L8.88534 14.1802C8.88518 14.3329 8.82443 14.4794 8.71642 14.5874L7.3022 13.1732ZM6.88534 14.1791V19.2529H8.88534V14.1791H6.88534ZM6.88534 19.2517C6.88526 19.3232 6.85684 19.3917 6.8063 19.4422L8.22058 20.8564C8.64558 20.4314 8.88465 19.8551 8.88534 19.254L6.88534 19.2517ZM6.8063 19.4422C6.75577 19.4928 6.68726 19.5212 6.61579 19.5213L6.61827 21.5213C7.21934 21.5206 7.79557 21.2814 8.22058 20.8564L6.8063 19.4422ZM6.6169 19.5213L1.54395 19.522L1.54421 21.522L6.61716 21.5213L6.6169 19.5213ZM1.54383 19.522C1.50858 19.522 1.47368 19.515 1.44112 19.5016L0.67607 21.3494C0.951354 21.4634 1.24639 21.522 1.54434 21.522L1.54383 19.522ZM1.44112 19.5016C1.40856 19.4881 1.37897 19.4683 1.35405 19.4434L-0.0600432 20.8577C0.150654 21.0684 0.400789 21.2355 0.67607 21.3494L1.44112 19.5016ZM1.35405 19.4434C1.32913 19.4185 1.30936 19.3889 1.29587 19.3563L-0.551887 20.1217C-0.437869 20.397 -0.270739 20.6471 -0.0600432 20.8577L1.35405 19.4434ZM1.29587 19.3563C1.28239 19.3238 1.27545 19.2889 1.27545 19.2536L-0.724548 19.2535C-0.724575 19.5514 -0.665904 19.8464 -0.551887 20.1217L1.29587 19.3563ZM1.27545 19.2535V9.48034H-0.724548V19.2535H1.27545ZM1.27545 9.48117C1.27548 9.44352 1.28337 9.40629 1.2986 9.37186L-0.530432 8.56275C-0.65817 8.85152 -0.724283 9.16374 -0.724548 9.4795L1.27545 9.48117ZM1.2986 9.37186C1.31383 9.33742 1.33608 9.30655 1.36392 9.28119L0.0173219 7.80245C-0.216137 8.01505 -0.402693 8.27399 -0.530432 8.56275L1.2986 9.37186ZM1.36336 9.2817L9.81876 1.59356L8.47328 0.113806L0.0178786 7.80194L1.36336 9.2817ZM9.8214 1.59116C9.86999 1.54666 9.93348 1.52198 9.99937 1.52197L9.99924 -0.478027C9.43334 -0.477992 8.88798 -0.265985 8.47064 0.116212L9.8214 1.59116ZM9.99937 1.52197C10.0653 1.52197 10.1287 1.54664 10.1773 1.59113L11.5279 0.116023C11.1105 -0.266122 10.5651 -0.478062 9.99924 -0.478027L9.99937 1.52197ZM10.1799 1.5935L18.6367 9.2818L19.9821 7.80195L11.5253 0.113654L10.1799 1.5935ZM18.636 9.28117C18.6639 9.30655 18.6861 9.33746 18.7014 9.37192L20.5304 8.56282C20.4027 8.27409 20.2162 8.01517 19.9828 7.80258L18.636 9.28117ZM18.7014 9.37192C18.7166 9.40638 18.7245 9.44365 18.7245 9.48134L20.7245 9.47943C20.7242 9.16372 20.6581 8.85154 20.5304 8.56282L18.7014 9.37192ZM18.7245 9.48039V19.2536H20.7245V9.48039H18.7245ZM18.7245 19.2536C18.7245 19.2889 18.7176 19.3238 18.7041 19.3563L20.5519 20.1216C20.6659 19.8464 20.7246 19.5514 20.7245 19.2535L18.7245 19.2536ZM18.7041 19.3563C18.6906 19.3889 18.6709 19.4185 18.646 19.4434L20.0602 20.8576C20.2708 20.6469 20.4379 20.3969 20.5519 20.1216L18.7041 19.3563ZM18.646 19.4434C18.621 19.4683 18.5915 19.4881 18.5589 19.5016L19.3242 21.3493C19.5994 21.2354 19.8495 21.0683 20.0602 20.8576L18.646 19.4434ZM18.5589 19.5016C18.5264 19.515 18.4915 19.522 18.4562 19.522L18.456 21.522C18.7539 21.522 19.0489 21.4634 19.3242 21.3493L18.5589 19.5016ZM8.30815 13.9107H11.6906V11.9107H8.30815V13.9107ZM11.6895 13.9107C11.7609 13.9108 11.8295 13.9392 11.88 13.9897L13.2942 12.5755C12.8691 12.1504 12.2928 11.9114 11.6917 11.9107L11.6895 13.9107ZM11.88 13.9897C11.9305 14.0402 11.9589 14.1088 11.959 14.1802L13.959 14.178C13.9583 13.5769 13.7193 13.0006 13.2942 12.5755L11.88 13.9897ZM11.959 14.1791V19.2529H13.959V14.1791H11.959ZM11.959 19.254C11.9594 19.6309 12.1093 19.9922 12.3758 20.2587L13.7901 18.8447C13.8981 18.9527 13.9589 19.0991 13.959 19.2518L11.959 19.254ZM12.3758 20.2587C12.6422 20.5252 13.0035 20.6752 13.3804 20.6757L13.3831 18.6757C13.5358 18.6759 13.6822 18.7367 13.7901 18.8447L12.3758 20.2587ZM13.3816 20.6757L18.456 20.6764L18.4563 18.6764L13.3819 18.6757L13.3816 20.6757ZM18.4562 20.6764C18.8335 20.6763 19.1954 20.5264 19.4622 20.2596L18.048 18.8454C18.1562 18.7372 18.303 18.6764 18.4561 18.6764L18.4562 20.6764ZM19.4622 20.2596C19.729 19.9928 19.8789 19.6309 19.8789 19.2536L17.8789 19.2535C17.8789 19.1004 17.9397 18.9536 18.048 18.8454L19.4622 20.2596ZM19.8789 19.2535V9.48038H17.8789V19.2535H19.8789ZM19.8789 9.47933C19.8787 9.28145 19.8373 9.08577 19.7572 8.90479L17.9282 9.71387C17.8958 9.64065 17.879 9.56149 17.8789 9.48144L19.8789 9.47933ZM19.7572 8.90479C19.6772 8.72381 19.5602 8.56151 19.414 8.42825L18.067 9.90667C18.0079 9.85276 17.9606 9.7871 17.9282 9.71387L19.7572 8.90479ZM19.4132 8.42753L10.9565 0.739349L9.61117 2.2192L18.0678 9.90738L19.4132 8.42753ZM10.959 0.741553C10.6969 0.501703 10.3544 0.368709 9.99917 0.368775L9.99954 2.36877C9.85489 2.3688 9.71547 2.31465 9.60876 2.217L10.959 0.741553ZM9.99917 0.368775C9.64389 0.368841 9.30152 0.501962 9.03951 0.741909L10.3903 2.21685C10.2836 2.31455 10.1442 2.36875 9.99954 2.36877L9.99917 0.368775ZM9.04215 0.739502L0.586748 8.42764L1.93223 9.90739L10.3876 2.21926L9.04215 0.739502ZM0.586548 8.42782C0.440032 8.56111 0.322949 8.72352 0.242794 8.90466L2.07173 9.71397C2.03925 9.78738 1.9918 9.8532 1.93243 9.90721L0.586548 8.42782ZM0.242794 8.90466C0.16264 9.0858 0.121179 9.28168 0.121064 9.47975L2.12106 9.48092C2.12102 9.56119 2.10422 9.64057 2.07173 9.71397L0.242794 8.90466ZM0.121064 9.48034V19.2535H2.12106V9.48034H0.121064ZM0.121064 19.2536C0.121073 19.4405 0.157891 19.6255 0.229417 19.7981L2.07711 19.0326C2.10613 19.1026 2.12106 19.1777 2.12106 19.2535L0.121064 19.2536ZM0.229417 19.7981C0.300942 19.9708 0.405773 20.1276 0.537926 20.2597L1.95196 18.8454C2.00557 18.899 2.0481 18.9626 2.07711 19.0326L0.229417 19.7981ZM0.537926 20.2597C0.670073 20.3919 0.826954 20.4967 0.999614 20.5681L1.76468 18.7203C1.83472 18.7493 1.89836 18.7918 1.95196 18.8454L0.537926 20.2597ZM0.999614 20.5681C1.17228 20.6396 1.35733 20.6764 1.54418 20.6764L1.54377 18.6764C1.61956 18.6763 1.69462 18.6912 1.76468 18.7203L0.999614 20.5681ZM1.54411 20.6764L6.61706 20.6757L6.6168 18.6757L1.54384 18.6764L1.54411 20.6764ZM6.61807 20.6757C6.99499 20.6753 7.35634 20.5253 7.62286 20.2588L6.20865 18.8446C6.31664 18.7366 6.46306 18.6759 6.61579 18.6757L6.61807 20.6757ZM7.62286 20.2588C7.88938 19.9923 8.0393 19.6309 8.03973 19.254L6.03974 19.2517C6.03991 19.099 6.10066 18.9526 6.20865 18.8446L7.62286 20.2588ZM8.03973 19.2529V14.1791H6.03973V19.2529H8.03973ZM8.03973 14.1802C8.03981 14.1088 8.06824 14.0402 8.11877 13.9897L6.70455 12.5755C6.2795 13.0006 6.04041 13.5769 6.03974 14.178L8.03973 14.1802ZM8.11877 13.9897C8.1693 13.9392 8.23781 13.9108 8.30927 13.9107L8.30703 11.9107C7.70592 11.9114 7.12961 12.1504 6.70455 12.5755L8.11877 13.9897Z" fill="#BDBDBD" mask="url(#path-1-inside-1_410_17101)"/>
</svg>
