<svg width="19" height="24" viewBox="0 0 19 24" fill="none" xmlns="http://www.w3.org/2000/svg">
<path d="M9.64893 0C4.71399 0 0.699219 4.01639 0.699219 8.95326C0.699219 16.3089 8.7581 23.491 9.10129 23.7932C9.25774 23.931 9.45329 24 9.64893 24C9.84456 24 10.0401 23.9311 10.1966 23.7932C10.5397 23.4911 18.5986 16.309 18.5986 8.95326C18.5986 4.01639 14.5839 0 9.64893 0ZM9.64893 22.0354C7.86719 20.3089 2.35659 14.5179 2.35659 8.95326C2.35659 4.93033 5.62793 1.65737 9.64893 1.65737C13.6699 1.65737 16.9413 4.93033 16.9413 8.95326C16.9413 14.5178 11.4307 20.3088 9.64893 22.0354Z" fill="#BDBDBD"/>
<path d="M9.64895 4.78247C7.36428 4.78247 5.50562 6.65349 5.50562 8.95328C5.50562 11.2532 7.36428 13.1241 9.64895 13.1241C11.9336 13.1241 13.7923 11.2532 13.7923 8.95328C13.7923 6.65349 11.9336 4.78247 9.64895 4.78247ZM9.64895 11.4667C8.27813 11.4667 7.1629 10.3392 7.1629 8.95328C7.1629 7.56743 8.27813 6.43984 9.64895 6.43984C11.0198 6.43984 12.135 7.56735 12.135 8.95328C12.135 10.3392 11.0198 11.4667 9.64895 11.4667Z" fill="#BDBDBD"/>
</svg>
