<svg width="22" height="24" viewBox="0 0 22 24" fill="none" xmlns="http://www.w3.org/2000/svg">
<path d="M6.85984 10.3444C6.29196 10.3444 5.83203 10.8047 5.83203 11.3726C5.83203 11.94 6.29196 12.4008 6.85984 12.4008C7.42793 12.4008 7.88806 11.94 7.88806 11.3726C7.88811 10.8047 7.42793 10.3444 6.85984 10.3444Z" fill="#FF453A"/>
<path d="M18.6157 2.91199C14.4095 -0.970663 7.59069 -0.970663 3.38448 2.91199C-0.820868 6.79427 -0.820868 13.0895 3.38448 16.9709L10.9998 24L18.6158 16.971C22.821 13.0895 22.821 6.79427 18.6157 2.91199ZM8.45996 13.9819C8.45996 14.2244 8.24673 14.4212 7.98374 14.4212H6.66866C6.40591 14.4212 6.19268 14.2244 6.19268 13.9819V13.0776H8.45996V13.9819ZM15.8071 13.9819C15.8071 14.2244 15.5941 14.4212 15.3311 14.4212H14.0165C13.7531 14.4212 13.5401 14.2244 13.5401 13.9819V13.0776H15.8071V13.9819ZM15.1397 12.7033H6.8598C5.54045 12.7033 4.4712 11.7154 4.4712 10.4978C4.4712 9.55811 5.1082 8.75598 6.0053 8.4385L6.67424 6.20214C7.03535 4.99521 8.22419 4.15929 9.58096 4.15929H12.419C13.7749 4.15929 14.9646 4.99521 15.326 6.20214L15.9945 8.4385C16.8918 8.75641 17.5288 9.55811 17.5288 10.4978C17.5288 11.7155 16.4591 12.7033 15.1397 12.7033Z" fill="#FF453A"/>
<path d="M13.6623 6.96215C13.4694 6.26401 12.8286 5.776 12.1039 5.776H9.89523C9.17033 5.776 8.52972 6.26406 8.3368 6.96306L8.09346 7.84452C8.07609 7.90699 8.08924 7.97346 8.1283 8.0248C8.1673 8.07609 8.22823 8.10645 8.29267 8.10645H13.7065C13.771 8.10645 13.8318 8.07609 13.8708 8.0248C13.9104 7.97351 13.923 7.90699 13.9054 7.84452L13.6623 6.96215Z" fill="#FF453A"/>
<path d="M15.1395 10.3444C14.5719 10.3444 14.1113 10.8047 14.1113 11.3726C14.1113 11.94 14.5719 12.4008 15.1395 12.4008C15.7076 12.4008 16.168 11.94 16.168 11.3726C16.168 10.8047 15.7076 10.3444 15.1395 10.3444Z" fill="#FF453A"/>
</svg>
