<svg width="20" height="24" viewBox="0 0 20 24" fill="none" xmlns="http://www.w3.org/2000/svg">
<path d="M17.0298 2.91185C13.1471 -0.970618 6.85253 -0.970618 2.97006 2.91185C-0.911895 6.79362 -0.911895 13.0889 2.97006 16.971L9.99977 24L17.0297 16.971C20.9115 13.0889 20.9115 6.79358 17.0298 2.91185ZM9.99977 3.92764C11.5053 3.92764 12.7258 5.14822 12.7258 6.65389C12.7258 8.15994 11.5053 9.38014 9.99977 9.38014C8.49386 9.38014 7.27333 8.15994 7.27333 6.65389C7.27333 5.14822 8.49391 3.92764 9.99977 3.92764ZM6.08819 14.3167C6.08819 12.1565 7.83944 10.4051 9.99982 10.4051C12.1598 10.4051 13.9113 12.1565 13.9113 14.3167H6.08819Z" fill="#FF453A"/>
</svg>
