<svg width="221" height="100" viewBox="0 0 221 100" fill="none" xmlns="http://www.w3.org/2000/svg">
<path fill-rule="evenodd" clip-rule="evenodd" d="M39.9384 35.078C57.8551 35.078 72.3774 49.6003 72.3774 67.5169C72.3774 85.4336 57.8551 99.9559 39.9384 99.9559C22.0218 99.9559 7.49951 85.4336 7.49951 67.5169C7.49951 49.6003 22.0218 35.078 39.9384 35.078Z" fill="white"/>
<path d="M39.9388 35.0039C48.9119 35.0039 57.0437 38.6492 62.9176 44.5231C68.8062 50.4117 72.4367 58.5288 72.4367 67.5019C72.4367 76.475 68.7914 84.6068 62.9176 90.4807C57.029 96.3693 48.9119 99.9998 39.9388 99.9998C30.9657 99.9998 22.8338 96.3545 16.96 90.4807C11.0714 84.5921 7.4408 76.475 7.4408 67.5019C7.4408 58.5288 11.0861 50.3969 16.96 44.5231C22.8485 38.6345 30.9657 35.0039 39.9388 35.0039ZM62.829 44.6264C56.9699 38.7673 48.8823 35.1515 39.9388 35.1515C30.9952 35.1515 22.9076 38.7673 17.0485 44.6264C11.1894 50.4855 7.57362 58.573 7.57362 67.5166C7.57362 76.4602 11.1894 84.5478 17.0485 90.4069C22.9076 96.266 30.9952 99.8818 39.9388 99.8818C48.8676 99.8818 56.9699 96.266 62.829 90.4069C68.6881 84.5478 72.3039 76.4602 72.3039 67.5166C72.3039 58.573 68.6881 50.4855 62.829 44.6264Z" fill="black"/>
<path d="M29.6224 62.2628C29.5634 62.3219 29.5043 62.499 29.4748 62.7941C29.4306 63.0893 29.2977 64.4176 29.0764 66.8232C28.8697 69.214 28.7517 71.1326 28.7517 72.5642C28.7517 73.1988 28.8255 73.8629 28.9583 74.5713C29.0026 74.7484 29.0173 74.8665 29.0173 74.9403C29.0173 75.3535 28.914 75.7225 28.6926 76.0619C28.4713 76.4014 28.2056 76.5785 27.8957 76.5785C27.6891 76.5785 27.4087 76.4604 27.0987 76.1948C26.774 75.9439 26.5822 75.5159 26.5084 74.9108C26.4494 74.3057 26.4198 73.5087 26.4198 72.5347C26.4198 71.295 26.5527 69.3173 26.8036 66.6166C27.0545 63.9158 27.202 62.558 27.2316 62.5285C27.0545 62.5285 26.3461 62.5875 25.0768 62.7056C23.8076 62.8237 23.0844 62.8827 22.8926 62.8827C22.2285 62.8827 21.771 62.7794 21.5053 62.5728C21.2544 62.3661 21.1216 62.0415 21.1216 61.5987C21.1216 61.2002 21.2544 60.9051 21.5348 60.6837C21.8005 60.4771 22.5089 60.3738 23.6158 60.3738C25.4605 60.3738 27.2906 60.2262 29.0616 59.931C31.0687 59.5621 32.5888 59.3702 33.6219 59.3702C34.7878 59.3702 35.4815 59.5325 35.7324 59.872C35.9833 60.1967 36.1013 60.5361 36.1013 60.8608C36.1013 61.6135 35.8209 61.9972 35.2749 61.9972C35.0978 61.9972 34.8026 61.9677 34.4041 61.9234C34.0057 61.8791 33.5186 61.8644 32.9873 61.8644C31.3639 61.8644 30.2275 61.9972 29.6077 62.2776L29.6224 62.2628ZM36.2047 75.8406C35.8209 75.8406 35.5405 75.752 35.3487 75.5601C35.1568 75.3683 35.0683 74.896 35.0683 74.1138C35.0683 73.6858 35.083 73.3464 35.1125 73.1102C35.142 72.8741 35.3044 72.697 35.5848 72.5642C35.8652 72.4314 36.2637 72.3723 36.795 72.3723C37.1935 72.3723 37.4886 72.4756 37.6952 72.697C37.9019 72.9184 38.0052 73.1693 38.0052 73.4202C38.0052 73.8629 37.9461 74.2024 37.8428 74.4237C37.7248 74.6599 37.4886 74.955 37.1049 75.2945C36.736 75.6487 36.426 75.811 36.2047 75.811V75.8406ZM44.3365 69.2436V69.2583C44.4103 69.096 44.4841 68.9484 44.5431 68.8008C44.7793 68.3138 45.6353 66.1738 47.1111 62.3809C47.8047 60.5951 48.218 59.5473 48.3656 59.2521C48.5131 58.957 48.7493 58.6913 49.0887 58.4847C49.4282 58.2633 49.7529 58.1453 50.0923 58.1305C50.7712 58.1305 51.1992 58.3076 51.391 58.6618C51.5829 59.016 51.8043 60.0934 52.0699 61.8791C52.1732 62.558 52.2618 63.1336 52.3651 63.5911C52.4536 64.0043 52.4979 64.2552 52.5127 64.3733C52.8816 66.3804 53.2949 68.2547 53.7819 70.011C54.2689 71.7672 54.6526 72.8446 54.9183 73.2578C55.0954 73.2283 55.3168 73.2136 55.5677 73.2136C56.0252 73.2136 56.3351 73.3021 56.4827 73.4645C56.645 73.6416 56.7188 73.981 56.7188 74.4975C56.7188 75.6192 56.6598 77.2574 56.5122 79.4268C56.4532 80.1943 56.4384 80.6075 56.4384 80.6813C56.4384 80.9765 56.3203 81.2716 56.0842 81.5373C55.8481 81.8177 55.5381 81.9505 55.1692 81.9505C55.0068 81.9505 54.8445 81.8915 54.6674 81.7587C54.4903 81.6258 54.3722 81.5078 54.2984 81.3897C54.2246 81.2716 54.1804 81.065 54.1804 80.7403C54.1804 80.4304 54.2246 79.7958 54.3132 78.8513C54.387 77.9805 54.4165 77.4197 54.4165 77.1836C54.4165 76.2981 54.3427 75.8553 54.2099 75.8553C52.9554 75.8553 49.3101 76.18 43.3034 76.8441C42.7131 76.9032 42.4179 76.9769 42.3884 77.0803C42.0932 78.1576 41.9457 79.1907 41.9309 80.1943V80.7994C41.9309 81.7734 41.5472 82.3047 40.7945 82.408L40.6912 82.4228C40.3813 82.4671 40.1451 82.3785 39.9385 82.1571C39.7319 81.9505 39.6434 81.6258 39.6434 81.1978C39.6434 80.7256 39.7467 79.4859 39.968 77.4787C39.9976 77.095 40.0271 76.7408 40.0418 76.4309C40.0566 75.9586 40.1304 75.5749 40.278 75.2797C40.4256 74.9846 40.7355 74.7927 41.193 74.7042C41.5324 74.6008 41.8276 74.3352 42.0637 73.8924C42.1228 73.7744 42.1818 73.6711 42.2556 73.5678C42.595 72.9332 43.2887 71.5016 44.366 69.2583L44.3365 69.2436ZM44.6169 74.3647L52.1142 73.5973C51.9223 72.6823 51.6862 71.6787 51.3763 70.6161C51.0663 69.5535 50.8745 68.786 50.7564 68.3138C50.3579 66.5575 50.0628 65.0817 49.8709 63.8863L49.5905 62.2481C49.502 62.5137 48.9559 63.8715 47.9671 66.3066C46.9783 68.7418 46.2699 70.439 45.8271 71.413C45.0154 73.1988 44.6022 74.1729 44.5874 74.3204L44.6022 74.35L44.6169 74.3647ZM59.7886 75.8406C59.4048 75.8406 59.1244 75.752 58.9326 75.5601C58.7407 75.3683 58.6522 74.896 58.6522 74.1138C58.6522 73.6858 58.6669 73.3464 58.6964 73.1102C58.7259 72.8741 58.8883 72.697 59.1687 72.5642C59.4491 72.4314 59.8476 72.3723 60.3789 72.3723C60.7774 72.3723 61.0725 72.4756 61.2791 72.697C61.4858 72.9184 61.5891 73.1693 61.5891 73.4202C61.5891 73.8629 61.53 74.2024 61.4267 74.4237C61.3087 74.6599 61.0725 74.955 60.6888 75.2945C60.3199 75.6487 60.0099 75.811 59.7886 75.811V75.8406Z" fill="black"/>
<path d="M62.8881 48.0355C65.1609 50.7068 66.9761 53.7765 68.2011 57.1414C69.3818 60.3735 70.0311 63.8712 70.0311 67.5166C70.0311 75.8255 66.6662 83.3523 61.2204 88.7982C55.7745 94.244 48.2478 97.6089 39.9388 97.6089C31.6298 97.6089 24.103 94.244 18.6572 88.7982C13.2113 83.3523 9.84644 75.8255 9.84644 67.5166C9.84644 63.6499 10.5696 59.9603 11.8979 56.5659C13.2704 53.0386 15.2923 49.8508 17.816 47.1205L18.3473 47.6075C15.8826 50.2788 13.9197 53.3928 12.5767 56.8315C11.278 60.1374 10.5696 63.7384 10.5696 67.5166C10.5696 75.6189 13.8607 82.9686 19.1737 88.2816C24.4868 93.5946 31.8217 96.8858 39.9388 96.8858C48.0411 96.8858 55.3908 93.5946 60.7038 88.2816C66.0168 82.9686 69.308 75.6337 69.308 67.5166C69.308 63.9598 68.6734 60.5506 67.5222 57.3923C66.3268 54.116 64.5558 51.12 62.342 48.5078L62.9028 48.0355H62.8881Z" fill="black"/>
<path fill-rule="evenodd" clip-rule="evenodd" d="M19.4687 24.5405C19.7196 24.142 19.3949 23.9354 20.1328 22.7252C20.1181 24.7766 19.8524 26.2524 20.1623 28.3924C20.428 30.252 20.5313 31.6983 21.2987 33.2922C22.14 35.0632 22.8779 35.3141 24.2799 36.3472C29.1354 39.9187 26.2871 39.3874 27.7777 41.9849C28.1761 42.6933 28.5746 43.1803 29.0469 43.7264L30.5375 45.2612C31.0835 45.8516 31.9986 46.4124 32.1462 46.7518C32.4708 47.5488 32.6037 48.1982 33.1497 48.7737C34.6698 50.3824 37.9905 50.8399 40.2485 50.8399C42.4327 50.8399 45.7977 50.3824 47.303 48.818C48.2918 47.7849 47.9376 46.8994 48.6608 46.3681C50.0038 45.3793 51.8338 43.4607 52.6751 42.0439C54.7117 38.679 51.5534 39.653 56.1433 36.3767C57.6339 35.196 58.298 35.1222 59.1835 33.3069C59.8772 31.9049 60.1281 30.1339 60.3199 28.4072C60.4232 27.4331 60.497 26.5328 60.4823 25.5293C60.4675 24.8947 60.2756 23.0941 60.3494 22.7104C61.0578 23.9649 60.7627 24.142 60.9988 24.5257C61.6924 23.9649 61.6482 22.1053 61.2792 21.087C61.0726 20.5114 61.0431 20.6295 61.3087 20.0834C63.3601 15.8183 64.7917 11.1251 64.4375 6.12199C64.3194 4.32147 63.8767 2.91943 62.9469 1.93061C61.9286 0.838493 60.9545 -0.165078 58.9474 0.351466C57.8553 0.631875 57.0435 1.17794 56.2909 1.94537C56.0695 2.16675 55.7743 2.40288 55.5825 2.65377C54.387 4.12961 54.1509 4.66091 53.1769 6.00393C50.9188 6.35813 49.1183 4.69043 44.5727 3.50976C43.6725 3.27363 44.3809 1.94537 43.0526 1.88634C42.4918 1.85682 40.8684 2.93418 40.2337 2.93418C39.2449 2.93418 41.8277 0.395741 40.8093 0.49905C39.3925 0.631875 34.4042 3.45073 33.1792 3.8492C30.2276 4.8085 29.5782 6.10724 27.2464 6.0482C26.8479 5.07415 24.5456 2.10771 23.4682 1.32552C22.2433 0.425258 20.5903 -0.150319 19.144 0.572842C18.3766 0.941801 18.0519 1.36979 17.5944 1.87158C14.7017 5.05939 16.2219 12.5714 17.4763 16.0249C17.9929 17.4564 18.5242 18.7404 19.1293 20.0392C19.631 21.1018 19.1293 20.5114 18.9522 22.1939C18.8784 22.9466 18.9817 24.1125 19.4687 24.5552V24.5405Z" fill="white"/>
<path d="M19.8232 24.1419C19.7937 24.319 19.779 24.4666 19.6609 24.6584L19.5281 24.8798L19.3362 24.7027C19.0853 24.4666 18.923 24.0976 18.8197 23.6696C18.7164 23.1678 18.7016 22.5923 18.7459 22.1643C18.8344 21.3821 18.982 21.0722 19.0706 20.8655C19.1591 20.6884 19.1739 20.6294 18.9377 20.1276C18.6278 19.4782 18.3474 18.8141 18.067 18.15C17.7866 17.4711 17.5209 16.7922 17.27 16.0838C16.5174 14.0324 15.6909 10.5937 15.7056 7.43541C15.7204 5.17737 16.1779 3.06692 17.4176 1.69439L17.5504 1.54681C17.9489 1.10406 18.3031 0.705582 19.0263 0.351381C19.7347 -0.00282046 20.4874 -0.061854 21.2253 0.0709715C22.0813 0.218555 22.893 0.63179 23.5866 1.13358C24.1179 1.51729 24.9444 2.41755 25.6823 3.36209C26.4202 4.29187 27.0991 5.26592 27.3648 5.82674C28.5897 5.82674 29.3424 5.41351 30.2869 4.89696C31.0101 4.49849 31.8513 4.04098 33.091 3.6425C33.5338 3.49492 34.5373 3.00789 35.6737 2.43231C37.5628 1.48778 39.8504 0.366139 40.7654 0.277589C41.0753 0.248072 41.2229 0.366139 41.2376 0.602273C41.2672 0.882683 40.9868 1.32543 40.6916 1.76819C40.4407 2.16666 40.1898 2.56514 40.1898 2.74224C40.1898 2.757 40.1898 2.71272 40.2046 2.71272C40.4702 2.71272 41.031 2.44707 41.5623 2.19618C42.1379 1.91577 42.6987 1.65012 43.0382 1.66488C43.9384 1.70915 44.0565 2.21094 44.1893 2.69796C44.2631 2.96361 44.3222 3.22927 44.6026 3.30306C46.5212 3.80484 47.9527 4.39518 49.1481 4.88221C50.6978 5.51682 51.8194 5.97433 53.0444 5.81198C53.3838 5.33972 53.6347 4.97076 53.8561 4.63131C54.2693 4.01146 54.6383 3.45064 55.3909 2.52086C55.5238 2.34376 55.7009 2.18142 55.8632 2.03384C55.9518 1.94529 56.0403 1.87149 56.1141 1.7977C56.4978 1.39923 56.8963 1.05978 57.3538 0.794132C57.8113 0.513723 58.2983 0.292347 58.8739 0.144763C59.9365 -0.120888 60.7335 -0.00282046 61.3976 0.351381C62.047 0.690824 62.5635 1.22213 63.0801 1.78294C63.5671 2.29949 63.9213 2.9341 64.1722 3.65726C64.4231 4.38042 64.5559 5.19213 64.6297 6.10715C64.8068 8.63084 64.5264 11.0807 63.9508 13.4273C63.3752 15.7739 62.5045 18.0319 61.4714 20.1719L61.4271 20.2604C61.3386 20.4375 61.2943 20.5261 61.2943 20.5704C61.2943 20.6146 61.3238 20.6737 61.3681 20.8065C61.3828 20.8508 61.4124 20.9098 61.4419 21.0131C61.6485 21.5887 61.7666 22.4299 61.6928 23.1678C61.6337 23.8172 61.4566 24.3928 61.0877 24.688L60.8958 24.8503L60.763 24.6437C60.6597 24.4666 60.6302 24.3338 60.6154 24.1567C60.6006 24.0533 60.5859 23.9353 60.5416 23.7729C60.5564 23.9796 60.5711 24.1862 60.5859 24.3928C60.6154 24.8355 60.6449 25.2635 60.6597 25.5292C60.6597 26.031 60.6449 26.518 60.6302 26.9903C60.6007 27.4625 60.5564 27.9348 60.4973 28.4366C60.394 29.3073 60.2907 30.1781 60.1136 31.0193C59.9365 31.8605 59.7004 32.6722 59.3462 33.3954C58.6525 34.827 58.0917 35.2107 57.1915 35.8453C56.9111 36.0372 56.6011 36.2585 56.2469 36.5389H56.2322C53.5904 38.428 53.6052 38.8265 53.6347 39.5054C53.6494 40.0514 53.679 40.7303 52.823 42.1471C52.4097 42.8555 51.7456 43.6672 51.0372 44.4494C50.2845 45.2611 49.4581 46.0286 48.7497 46.5451C48.4693 46.7517 48.3807 47.0617 48.2774 47.4159C48.1446 47.8734 47.9822 48.4047 47.4214 48.9803C46.7425 49.6887 45.7094 50.1757 44.5878 50.5004C43.1267 50.9136 41.4738 51.076 40.2193 51.076C38.9353 51.076 37.2972 50.9284 35.8361 50.5004C34.6997 50.1757 33.6666 49.6739 32.9729 48.936C32.545 48.4785 32.3531 47.9915 32.1465 47.4159C32.0727 47.224 32.0137 47.0322 31.9251 46.8403C31.8661 46.7075 31.5709 46.4713 31.2315 46.1909C30.9363 45.9548 30.6116 45.6891 30.3607 45.4087L28.8701 43.8739C28.6192 43.5934 28.3979 43.3278 28.1912 43.0474C27.9846 42.767 27.778 42.4571 27.5714 42.1029C26.9958 41.114 27.0401 40.5385 27.0548 40.0514C27.0991 39.2988 27.1286 38.7379 24.1327 36.5389C23.8965 36.3618 23.6604 36.1995 23.439 36.0519C22.4355 35.3583 21.8009 34.9155 21.0777 33.4102C20.4136 32.0081 20.2365 30.7241 20.0298 29.204C20.0003 28.9679 19.9708 28.7318 19.9265 28.4366C19.7199 26.9312 19.779 25.7653 19.838 24.4961C19.8527 24.2452 19.8675 23.9943 19.8675 23.7434C19.8085 23.9205 19.7937 24.0386 19.779 24.1567L19.8232 24.1419ZM19.3952 24.0386C19.4248 23.7582 19.4985 23.3597 19.9708 22.607L20.384 21.9281L20.3693 22.7103C20.3693 23.3597 20.3398 23.9353 20.3103 24.4961C20.2512 25.7358 20.1922 26.887 20.3988 28.348C20.4283 28.5842 20.4726 28.8498 20.5021 29.1155C20.694 30.6061 20.8711 31.8458 21.5057 33.1888C22.1698 34.5761 22.7749 35.0041 23.7194 35.6534C23.9261 35.801 24.1622 35.9634 24.4131 36.1552C27.6157 38.5018 27.5714 39.1659 27.5123 40.0514C27.4828 40.4794 27.4533 40.9812 27.9699 41.8667C28.1617 42.2062 28.3536 42.5013 28.5602 42.767C28.7668 43.0326 28.9734 43.2835 29.2096 43.5492L30.7002 45.084C30.9363 45.3349 31.2462 45.5858 31.5414 45.822C31.9251 46.1319 32.2498 46.3975 32.3531 46.6337C32.4416 46.8403 32.5154 47.0469 32.5745 47.224C32.7663 47.7406 32.9287 48.1981 33.2976 48.5818C33.9322 49.2459 34.8915 49.7182 35.9689 50.0281C37.3857 50.4413 38.9796 50.5889 40.2341 50.5889C41.459 50.5889 43.0677 50.4413 44.4845 50.0281C45.5471 49.7182 46.5064 49.2754 47.1262 48.6261C47.6133 48.1243 47.7461 47.652 47.8789 47.2388C48.0117 46.8108 48.1151 46.4418 48.5135 46.1467C49.1924 45.6449 49.9894 44.9069 50.7273 44.11C51.4209 43.3573 52.0555 42.5604 52.4688 41.8815C53.251 40.5827 53.2362 39.9629 53.2215 39.4759C53.1919 38.6494 53.1772 38.1624 55.996 36.1405C56.365 35.8453 56.6897 35.6239 56.9701 35.4321C57.8113 34.8417 58.3279 34.4728 58.9772 33.1445C59.3167 32.4656 59.538 31.6834 59.7151 30.8717C59.8922 30.0453 59.9956 29.1893 60.0989 28.3185C60.1579 27.8315 60.2022 27.3592 60.2317 26.9017C60.2612 26.4294 60.276 25.9572 60.2612 25.4702C60.2612 25.234 60.2317 24.8208 60.1874 24.3633C60.1284 23.6549 60.0841 22.8727 60.1136 22.607L60.2169 22.0019L60.5269 22.5332C60.9696 23.3154 61.0434 23.7139 61.0729 23.9796C61.191 23.7434 61.2648 23.4187 61.2943 23.0645C61.3533 22.3857 61.25 21.6182 61.0582 21.0869L60.9844 20.8951C60.9106 20.718 60.8811 20.6146 60.8811 20.4818C60.8811 20.3342 60.9401 20.2309 61.0434 19.9948L61.0877 19.9062C62.106 17.781 62.9767 15.5525 63.5376 13.2502C64.0984 10.9331 64.364 8.54228 64.2017 6.06288C64.1427 5.17737 64.0098 4.39518 63.7737 3.71629C63.5376 3.05217 63.2129 2.47659 62.7849 2.00432C62.2979 1.47302 61.8108 0.971233 61.2205 0.661307C60.6449 0.366139 59.9513 0.248072 58.992 0.498965C58.4607 0.63179 58.0032 0.838408 57.5899 1.0893C57.1767 1.35495 56.793 1.66488 56.4388 2.03384C56.3502 2.12239 56.2617 2.19618 56.1731 2.28473C56.0108 2.43231 55.8484 2.5799 55.7304 2.72748C54.9925 3.6425 54.6235 4.18856 54.2103 4.80841C53.9594 5.17737 53.6937 5.57585 53.3395 6.07763L53.2805 6.15143L53.1919 6.16618C51.8194 6.3728 50.6387 5.90053 48.9858 5.22165C47.8199 4.74938 46.4031 4.15904 44.4993 3.67202C43.9679 3.53919 43.8646 3.15547 43.7761 2.757C43.6875 2.41755 43.599 2.07811 43.0234 2.04859C42.802 2.03384 42.2855 2.28473 41.7542 2.53562C41.1786 2.81603 40.5735 3.09644 40.2046 3.09644C39.8799 3.09644 39.7618 2.94886 39.7618 2.68321C39.7618 2.38804 40.057 1.93053 40.3374 1.47302C40.544 1.14833 40.7506 0.823649 40.8097 0.646548C39.9684 0.735099 37.7252 1.84198 35.8804 2.757C34.7292 3.33257 33.7109 3.83436 33.2386 3.98194C32.0432 4.36566 31.2167 4.82317 30.5231 5.20689C29.4752 5.78247 28.6783 6.22522 27.2467 6.1957H27.0991L27.0401 6.06288C26.8482 5.57585 26.1398 4.55752 25.3576 3.56871C24.6345 2.65369 23.8375 1.78294 23.3357 1.42874C22.6864 0.956475 21.9337 0.587515 21.1515 0.439931C20.5021 0.321864 19.838 0.380898 19.2181 0.676065C18.5688 1.00075 18.2441 1.35495 17.8751 1.76819L17.7423 1.91577C16.5911 3.18499 16.1631 5.20689 16.1484 7.36161C16.1189 10.4609 16.9453 13.8405 17.6833 15.8477C17.9489 16.5708 18.2146 17.2497 18.4802 17.8991C18.7459 18.5632 19.041 19.2126 19.3362 19.8472C19.6609 20.5409 19.6166 20.6294 19.469 20.9541C19.3805 21.1312 19.2477 21.4116 19.1739 22.12C19.1296 22.5185 19.1443 23.035 19.2477 23.4925C19.2772 23.6549 19.3362 23.8172 19.3952 23.95V24.0386ZM40.8392 0.661307V0.646548C40.8392 0.617032 40.8392 0.646549 40.8392 0.661307Z" fill="black"/>
<path fill-rule="evenodd" clip-rule="evenodd" d="M23.5128 15.3016L24.2212 15.0802C26.1988 13.8257 30.8182 14.3127 33.2238 14.7112L36.4854 15.213C35.7918 14.7112 33.7994 14.0914 32.8253 13.7224C31.438 13.2059 30.6263 12.7779 28.9881 12.6746C26.9958 12.6746 25.4904 12.6598 23.8227 14.6374C23.6161 14.8883 23.5571 15.0211 23.3209 15.2573L23.498 15.3016H23.5128Z" fill="black"/>
<path fill-rule="evenodd" clip-rule="evenodd" d="M25.3427 18.1353C27.1579 15.8773 30.877 14.5933 34.6995 15.3608C35.0537 15.8626 35.3488 20.1868 34.4633 20.9985C32.6481 22.6662 29.2979 23.1975 27.0399 21.5003C26.0215 20.7328 25.5935 19.3013 25.3427 18.1353Z" fill="black"/>
<path fill-rule="evenodd" clip-rule="evenodd" d="M32.4414 28.9088C36.6771 30.5765 37.3855 30.5618 42.241 30.4289C44.7204 30.3551 47.923 29.4696 49.3103 29.1302C50.7418 28.7907 54.4609 32.4803 53.5459 38.7379C53.236 40.8041 53.4869 39.5053 53.2212 40.7008C52.2619 44.8921 48.4247 45.5415 48.2329 46.9583C48.0558 48.3751 47.4507 49.8067 45.0894 50.5446C42.7428 51.2825 39.0975 50.9578 35.9244 50.279C32.7513 49.6001 33.6221 49.5706 32.4562 47.5634C31.2903 45.5563 27.4531 44.2575 27.2907 40.317C27.1284 36.3913 26.1101 29.263 32.4414 28.9088Z" fill="white"/>
<path d="M32.5003 28.7318C34.6108 29.5583 35.8357 29.9715 37.1197 30.1634C38.4184 30.3552 39.8057 30.3109 42.2261 30.2519C44.3365 30.1929 47.0078 29.5287 48.5869 29.1303C48.8083 29.0712 49.0149 29.027 49.2511 28.9679C49.3839 28.9384 49.5167 28.9384 49.6791 28.9532C50.2842 29.0417 51.0663 29.5583 51.7895 30.4438C52.4979 31.3145 53.162 32.5542 53.531 34.1038C53.8557 35.4321 53.959 37.0112 53.6933 38.7822C53.5605 39.6973 53.531 39.9482 53.531 40.0367C53.531 40.0662 53.531 40.0957 53.5162 40.1105C53.5162 40.14 53.5015 40.1695 53.4867 40.2138C53.472 40.2876 53.4277 40.4499 53.3687 40.7451C52.7636 43.4311 51.0073 44.6856 49.7233 45.6006C49.0002 46.1172 48.4394 46.5304 48.3803 46.9732C48.2918 47.7111 48.0852 48.449 47.5834 49.0984C47.0963 49.7477 46.3289 50.3233 45.104 50.707C43.9971 51.0612 42.6246 51.1645 41.1635 51.1203C39.4367 51.076 37.5772 50.7956 35.8505 50.4266C33.3268 49.8953 33.2677 49.733 32.825 48.7294C32.6922 48.449 32.5446 48.0948 32.2642 47.6225C31.8805 46.9732 31.1868 46.3828 30.4341 45.7334C28.9288 44.4495 27.1873 42.9736 27.084 40.3024C27.0692 39.9629 27.0545 39.5792 27.0249 39.166C26.7888 35.0631 26.4641 29.027 32.4118 28.7023H32.456L32.4855 28.717L32.5003 28.7318ZM37.0754 30.5176C35.7471 30.3257 34.5222 29.9125 32.4118 29.086C26.8626 29.4107 27.1873 35.2107 27.4087 39.1512C27.4382 39.5497 27.4529 39.9186 27.4677 40.2876C27.571 42.7965 29.2387 44.2281 30.6998 45.453C31.482 46.1172 32.2051 46.7223 32.6036 47.4307C32.884 47.9029 33.0464 48.2719 33.1792 48.5671C33.5629 49.423 33.6219 49.5559 35.9538 50.0577C37.6657 50.4266 39.4958 50.6923 41.193 50.7365C42.6246 50.7808 43.9528 50.6627 45.0154 50.3381C46.1518 49.9839 46.8602 49.4526 47.303 48.8622C47.7457 48.2719 47.9376 47.5782 48.0261 46.8994C48.0999 46.2943 48.7198 45.8515 49.5167 45.2759C50.7417 44.3904 52.4389 43.1802 53.0145 40.627C53.0882 40.3024 53.1178 40.1695 53.1473 40.0957C53.162 40.0515 53.162 40.022 53.162 40.022V39.9629C53.1768 39.8596 53.2063 39.594 53.3391 38.6789C53.59 36.9522 53.4867 35.4321 53.1768 34.1481C52.8226 32.6575 52.188 31.4768 51.5091 30.6356C50.845 29.8239 50.1366 29.3516 49.62 29.2778C49.5167 29.2631 49.4134 29.2631 49.3249 29.2778C49.192 29.3074 48.9411 29.3664 48.6607 29.4402C47.0816 29.8387 44.3808 30.5176 42.2261 30.5766C39.7909 30.6504 38.3889 30.6799 37.0606 30.488L37.0754 30.5176Z" fill="black"/>
<path fill-rule="evenodd" clip-rule="evenodd" d="M34.0649 14.5046C33.7402 15.6853 34.8766 16.1133 34.3748 20.2309C33.873 24.3632 31.8068 28.3628 31.4379 28.9088C31.0689 29.4696 33.6959 30.7388 33.6959 30.7388C33.6959 30.7388 34.6847 25.4701 34.6847 24.9536C34.6847 24.437 36.6328 15.5967 36.4852 15.213C36.3376 14.8293 34.0649 14.4899 34.0649 14.4899V14.5046Z" fill="black"/>
<path fill-rule="evenodd" clip-rule="evenodd" d="M40.0123 35.6089C40.0123 35.6089 40.706 38.2064 40.8978 39.6675C41.0897 41.1433 41.4439 36.3321 41.621 35.6827C41.8129 35.0334 40.0123 35.6089 40.0123 35.6089Z" fill="black"/>
<path fill-rule="evenodd" clip-rule="evenodd" d="M32.6037 26.8721C32.6037 26.8721 32.3085 29.1596 32.6775 29.3515C33.0612 29.5433 34.05 29.5729 35.2897 29.7057C39.5254 30.1779 43.2888 30.5026 47.5835 29.6466C48.469 29.4695 48.6756 29.4843 48.6608 29.44L48.2033 27.0197C48.2033 27.0197 49.0741 27.0049 49.2659 27.7871C49.4578 28.5693 49.6349 29.0416 49.5463 29.5433C49.4578 30.0304 49.1478 30.9601 48.1295 31.7719C47.1259 32.5688 46.2404 33.2182 45.7977 33.3953C45.3549 33.5724 45.1631 33.6019 44.7794 33.41C44.3809 33.2182 44.3071 32.923 44.3071 32.923C44.3071 32.923 43.6872 33.0706 43.4216 33.4838C43.1412 33.8971 43.1707 34.1332 43.1707 34.1332C43.1707 34.1332 43.4364 34.2365 43.643 34.3251C43.8348 34.4284 44.0562 34.6055 44.0562 34.6055C44.0562 34.6055 44.1743 35.0482 43.5397 35.4172C42.9051 35.7861 42.5951 35.9485 42.5951 35.9485L41.7834 36.5241C41.7834 36.5241 41.3702 36.5241 41.2521 36.6716C41.1488 36.8192 40.0862 36.7897 40.0862 36.7897C40.0862 36.7897 37.8429 35.7419 37.5773 35.181C37.3116 34.6202 37.3116 34.6202 37.3116 34.6202C37.3116 34.6202 37.7544 34.3103 37.9758 34.2513C38.1971 34.1775 38.1971 34.1775 38.1971 34.1775C38.1971 34.1775 38.1233 33.6019 37.8134 33.3805C37.5035 33.1444 37.0312 32.9378 37.0312 32.9378C37.0312 32.9378 36.6623 33.5871 36.2195 33.5576C35.7768 33.5133 34.0205 32.7016 33.1793 31.7866C32.338 30.8716 31.9248 30.5469 31.8658 29.9271C31.8067 29.3072 31.6739 29.44 31.8953 28.5103C32.1167 27.5805 32.6332 26.8868 32.6332 26.8868L32.6037 26.8721Z" fill="black"/>
<path fill-rule="evenodd" clip-rule="evenodd" d="M31.7774 15.5527C32.5891 15.5527 33.2384 16.7039 33.2384 18.1207C33.2384 19.5375 32.5891 20.6887 31.7774 20.6887C30.9657 20.6887 30.3163 19.5375 30.3163 18.1207C30.3163 16.7039 30.9657 15.5527 31.7774 15.5527Z" fill="white"/>
<path fill-rule="evenodd" clip-rule="evenodd" d="M28.8551 17.1316C29.9472 16.1575 32.5299 15.9657 32.0282 17.6186C31.305 18.755 28.9584 17.6629 28.8551 17.1316Z" fill="black"/>
<path fill-rule="evenodd" clip-rule="evenodd" d="M47.244 14.4897C47.5687 15.6704 46.4323 16.0984 46.9488 20.216C47.4506 24.3483 49.5316 28.3479 49.9005 28.8939C50.2695 29.4547 47.6425 30.724 47.6425 30.724C47.6425 30.724 46.6389 25.4552 46.6389 24.9387C46.6389 24.4221 44.6908 15.5819 44.8236 15.1981C44.9712 14.8144 47.244 14.475 47.244 14.475V14.4897Z" fill="black"/>
<path fill-rule="evenodd" clip-rule="evenodd" d="M57.56 15.3016L56.8516 15.0802C54.874 13.8405 50.2546 14.3127 47.849 14.7112L44.5874 15.213C45.281 14.7112 47.2734 14.0914 48.2475 13.7224C49.6348 13.2059 50.4465 12.7779 52.0847 12.6746C54.077 12.6746 55.5824 12.6598 57.2501 14.6374C57.4567 14.8736 57.5157 15.0211 57.7519 15.2573L57.5748 15.3016H57.56Z" fill="black"/>
<path fill-rule="evenodd" clip-rule="evenodd" d="M55.7893 18.0025C53.9593 15.7445 50.2549 14.4605 46.4325 15.228C46.0783 15.7297 45.7979 20.0539 46.6686 20.8657C48.4839 22.5334 51.8341 23.0647 54.0921 21.3527C55.1104 20.5852 55.5384 19.1537 55.7893 17.9878V18.0025Z" fill="black"/>
<path fill-rule="evenodd" clip-rule="evenodd" d="M49.2218 15.4935C48.3805 15.4935 47.6869 16.7037 47.6869 18.1796C47.6869 19.6702 48.3805 20.8656 49.2218 20.8656C50.063 20.8656 50.7566 19.6554 50.7566 18.1796C50.7566 16.689 50.063 15.4935 49.2218 15.4935Z" fill="white"/>
<path fill-rule="evenodd" clip-rule="evenodd" d="M49.3694 17.3088C48.3953 16.4381 46.093 16.261 46.5358 17.7515C47.1851 18.7699 49.2661 17.7958 49.3694 17.3088Z" fill="black"/>
<path fill-rule="evenodd" clip-rule="evenodd" d="M37.4298 40.7745L36.8985 40.9663C36.5148 41.2615 36.9723 41.2467 36.441 41.2025C36.6034 41.3943 36.1016 41.2763 36.0573 41.4976C35.9983 41.7928 35.5408 41.232 35.3637 41.6157L35.0537 41.7042C34.7143 42.944 37.725 43.9328 38.8171 44.2574C39.8797 44.5821 40.5291 44.8625 41.7393 44.5379C42.6986 44.2722 43.4955 44.1099 44.4106 43.6671C45.5765 43.1063 47.0671 41.9994 46.4472 41.7042C45.9159 41.4534 42.5805 40.2727 40.5291 39.8004C39.9683 39.8299 40.2192 39.9628 39.7322 40.1103C38.3891 40.5088 37.9611 41.1287 37.4151 40.7597L37.4298 40.7745Z" fill="black"/>
<path fill-rule="evenodd" clip-rule="evenodd" d="M32.2346 40.8633C31.7476 41.0699 31.9837 41.6603 32.2641 41.8816C32.5298 42.0883 33.253 42.2949 33.7105 42.2949C34.8026 42.2949 35.7619 41.6603 36.6917 41.5274C36.9721 41.3208 37.0459 41.3356 37.4591 41.2028C37.769 41.1142 38.0494 40.9814 38.3003 40.8928C38.6988 40.76 39.7319 40.5091 40.1599 40.4353C40.4993 40.2287 40.9421 40.3763 41.1044 39.9778C41.0601 39.5055 41.1339 39.9778 41.0749 39.7269L40.9568 39.5646L38.8021 40.332C37.0459 40.9371 33.3415 42.2654 32.2494 40.8928L32.2346 40.8633Z" fill="black"/>
<path fill-rule="evenodd" clip-rule="evenodd" d="M40.8982 40.0367L43.3038 40.8041C45.4438 41.4387 48.3954 42.9145 49.8418 41.8519C50.1222 41.6453 50.3435 41.0993 49.9303 40.9074C48.3069 41.8667 47.2443 41.4387 45.2371 40.9074C44.2336 40.6418 41.6213 39.8596 40.8687 39.4906L40.9129 40.0367H40.8982Z" fill="black"/>
<path d="M66.5629 36.6129C66.4743 36.7752 63.5964 35.3584 59.8035 34.2663C56.0254 33.1594 52.8228 32.82 52.8376 32.6281C52.8376 32.4805 56.1139 32.5396 59.9806 33.6759C63.8473 34.7828 66.6514 36.48 66.5776 36.6129H66.5629Z" fill="black"/>
<path d="M9.19682 38.6197C9.18206 38.5901 9.41819 38.4868 9.86095 38.295C10.2889 38.1031 10.9235 37.8522 11.7205 37.5718C13.2996 36.9815 15.5282 36.2731 18.0371 35.6385C20.5313 35.0039 22.8336 34.5906 24.516 34.3545C25.3573 34.2364 26.0361 34.1479 26.5084 34.1184C26.9807 34.0741 27.2463 34.0593 27.2463 34.0888C27.2611 34.1479 26.228 34.3102 24.5751 34.6201C22.9221 34.9301 20.6346 35.3876 18.1552 36.0074C15.661 36.642 13.4472 37.3209 11.8386 37.8375C10.2299 38.354 9.25585 38.6935 9.22634 38.6492L9.19682 38.6197Z" fill="black"/>
<path d="M8.94608 34.6205C8.93132 34.5615 9.97916 34.3991 11.6173 33.9859C13.2703 33.6022 15.5136 32.9233 18.052 32.392C20.5904 31.8459 22.9813 31.7131 24.6785 31.9197C25.5345 32.023 26.1986 32.1706 26.6561 32.3035C27.1136 32.4363 27.3498 32.5543 27.3498 32.5691C27.335 32.6429 26.3315 32.3035 24.649 32.1706C22.9665 32.023 20.6347 32.2001 18.1258 32.7462C15.6021 33.2775 13.3441 33.9121 11.6764 34.2368C10.8499 34.3991 10.1563 34.5172 9.684 34.5615C9.21173 34.6205 8.94608 34.6353 8.94608 34.6058V34.6205Z" fill="black"/>
<path d="M68.5256 42.0439C68.4371 42.1915 65.1312 40.2582 60.9546 38.0592C56.7927 35.8454 53.3392 34.1925 53.413 34.0301C53.4425 33.9563 54.3576 34.2663 55.7891 34.8861C57.2207 35.4912 59.154 36.4062 61.2497 37.5279C63.3454 38.6347 65.1902 39.7416 66.489 40.5681C67.8024 41.4093 68.5699 41.9849 68.5256 42.0587V42.0439Z" fill="black"/>
<path fill-rule="evenodd" clip-rule="evenodd" d="M77.735 36.952C80.9228 40.4055 79.9487 42.4717 77.9563 46.1317C77.0266 47.829 78.2663 49.5262 77.4988 52.1384C76.7314 54.7654 75.1818 56.7578 75.1818 56.7578C75.1818 56.7578 74.37 57.4071 73.4845 57.6876C72.599 57.9532 72.481 58.0418 72.481 58.0418C72.481 58.0418 72.9828 57.1563 73.337 56.1527C73.6764 55.1491 72.3039 58.7354 71.9054 59.0896C71.5217 59.429 68.3929 60.2408 67.5074 59.9013C66.6219 59.5619 65.8102 58.7797 65.8102 58.7797C65.8102 58.7797 66.0906 58.2484 67.0204 56.9349C67.9354 55.6214 66.1791 58.8977 65.028 59.0158C63.8768 59.1339 61.7959 58.6321 61.1023 57.8942C60.4086 57.1563 60.3643 55.6509 60.6595 54.7211C60.9547 53.7913 61.9287 52.832 61.7074 52.9649C61.486 53.0977 61.1465 53.5404 60.2905 53.7323C59.4493 53.9242 57.9735 52.4631 57.7816 51.6071C57.5898 50.7659 58.0473 48.4783 58.2834 47.8732C58.5195 47.2534 59.5231 46.0284 60.3643 45.2462C61.2056 44.4788 61.4417 44.1984 61.2056 43.549C60.9694 42.8997 60.4381 43.003 60.4381 43.003C60.4381 43.003 58.0915 42.9292 57.3979 42.3093C56.7043 41.6895 55.8188 40.922 55.3908 40.1841C54.9628 39.4462 54.9628 39.2248 54.9628 39.2248C54.9628 39.2248 57.3536 37.7637 58.3867 37.4095C59.4198 37.0553 60.3496 37.2177 61.7811 37.5276C63.2127 37.8375 65.2936 35.9927 66.1054 35.3434C68.3191 33.5576 72.8352 31.639 77.7202 36.9373L77.735 36.952Z" fill="white"/>
<path d="M77.9561 36.7454C79.6091 38.5312 80.1846 39.9923 80.0813 41.4829C79.978 42.9439 79.2254 44.405 78.207 46.2793C77.779 47.0615 77.8676 47.8732 77.9561 48.8178C78.0594 49.7918 78.1627 50.8987 77.7643 52.2417C76.9821 54.913 75.4029 56.9496 75.4029 56.9644L75.3882 56.9939L75.3587 57.0234C75.3587 57.0234 74.5027 57.7171 73.5581 57.9975C72.9826 58.1746 72.7612 58.2484 72.6874 58.2779C72.4513 58.7797 72.2299 59.1929 72.0971 59.311C71.8462 59.5324 70.6655 59.9161 69.5438 60.1227C68.6879 60.285 67.8319 60.3441 67.4039 60.167C66.6217 59.857 65.8985 59.2372 65.6772 59.0453C65.4705 59.1929 65.2639 59.2815 65.0573 59.2962C64.4227 59.37 63.5372 59.2519 62.7255 59.0158C61.9728 58.7944 61.2644 58.4698 60.8954 58.086C60.5265 57.7023 60.3199 57.1415 60.2461 56.5512C60.1575 55.887 60.2166 55.1639 60.3937 54.6178C60.4674 54.3669 60.5855 54.1308 60.7183 53.9094C60.615 53.9537 60.497 53.9832 60.3641 54.0127L60.3346 54.0275C59.8181 54.116 59.1687 53.7766 58.6226 53.2748C58.0913 52.7878 57.6338 52.1532 57.5305 51.6661L57.5158 51.6219C57.442 51.2234 57.4715 50.6035 57.56 49.9689C57.6781 49.0834 57.8995 48.1389 58.0323 47.7552C58.1504 47.4305 58.4751 46.9435 58.8588 46.4564C59.2573 45.9546 59.7443 45.4233 60.187 45.0249C60.5855 44.6559 60.8364 44.4198 60.9545 44.2132C61.043 44.0508 61.043 43.8885 60.9545 43.6523C60.8069 43.2391 60.5265 43.2981 60.5265 43.2981L60.497 43.3129H60.4674C60.4674 43.3129 58.0176 43.2391 57.2354 42.5455L57.1468 42.4717C56.4532 41.8518 55.5972 41.0991 55.1692 40.3612C54.7117 39.5643 54.7117 39.2543 54.7117 39.2543V39.092L54.8593 39.0034C54.8593 39.0034 57.2796 37.5276 58.3422 37.1586C58.9031 36.9668 59.4344 36.9225 59.9952 36.952C60.556 36.9815 61.1611 37.0996 61.8842 37.262C63.0649 37.5128 64.8654 36.037 65.7509 35.2991L65.9576 35.122C67.3006 34.0299 69.4553 32.9082 72.0528 33.2624C73.8681 33.5133 75.89 34.5021 77.9709 36.7454H77.9561ZM79.5058 41.4386C79.5943 40.1103 79.063 38.7968 77.5281 37.1439C75.5505 35.0039 73.6614 34.0741 71.9642 33.838C69.5734 33.5133 67.5662 34.5612 66.3265 35.5795L66.1199 35.7566C65.1606 36.5388 63.2125 38.1475 61.7662 37.8375C61.0578 37.6899 60.4822 37.5719 59.9657 37.5424C59.4639 37.5128 59.0064 37.5571 58.5193 37.7195C57.6781 37.9999 55.9071 39.0477 55.3315 39.4019C55.3758 39.52 55.4791 39.7266 55.671 40.0808C56.0547 40.7449 56.8664 41.4533 57.5305 42.0437L57.6191 42.1175C58.1947 42.634 60.2313 42.7226 60.4527 42.7373C60.6298 42.7226 61.2349 42.7078 61.5153 43.4752C61.6629 43.8885 61.6629 44.1836 61.471 44.5231C61.3087 44.8035 61.0283 45.0839 60.5855 45.4971C60.1575 45.8809 59.7 46.3826 59.3163 46.8697C58.9621 47.3124 58.6817 47.7404 58.5784 48.0061C58.4455 48.3455 58.2537 49.231 58.1356 50.087C58.0618 50.6921 58.0175 51.2677 58.0913 51.5776C58.1799 51.9465 58.5488 52.4631 59.0064 52.8763C59.4344 53.2748 59.9214 53.5552 60.2461 53.4814C60.8364 53.3486 61.1611 53.0682 61.3677 52.9058C61.4415 52.8468 61.4858 52.8025 61.5596 52.7583C61.7514 52.6402 61.8842 52.6697 61.9876 52.8321C62.1056 53.0239 62.0023 53.142 61.84 53.3634C61.6038 53.6585 61.1316 54.2636 60.9545 54.8392C60.8069 55.2967 60.7479 55.9313 60.8364 56.5069C60.9102 56.9939 61.0578 57.4367 61.3382 57.7171C61.6334 58.027 62.2384 58.2927 62.9026 58.4845C63.6553 58.6911 64.4522 58.8092 65.013 58.7502C65.2639 58.7206 65.5591 58.4993 65.8542 58.1893C66.0461 57.8794 66.3413 57.4219 66.7988 56.7873C66.9316 56.6102 67.0202 56.4921 67.0644 56.4479C67.6843 55.8723 67.8909 55.8723 67.7433 56.3445C67.7581 56.4479 67.7138 56.5807 67.581 56.7578L67.5219 56.8758C67.4777 56.9644 67.3891 57.1267 67.2711 57.3038C67.0497 57.6433 66.725 58.1008 66.356 58.4993C66.297 58.6026 66.238 58.6764 66.2085 58.7502C66.4741 58.9863 67.0349 59.4143 67.64 59.6504C67.9647 59.7833 68.7026 59.7095 69.4701 59.5766C70.4293 59.3995 71.3886 59.1191 71.6838 58.942L72.2594 57.9237C72.4808 57.4219 72.7317 56.8463 72.9088 56.4331C73.1154 55.9608 73.2482 55.6361 73.5139 55.7395C73.7057 55.7985 73.75 55.9756 73.6319 56.2855C73.4696 56.7578 73.263 57.2153 73.1006 57.5547C73.1892 57.5252 73.3072 57.4957 73.4253 57.4514C74.1632 57.23 74.8569 56.7135 74.9897 56.5954C75.1668 56.3445 76.5246 54.485 77.233 52.0941C77.6019 50.8544 77.4986 49.8213 77.3953 48.8916C77.292 47.8585 77.2034 46.9582 77.72 46.0284C78.694 44.2279 79.432 42.8259 79.5205 41.4681L79.5058 41.4386Z" fill="black"/>
<path d="M64.0245 48.8623C64.0982 48.7148 64.2753 48.6705 64.4229 48.7443C64.5705 48.8181 64.6148 48.9952 64.541 49.1428C64.541 49.1428 63.9507 50.2496 63.6702 51.3122C63.4194 52.242 62.3568 52.9061 61.6188 53.3784C61.3827 53.526 61.1761 53.6588 61.0728 53.7474C60.9547 53.8507 60.7629 53.8359 60.6595 53.7179C60.5562 53.5998 60.571 53.4079 60.6891 53.3046C60.8366 53.1866 61.058 53.039 61.3089 52.8914C61.973 52.4782 62.9176 51.8731 63.1094 51.1647C63.4194 50.0283 64.0245 48.8771 64.0392 48.8623H64.0245Z" fill="black"/>
<path d="M67.8173 51.6221C67.8026 51.4597 67.9354 51.3269 68.0977 51.3122C68.2601 51.2974 68.3929 51.4302 68.4077 51.5926C68.4077 51.6073 68.57 54.8837 68.2306 55.7102C68.0535 56.1677 67.5369 56.7728 67.0351 57.3631C66.6219 57.8501 66.2087 58.3372 66.0168 58.7061C65.943 58.8537 65.7659 58.898 65.6183 58.8242C65.4707 58.7504 65.4265 58.5733 65.5003 58.4257C65.7216 58.0125 66.1496 57.5107 66.5776 56.9941C67.0499 56.4333 67.5222 55.8725 67.6697 55.4888C67.9502 54.7804 67.8026 51.6073 67.8026 51.6073L67.8173 51.6221Z" fill="black"/>
<path d="M72.7909 52.3303C72.8205 52.1679 72.968 52.0646 73.1304 52.0941C73.2927 52.1237 73.396 52.2712 73.3665 52.4336C73.3665 52.4336 73.1894 53.3486 73.3518 53.9685C73.4108 54.1898 73.4994 54.3817 73.5731 54.5588C73.7502 54.972 73.9126 55.3262 73.7502 55.7985C73.5584 56.3593 72.8205 58.1303 72.8205 58.1303C72.7614 58.2779 72.5843 58.3517 72.4368 58.2779C72.2892 58.2189 72.2154 58.0418 72.2744 57.8942C72.2744 57.8942 73.0123 56.1527 73.1894 55.5919C73.278 55.341 73.1599 55.0753 73.0271 54.7802C72.9385 54.5735 72.8352 54.3522 72.7762 54.0865C72.5843 53.3486 72.7909 52.3008 72.7909 52.3008V52.3303Z" fill="black"/>
<path fill-rule="evenodd" clip-rule="evenodd" d="M68.3486 59.9164C68.3486 59.9164 68.8947 59.5327 69.2341 58.4848C69.5736 57.4517 69.854 56.7876 69.854 56.7876C69.854 56.7876 70.2082 57.7174 69.854 58.5143C69.4998 59.326 68.9685 59.8573 68.9685 59.8573L68.3486 59.9016V59.9164Z" fill="black"/>
<path d="M68.2157 59.5917C68.2157 59.5917 68.6732 59.267 68.9978 58.3077C69.352 57.2599 69.6177 56.5957 69.6177 56.5957L69.9129 55.8873L70.1638 56.6105C70.1638 56.6105 70.5475 57.6436 70.1638 58.5586C69.7948 59.4146 69.2192 59.9902 69.2192 60.0049L69.1454 60.0787L67.4187 60.182L68.2304 59.5917H68.2157ZM69.721 57.983C69.6767 58.1306 69.6177 58.2929 69.5587 58.4553C69.5734 58.411 69.6029 58.3667 69.6177 58.3225C69.662 58.2192 69.6915 58.1011 69.721 57.983Z" fill="black"/>
<path fill-rule="evenodd" clip-rule="evenodd" d="M62.6519 58.5584C62.6519 58.5584 63.1094 58.2485 63.4636 57.4368C63.803 56.6251 64.1572 56.3594 64.2753 55.9019C64.3933 55.4444 64.3196 57.6729 63.9358 58.2485C63.5521 58.8241 63.0503 58.7945 63.0503 58.7945L62.6666 58.5584H62.6519Z" fill="black"/>
<path d="M62.4747 58.3224C62.4747 58.3224 62.8731 58.0568 63.1831 57.3336C63.3602 56.9204 63.5373 56.64 63.6849 56.4038C63.8177 56.1972 63.921 56.0349 63.9653 55.843C63.98 55.7692 64.0095 55.7102 64.039 55.6659C64.3637 55.2674 64.5408 55.3855 64.5851 55.9168C64.5851 55.9906 64.5851 56.1087 64.5851 56.2415C64.5556 56.8614 64.4228 57.983 64.1424 58.411C63.6701 59.1341 63.006 59.0751 62.9912 59.0751H62.9174L62.0909 58.5881L62.4451 58.3224H62.4747ZM63.7291 57.555C63.5373 57.983 63.3306 58.2929 63.1535 58.4848C63.2716 58.4553 63.493 58.3815 63.6849 58.0863C63.8029 57.9092 63.8915 57.5255 63.9505 57.1122C63.8767 57.2451 63.8029 57.3779 63.7439 57.555H63.7291Z" fill="black"/>
<path fill-rule="evenodd" clip-rule="evenodd" d="M58.5045 52.3007C58.5045 52.3007 58.6964 51.7252 59.39 51.1791C60.0837 50.633 60.5854 50.6035 60.5854 50.6035C60.5854 50.6035 59.7442 51.4152 59.5524 51.8727C59.3605 52.3302 59.2424 52.9944 59.2867 53.26C59.331 53.5257 58.5193 52.3007 58.5193 52.3007H58.5045Z" fill="black"/>
<path d="M58.239 52.1978C58.239 52.1978 58.4604 51.5484 59.213 50.9581C59.9805 50.3677 60.5708 50.3234 60.5708 50.3234L61.353 50.2792L60.7922 50.8252C60.7922 50.8252 59.9952 51.5927 59.8181 51.9911C59.7296 52.1978 59.6705 52.4487 59.6115 52.67C59.5672 52.9062 59.5525 53.1128 59.5672 53.2161C59.6853 53.9983 59.3606 53.8212 59.0064 53.4375L58.9917 53.3046C58.9621 53.1275 58.9917 52.8619 59.0507 52.5667C59.095 52.3011 59.1835 52.0059 59.2868 51.7698C59.3163 51.7107 59.3459 51.6517 59.3754 51.5927C58.9917 51.9469 58.8293 52.2863 58.7998 52.3749C58.8588 52.67 58.9474 53.1571 58.9917 53.4227C58.6375 53.039 58.2685 52.4634 58.2685 52.4634L58.1947 52.3453L58.239 52.2125V52.1978ZM59.0064 53.4375L58.9769 53.408C59.0064 53.5998 59.0359 53.6588 59.0064 53.4375Z" fill="black"/>
<path fill-rule="evenodd" clip-rule="evenodd" d="M74.7241 56.4625C74.7241 56.4625 75.1521 55.3114 75.3292 53.9684C75.5063 52.6253 75.5801 52.8762 75.5801 52.8762C75.5801 52.8762 75.7277 53.6879 75.6686 54.6177C75.6096 55.5475 75.3292 56.1083 75.3292 56.1083L74.7094 56.4478L74.7241 56.4625Z" fill="black"/>
<path d="M74.4435 56.3594C74.4435 56.3594 74.8568 55.2377 75.0339 53.9242C75.3733 51.4006 75.8456 52.7731 75.8456 52.7731L75.8603 52.8026V52.8321C75.8603 52.8321 76.0227 53.6881 75.9636 54.6474C75.9046 55.6362 75.6094 56.2413 75.6094 56.2561L75.5652 56.3446L74.1926 57.112L74.4583 56.3889L74.4435 56.3594Z" fill="black"/>
<path fill-rule="evenodd" clip-rule="evenodd" d="M56.2762 41.2322C56.2762 41.2322 56.5124 40.8337 57.3536 40.3319C58.1948 39.8301 58.431 39.6383 58.7852 39.6826C59.1394 39.7268 57.9439 40.2286 57.634 40.8337C57.3241 41.4536 57.3979 42.1029 57.3979 42.1029L56.2762 41.2322Z" fill="black"/>
<path d="M56.114 41.1288C56.114 41.1288 56.3796 40.6861 57.2651 40.1548C57.3979 40.081 57.5308 39.9924 57.6636 39.9186C58.2392 39.5644 58.4606 39.4316 58.8148 39.4759C58.9919 39.4906 59.0656 39.5792 59.0509 39.7268C59.0361 39.8596 58.8738 39.9777 58.6524 40.1252C58.372 40.3319 57.9588 40.6123 57.8112 40.9074C57.5308 41.4682 57.6046 42.0733 57.6046 42.0733L57.6636 42.5309L56.0549 41.2764L56.1435 41.1288H56.114ZM57.457 40.4942C56.9404 40.8041 56.6748 41.055 56.542 41.1878L57.2061 41.7044C57.2208 41.4387 57.2799 41.0845 57.457 40.7451C57.5455 40.568 57.6931 40.3909 57.8702 40.2433L57.8555 40.2581C57.7521 40.3319 57.6193 40.4056 57.457 40.4942Z" fill="black"/>
<path fill-rule="evenodd" clip-rule="evenodd" d="M2.64429 37.0554C-0.543522 40.5088 0.430531 42.575 2.43767 46.2351C3.36745 47.9323 2.12775 49.6295 2.89518 52.2417C3.66262 54.8687 5.21225 56.8611 5.21225 56.8611C5.21225 56.8611 6.02396 57.5105 6.90946 57.7909C7.79497 58.0565 7.91303 58.1451 7.91303 58.1451C7.91303 58.1451 7.41125 57.2596 7.05705 56.256C6.70284 55.2525 8.10489 58.8387 8.48861 59.1782C8.87233 59.5324 12.0011 60.3293 12.8866 59.9899C13.7721 59.6357 14.5838 58.8683 14.5838 58.8683C14.5838 58.8683 14.3034 58.337 13.3736 57.0235C12.4439 55.71 14.2149 58.9863 15.366 59.1044C16.5024 59.2225 18.5981 58.7059 19.2917 57.9828C19.9854 57.2448 20.0297 55.7395 19.7345 54.8097C19.4393 53.8799 18.4653 52.9206 18.6867 53.0535C18.908 53.1863 19.2475 53.629 20.1035 53.8209C20.9447 54.0128 22.4205 52.5517 22.6124 51.6957C22.8042 50.8545 22.3467 48.5817 22.1106 47.9618C21.8745 47.342 20.8709 46.117 20.0297 45.3348C19.1884 44.5674 18.9523 44.3017 19.1884 43.6376C19.4246 42.9882 19.9559 43.0915 19.9559 43.0915C19.9559 43.0915 22.3025 43.0178 22.9961 42.3979C23.6897 41.7781 24.5752 41.0106 25.0032 40.2727C25.4312 39.5348 25.4312 39.3134 25.4312 39.3134C25.4312 39.3134 23.0404 37.8523 22.0073 37.4981C20.9594 37.1439 20.0444 37.3063 18.6129 37.6162C17.1813 37.9261 15.1004 36.0813 14.2887 35.4319C12.0749 33.6462 7.55883 31.7424 2.67381 37.0259L2.64429 37.0554Z" fill="white"/>
<path d="M2.8656 37.2473C1.33073 38.9002 0.799429 40.2137 0.887979 41.542C0.976529 42.885 1.71445 44.3018 2.6885 46.1023C3.20505 47.0468 3.1165 47.9471 3.01319 48.9654C2.92464 49.8952 2.82133 50.9283 3.17553 52.168C3.88393 54.5589 5.2417 56.4184 5.4188 56.6693C5.56639 56.7726 6.24527 57.2892 6.98319 57.5253C7.10126 57.5548 7.20457 57.5991 7.30788 57.6286C7.14553 57.2892 6.93892 56.8317 6.77657 56.3594C6.67327 56.0495 6.71754 55.8724 6.89464 55.8133C7.16029 55.7248 7.29312 56.0347 7.49974 56.507C7.67684 56.9202 7.92773 57.4958 8.1491 57.9976L8.72468 59.0159C9.00509 59.193 9.97914 59.4734 10.9384 59.6505C11.7059 59.7981 12.4438 59.8571 12.7685 59.7243C13.3588 59.4882 13.9344 59.0454 14.2 58.824C14.1558 58.765 14.1115 58.6765 14.0525 58.5731C13.6835 58.1747 13.3588 57.7319 13.1374 57.3777C13.0194 57.2006 12.9308 57.0383 12.8865 56.9497L12.8275 56.8317C12.6799 56.6693 12.6357 56.5217 12.6652 56.4184C12.5176 55.9462 12.7242 55.9462 13.3441 56.5217C13.3883 56.566 13.4769 56.6693 13.6097 56.8612C14.0672 57.5105 14.3624 57.9681 14.5542 58.2632C14.8494 58.5584 15.1446 58.7945 15.3955 58.824C15.9563 58.8831 16.768 58.7798 17.5059 58.5584C18.17 58.3665 18.7751 58.1009 19.0703 57.7909C19.3507 57.4958 19.4983 57.053 19.5721 56.5808C19.6606 55.9904 19.6016 55.3706 19.454 54.9131C19.2622 54.3375 18.7899 53.7324 18.5538 53.4372C18.3914 53.2159 18.2881 53.083 18.4062 52.9059C18.5095 52.7436 18.6571 52.7141 18.8342 52.8321C18.8932 52.8764 18.9522 52.9207 19.026 52.9797C19.2327 53.1568 19.5573 53.4225 20.1624 53.5553C20.4576 53.6291 20.9003 53.3782 21.2988 53.0388C21.8006 52.6108 22.2286 52.0499 22.3172 51.6515C22.3909 51.3268 22.3614 50.766 22.2729 50.1609C22.1548 49.3049 21.9482 48.4194 21.8301 48.0799C21.7268 47.8143 21.4464 47.3863 21.0922 46.9435C20.7085 46.4565 20.251 45.9547 19.823 45.571C19.3802 45.1725 19.0851 44.8921 18.9375 44.6117C18.7604 44.287 18.7456 43.9771 18.8932 43.5639C19.1589 42.7964 19.764 42.8112 19.9558 42.8259C20.1919 42.8112 22.2138 42.7226 22.7894 42.2061L22.878 42.1323C23.5421 41.542 24.3538 40.8188 24.7375 40.1694C24.9441 39.8152 25.0327 39.6086 25.077 39.4906C24.5014 39.1511 22.7304 38.1033 21.8892 37.8229C21.4021 37.6605 20.9446 37.6162 20.4428 37.6458C19.9263 37.6753 19.3507 37.7933 18.6423 37.9409C17.196 38.2508 15.2479 36.6569 14.2886 35.86L14.082 35.6829C12.8275 34.6793 10.8204 33.6167 8.42951 33.9562C6.7323 34.1923 4.82847 35.1221 2.8656 37.262V37.2473ZM0.312402 41.5862C0.209093 40.0956 0.78467 38.6493 2.43761 36.8488C4.51854 34.6055 6.54044 33.6167 8.35572 33.3658C10.9384 33.0116 13.1079 34.1333 14.4509 35.2254L14.6576 35.4025C15.5431 36.1256 17.3436 37.6162 18.5243 37.3506C19.2474 37.1882 19.8525 37.0702 20.4133 37.0407C20.9889 37.0111 21.5202 37.0554 22.0663 37.2473C23.1436 37.6015 25.5492 39.0773 25.564 39.0773L25.6968 39.1659V39.3282C25.6968 39.3282 25.6968 39.6381 25.2393 40.4351C24.8113 41.173 23.9701 41.9257 23.2617 42.5455L23.1731 42.6341C22.4057 43.3277 19.9558 43.4015 19.9411 43.4015H19.9115L19.882 43.3868C19.882 43.3868 19.5869 43.3277 19.454 43.741C19.3655 43.9771 19.3655 44.1542 19.454 44.3018C19.5721 44.5084 19.823 44.7593 20.2215 45.1135C20.6642 45.512 21.1512 46.0433 21.5497 46.5451C21.9334 47.0321 22.2581 47.5191 22.3762 47.8438C22.509 48.2128 22.7304 49.1573 22.8485 50.0576C22.937 50.7217 22.9665 51.3563 22.878 51.7548C22.7599 52.2713 22.2581 52.965 21.6678 53.452C21.1365 53.9095 20.5166 54.2047 20.0296 54.0866C19.8968 54.0571 19.7787 54.0276 19.6754 53.9833C19.8082 54.2047 19.9263 54.4556 20.0001 54.6917C20.1772 55.2377 20.2362 55.9461 20.1477 56.6103C20.0591 57.2006 19.8525 57.7614 19.4983 58.1451C19.1293 58.5289 18.4357 58.8683 17.6683 59.0749C16.8566 59.3111 15.971 59.4144 15.3364 59.3553C15.1446 59.3406 14.9232 59.2373 14.7166 59.1044C14.4952 59.2963 13.7721 59.9162 12.9899 60.2261C12.5471 60.4032 11.7059 60.3294 10.8499 60.1818C9.72825 59.9752 8.54758 59.5915 8.29669 59.3701C8.16386 59.252 7.92773 58.824 7.70635 58.337C7.63256 58.3075 7.41118 58.2189 6.83561 58.0566C5.89107 57.7762 5.04984 57.0825 5.03509 57.0825L5.00557 57.053L4.99081 57.0235C4.99081 57.0235 3.41166 54.9721 2.62947 52.3008C2.23099 50.9578 2.34906 49.8509 2.43761 48.8769C2.52616 47.9471 2.61471 47.1206 2.18672 46.3384C1.16839 44.4789 0.415711 43.0178 0.312402 41.542V41.5862Z" fill="black"/>
<path d="M15.8532 49.2165C15.7794 49.0689 15.8384 48.8918 15.9713 48.818C16.1188 48.7442 16.2959 48.8033 16.3697 48.9361C16.3697 48.9361 16.9896 50.102 17.2995 51.2384C17.4914 51.9468 18.4359 52.5372 19.1 52.9651C19.3509 53.1275 19.5723 53.2603 19.7199 53.3784C19.838 53.4817 19.8527 53.6735 19.7494 53.7916C19.6461 53.9097 19.4542 53.9244 19.3362 53.8211C19.2181 53.7178 19.0262 53.5998 18.7901 53.4522C18.0374 52.9799 16.9748 52.3158 16.7239 51.386C16.4288 50.3086 15.8532 49.2165 15.8532 49.2165Z" fill="black"/>
<path d="M12.0012 51.6957C12.0012 51.5334 12.1488 51.4153 12.3112 51.4153C12.4735 51.4153 12.5916 51.5629 12.5916 51.7252C12.5916 51.74 12.444 54.8983 12.7244 55.6067C12.872 55.9756 13.3442 56.5512 13.8165 57.112C14.2445 57.6286 14.6873 58.1304 14.8939 58.5436C14.9677 58.6912 14.9234 58.8683 14.7758 58.9421C14.6282 59.0159 14.4511 58.9716 14.3773 58.824C14.1855 58.4698 13.7722 57.9828 13.359 57.4957C12.8572 56.8906 12.3407 56.2856 12.1636 55.8428C11.8389 55.0163 11.9865 51.7252 11.9865 51.7105L12.0012 51.6957Z" fill="black"/>
<path d="M7.02738 52.5222C6.99786 52.3599 7.10117 52.2123 7.26351 52.1828C7.42585 52.1532 7.57344 52.2566 7.60296 52.4189C7.60296 52.4189 7.80957 53.4667 7.61771 54.2047C7.55868 54.4703 7.45537 54.6917 7.36682 54.8983C7.234 55.1935 7.11593 55.4591 7.20448 55.71C7.38158 56.2561 8.1195 57.9976 8.13426 58.0123C8.19329 58.1599 8.1195 58.337 7.97192 58.396C7.82433 58.4551 7.64723 58.396 7.5882 58.2485C7.5882 58.2485 6.83552 56.4775 6.64366 55.9166C6.48132 55.4444 6.64366 55.0902 6.82076 54.6769C6.89455 54.4998 6.9831 54.2932 7.04214 54.0866C7.20448 53.4667 7.02738 52.5517 7.02738 52.5517V52.5222Z" fill="black"/>
<path fill-rule="evenodd" clip-rule="evenodd" d="M11.9568 59.8423C11.9568 59.8423 11.4108 59.4586 11.0713 58.4107C10.7171 57.3776 10.4515 56.7135 10.4515 56.7135C10.4515 56.7135 10.0973 57.6433 10.4515 58.4402C10.8057 59.2519 11.337 59.7832 11.337 59.7832L11.9568 59.8275V59.8423Z" fill="black"/>
<path d="M11.3515 58.3222C11.6614 59.2668 12.1336 59.6062 12.1336 59.6062L12.9454 60.1965L11.2186 60.0932L11.1448 60.0194C11.1448 60.0194 10.5693 59.4439 10.2003 58.5731C9.80182 57.6581 10.1855 56.625 10.1855 56.625L10.4364 55.9019L10.7316 56.6103C10.7316 56.6103 11.012 57.2744 11.3515 58.3222ZM10.7906 58.4698C10.7316 58.3075 10.6726 58.1451 10.6283 57.9975C10.643 58.1156 10.6873 58.2189 10.7316 58.337C10.7464 58.3813 10.7759 58.4255 10.7906 58.4698Z" fill="black"/>
<path fill-rule="evenodd" clip-rule="evenodd" d="M17.757 58.6469C17.757 58.6469 17.2994 58.337 16.9452 57.5253C16.591 56.7136 16.2516 56.4479 16.1335 55.9904C16.0155 55.5329 16.0893 57.7614 16.4877 58.337C16.8715 58.9126 17.3732 58.883 17.3732 58.883L17.757 58.6469Z" fill="black"/>
<path d="M17.2549 58.573C17.0778 58.3812 16.8564 58.0713 16.6793 57.6433C16.6055 57.4809 16.5317 57.3333 16.4579 57.2005C16.517 57.599 16.6055 57.9975 16.7236 58.1746C16.9154 58.4697 17.1368 58.5435 17.2549 58.573ZM17.2106 57.4071C17.5205 58.1303 17.919 58.3959 17.919 58.3959L18.2732 58.6616L17.4468 59.1486H17.373C17.373 59.1486 16.7088 59.1929 16.2218 58.4845C15.9414 58.0565 15.8086 56.9349 15.7791 56.315C15.7791 56.1822 15.7791 56.0641 15.7791 55.9903C15.8086 55.459 15.9857 55.3262 16.3251 55.7394C16.3546 55.7837 16.3841 55.8427 16.3989 55.9165C16.4432 56.1084 16.5465 56.2707 16.6793 56.4774C16.8269 56.7135 17.004 56.9939 17.1811 57.4071H17.2106Z" fill="black"/>
<path fill-rule="evenodd" clip-rule="evenodd" d="M21.889 52.3892C21.889 52.3892 21.6972 51.8137 21.0035 51.2676C20.3099 50.7215 19.8081 50.692 19.8081 50.692C19.8081 50.692 20.6493 51.5037 20.8412 51.9612C21.0331 52.4187 21.1511 53.0829 21.1068 53.3485C21.0626 53.6142 21.8743 52.3892 21.8743 52.3892H21.889Z" fill="black"/>
<path d="M21.5942 52.4631C21.5499 52.3598 21.4023 52.0351 21.0186 51.6809C21.0629 51.74 21.0924 51.799 21.1072 51.858C21.2105 52.0942 21.2843 52.3893 21.3433 52.655C21.4023 52.9502 21.4171 53.2306 21.4023 53.3929L21.3876 53.5405C21.0334 53.9242 20.7235 54.1013 20.8268 53.3191C20.8415 53.2158 20.8268 53.0092 20.7825 52.7731C20.7382 52.5369 20.6644 52.286 20.5759 52.0942C20.4135 51.6957 19.6018 50.9283 19.6018 50.9283L19.0262 50.3822L19.8084 50.4265C19.8084 50.4265 20.3988 50.4708 21.1662 51.0611C21.9336 51.6514 22.1403 52.3008 22.1403 52.3008L22.1845 52.4336L22.096 52.5517C22.096 52.5517 21.727 53.1273 21.3728 53.511C21.4171 53.2601 21.5057 52.7583 21.5647 52.4631H21.5942ZM21.3728 53.5405C21.3433 53.7619 21.3581 53.7028 21.4023 53.511L21.3728 53.5405Z" fill="black"/>
<path fill-rule="evenodd" clip-rule="evenodd" d="M5.68443 56.5515C5.68443 56.5515 5.25643 55.4003 5.07933 54.0573C4.90223 52.7143 4.82844 52.9652 4.82844 52.9652C4.82844 52.9652 4.68086 53.7769 4.73989 54.7067C4.79892 55.6365 5.07933 56.1973 5.07933 56.1973L5.69919 56.5367L5.68443 56.5515Z" fill="black"/>
<path d="M5.37447 54.0276C5.55157 55.3411 5.9648 56.4628 5.9648 56.4628L6.23045 57.2007L4.85792 56.4332L4.81365 56.3447C4.81365 56.3447 4.50372 55.7396 4.44469 54.736C4.38565 53.7767 4.548 52.9207 4.548 52.9207V52.8912L4.56275 52.8617C4.56275 52.8617 5.04978 51.4892 5.37447 54.0129V54.0276Z" fill="black"/>
<path fill-rule="evenodd" clip-rule="evenodd" d="M24.1031 41.3058C24.1031 41.3058 23.8669 40.9073 23.0257 40.4055C22.1845 39.9037 21.9484 39.7119 21.5942 39.7562C21.2547 39.8004 22.4354 40.3022 22.7453 40.9073C23.0552 41.5272 22.9814 42.1765 22.9814 42.1765L24.1031 41.3058Z" fill="black"/>
<path d="M23.6896 41.2617C23.5568 41.1289 23.3354 40.9518 22.9812 40.7304L23.0108 40.7747C23.1583 41.0551 23.2174 41.3503 23.2616 41.5864L23.6896 41.247V41.2617ZM23.1731 40.1549C24.0881 40.6862 24.3538 41.1437 24.3538 41.1584L24.4866 41.3798L22.627 42.8261L22.6861 42.162C22.6861 42.162 22.7599 41.5864 22.4795 41.0551C22.3466 40.7895 21.9482 40.5091 21.6677 40.3172C21.4316 40.1549 21.2398 40.022 21.225 39.8449C21.1955 39.6383 21.2988 39.5055 21.5497 39.4907C21.9334 39.4465 22.1695 39.5793 22.7599 39.9482C22.8779 40.022 23.0255 40.1106 23.1583 40.1844L23.1731 40.1549Z" fill="black"/>
<path d="M71.9199 30.0894C71.9199 30.178 70.813 30.178 69.0273 30.178C67.2415 30.178 64.7916 30.2075 62.0761 30.3256C59.3605 30.4584 56.9106 30.665 55.1396 30.8274C53.3686 30.9897 52.2617 31.093 52.247 31.0045C52.2322 30.9307 53.3096 30.665 55.0806 30.3994C56.8516 30.119 59.3162 29.8533 62.0318 29.7205C64.7621 29.5877 67.2415 29.6319 69.0273 29.75C70.813 29.8533 71.9051 30.0156 71.9051 30.0894H71.9199Z" fill="black"/>
<path d="M6.15662 29.1006C6.15662 29.0711 6.45178 29.0121 7.0126 28.9087C7.29301 28.8497 7.63245 28.7907 8.03093 28.7464C8.42941 28.6874 8.87216 28.6283 9.37394 28.5841C10.3775 28.4808 11.5729 28.407 12.916 28.3774C14.2442 28.3627 15.72 28.4217 17.2549 28.5693C18.7898 28.7169 20.2361 28.953 21.5496 29.2187C22.8484 29.4991 24.0143 29.7942 24.9736 30.0894C25.4606 30.2222 25.8886 30.3846 26.2723 30.5174C26.656 30.6502 26.9807 30.7683 27.2316 30.8716C27.7481 31.0782 28.0433 31.2111 28.0285 31.2258C28.0138 31.2553 27.7186 31.1668 27.1873 31.0044C26.9217 30.9159 26.597 30.8126 26.2133 30.7093C25.8295 30.606 25.4016 30.4584 24.9145 30.3403C23.9552 30.0747 22.7893 29.809 21.4906 29.5434C20.1918 29.3072 18.7603 29.0858 17.2402 28.9235C15.72 28.7759 14.2737 28.7169 12.9455 28.7169C11.6172 28.7169 10.4365 28.7612 9.43298 28.835C8.93119 28.8645 8.48844 28.9087 8.08997 28.9383C7.69149 28.9678 7.35205 29.0121 7.07164 29.0416C6.51082 29.1006 6.20089 29.1301 6.20089 29.1006H6.15662Z" fill="black"/>
<path d="M100.522 32.2885C100.463 32.3328 100.419 32.4803 100.374 32.7017C100.33 32.9379 100.197 34.0005 99.9905 35.9043C99.7839 37.8081 99.6658 39.3282 99.6658 40.4646C99.6658 40.9664 99.7396 41.4977 99.8725 42.0585C99.9167 42.1914 99.9315 42.2947 99.9315 42.3537C99.9315 42.6784 99.8282 42.9736 99.6068 43.254C99.4002 43.5196 99.1345 43.6672 98.8246 43.6672C98.618 43.6672 98.3523 43.5639 98.0277 43.372C97.703 43.1654 97.5111 42.826 97.4521 42.3537C97.3931 41.8667 97.3635 41.2468 97.3635 40.4646C97.3635 39.4758 97.4964 37.9114 97.7472 35.7715C97.9981 33.6315 98.1457 32.5541 98.1752 32.5246C97.9981 32.5246 97.3045 32.5689 96.0648 32.6574C94.8251 32.746 94.1019 32.7903 93.9101 32.7903C93.2607 32.7903 92.8032 32.7017 92.5523 32.5394C92.3014 32.377 92.1686 32.1114 92.1686 31.7572C92.1686 31.4473 92.3014 31.1964 92.5671 31.034C92.8327 30.8717 93.5116 30.7831 94.6185 30.7831C96.4338 30.7831 98.2195 30.6651 99.9758 30.4289C101.953 30.1338 103.444 29.9862 104.462 29.9862C105.599 29.9862 106.292 30.119 106.543 30.3847C106.794 30.6503 106.912 30.916 106.912 31.1668C106.912 31.7719 106.647 32.0671 106.1 32.0671C105.923 32.0671 105.643 32.0524 105.245 32.0081C104.846 31.9786 104.374 31.9638 103.842 31.9638C102.249 31.9638 101.142 32.0671 100.522 32.2885ZM120.387 34.9598C120.091 37.5867 119.944 39.5053 119.944 40.745C119.944 40.9812 120.003 41.3354 120.106 41.8076C120.21 42.2947 120.254 42.6341 120.254 42.8555C120.254 43.2097 120.121 43.4901 119.885 43.6967C119.634 43.9033 119.294 44.0066 118.852 44.0066C118.394 44.0066 118.055 43.7705 117.833 43.313C117.612 42.8555 117.494 42.0733 117.494 40.9812C117.494 39.771 117.701 37.6458 118.114 34.6055L118.158 34.148C118.084 34.2218 117.996 34.3251 117.907 34.4285C117.435 34.9893 117.14 35.314 117.036 35.4173L117.051 35.4025C115.856 36.7308 114.852 37.7343 114.07 38.3985C113.686 38.7231 113.199 39.1511 112.609 39.6824C112.019 40.2137 111.591 40.5679 111.31 40.7746C110.528 41.3501 110.011 41.8372 109.79 42.2209C109.406 42.885 109.155 43.2687 109.037 43.3573H109.052C108.816 43.6377 108.418 43.7705 107.872 43.7705C107.207 43.7705 106.868 43.4015 106.868 42.6636C106.868 42.4865 106.971 41.7486 107.178 40.4499C107.37 39.2102 107.665 36.4799 108.078 32.2442C108.181 31.1668 108.27 30.488 108.344 30.178C108.418 29.8681 108.595 29.5877 108.86 29.322C109.126 29.0564 109.377 28.9236 109.628 28.9236C110.011 28.9236 110.321 29.0712 110.558 29.3516C110.794 29.632 110.912 29.9271 110.912 30.2223C110.912 30.3404 110.853 30.6651 110.735 31.2111C110.631 31.7424 110.558 32.1114 110.543 32.3032C110.543 32.318 110.484 32.7608 110.366 33.602L110.041 35.86C109.923 36.4799 109.775 37.7048 109.598 39.5349C110.174 39.0331 111.222 38.0738 112.757 36.6422C112.934 36.4799 113.037 36.3766 113.096 36.347C114.306 35.314 115.133 34.517 115.575 33.9414C115.62 33.8971 116.358 32.9969 117.789 31.2554C117.907 31.1078 117.981 31.0193 118.011 30.9897C118.379 30.488 118.704 30.1485 118.94 29.9714C119.191 29.7943 119.472 29.691 119.782 29.691C120.121 29.691 120.387 29.8091 120.593 30.0452C120.785 30.2813 120.888 30.5322 120.888 30.7979L120.372 34.9745L120.387 34.9598ZM127.913 34.7827V34.7679C127.884 35.0778 127.692 36.3175 127.323 38.5018C127.19 39.2987 127.102 39.771 127.087 39.9038L127.028 40.3466C126.91 41.2616 126.851 41.8814 126.851 42.2061L126.895 42.7669C126.895 43.4753 126.511 43.8295 125.759 43.8295C124.888 43.8295 124.445 43.3573 124.445 42.4127C124.445 41.8519 124.563 40.9369 124.814 39.6677C124.888 39.3135 124.962 38.9002 125.035 38.4427C125.05 38.3099 125.095 38.059 125.168 37.7048C125.641 35.2697 125.877 33.4987 125.877 32.377C125.877 32.2147 125.847 32.1409 125.773 32.1409C124.976 32.0671 124.578 31.7572 124.578 31.1816C124.578 30.8274 124.681 30.547 124.888 30.3256C125.095 30.1042 125.36 30.0009 125.7 29.9862C126.201 29.9567 126.57 29.8829 126.836 29.7205C127.102 29.5877 127.338 29.5287 127.544 29.5287C127.884 29.5287 128.164 29.6025 128.386 29.7205C128.563 29.8238 129.079 29.8681 129.935 29.8681C129.95 29.8681 130.599 29.8533 131.898 29.8091C133.197 29.7648 133.876 29.7353 133.95 29.7205C134.023 29.691 134.141 29.6467 134.333 29.5729C134.599 29.4549 134.85 29.4106 135.115 29.4106C135.322 29.4106 135.484 29.4254 135.588 29.4549C135.676 29.4991 135.765 29.5139 135.853 29.5139L136.768 29.4549C137.005 29.4401 137.241 29.4992 137.447 29.6467C137.654 29.7943 137.757 30.0305 137.757 30.3551C137.757 30.6946 137.639 30.9897 137.388 31.2259C137.137 31.462 136.857 31.5948 136.532 31.6244C136.458 31.6244 136.385 31.6686 136.296 31.7572C136.222 31.831 136.09 32.3328 135.883 33.2625C135.691 34.1923 135.499 35.5944 135.322 37.4539C135.145 39.3282 135.056 41.0254 135.056 42.5456C135.056 42.885 134.924 43.1654 134.673 43.4015C134.422 43.6377 134.215 43.7557 134.082 43.7557C133.138 43.7557 132.68 42.9883 132.68 41.4534C132.68 40.0662 133.02 36.9817 133.699 32.2147C133.728 31.9933 133.743 31.8753 133.743 31.8457C133.743 31.8015 133.684 31.7572 133.581 31.7424C133.477 31.7277 133.005 31.7129 132.193 31.7129H130.467C129.832 31.7129 129.345 31.7572 129.02 31.8162C128.696 31.8752 128.489 31.949 128.415 32.0081C128.341 32.0819 128.253 32.318 128.164 32.7608C128.076 33.1887 127.987 33.8676 127.913 34.7827ZM153.18 34.9745C152.885 37.6015 152.737 39.5201 152.737 40.7598C152.737 40.9959 152.796 41.3501 152.899 41.8224C153.003 42.3094 153.047 42.6489 153.047 42.8702C153.047 43.2244 152.914 43.5049 152.678 43.7115C152.427 43.9181 152.088 44.0214 151.645 44.0214C151.187 44.0214 150.848 43.7853 150.627 43.3278C150.405 42.8702 150.287 42.0881 150.287 40.9959C150.287 39.7857 150.494 37.6605 150.907 34.6203L150.951 34.1628C150.877 34.2366 150.789 34.3399 150.7 34.4432C150.228 35.004 149.933 35.3287 149.83 35.432L149.844 35.4173C148.649 36.7455 147.645 37.7491 146.863 38.4132C146.479 38.7379 145.992 39.1659 145.402 39.6972C144.812 40.2285 144.384 40.5827 144.103 40.7893C143.321 41.3649 142.805 41.8519 142.583 42.2356C142.2 42.8998 141.949 43.2835 141.831 43.372H141.845C141.609 43.6524 141.211 43.7853 140.665 43.7853C140.001 43.7853 139.661 43.4163 139.661 42.6784C139.661 42.5013 139.764 41.7634 139.971 40.4646C140.163 39.2249 140.458 36.4946 140.871 32.259C140.975 31.1816 141.063 30.5027 141.137 30.1928C141.211 29.8829 141.388 29.6025 141.653 29.3368C141.919 29.0712 142.17 28.9383 142.421 28.9383C142.805 28.9383 143.115 29.0859 143.351 29.3663C143.587 29.6467 143.705 29.9419 143.705 30.2371C143.705 30.3551 143.646 30.6798 143.528 31.2259C143.424 31.7572 143.351 32.1261 143.336 32.318C143.336 32.3328 143.277 32.7755 143.159 33.6167L142.834 35.8748C142.716 36.4946 142.568 37.7196 142.391 39.5496C142.967 39.0478 144.015 38.0885 145.55 36.657C145.727 36.4946 145.83 36.3913 145.889 36.3618C147.099 35.3287 147.926 34.5318 148.369 33.9562C148.413 33.9119 149.151 33.0116 150.582 31.2702C150.7 31.1226 150.774 31.034 150.804 31.0045C151.173 30.5027 151.497 30.1633 151.733 29.9862C151.984 29.7943 152.265 29.7058 152.575 29.7058C152.914 29.7058 153.18 29.8238 153.386 30.06C153.578 30.2961 153.682 30.547 153.682 30.8126L153.165 34.9893L153.18 34.9745ZM166.846 35.6239C166.654 35.7272 165.783 36.1995 164.234 37.0407C163.688 37.3359 163.053 37.6015 162.33 37.8229C161.607 38.0443 160.957 38.1623 160.382 38.1623C159.526 38.1623 158.862 37.9262 158.375 37.4392C157.888 36.9521 157.652 35.801 157.652 33.9709C157.652 33.2035 157.77 32.2295 158.006 31.0783C158.242 29.9271 158.596 29.263 159.054 29.0564C159.511 28.8645 159.851 28.7612 160.072 28.7612C160.308 28.7612 160.5 28.8941 160.647 29.1597C160.795 29.4254 160.869 29.7648 160.869 30.178C160.869 30.3256 160.721 30.975 160.411 32.1557C160.101 33.3658 159.954 34.2809 159.954 34.9302C159.954 35.3877 160.028 35.6977 160.16 35.86C160.293 36.0224 160.515 36.0961 160.795 36.0961C161.194 36.0961 162.035 35.8157 163.334 35.2549C164.632 34.6941 165.488 34.2513 165.916 33.8971C166.344 33.5577 166.625 33.2921 166.787 33.1297C166.949 32.9674 167.038 32.4951 167.038 31.7129C167.038 31.403 167.023 31.0635 166.994 30.6946C166.949 30.1042 167.082 29.632 167.422 29.3073C167.746 28.9678 168.16 28.8055 168.617 28.8055C168.897 28.8055 169.163 28.9088 169.414 29.1302C169.665 29.3368 169.783 29.632 169.783 29.9862C169.783 30.178 169.724 30.6208 169.606 31.2849C169.473 32.0523 169.266 33.7053 169.001 36.229C168.735 38.7527 168.588 40.4646 168.543 41.3796C168.514 42.029 168.484 42.5456 168.455 42.944C168.425 43.3278 168.263 43.6377 167.953 43.8738C167.658 44.11 167.304 44.2133 166.905 44.2133C166.566 44.2133 166.315 44.0509 166.123 43.741C165.931 43.4311 165.842 43.0621 165.842 42.6341C165.842 42.1028 165.975 41.0992 166.256 39.6382C166.344 39.1069 166.536 37.7638 166.802 35.6239H166.846ZM186.475 29.8829C186.475 30.3551 186.312 31.3587 186.002 32.9083C185.353 36.1552 184.984 39.3578 184.91 42.4718C184.91 42.8555 184.733 43.1949 184.394 43.4606C184.054 43.741 183.685 43.8738 183.316 43.8738C183.036 43.8738 182.77 43.7705 182.534 43.5491C182.298 43.3425 182.18 43.1064 182.18 42.8555C182.18 42.5898 182.283 41.8519 182.49 40.627C182.697 39.4168 182.8 38.546 182.8 38.0295C182.8 37.8376 182.756 37.7343 182.667 37.7343C182.475 37.7343 181.944 37.7786 181.044 37.8672C180.143 37.9557 179.568 38 179.302 38C179.125 38 178.535 38.0443 177.531 38.1033C176.542 38.1771 175.996 38.2361 175.878 38.2951C175.849 38.2951 175.804 39.0035 175.731 40.4204C175.657 41.7339 175.509 42.6489 175.317 43.1359C175.111 43.6229 174.801 43.8591 174.358 43.8591C173.901 43.8591 173.561 43.7115 173.34 43.4015C173.118 43.1064 173.015 42.7965 173.015 42.4865C173.015 42.2504 173.089 41.8076 173.251 41.1583C173.384 40.627 173.753 37.631 174.388 32.1409L174.579 30.3699C174.609 30.119 174.727 29.9124 174.934 29.7353C175.14 29.5582 175.362 29.4696 175.612 29.4696C175.996 29.4696 176.336 29.5729 176.616 29.7943C176.896 30.0157 177.044 30.2666 177.059 30.5618V30.7979C177.059 31.3735 176.926 32.2737 176.646 33.4987C176.38 34.6941 176.247 35.5353 176.247 36.0371C176.247 36.1257 176.395 36.1699 176.69 36.1699C177.811 36.1699 179.14 36.1109 180.675 35.9781C182.195 35.8453 183.021 35.6829 183.139 35.4911C183.257 35.2106 183.39 34.4727 183.538 33.3068C183.685 32.1261 183.789 30.975 183.818 29.8386C183.818 29.691 183.98 29.4991 184.276 29.2483C184.586 28.9974 184.881 28.8645 185.176 28.8645C185.471 28.8645 185.766 28.9531 186.047 29.1154C186.327 29.2778 186.475 29.5139 186.475 29.7943V29.8534V29.8829ZM198.06 38.8264L198.075 38.8117C197.868 38.8117 197.278 38.8855 196.304 39.0478C195.33 39.1954 194.592 39.343 194.12 39.4758C192.909 39.83 192.142 39.9924 191.817 39.9924C191.611 39.9924 191.433 39.9628 191.286 39.9038H191.301C191.212 39.8743 191.153 39.8595 191.153 39.8595C191.094 39.8595 190.917 40.1547 190.607 40.7598C190.076 41.8076 189.648 42.4865 189.323 42.8407C188.998 43.1802 188.688 43.3573 188.408 43.3573C188.157 43.3573 187.862 43.2244 187.537 42.9736C187.198 42.7227 187.035 42.457 187.035 42.1914C187.035 41.911 187.463 41.173 188.334 39.9924C189.943 37.8229 191.153 36.0076 191.935 34.5318C193.131 32.318 194.031 30.8126 194.621 30.0009C195.226 29.204 195.713 28.7907 196.082 28.7907C197.027 28.7907 197.499 29.1449 197.499 29.8386C197.499 30.06 197.47 30.2518 197.425 30.4437C197.721 31.3735 197.971 32.0671 198.149 32.5394C198.208 32.6574 198.768 34.1185 199.846 36.9521C200.126 37.7196 200.51 38.5313 200.982 39.3725C201.454 40.2285 201.853 40.7746 202.148 41.0402C203.122 41.8519 203.609 42.4865 203.609 42.9736C203.609 43.3425 203.476 43.6672 203.24 43.9329C202.989 44.1985 202.694 44.3461 202.355 44.3461C201.572 44.3461 200.672 43.4901 199.624 41.7929C198.591 40.0809 198.06 39.0921 198.06 38.8117V38.8264ZM197.278 36.8636C196.909 35.9043 196.54 34.8712 196.156 33.7643C195.846 32.8936 195.684 32.4508 195.669 32.4213C195.625 32.4951 194.739 34.0447 192.983 37.085C192.836 37.3506 192.732 37.5277 192.688 37.6163L197.278 36.8488V36.8636ZM217.364 29.9271C217.364 30.1338 217.187 30.6355 216.833 31.4473C216.478 32.2295 216.124 33.602 215.77 35.5501C215.401 37.4982 215.224 39.0183 215.224 40.1252L215.372 43.0326V43.3573C215.372 43.5049 215.254 43.6524 215.032 43.8C214.811 43.9476 214.604 44.0362 214.457 44.0362C213.615 44.0362 213.128 43.6524 213.01 42.8702L212.995 42.5898C212.981 42.3832 212.995 41.7781 213.025 40.7303C213.055 39.6824 213.114 38.7084 213.202 37.7786C212.892 38.0443 211.903 38.915 210.206 40.4204C209.527 41.0254 209.114 41.3797 208.996 41.483C207.653 42.6046 206.753 43.4311 206.31 44.0066C206.266 44.0804 206.118 44.1837 205.897 44.3166C205.675 44.4346 205.498 44.5084 205.395 44.5084C204.716 44.5084 204.259 44.0362 203.993 43.0916C203.993 42.8702 204.45 42.3832 205.365 41.6453L205.483 41.542C206.546 40.5975 208.169 39.343 210.368 37.7934C210.295 37.7934 210.206 37.8081 210.103 37.8376C209.586 37.9262 209.247 37.9705 209.07 37.9705C208.11 37.9705 207.269 37.6901 206.517 37.1145C205.764 36.5389 205.395 35.8157 205.395 34.9155C205.395 33.9857 205.749 33.115 206.487 32.3032C207.21 31.5063 208.199 30.8126 209.453 30.2518C210.708 29.691 211.874 29.322 212.966 29.1597C214.058 28.9974 214.648 28.9088 214.766 28.9088C214.914 28.9088 215.106 28.9531 215.357 29.0269C215.445 28.9826 215.622 28.9531 215.888 28.9531C216.198 28.9531 216.508 29.0416 216.818 29.2335C217.128 29.4254 217.32 29.6467 217.364 29.9271ZM214.457 31.3439C214.427 31.2849 214.353 31.2111 214.22 31.1373C214.088 31.0635 213.984 31.034 213.925 31.034C213.394 31.034 212.627 31.1668 211.623 31.4473C210.619 31.7277 209.734 32.1852 208.966 32.8198C208.199 33.4544 207.815 34.1628 207.815 34.9155C207.815 35.2549 207.963 35.5206 208.273 35.7419C208.583 35.9633 208.922 36.0666 209.321 36.0666C210.029 36.0666 210.796 36.0076 211.623 35.8895C212.449 35.7715 213.069 35.6239 213.497 35.432H213.483C213.586 35.314 213.778 34.7089 214.058 33.602C214.338 32.4951 214.486 31.7572 214.486 31.403V31.3292L214.457 31.3439Z" fill="white"/>
<path d="M217.364 29.9271C217.364 30.1338 217.187 30.6355 216.833 31.4473C216.478 32.2295 216.124 33.602 215.77 35.5501C215.401 37.4982 215.224 39.0183 215.224 40.1252L215.372 43.0326V43.3573C215.372 43.5049 215.254 43.6524 215.032 43.8C214.811 43.9476 214.604 44.0362 214.457 44.0362C213.615 44.0362 213.128 43.6524 213.01 42.8702L212.995 42.5898C212.981 42.3832 212.995 41.7781 213.025 40.7303C213.055 39.6824 213.114 38.7084 213.202 37.7786C212.892 38.0443 211.903 38.915 210.206 40.4204C209.527 41.0254 209.114 41.3797 208.996 41.483C207.653 42.6046 206.753 43.4311 206.31 44.0066C206.266 44.0804 206.118 44.1837 205.897 44.3166C205.675 44.4346 205.498 44.5084 205.395 44.5084C204.716 44.5084 204.259 44.0362 203.993 43.0916C203.993 42.8702 204.45 42.3832 205.365 41.6453L205.483 41.542C206.546 40.5975 208.169 39.343 210.368 37.7934C210.295 37.7934 210.206 37.8081 210.103 37.8376C209.586 37.9262 209.247 37.9705 209.07 37.9705C208.11 37.9705 207.269 37.6901 206.517 37.1145C205.764 36.5389 205.395 35.8157 205.395 34.9155C205.395 33.9857 205.749 33.115 206.487 32.3032C207.21 31.5063 208.199 30.8126 209.453 30.2518C210.708 29.691 211.874 29.322 212.966 29.1597C214.058 28.9974 214.648 28.9088 214.766 28.9088C214.914 28.9088 215.106 28.9531 215.357 29.0269C215.445 28.9826 215.622 28.9531 215.888 28.9531C216.198 28.9531 216.508 29.0416 216.818 29.2335C217.128 29.4254 217.32 29.6467 217.364 29.9271ZM217.364 29.9271V29.9419M100.522 32.2885C100.463 32.3328 100.419 32.4803 100.374 32.7017C100.33 32.9379 100.197 34.0005 99.9905 35.9043C99.7839 37.8081 99.6658 39.3282 99.6658 40.4646C99.6658 40.9664 99.7396 41.4977 99.8725 42.0585C99.9167 42.1914 99.9315 42.2947 99.9315 42.3537C99.9315 42.6784 99.8282 42.9736 99.6068 43.254C99.4002 43.5196 99.1345 43.6672 98.8246 43.6672C98.618 43.6672 98.3523 43.5639 98.0277 43.372C97.703 43.1654 97.5111 42.826 97.4521 42.3537C97.3931 41.8667 97.3635 41.2468 97.3635 40.4646C97.3635 39.4758 97.4964 37.9114 97.7472 35.7715C97.9981 33.6315 98.1457 32.5541 98.1752 32.5246C97.9981 32.5246 97.3045 32.5689 96.0648 32.6574C94.8251 32.746 94.1019 32.7903 93.9101 32.7903C93.2607 32.7903 92.8032 32.7017 92.5523 32.5394C92.3014 32.377 92.1686 32.1114 92.1686 31.7572C92.1686 31.4473 92.3014 31.1964 92.5671 31.034C92.8327 30.8717 93.5116 30.7831 94.6185 30.7831C96.4338 30.7831 98.2195 30.6651 99.9758 30.4289C101.953 30.1338 103.444 29.9862 104.462 29.9862C105.599 29.9862 106.292 30.119 106.543 30.3847C106.794 30.6503 106.912 30.916 106.912 31.1668C106.912 31.7719 106.647 32.0671 106.1 32.0671C105.923 32.0671 105.643 32.0524 105.245 32.0081C104.846 31.9786 104.374 31.9638 103.842 31.9638C102.249 31.9638 101.142 32.0671 100.522 32.2885ZM120.387 34.9598C120.091 37.5867 119.944 39.5053 119.944 40.745C119.944 40.9812 120.003 41.3354 120.106 41.8076C120.21 42.2947 120.254 42.6341 120.254 42.8555C120.254 43.2097 120.121 43.4901 119.885 43.6967C119.634 43.9033 119.294 44.0066 118.852 44.0066C118.394 44.0066 118.055 43.7705 117.833 43.313C117.612 42.8555 117.494 42.0733 117.494 40.9812C117.494 39.771 117.701 37.6458 118.114 34.6055L118.158 34.148C118.084 34.2218 117.996 34.3251 117.907 34.4285C117.435 34.9893 117.14 35.314 117.036 35.4173L117.051 35.4025C115.856 36.7308 114.852 37.7343 114.07 38.3985C113.686 38.7231 113.199 39.1511 112.609 39.6824C112.019 40.2137 111.591 40.5679 111.31 40.7746C110.528 41.3501 110.011 41.8372 109.79 42.2209C109.406 42.885 109.155 43.2687 109.037 43.3573H109.052C108.816 43.6377 108.418 43.7705 107.872 43.7705C107.207 43.7705 106.868 43.4015 106.868 42.6636C106.868 42.4865 106.971 41.7486 107.178 40.4499C107.37 39.2102 107.665 36.4799 108.078 32.2442C108.181 31.1668 108.27 30.488 108.344 30.178C108.418 29.8681 108.595 29.5877 108.86 29.322C109.126 29.0564 109.377 28.9236 109.628 28.9236C110.011 28.9236 110.321 29.0712 110.558 29.3516C110.794 29.632 110.912 29.9271 110.912 30.2223C110.912 30.3404 110.853 30.6651 110.735 31.2111C110.631 31.7424 110.558 32.1114 110.543 32.3032C110.543 32.318 110.484 32.7608 110.366 33.602L110.041 35.86C109.923 36.4799 109.775 37.7048 109.598 39.5349C110.174 39.0331 111.222 38.0738 112.757 36.6422C112.934 36.4799 113.037 36.3766 113.096 36.347C114.306 35.314 115.133 34.517 115.575 33.9414C115.62 33.8971 116.358 32.9969 117.789 31.2554C117.907 31.1078 117.981 31.0193 118.011 30.9897C118.379 30.488 118.704 30.1485 118.94 29.9714C119.191 29.7943 119.472 29.691 119.782 29.691C120.121 29.691 120.387 29.8091 120.593 30.0452C120.785 30.2813 120.888 30.5322 120.888 30.7979L120.372 34.9745L120.387 34.9598ZM127.913 34.7827V34.7679C127.884 35.0778 127.692 36.3175 127.323 38.5018C127.19 39.2987 127.102 39.771 127.087 39.9038L127.028 40.3466C126.91 41.2616 126.851 41.8814 126.851 42.2061L126.895 42.7669C126.895 43.4753 126.511 43.8295 125.759 43.8295C124.888 43.8295 124.445 43.3573 124.445 42.4127C124.445 41.8519 124.563 40.9369 124.814 39.6677C124.888 39.3135 124.962 38.9002 125.035 38.4427C125.05 38.3099 125.095 38.059 125.168 37.7048C125.641 35.2697 125.877 33.4987 125.877 32.377C125.877 32.2147 125.847 32.1409 125.773 32.1409C124.976 32.0671 124.578 31.7572 124.578 31.1816C124.578 30.8274 124.681 30.547 124.888 30.3256C125.095 30.1042 125.36 30.0009 125.7 29.9862C126.201 29.9567 126.57 29.8829 126.836 29.7205C127.102 29.5877 127.338 29.5287 127.544 29.5287C127.884 29.5287 128.164 29.6025 128.386 29.7205C128.563 29.8238 129.079 29.8681 129.935 29.8681C129.95 29.8681 130.599 29.8533 131.898 29.8091C133.197 29.7648 133.876 29.7353 133.95 29.7205C134.023 29.691 134.141 29.6467 134.333 29.5729C134.599 29.4549 134.85 29.4106 135.115 29.4106C135.322 29.4106 135.484 29.4254 135.588 29.4549C135.676 29.4991 135.765 29.5139 135.853 29.5139L136.768 29.4549C137.005 29.4401 137.241 29.4992 137.447 29.6467C137.654 29.7943 137.757 30.0305 137.757 30.3551C137.757 30.6946 137.639 30.9897 137.388 31.2259C137.137 31.462 136.857 31.5948 136.532 31.6244C136.458 31.6244 136.385 31.6686 136.296 31.7572C136.222 31.831 136.09 32.3328 135.883 33.2625C135.691 34.1923 135.499 35.5944 135.322 37.4539C135.145 39.3282 135.056 41.0254 135.056 42.5456C135.056 42.885 134.924 43.1654 134.673 43.4015C134.422 43.6377 134.215 43.7557 134.082 43.7557C133.138 43.7557 132.68 42.9883 132.68 41.4534C132.68 40.0662 133.02 36.9817 133.699 32.2147C133.728 31.9933 133.743 31.8753 133.743 31.8457C133.743 31.8015 133.684 31.7572 133.581 31.7424C133.477 31.7277 133.005 31.7129 132.193 31.7129H130.467C129.832 31.7129 129.345 31.7572 129.02 31.8162C128.696 31.8752 128.489 31.949 128.415 32.0081C128.341 32.0819 128.253 32.318 128.164 32.7608C128.076 33.1887 127.987 33.8676 127.913 34.7827ZM153.18 34.9745C152.885 37.6015 152.737 39.5201 152.737 40.7598C152.737 40.9959 152.796 41.3501 152.899 41.8224C153.003 42.3094 153.047 42.6489 153.047 42.8702C153.047 43.2244 152.914 43.5049 152.678 43.7115C152.427 43.9181 152.088 44.0214 151.645 44.0214C151.187 44.0214 150.848 43.7853 150.627 43.3278C150.405 42.8702 150.287 42.0881 150.287 40.9959C150.287 39.7857 150.494 37.6605 150.907 34.6203L150.951 34.1628C150.877 34.2366 150.789 34.3399 150.7 34.4432C150.228 35.004 149.933 35.3287 149.83 35.432L149.844 35.4173C148.649 36.7455 147.645 37.7491 146.863 38.4132C146.479 38.7379 145.992 39.1659 145.402 39.6972C144.812 40.2285 144.384 40.5827 144.103 40.7893C143.321 41.3649 142.805 41.8519 142.583 42.2356C142.2 42.8998 141.949 43.2835 141.831 43.372H141.845C141.609 43.6524 141.211 43.7853 140.665 43.7853C140.001 43.7853 139.661 43.4163 139.661 42.6784C139.661 42.5013 139.764 41.7634 139.971 40.4646C140.163 39.2249 140.458 36.4946 140.871 32.259C140.975 31.1816 141.063 30.5027 141.137 30.1928C141.211 29.8829 141.388 29.6025 141.653 29.3368C141.919 29.0712 142.17 28.9383 142.421 28.9383C142.805 28.9383 143.115 29.0859 143.351 29.3663C143.587 29.6467 143.705 29.9419 143.705 30.2371C143.705 30.3551 143.646 30.6798 143.528 31.2259C143.424 31.7572 143.351 32.1261 143.336 32.318C143.336 32.3328 143.277 32.7755 143.159 33.6167L142.834 35.8748C142.716 36.4946 142.568 37.7196 142.391 39.5496C142.967 39.0478 144.015 38.0885 145.55 36.657C145.727 36.4946 145.83 36.3913 145.889 36.3618C147.099 35.3287 147.926 34.5318 148.369 33.9562C148.413 33.9119 149.151 33.0116 150.582 31.2702C150.7 31.1226 150.774 31.034 150.804 31.0045C151.173 30.5027 151.497 30.1633 151.733 29.9862C151.984 29.7943 152.265 29.7058 152.575 29.7058C152.914 29.7058 153.18 29.8238 153.386 30.06C153.578 30.2961 153.682 30.547 153.682 30.8126L153.165 34.9893L153.18 34.9745ZM166.846 35.6239C166.654 35.7272 165.783 36.1995 164.234 37.0407C163.688 37.3359 163.053 37.6015 162.33 37.8229C161.607 38.0443 160.957 38.1623 160.382 38.1623C159.526 38.1623 158.862 37.9262 158.375 37.4392C157.888 36.9521 157.652 35.801 157.652 33.9709C157.652 33.2035 157.77 32.2295 158.006 31.0783C158.242 29.9271 158.596 29.263 159.054 29.0564C159.511 28.8645 159.851 28.7612 160.072 28.7612C160.308 28.7612 160.5 28.8941 160.647 29.1597C160.795 29.4254 160.869 29.7648 160.869 30.178C160.869 30.3256 160.721 30.975 160.411 32.1557C160.101 33.3658 159.954 34.2809 159.954 34.9302C159.954 35.3877 160.028 35.6977 160.16 35.86C160.293 36.0224 160.515 36.0961 160.795 36.0961C161.194 36.0961 162.035 35.8157 163.334 35.2549C164.632 34.6941 165.488 34.2513 165.916 33.8971C166.344 33.5577 166.625 33.2921 166.787 33.1297C166.949 32.9674 167.038 32.4951 167.038 31.7129C167.038 31.403 167.023 31.0635 166.994 30.6946C166.949 30.1042 167.082 29.632 167.422 29.3073C167.746 28.9678 168.16 28.8055 168.617 28.8055C168.897 28.8055 169.163 28.9088 169.414 29.1302C169.665 29.3368 169.783 29.632 169.783 29.9862C169.783 30.178 169.724 30.6208 169.606 31.2849C169.473 32.0523 169.266 33.7053 169.001 36.229C168.735 38.7527 168.587 40.4646 168.543 41.3796C168.514 42.029 168.484 42.5456 168.455 42.944C168.425 43.3278 168.263 43.6377 167.953 43.8738C167.658 44.11 167.304 44.2133 166.905 44.2133C166.566 44.2133 166.315 44.0509 166.123 43.741C165.931 43.4311 165.842 43.0621 165.842 42.6341C165.842 42.1028 165.975 41.0992 166.256 39.6382C166.344 39.1069 166.536 37.7638 166.802 35.6239H166.846ZM186.475 29.8829C186.475 30.3551 186.312 31.3587 186.002 32.9083C185.353 36.1552 184.984 39.3578 184.91 42.4718C184.91 42.8555 184.733 43.1949 184.394 43.4606C184.054 43.741 183.685 43.8738 183.316 43.8738C183.036 43.8738 182.77 43.7705 182.534 43.5491C182.298 43.3425 182.18 43.1064 182.18 42.8555C182.18 42.5898 182.283 41.8519 182.49 40.627C182.697 39.4168 182.8 38.546 182.8 38.0295C182.8 37.8376 182.756 37.7343 182.667 37.7343C182.475 37.7343 181.944 37.7786 181.044 37.8672C180.143 37.9557 179.568 38 179.302 38C179.125 38 178.535 38.0443 177.531 38.1033C176.542 38.1771 175.996 38.2361 175.878 38.2951C175.849 38.2951 175.804 39.0035 175.731 40.4204C175.657 41.7339 175.509 42.6489 175.317 43.1359C175.111 43.6229 174.801 43.8591 174.358 43.8591C173.901 43.8591 173.561 43.7115 173.34 43.4015C173.118 43.1064 173.015 42.7965 173.015 42.4865C173.015 42.2504 173.089 41.8076 173.251 41.1583C173.384 40.627 173.753 37.631 174.388 32.1409L174.579 30.3699C174.609 30.119 174.727 29.9124 174.934 29.7353C175.14 29.5582 175.362 29.4696 175.612 29.4696C175.996 29.4696 176.336 29.5729 176.616 29.7943C176.896 30.0157 177.044 30.2666 177.059 30.5618V30.7979C177.059 31.3735 176.926 32.2737 176.646 33.4987C176.38 34.6941 176.247 35.5353 176.247 36.0371C176.247 36.1257 176.395 36.1699 176.69 36.1699C177.811 36.1699 179.14 36.1109 180.675 35.9781C182.195 35.8453 183.021 35.6829 183.139 35.4911C183.257 35.2106 183.39 34.4727 183.538 33.3068C183.685 32.1261 183.789 30.975 183.818 29.8386C183.818 29.691 183.981 29.4991 184.276 29.2483C184.586 28.9974 184.881 28.8645 185.176 28.8645C185.471 28.8645 185.766 28.9531 186.047 29.1154C186.327 29.2778 186.475 29.5139 186.475 29.7943V29.8534V29.8829ZM198.06 38.8264L198.075 38.8117C197.868 38.8117 197.278 38.8855 196.304 39.0478C195.33 39.1954 194.592 39.343 194.12 39.4758C192.909 39.83 192.142 39.9924 191.817 39.9924C191.611 39.9924 191.433 39.9628 191.286 39.9038H191.301C191.212 39.8743 191.153 39.8595 191.153 39.8595C191.094 39.8595 190.917 40.1547 190.607 40.7598C190.076 41.8076 189.648 42.4865 189.323 42.8407C188.998 43.1802 188.688 43.3573 188.408 43.3573C188.157 43.3573 187.862 43.2244 187.537 42.9736C187.198 42.7227 187.035 42.457 187.035 42.1914C187.035 41.911 187.463 41.173 188.334 39.9924C189.943 37.8229 191.153 36.0076 191.935 34.5318C193.131 32.318 194.031 30.8126 194.621 30.0009C195.226 29.204 195.713 28.7907 196.082 28.7907C197.027 28.7907 197.499 29.1449 197.499 29.8386C197.499 30.06 197.47 30.2518 197.425 30.4437C197.721 31.3735 197.971 32.0671 198.149 32.5394C198.208 32.6574 198.768 34.1185 199.846 36.9521C200.126 37.7196 200.51 38.5313 200.982 39.3725C201.454 40.2285 201.853 40.7746 202.148 41.0402C203.122 41.8519 203.609 42.4865 203.609 42.9736C203.609 43.3425 203.476 43.6672 203.24 43.9329C202.989 44.1985 202.694 44.3461 202.355 44.3461C201.572 44.3461 200.672 43.4901 199.624 41.7929C198.591 40.0809 198.06 39.0921 198.06 38.8117V38.8264ZM197.278 36.8636C196.909 35.9043 196.54 34.8712 196.156 33.7643C195.846 32.8936 195.684 32.4508 195.669 32.4213C195.625 32.4951 194.739 34.0447 192.983 37.085C192.836 37.3506 192.732 37.5277 192.688 37.6163L197.278 36.8488V36.8636ZM214.457 31.3439C214.427 31.2849 214.353 31.2111 214.22 31.1373C214.088 31.0635 213.984 31.034 213.925 31.034C213.394 31.034 212.627 31.1668 211.623 31.4473C210.619 31.7277 209.734 32.1852 208.966 32.8198C208.199 33.4544 207.815 34.1628 207.815 34.9155C207.815 35.2549 207.963 35.5206 208.273 35.7419C208.583 35.9633 208.922 36.0666 209.321 36.0666C210.029 36.0666 210.796 36.0076 211.623 35.8895C212.449 35.7715 213.069 35.6239 213.497 35.432H213.483C213.586 35.314 213.778 34.7089 214.058 33.602C214.338 32.4951 214.486 31.7572 214.486 31.403V31.3292L214.457 31.3439Z" stroke="white" stroke-width="0.160982" stroke-miterlimit="22.9256" stroke-linecap="round" stroke-linejoin="round"/>
<path d="M93.6886 59.8424V59.8571C93.7624 59.7243 93.8361 59.5915 93.8952 59.4882C94.1313 59.0897 95.0021 57.3334 96.4927 54.2194C97.1863 52.7583 97.6143 51.9023 97.7619 51.6515C97.9095 51.4153 98.1456 51.194 98.485 51.0168C98.8245 50.8397 99.1639 50.7364 99.5034 50.7217C100.182 50.7217 100.625 50.8693 100.817 51.1497C101.009 51.4448 101.23 52.3156 101.511 53.7914C101.614 54.3522 101.717 54.8098 101.82 55.1935C101.909 55.5329 101.953 55.7395 101.968 55.8428C102.337 57.481 102.765 59.0306 103.252 60.4622C103.739 61.8938 104.123 62.794 104.403 63.1335C104.595 63.104 104.816 63.104 105.053 63.104C105.51 63.104 105.82 63.1778 105.982 63.3106C106.145 63.4582 106.218 63.7386 106.218 64.1518C106.218 65.0668 106.145 66.4098 106.012 68.1956C105.953 68.8302 105.938 69.1697 105.938 69.2287C105.938 69.4648 105.82 69.701 105.569 69.9371C105.333 70.1585 105.023 70.2765 104.639 70.2765C104.477 70.2765 104.315 70.2175 104.138 70.1142C103.96 70.0109 103.842 69.9076 103.769 69.819C103.695 69.7305 103.65 69.5534 103.65 69.2877C103.65 69.0368 103.695 68.5203 103.783 67.7381C103.857 67.0149 103.887 66.5722 103.887 66.3803C103.887 65.6572 103.813 65.2882 103.68 65.2882C102.396 65.2882 98.7064 65.5539 92.6112 66.0999C92.0209 66.1442 91.7109 66.2032 91.6814 66.2918C91.3863 67.1625 91.2239 68.0185 91.2239 68.845V69.3468C91.2239 70.1437 90.8402 70.5717 90.0728 70.6603L89.9695 70.675C89.6595 70.7045 89.4086 70.6307 89.202 70.4536C88.9954 70.2765 88.8921 70.0109 88.8921 69.6714C88.8921 69.273 88.9954 68.2694 89.2168 66.6165C89.2463 66.3065 89.2758 66.0114 89.2906 65.7457C89.3053 65.362 89.3791 65.0373 89.5415 64.8012C89.689 64.565 89.999 64.4027 90.4565 64.3289C90.7959 64.2404 91.0911 64.019 91.342 63.6648C91.401 63.5762 91.4601 63.4877 91.5338 63.3991C91.8733 62.8826 92.5817 61.7167 93.6738 59.8719L93.6886 59.8424ZM93.969 64.0337L101.584 63.4139C101.392 62.6612 101.142 61.8495 100.846 60.9788C100.536 60.108 100.33 59.4734 100.227 59.0897C99.8133 57.6581 99.5181 56.4479 99.341 55.4591L99.0606 54.1161C98.9573 54.3375 98.4113 55.4444 97.4077 57.4367C96.4041 59.4291 95.681 60.8312 95.2382 61.6134C94.4117 63.0744 93.9837 63.8714 93.969 63.9895L93.9837 64.019L93.969 64.0337ZM114.277 66.0999H112.55C111.472 66.0999 110.513 65.5391 109.672 64.4027C108.831 63.2811 108.417 62.2037 108.417 61.1559C108.417 59.621 108.831 58.0418 109.642 56.4479C110.454 54.854 111.487 53.5553 112.727 52.5812C113.967 51.6072 115.162 51.1202 116.343 51.1202C116.387 51.1202 116.667 51.0906 117.199 51.0316C117.73 50.9726 118.247 50.9431 118.719 50.9431C119.53 50.9431 120.209 51.0759 120.755 51.3563C121.302 51.6219 121.848 52.0352 122.423 52.5665C122.984 53.0978 123.427 53.7471 123.737 54.5146C124.047 55.2968 124.209 56.079 124.209 56.8907C124.209 57.9533 123.648 59.2373 122.526 60.7426C121.405 62.248 120.047 63.5172 118.483 64.5503C116.918 65.5834 115.516 66.0999 114.262 66.0999H114.277ZM121.641 56.994C121.67 55.5182 121.287 54.4408 120.46 53.7914C119.649 53.1421 118.984 52.8026 118.453 52.8026C118.32 52.8026 118.084 52.8469 117.759 52.9207C117.346 53.0092 117.036 53.0683 116.859 53.083C115.044 53.511 113.553 54.6179 112.402 56.3889C111.251 58.1599 110.675 59.7686 110.675 61.2001C110.675 62.0561 110.941 62.7645 111.458 63.3253C111.989 63.9009 112.594 64.1813 113.288 64.1813C114.439 64.1813 115.649 63.7828 116.933 63.0154C118.202 62.2332 119.309 61.2887 120.209 60.2113C121.124 59.1192 121.582 58.3222 121.597 57.8352L121.611 57.0088L121.641 56.994ZM136.783 62.1742C137.27 62.1742 137.521 62.4103 137.521 62.8826C137.521 63.4729 136.798 64.1961 135.366 65.0521C133.935 65.9081 132.533 66.336 131.19 66.336C129.994 66.336 128.902 65.9523 127.913 65.1849C126.91 64.4322 126.423 63.3106 126.423 61.8643C126.423 60.3737 126.939 58.7355 127.987 56.9202C129.035 55.1049 130.319 53.6438 131.869 52.4927C133.418 51.3563 134.923 50.7955 136.385 50.7955C137.255 50.7955 137.964 51.0464 138.48 51.5629C139.012 52.0795 139.262 52.6698 139.262 53.3634C139.262 54.1013 139.203 54.6327 139.085 54.9573C138.967 55.282 138.716 55.5624 138.333 55.7838C137.949 56.0199 137.639 56.138 137.388 56.1232C137.137 56.1232 136.931 56.0347 136.739 55.8576C136.562 55.6953 136.458 55.4444 136.458 55.164C136.458 54.9573 136.517 54.6622 136.621 54.2637C136.724 53.88 136.768 53.5405 136.768 53.2896C136.768 52.8469 136.621 52.6255 136.311 52.6255C135.366 52.6255 134.318 53.1125 133.152 54.1013C131.987 55.0902 130.983 56.3151 130.157 57.7762C129.315 59.2373 128.902 60.5212 128.902 61.6429C128.902 62.3808 129.123 63.0154 129.551 63.5172C129.994 64.0337 130.629 64.2846 131.47 64.2846C131.957 64.2846 132.592 64.1518 133.344 63.8862C134.097 63.6205 134.791 63.2663 135.425 62.8236C136.075 62.366 136.517 62.1447 136.754 62.1447L136.783 62.1742ZM148.236 54.1309C148.177 54.1751 148.117 54.3227 148.073 54.5589C148.029 54.795 147.896 55.8871 147.675 57.8647C147.453 59.8276 147.35 61.392 147.35 62.5727C147.35 63.0892 147.424 63.6353 147.557 64.2108C147.601 64.3584 147.63 64.447 147.63 64.506C147.63 64.8455 147.527 65.1554 147.291 65.4358C147.07 65.7162 146.804 65.849 146.479 65.849C146.273 65.849 145.992 65.7457 145.668 65.5391C145.343 65.3325 145.136 64.9783 145.077 64.4765C145.018 63.9747 144.974 63.3253 144.989 62.5284C144.989 61.5101 145.122 59.9014 145.387 57.6876C145.653 55.4739 145.8 54.367 145.83 54.3375C145.653 54.3375 144.93 54.3818 143.646 54.4851C142.362 54.5736 141.624 54.6326 141.417 54.6326C140.753 54.6326 140.281 54.5441 140.015 54.3818C139.749 54.2047 139.631 53.939 139.631 53.5848C139.631 53.2601 139.764 53.0092 140.045 52.8321C140.325 52.655 141.033 52.5812 142.155 52.5812C144.029 52.5812 145.874 52.4632 147.689 52.2123C149.726 51.9023 151.261 51.7548 152.309 51.7548C153.49 51.7548 154.198 51.8876 154.449 52.168C154.7 52.4337 154.833 52.7141 154.833 52.9797C154.833 53.5996 154.552 53.9095 153.991 53.9095C153.814 53.9095 153.519 53.8947 153.121 53.8505C152.707 53.8209 152.235 53.8062 151.674 53.8062C150.021 53.8062 148.885 53.9242 148.25 54.1456L148.236 54.1309ZM163.333 60.8459L163.348 60.8312C163.127 60.8312 162.522 60.9197 161.518 61.0673C160.515 61.2296 159.762 61.3772 159.26 61.5101C158.006 61.8643 157.223 62.0414 156.899 62.0414C156.692 62.0414 156.515 62.0118 156.353 61.9528H156.367C156.264 61.9233 156.22 61.9085 156.205 61.9085C156.146 61.9085 155.954 62.2185 155.644 62.8383C155.098 63.9157 154.655 64.6241 154.331 64.9783C153.991 65.3325 153.681 65.5096 153.386 65.5096C153.135 65.5096 152.825 65.3768 152.486 65.1111C152.132 64.8455 151.955 64.5798 151.955 64.2994C151.955 64.0042 152.397 63.2515 153.298 62.0266C154.965 59.7833 156.205 57.909 157.017 56.4037C158.242 54.1161 159.172 52.5665 159.791 51.74C160.411 50.9135 160.913 50.5003 161.297 50.5003C162.271 50.5003 162.758 50.8545 162.758 51.5777C162.758 51.799 162.728 52.0057 162.684 52.1975C162.994 53.1568 163.245 53.88 163.437 54.3522C163.496 54.4703 164.086 55.9757 165.193 58.8978C165.488 59.68 165.872 60.5212 166.374 61.4067C166.861 62.2923 167.259 62.8531 167.569 63.1187C168.573 63.9452 169.074 64.6093 169.074 65.1111C169.074 65.4948 168.942 65.8343 168.691 66.0999C168.44 66.3803 168.13 66.5279 167.776 66.5279C166.979 66.5279 166.034 65.6572 164.972 63.8862C163.894 62.1299 163.363 61.0968 163.363 60.8164L163.333 60.8459ZM162.522 58.824C162.138 57.8352 161.754 56.7726 161.371 55.6215C161.061 54.7212 160.883 54.2637 160.869 54.2489C160.824 54.3227 159.909 55.9314 158.094 59.0602C157.932 59.3406 157.829 59.5177 157.784 59.6062L162.522 58.824ZM180.837 53.7914V53.7471C180.837 53.5848 180.674 53.3929 180.35 53.1716C180.025 52.9502 179.656 52.8321 179.258 52.8321C178.062 52.8321 177 52.965 176.055 53.2306C175.775 53.3044 175.598 53.3782 175.524 53.4372C175.45 53.511 175.229 54.2047 174.904 55.5182C174.565 56.8464 174.284 58.2632 174.077 59.7686L174.004 60.2999C173.694 62.1594 173.531 63.4139 173.531 64.0633C173.531 64.565 173.399 64.934 173.118 65.1997C172.838 65.4653 172.484 65.5834 172.026 65.5834C171.701 65.5834 171.436 65.4358 171.229 65.1111C171.022 64.8012 170.919 64.4175 170.919 63.9747C170.919 63.8271 170.978 63.4729 171.111 62.9121C171.318 62.0414 171.657 60.5065 172.115 58.2927C172.587 56.079 172.808 54.9426 172.808 54.8983C172.808 54.5589 172.72 54.3965 172.528 54.3965C172.233 54.3965 171.967 54.308 171.746 54.1013C171.524 53.9095 171.421 53.6881 171.421 53.4225C171.421 52.7288 172.366 52.109 174.24 51.5924C176.114 51.0759 178.003 50.8102 179.878 50.8102C180.704 50.8102 181.501 51.1054 182.283 51.6662C183.065 52.2418 183.449 52.8912 183.449 53.5996C183.449 54.0128 183.198 54.5884 182.682 55.3263C182.165 56.0642 181.516 56.7874 180.704 57.481C182.534 57.8647 183.449 59.0749 183.449 61.1116C183.449 61.9823 182.711 63.0449 181.235 64.2994C179.759 65.5539 178.047 66.1737 176.114 66.1737C175.612 66.1737 175.199 66.0999 174.874 65.9376C174.565 65.7752 174.402 65.5539 174.402 65.2882C174.402 65.0816 174.476 64.8602 174.638 64.6093C174.786 64.3732 174.978 64.1961 175.184 64.078C175.406 63.96 175.73 63.9009 176.203 63.8566C177.693 63.7681 178.83 63.3844 179.627 62.7202C180.409 62.0561 180.807 61.5101 180.807 61.0821C180.807 60.6246 180.63 60.167 180.261 59.6948C179.892 59.2225 179.45 59.0011 178.948 59.0011C178.889 59.0011 178.785 59.0306 178.608 59.0897C177.693 59.4291 177.147 59.6062 176.97 59.6062C176.321 59.6062 175.908 59.5177 175.701 59.3258C175.494 59.134 175.391 58.8536 175.391 58.4698C175.391 58.1894 175.686 57.9238 176.276 57.6581C177.147 57.2744 177.856 56.935 178.387 56.6103C178.918 56.2856 179.42 55.8576 179.878 55.3411C180.335 54.8245 180.645 54.2932 180.822 53.7619L180.837 53.7914ZM189.721 60.6688C189.78 61.0673 189.766 61.5691 189.677 62.2037C189.485 63.5467 189.382 64.4027 189.382 64.7717C189.382 65.0816 189.205 65.3768 188.865 65.6424C188.526 65.9081 188.142 66.0409 187.729 66.0409C187.227 66.0409 186.962 65.6276 186.962 64.8159C186.962 64.7274 186.991 64.2551 187.065 63.4287L187.242 61.2739C187.271 60.8459 187.345 59.2373 187.449 56.4627C187.552 53.6881 187.611 52.109 187.611 51.7253C187.611 51.2677 187.759 50.9135 188.068 50.6626C188.378 50.397 188.718 50.2789 189.102 50.2789C189.441 50.2789 189.736 50.4118 189.943 50.6922C190.164 50.9726 190.282 51.2382 190.282 51.4891C190.282 52.9354 190.179 54.5441 189.957 56.3003V56.2856C189.898 57.0235 189.869 57.5696 189.869 57.9533C190.666 57.4072 191.699 56.4922 192.998 55.2377C194.252 54.0423 195.197 53.2158 195.817 52.7731C195.89 52.7141 195.979 52.6108 196.097 52.4927C196.628 51.9614 197.145 51.5924 197.647 51.4006H197.632C197.706 51.3563 197.824 51.3415 197.971 51.3415C198.296 51.3415 198.621 51.4744 198.975 51.7253C199.314 51.9761 199.491 52.1975 199.491 52.3746C199.491 52.4927 199.418 52.596 199.3 52.6845C198.739 53.3339 197.706 54.2784 196.186 55.5329C194.592 56.8316 193.367 57.909 192.466 58.7945C193.765 59.3406 195.02 59.7981 196.23 60.1818C196.23 60.1818 196.274 60.1966 196.348 60.2261C196.746 60.4179 196.982 60.536 197.071 60.5655C197.366 60.6393 197.779 60.8017 198.34 61.0526C199.049 61.3625 199.728 61.5986 200.392 61.7905C201.056 61.9823 201.44 62.0709 201.513 62.0709C201.572 61.9676 201.735 61.9085 202 61.9085C202.355 61.9085 202.664 62.0856 202.945 62.4251C203.225 62.7793 203.373 63.0449 203.373 63.2515C203.373 63.6057 203.24 63.9009 202.96 64.1518C202.679 64.4027 202.34 64.5208 201.941 64.5208C201.513 64.5208 200.775 64.3437 199.683 63.9747C198.606 63.6058 197.72 63.2811 196.997 62.9711C195.935 62.5284 194.621 62.0118 193.057 61.4215C191.492 60.8312 190.592 60.536 190.356 60.536C190.09 60.536 189.884 60.5803 189.721 60.6688ZM214.958 60.8607L214.973 60.8459C214.752 60.8459 214.146 60.9345 213.143 61.0821C212.139 61.2444 211.387 61.392 210.885 61.5248C209.63 61.879 208.848 62.0561 208.524 62.0561C208.317 62.0561 208.14 62.0266 207.977 61.9676H207.992C207.889 61.9381 207.845 61.9233 207.83 61.9233C207.771 61.9233 207.579 62.2332 207.269 62.8531C206.723 63.9304 206.28 64.6388 205.956 64.993C205.616 65.3472 205.306 65.5243 205.011 65.5243C204.76 65.5243 204.45 65.3915 204.111 65.1259C203.757 64.8602 203.58 64.5946 203.58 64.3142C203.58 64.019 204.022 63.2663 204.923 62.0414C206.59 59.7981 207.83 57.9238 208.642 56.4184C209.867 54.1309 210.796 52.5812 211.416 51.7548C212.036 50.9283 212.538 50.5151 212.922 50.5151C213.896 50.5151 214.383 50.8693 214.383 51.5924C214.383 51.8138 214.353 52.0204 214.309 52.2123C214.619 53.1716 214.87 53.8947 215.062 54.367C215.121 54.4851 215.711 55.9904 216.818 58.9126C217.113 59.6948 217.497 60.536 217.998 61.4215C218.485 62.307 218.884 62.8678 219.194 63.1335C220.197 63.96 220.699 64.6241 220.699 65.1259C220.699 65.5096 220.566 65.849 220.316 66.1147C220.065 66.3951 219.755 66.5427 219.4 66.5427C218.604 66.5427 217.659 65.6719 216.596 63.9009C215.519 62.1447 214.988 61.1116 214.988 60.8312L214.958 60.8607ZM214.146 58.8388C213.763 57.85 213.379 56.7874 212.995 55.6362C212.685 54.736 212.508 54.2784 212.494 54.2637C212.449 54.3375 211.534 55.9461 209.719 59.0749C209.557 59.3553 209.453 59.5324 209.409 59.621L214.146 58.8388Z" fill="white" stroke="white" stroke-width="0.160982" stroke-miterlimit="22.9256" stroke-linecap="round" stroke-linejoin="round"/>
</svg>
