<svg width="34" height="34" viewBox="0 0 34 34" fill="none" xmlns="http://www.w3.org/2000/svg">
<g filter="url(#filter0_b_234_4733)">
<rect width="34" height="34" rx="3" fill="black" fill-opacity="0.5"/>
<path d="M12.8598 15.3444C12.292 15.3444 11.832 15.8047 11.832 16.3726C11.832 16.94 12.292 17.4008 12.8598 17.4008C13.4279 17.4008 13.8881 16.94 13.8881 16.3726C13.8881 15.8047 13.4279 15.3444 12.8598 15.3444Z" fill="#FF453A"/>
<path d="M24.6157 7.91199C20.4095 4.02934 13.5907 4.02934 9.38448 7.91199C5.17913 11.7943 5.17913 18.0895 9.38448 21.9709L16.9998 29L24.6158 21.971C28.821 18.0895 28.821 11.7943 24.6157 7.91199ZM14.46 18.9819C14.46 19.2244 14.2467 19.4212 13.9837 19.4212H12.6687C12.4059 19.4212 12.1927 19.2244 12.1927 18.9819V18.0776H14.46V18.9819ZM21.8071 18.9819C21.8071 19.2244 21.5941 19.4212 21.3311 19.4212H20.0165C19.7531 19.4212 19.5401 19.2244 19.5401 18.9819V18.0776H21.8071V18.9819ZM21.1397 17.7033H12.8598C11.5404 17.7033 10.4712 16.7154 10.4712 15.4978C10.4712 14.5581 11.1082 13.756 12.0053 13.4385L12.6742 11.2021C13.0353 9.99521 14.2242 9.15929 15.581 9.15929H18.419C19.7749 9.15929 20.9646 9.99521 21.326 11.2021L21.9945 13.4385C22.8918 13.7564 23.5288 14.5581 23.5288 15.4978C23.5288 16.7155 22.4591 17.7033 21.1397 17.7033Z" fill="#FF453A"/>
<path d="M19.6623 11.9621C19.4694 11.264 18.8286 10.776 18.1039 10.776H15.8952C15.1703 10.776 14.5297 11.2641 14.3368 11.9631L14.0935 12.8445C14.0761 12.907 14.0892 12.9735 14.1283 13.0248C14.1673 13.0761 14.2282 13.1065 14.2927 13.1065H19.7065C19.771 13.1065 19.8318 13.0761 19.8708 13.0248C19.9104 12.9735 19.923 12.907 19.9054 12.8445L19.6623 11.9621Z" fill="#FF453A"/>
<path d="M21.1395 15.3444C20.5719 15.3444 20.1113 15.8047 20.1113 16.3726C20.1113 16.94 20.5719 17.4008 21.1395 17.4008C21.7076 17.4008 22.168 16.94 22.168 16.3726C22.168 15.8047 21.7076 15.3444 21.1395 15.3444Z" fill="#FF453A"/>
</g>
<defs>
<filter id="filter0_b_234_4733" x="-7" y="-7" width="48" height="48" filterUnits="userSpaceOnUse" color-interpolation-filters="sRGB">
<feFlood flood-opacity="0" result="BackgroundImageFix"/>
<feGaussianBlur in="BackgroundImageFix" stdDeviation="3.5"/>
<feComposite in2="SourceAlpha" operator="in" result="effect1_backgroundBlur_234_4733"/>
<feBlend mode="normal" in="SourceGraphic" in2="effect1_backgroundBlur_234_4733" result="shape"/>
</filter>
</defs>
</svg>
