<svg width="36" height="37" viewBox="0 0 36 37" fill="none" xmlns="http://www.w3.org/2000/svg">
<rect y="0.76123" width="36" height="36" rx="18" fill="#373A42"/>
<path d="M24.2304 22.7173C24.2304 22.9423 24.1804 23.1735 24.0742 23.3985C23.968 23.6235 23.8305 23.836 23.6492 24.036C23.343 24.3734 23.0055 24.6172 22.6243 24.7734C22.2493 24.9297 21.8431 25.0109 21.4056 25.0109C20.7682 25.0109 20.087 24.8609 19.3683 24.5547C18.6496 24.2485 17.9308 23.836 17.2184 23.3173C16.4997 22.7923 15.8185 22.2111 15.1685 21.5674C14.5248 20.9174 13.9436 20.2362 13.4249 19.5238C12.9124 18.8113 12.5 18.0989 12.2 17.3927C11.9 16.6802 11.75 15.999 11.75 15.349C11.75 14.9241 11.825 14.5178 11.975 14.1429C12.125 13.7616 12.3625 13.4117 12.6937 13.0992C13.0937 12.7055 13.5311 12.5117 13.9936 12.5117C14.1686 12.5117 14.3436 12.5492 14.4998 12.6242C14.6623 12.6992 14.8061 12.8117 14.9185 12.9742L16.3684 15.0178C16.4809 15.174 16.5622 15.3178 16.6184 15.4553C16.6747 15.5865 16.7059 15.7178 16.7059 15.8365C16.7059 15.9865 16.6622 16.1365 16.5747 16.2802C16.4934 16.424 16.3747 16.574 16.2247 16.7239L15.7497 17.2177C15.681 17.2864 15.6497 17.3677 15.6497 17.4676C15.6497 17.5176 15.656 17.5614 15.6685 17.6114C15.6872 17.6614 15.706 17.6989 15.7185 17.7364C15.831 17.9426 16.0247 18.2113 16.2997 18.5363C16.5809 18.8613 16.8809 19.1925 17.2059 19.5238C17.5434 19.855 17.8684 20.1612 18.1996 20.4425C18.5246 20.7174 18.7933 20.9049 19.0058 21.0174C19.037 21.0299 19.0745 21.0487 19.1183 21.0674C19.1683 21.0862 19.2183 21.0924 19.2745 21.0924C19.3808 21.0924 19.462 21.0549 19.5307 20.9862L20.0057 20.5174C20.162 20.3612 20.3119 20.2425 20.4557 20.1675C20.5994 20.08 20.7432 20.0362 20.8994 20.0362C21.0181 20.0362 21.1431 20.0612 21.2806 20.1175C21.4181 20.1737 21.5619 20.255 21.7181 20.3612L23.7867 21.8299C23.9492 21.9424 24.0617 22.0736 24.1304 22.2298C24.1929 22.3861 24.2304 22.5423 24.2304 22.7173Z" stroke="#BDBDBD" stroke-width="1.5" stroke-miterlimit="10"/>
<path d="M22.0625 16.8871C22.0625 16.5121 21.7688 15.9371 21.3313 15.4684C20.9314 15.0372 20.4001 14.6997 19.8752 14.6997" stroke="#BDBDBD" stroke-width="1.5" stroke-linecap="round" stroke-linejoin="round"/>
<path d="M24.2499 16.8864C24.2499 14.4678 22.2938 12.5117 19.8752 12.5117" stroke="#BDBDBD" stroke-width="1.5" stroke-linecap="round" stroke-linejoin="round"/>
</svg>
