<svg width="27" height="20" viewBox="0 0 27 20" fill="none" xmlns="http://www.w3.org/2000/svg">
<path d="M1.31217 16.5437H25.2672C25.7433 16.5437 26.1294 16.9298 26.1294 17.4059C26.1294 17.8821 25.7434 18.2681 25.2672 18.2681H1.31217C0.836046 18.2681 0.45 17.8821 0.45 17.4059C0.45 16.9298 0.835995 16.5437 1.31217 16.5437Z" stroke="#FF453A" stroke-width="0.9"/>
<path d="M14.3652 4.10213L14.595 4.12335L14.9289 4.17275C19.9536 4.91619 23.8742 9.02952 24.3358 14.1412H2.24364C2.70539 9.0267 6.63126 4.91076 11.6559 4.16998L11.9388 4.12829L12.2201 4.1021C12.573 4.06926 12.9293 4.05031 13.2897 4.05031C13.6501 4.05031 14.0094 4.06926 14.3652 4.10213Z" stroke="#FF453A" stroke-width="0.9"/>
<path d="M5.02664 7.48761L8.74309 4.81177L13.3259 3.82995L15.7236 4.14567L18.7209 5.31295L21.3711 7.33214L23.2956 10.0454L24.3052 13.9577H2.44116L3.03038 10.5882L5.02664 7.48761Z" fill="#FF453A"/>
<rect x="0.738037" y="16.6152" width="25.0705" height="1.50781" fill="#FF453A"/>
</svg>
