<svg width="65" height="10" viewBox="0 0 65 10" fill="none" xmlns="http://www.w3.org/2000/svg">
<path d="M1.5 4.4C1.16863 4.4 0.9 4.66863 0.9 5C0.9 5.33137 1.16863 5.6 1.5 5.6V4.4ZM63.9243 5.42426C64.1586 5.18995 64.1586 4.81005 63.9243 4.57574L60.1059 0.757359C59.8716 0.523045 59.4917 0.523045 59.2574 0.757359C59.023 0.991674 59.023 1.37157 59.2574 1.60589L62.6515 5L59.2574 8.39411C59.023 8.62843 59.023 9.00833 59.2574 9.24264C59.4917 9.47696 59.8716 9.47696 60.1059 9.24264L63.9243 5.42426ZM1.5 5.6H63.5V4.4H1.5V5.6Z" fill="white" fill-opacity="0.6"/>
</svg>
