<svg width="65" height="10" viewBox="0 0 65 10" fill="none" xmlns="http://www.w3.org/2000/svg">
<path d="M63.5 5.6C63.8314 5.6 64.1 5.33137 64.1 5C64.1 4.66863 63.8314 4.4 63.5 4.4L63.5 5.6ZM1.07574 4.57573C0.841423 4.81005 0.841423 5.18994 1.07574 5.42426L4.89411 9.24264C5.12843 9.47695 5.50833 9.47695 5.74264 9.24264C5.97696 9.00832 5.97696 8.62842 5.74264 8.39411L2.34853 4.99999L5.74264 1.60588C5.97696 1.37157 5.97696 0.991669 5.74264 0.757354C5.50833 0.52304 5.12843 0.523039 4.89411 0.757354L1.07574 4.57573ZM63.5 4.4L1.5 4.39999L1.5 5.59999L63.5 5.6L63.5 4.4Z" fill="white" fill-opacity="0.6"/>
</svg>
