<svg width="20" height="20" viewBox="0 0 20 20" fill="none" xmlns="http://www.w3.org/2000/svg">
<path d="M3.47938 13.322V13.4457L3.54925 13.5478C4.8531 15.4535 7.06253 16.762 9.57938 16.762C12.0962 16.762 14.3057 15.4535 15.6095 13.5478L15.6794 13.4457V13.322C15.6794 12.7016 15.3666 12.182 14.9309 11.7697C14.4971 11.3593 13.915 11.0278 13.2968 10.7682C12.0618 10.2495 10.5843 9.97697 9.57938 9.97697C8.57448 9.97697 7.09693 10.2495 5.86198 10.7682C5.24373 11.0278 4.66165 11.3593 4.2279 11.7697C3.79219 12.182 3.47938 12.7016 3.47938 13.322ZM0.479376 9.52197C0.479376 4.51789 4.57529 0.421973 9.57938 0.421973C14.5835 0.421973 18.6794 4.51789 18.6794 9.52197C18.6794 14.5261 14.5835 18.622 9.57938 18.622C4.57529 18.622 0.479376 14.5261 0.479376 9.52197ZM12.8294 5.72197C12.8294 3.88606 11.4153 2.47197 9.57938 2.47197C7.74346 2.47197 6.32938 3.88606 6.32938 5.72197C6.32938 7.55789 7.74346 8.97197 9.57938 8.97197C11.4153 8.97197 12.8294 7.55789 12.8294 5.72197Z" stroke="#BDBDBD" stroke-width="0.8"/>
</svg>
