<svg width="54" height="64" viewBox="0 0 54 64" fill="none" xmlns="http://www.w3.org/2000/svg">
<path d="M12.8497 51.2597L30.6058 2.28118C30.7789 1.80557 30.5334 1.28197 30.0594 1.10944L28.2692 0.457863C28.0363 0.373092 27.7787 0.385618 27.5557 0.495021C27.332 0.604132 27.163 0.799115 27.0869 1.03336L10.9628 50.6096C10.8114 51.0785 11.0571 51.5839 11.5198 51.7523L11.6759 51.8091C11.9048 51.8924 12.1568 51.8797 12.3762 51.7781C12.5968 51.6753 12.766 51.4895 12.8497 51.2597Z" fill="url(#paint0_linear_71_2970)"/>
<path d="M20.3082 2.09488L37.6586 62.8434C37.7397 63.1263 37.9101 63.3707 38.1323 63.5242C38.3553 63.6774 38.6109 63.7258 38.8452 63.6587L39.0041 63.6131C39.4775 63.4774 39.7358 62.9103 39.5877 62.3317L23.908 1.10398C23.8335 0.812683 23.6643 0.557165 23.439 0.395746C23.2135 0.236774 22.9519 0.183558 22.7127 0.252137L20.8823 0.777017C20.3966 0.916265 20.1396 1.50686 20.3082 2.09488Z" fill="url(#paint1_linear_71_2970)"/>
<path d="M53.047 28.1996L0.949306 28.266C0.443172 28.266 0.0351028 28.6757 0.0351028 29.1802V31.0853C0.0351028 31.3331 0.134964 31.5708 0.314034 31.743C0.493099 31.9159 0.734104 32.008 0.980274 31.9995L53.0815 30.1951C53.5738 30.177 53.9647 29.7732 53.9647 29.2808V29.1146C53.9647 28.8711 53.8665 28.6386 53.6961 28.4673C53.524 28.2951 53.2915 28.1996 53.047 28.1996Z" fill="url(#paint2_linear_71_2970)"/>
<defs>
<linearGradient id="paint0_linear_71_2970" x1="10.2576" y1="48.1378" x2="15.315" y2="49.6959" gradientUnits="userSpaceOnUse">
<stop stop-color="#A237F5"/>
<stop offset="1" stop-color="#E95377"/>
</linearGradient>
<linearGradient id="paint1_linear_71_2970" x1="37.2591" y1="60.3733" x2="42.2834" y2="58.7046" gradientUnits="userSpaceOnUse">
<stop stop-color="#A237F5"/>
<stop offset="1" stop-color="#E95377"/>
</linearGradient>
<linearGradient id="paint2_linear_71_2970" x1="50.9999" y1="31.7031" x2="50.7343" y2="26.4178" gradientUnits="userSpaceOnUse">
<stop stop-color="#A237F5"/>
<stop offset="1" stop-color="#E95377"/>
</linearGradient>
</defs>
</svg>
