<svg width="115" height="42" viewBox="0 0 115 42" fill="none" xmlns="http://www.w3.org/2000/svg">
<path d="M115 28.0504C115 32.4687 111.418 36.0504 107 36.0504H66.0078C64.4343 36.0504 62.9238 36.6685 61.8017 37.7715L58.1735 41.3379C57.7955 41.7095 57.1931 41.7216 56.8006 41.3653L52.6584 37.6069C51.5545 36.6053 50.1172 36.0504 48.6266 36.0504H8C3.58173 36.0504 0 32.4687 0 28.0504V8C0 3.58172 3.58173 0 8 0H57.5L107 0C111.418 0 115 3.58172 115 8V28.0504Z" fill="black" fill-opacity="0.7"/>
<path d="M114.5 28.0504C114.5 32.1925 111.142 35.5504 107 35.5504H66.0078C64.3032 35.5504 62.6668 36.22 61.4512 37.4149L57.823 40.9813C57.634 41.1672 57.3328 41.1732 57.1365 40.9951L52.9944 37.2366C51.7985 36.1515 50.2415 35.5504 48.6266 35.5504H8C3.85787 35.5504 0.5 32.1925 0.5 28.0504V8C0.5 3.85786 3.85786 0.5 8 0.5H57.5L107 0.5C111.142 0.5 114.5 3.85786 114.5 8V28.0504Z" stroke="white" stroke-opacity="0.1"/>
</svg>
