<svg width="13" height="13" viewBox="0 0 13 13" fill="none" xmlns="http://www.w3.org/2000/svg">
<path d="M0.357212 10.7335C-0.0658623 11.0885 -0.121046 11.7192 0.233956 12.1423C0.588957 12.5654 1.21971 12.6206 1.64279 12.2656L0.357212 10.7335ZM12.7208 2.58764C12.769 2.03746 12.362 1.55242 11.8118 1.50429L2.84603 0.719889C2.29584 0.671754 1.81081 1.07874 1.76268 1.62893C1.71454 2.17911 2.12153 2.66414 2.67171 2.71228L10.6413 3.40952L9.94403 11.3791C9.89589 11.9293 10.3029 12.4143 10.8531 12.4624C11.4032 12.5106 11.8883 12.1036 11.9364 11.5534L12.7208 2.58764ZM1.64279 12.2656L12.3674 3.26653L11.0818 1.73444L0.357212 10.7335L1.64279 12.2656Z" fill="white"/>
</svg>
