<svg width="25" height="24" viewBox="0 0 25 24" fill="none" xmlns="http://www.w3.org/2000/svg">
<path d="M12.5986 0C5.99863 0 0.598633 5.4 0.598633 12C0.598633 18.6 5.99863 24 12.5986 24C19.1986 24 24.5986 18.6 24.5986 12C24.5986 5.4 19.1986 0 12.5986 0ZM12.5986 3.6C14.6386 3.6 16.1986 5.16 16.1986 7.2C16.1986 9.24 14.6386 10.8 12.5986 10.8C10.5586 10.8 8.99863 9.24 8.99863 7.2C8.99863 5.16 10.5586 3.6 12.5986 3.6ZM12.5986 20.64C9.59863 20.64 6.95863 19.08 5.39863 16.8C5.39863 14.4 10.1986 13.08 12.5986 13.08C14.9986 13.08 19.7986 14.4 19.7986 16.8C18.2386 19.08 15.5986 20.64 12.5986 20.64Z" fill="#BDBDBD"/>
</svg>
