<svg width="16" height="10" viewBox="0 0 16 10" fill="none" xmlns="http://www.w3.org/2000/svg">
<path fill-rule="evenodd" clip-rule="evenodd" d="M7.82817 9.52563H8.78455C8.78455 9.52563 9.07344 9.49392 9.22093 9.33492C9.35668 9.18895 9.35234 8.91483 9.35234 8.91483C9.35234 8.91483 9.33366 7.63155 9.92925 7.44258C10.5164 7.25643 11.2703 8.68285 12.0694 9.23131C12.6737 9.6464 13.1329 9.55539 13.1329 9.55539L15.2696 9.52563C15.2696 9.52563 16.3874 9.45677 15.8574 8.57794C15.8139 8.50604 15.5487 7.92783 14.2687 6.73968C12.9289 5.49615 13.1084 5.69729 14.7222 3.54624C15.7051 2.23624 16.098 1.43647 15.9753 1.09393C15.8582 0.767679 15.1354 0.853912 15.1354 0.853912L12.7295 0.8689C12.7295 0.8689 12.5512 0.844572 12.4189 0.923637C12.2897 1.00118 12.2065 1.1819 12.2065 1.1819C12.2065 1.1819 11.8257 2.19563 11.3179 3.05774C10.2466 4.87688 9.81826 4.97289 9.64319 4.85994C9.23592 4.59668 9.33757 3.80234 9.33757 3.23802C9.33757 1.47514 9.60496 0.740094 8.81692 0.549817C8.55539 0.486609 8.36294 0.444904 7.69415 0.438171C6.83573 0.429265 6.10916 0.440777 5.69777 0.642349C5.42408 0.776368 5.21295 1.07503 5.34154 1.09219C5.50054 1.11348 5.86067 1.18929 6.0516 1.44929C6.29814 1.78466 6.28945 2.53795 6.28945 2.53795C6.28945 2.53795 6.43107 4.61318 5.95864 4.87101C5.63434 5.04782 5.18949 4.68682 4.23441 3.03645C3.74504 2.19106 3.37556 1.25662 3.37556 1.25662C3.37556 1.25662 3.30432 1.08198 3.17725 0.988583C3.02303 0.875416 2.80755 0.83936 2.80755 0.83936L0.521408 0.854347C0.521408 0.854347 0.178215 0.863904 0.0522323 1.01313C-0.0598486 1.14584 0.0433266 1.4204 0.0433266 1.4204C0.0433266 1.4204 1.83315 5.60779 3.85972 7.718C5.71797 9.6527 7.82817 9.52563 7.82817 9.52563Z" fill="white"/>
</svg>
