<svg width="33" height="32" viewBox="0 0 33 32" fill="none" xmlns="http://www.w3.org/2000/svg">
<g clip-path="url(#clip0_288_4135)">
<path d="M16.5006 31.9674C25.3192 31.9674 32.468 24.8186 32.468 16C32.468 7.18145 25.3192 0.0325928 16.5006 0.0325928C7.68206 0.0325928 0.533203 7.18145 0.533203 16C0.533203 24.8186 7.68206 31.9674 16.5006 31.9674Z" fill="#FC3F1D"/>
<path d="M22.2786 26.0237H18.7734V8.6874H17.2119C14.3497 8.6874 12.8504 10.1185 12.8504 12.2548C12.8504 14.6785 13.8845 15.8015 16.0238 17.2326L17.7867 18.4207L12.7201 26.0207H8.95117L13.5112 19.2355C10.8889 17.363 9.41339 15.5348 9.41339 12.4504C9.41339 8.59555 12.1008 5.97333 17.1882 5.97333H22.2549V26.0178H22.2786V26.0237Z" fill="white"/>
</g>
<defs>
<clipPath id="clip0_288_4135">
<rect width="32" height="32" fill="white" transform="translate(0.5)"/>
</clipPath>
</defs>
</svg>
