<svg width="188" height="65" viewBox="0 0 188 65" fill="none" xmlns="http://www.w3.org/2000/svg">
<g clip-path="url(#clip0_1340_8916)">
<path fill-rule="evenodd" clip-rule="evenodd" d="M32.5 0C50.4504 0 65 14.5496 65 32.5C65 50.4504 50.4504 65 32.5 65C14.5496 65 0 50.4504 0 32.5C0 14.5496 14.5496 0 32.5 0Z" fill="white"/>
<path d="M22.1645 27.236C22.1054 27.2951 22.0463 27.4725 22.0167 27.7683C21.9723 28.064 21.8392 29.3947 21.6175 31.8049C21.4104 34.2002 21.2922 36.1224 21.2922 37.5567C21.2922 38.1925 21.3661 38.8579 21.4992 39.5676C21.5435 39.7451 21.5583 39.8633 21.5583 39.9373C21.5583 40.3513 21.4548 40.7209 21.233 41.061C21.0112 41.4011 20.7451 41.5785 20.4346 41.5785C20.2276 41.5785 19.9466 41.4602 19.6361 41.1941C19.3108 40.9427 19.1186 40.5139 19.0447 39.9077C18.9855 39.3015 18.9559 38.503 18.9559 37.5271C18.9559 36.2851 19.089 34.3037 19.3404 31.5979C19.5917 28.892 19.7396 27.5317 19.7692 27.5021C19.5917 27.5021 18.882 27.5612 17.6104 27.6795C16.3388 27.7978 15.6143 27.857 15.422 27.857C14.7567 27.857 14.2983 27.7535 14.0321 27.5465C13.7808 27.3395 13.6477 27.0142 13.6477 26.5706C13.6477 26.1713 13.7808 25.8756 14.0617 25.6538C14.3279 25.4468 15.0376 25.3433 16.1466 25.3433C17.9948 25.3433 19.8283 25.1955 21.6027 24.8997C23.6136 24.5301 25.1366 24.3379 26.1716 24.3379C27.3397 24.3379 28.0346 24.5005 28.286 24.8406C28.5374 25.1659 28.6557 25.506 28.6557 25.8313C28.6557 26.5854 28.3747 26.9698 27.8276 26.9698C27.6502 26.9698 27.3545 26.9402 26.9553 26.8959C26.556 26.8515 26.0681 26.8367 25.5358 26.8367C23.9093 26.8367 22.7708 26.9698 22.1498 27.2507L22.1645 27.236ZM28.7592 40.8392C28.3747 40.8392 28.0938 40.7505 27.9016 40.5583C27.7094 40.3661 27.6206 39.8929 27.6206 39.1092C27.6206 38.6804 27.6354 38.3404 27.665 38.1038C27.6946 37.8672 27.8572 37.6898 28.1382 37.5567C28.4191 37.4236 28.8183 37.3645 29.3506 37.3645C29.7498 37.3645 30.0456 37.468 30.2526 37.6898C30.4596 37.9116 30.5631 38.1629 30.5631 38.4143C30.5631 38.8579 30.5039 39.198 30.4004 39.4198C30.2821 39.6563 30.0456 39.9521 29.6611 40.2921C29.2915 40.647 28.981 40.8097 28.7592 40.8097V40.8392ZM36.9064 34.2298V34.2446C36.9803 34.0819 37.0542 33.9341 37.1134 33.7862C37.3499 33.2983 38.2075 31.1543 39.6861 27.3542C40.3811 25.5651 40.7951 24.5153 40.943 24.2196C41.0908 23.9238 41.3274 23.6577 41.6675 23.4507C42.0076 23.2289 42.3329 23.1106 42.673 23.0958C43.3531 23.0958 43.7819 23.2733 43.9741 23.6281C44.1664 23.983 44.3882 25.0624 44.6543 26.8515C44.7578 27.5317 44.8465 28.1083 44.95 28.5667C45.0387 28.9807 45.0831 29.2321 45.0979 29.3504C45.4675 31.3613 45.8816 33.2391 46.3695 34.9987C46.8574 36.7582 47.2419 37.8376 47.508 38.2516C47.6855 38.2221 47.9073 38.2073 48.1586 38.2073C48.617 38.2073 48.9275 38.296 49.0754 38.4587C49.238 38.6361 49.3119 38.9762 49.3119 39.4937C49.3119 40.6174 49.2528 42.2587 49.1049 44.4323C49.0458 45.2011 49.031 45.6152 49.031 45.6891C49.031 45.9848 48.9127 46.2805 48.6761 46.5467C48.4396 46.8276 48.1291 46.9607 47.7594 46.9607C47.5967 46.9607 47.4341 46.9016 47.2567 46.7685C47.0792 46.6354 46.9609 46.5171 46.887 46.3988C46.8131 46.2805 46.7687 46.0735 46.7687 45.7482C46.7687 45.4377 46.8131 44.8019 46.9018 43.8556C46.9757 42.9832 47.0053 42.4213 47.0053 42.1848C47.0053 41.2976 46.9314 40.854 46.7983 40.854C45.5415 40.854 41.8893 41.1793 35.8713 41.8447C35.2799 41.9038 34.9841 41.9778 34.9546 42.0813C34.6589 43.1607 34.511 44.1957 34.4962 45.2011V45.8074C34.4962 46.7833 34.1118 47.3156 33.3577 47.4191L33.2542 47.4339C32.9437 47.4782 32.7071 47.3895 32.5001 47.1677C32.2931 46.9607 32.2043 46.6354 32.2043 46.2066C32.2043 45.7334 32.3078 44.4914 32.5296 42.4805C32.5592 42.096 32.5888 41.7412 32.6036 41.4307C32.6184 40.9575 32.6923 40.5731 32.8402 40.2774C32.988 39.9816 33.2985 39.7894 33.7569 39.7007C34.097 39.5972 34.3927 39.331 34.6293 38.8875C34.6884 38.7692 34.7476 38.6657 34.8215 38.5622C35.1616 37.9264 35.8565 36.4921 36.9359 34.2446L36.9064 34.2298ZM37.1873 39.3606L44.6987 38.5917C44.5064 37.675 44.2699 36.6695 43.9594 35.6049C43.6488 34.5403 43.4566 33.7714 43.3383 33.2983C42.9391 31.5387 42.6434 30.0601 42.4512 28.8624L42.1702 27.2212C42.0815 27.4873 41.5344 28.8476 40.5437 31.2874C39.5531 33.7271 38.8433 35.4275 38.3998 36.4034C37.5865 38.1925 37.1725 39.1684 37.1577 39.3162L37.1725 39.3458L37.1873 39.3606ZM52.3875 40.8392C52.003 40.8392 51.7221 40.7505 51.5299 40.5583C51.3377 40.3661 51.2489 39.8929 51.2489 39.1092C51.2489 38.6804 51.2637 38.3404 51.2933 38.1038C51.3229 37.8672 51.4855 37.6898 51.7664 37.5567C52.0474 37.4236 52.4466 37.3645 52.9789 37.3645C53.3781 37.3645 53.6739 37.468 53.8809 37.6898C54.0879 37.9116 54.1914 38.1629 54.1914 38.4143C54.1914 38.8579 54.1322 39.198 54.0287 39.4198C53.9104 39.6563 53.6739 39.9521 53.2894 40.2921C52.9198 40.647 52.6093 40.8097 52.3875 40.8097V40.8392Z" fill="black"/>
<path d="M62.5577 32.4872C62.5577 49.0875 49.1005 62.5447 32.5003 62.5447C15.9 62.5447 2.44287 49.0875 2.44287 32.4872C2.44287 15.887 15.9 2.42981 32.5003 2.42981C49.1005 2.42981 62.5577 15.887 62.5577 32.4872Z" stroke="black"/>
<path d="M83.9873 17.5291C83.9366 17.5671 83.8986 17.6939 83.8605 17.884C83.8225 18.0868 83.7085 18.9993 83.531 20.6343C83.3536 22.2692 83.2522 23.5747 83.2522 24.5506C83.2522 24.9815 83.3156 25.4378 83.4296 25.9194C83.4676 26.0335 83.4803 26.1222 83.4803 26.1729C83.4803 26.4517 83.3916 26.7052 83.2015 26.946C83.0241 27.1741 82.7959 27.3009 82.5298 27.3009C82.3523 27.3009 82.1242 27.2122 81.8454 27.0474C81.5665 26.87 81.4018 26.5785 81.3511 26.1729C81.3004 25.7546 81.275 25.2223 81.275 24.5506C81.275 23.7014 81.3891 22.358 81.6045 20.5202C81.82 18.6825 81.9467 17.7573 81.9721 17.7319C81.82 17.7319 81.2243 17.7699 80.1597 17.846C79.0951 17.922 78.474 17.96 78.3093 17.96C77.7516 17.96 77.3587 17.884 77.1432 17.7446C76.9278 17.6052 76.8137 17.377 76.8137 17.0729C76.8137 16.8067 76.9278 16.5912 77.1559 16.4518C77.3841 16.3124 77.9671 16.2364 78.9176 16.2364C80.4765 16.2364 82.0101 16.135 83.5183 15.9322C85.2167 15.6787 86.4968 15.552 87.3713 15.552C88.3472 15.552 88.9429 15.666 89.1583 15.8942C89.3738 16.1223 89.4752 16.3504 89.4752 16.5659C89.4752 17.0855 89.2471 17.339 88.7781 17.339C88.626 17.339 88.3852 17.3263 88.043 17.2883C87.7008 17.263 87.2952 17.2503 86.839 17.2503C85.4702 17.2503 84.5196 17.339 83.9873 17.5291ZM101.047 19.8231C100.793 22.0791 100.666 23.7268 100.666 24.7914C100.666 24.9942 100.717 25.2984 100.806 25.7039C100.895 26.1222 100.933 26.4137 100.933 26.6038C100.933 26.908 100.819 27.1488 100.616 27.3262C100.4 27.5037 100.109 27.5924 99.7286 27.5924C99.3357 27.5924 99.0442 27.3896 98.8541 26.9967C98.6639 26.6038 98.5626 25.9321 98.5626 24.9942C98.5626 23.9549 98.74 22.1298 99.0949 19.519L99.1329 19.1261C99.0695 19.1894 98.9935 19.2782 98.9174 19.3669C98.5119 19.8485 98.2584 20.1273 98.1697 20.216L98.1823 20.2034C97.1557 21.344 96.2939 22.2059 95.6221 22.7762C95.2926 23.055 94.8744 23.4226 94.3674 23.8789C93.8604 24.3351 93.4929 24.6393 93.2521 24.8168C92.5804 25.311 92.1368 25.7293 91.9467 26.0588C91.6171 26.6292 91.4017 26.9587 91.3003 27.0347H91.3129C91.1102 27.2755 90.768 27.3896 90.299 27.3896C89.7287 27.3896 89.4372 27.0728 89.4372 26.439C89.4372 26.287 89.5259 25.6532 89.7033 24.5379C89.8681 23.4733 90.1216 21.1286 90.4764 17.4911C90.5652 16.5659 90.6412 15.9829 90.7046 15.7167C90.768 15.4506 90.92 15.2098 91.1482 14.9816C91.3763 14.7535 91.5918 14.6394 91.8072 14.6394C92.1368 14.6394 92.4029 14.7662 92.6057 15.007C92.8085 15.2478 92.9099 15.5013 92.9099 15.7547C92.9099 15.8561 92.8592 16.135 92.7578 16.6039C92.6691 17.0602 92.6057 17.377 92.593 17.5418C92.593 17.5545 92.5423 17.9347 92.4409 18.6571L92.1621 20.5963C92.0607 21.1286 91.934 22.1805 91.7819 23.7521C92.2762 23.3212 93.176 22.4974 94.4941 21.268C94.6462 21.1286 94.735 21.0399 94.7857 21.0145C95.8249 20.1273 96.5347 19.4429 96.9149 18.9486C96.9529 18.9106 97.5866 18.1375 98.816 16.6419C98.9174 16.5152 98.9808 16.4391 99.0061 16.4138C99.323 15.9829 99.6018 15.6914 99.8046 15.5393C100.02 15.3872 100.261 15.2985 100.527 15.2985C100.819 15.2985 101.047 15.3999 101.224 15.6027C101.389 15.8054 101.478 16.0209 101.478 16.249L101.034 19.8358L101.047 19.8231ZM107.51 19.6711V19.6584C107.485 19.9245 107.32 20.9892 107.004 22.8649C106.889 23.5493 106.813 23.9549 106.801 24.069L106.75 24.4492C106.649 25.235 106.598 25.7673 106.598 26.0461L106.636 26.5278C106.636 27.1361 106.306 27.4403 105.66 27.4403C104.912 27.4403 104.532 27.0347 104.532 26.2236C104.532 25.742 104.633 24.9562 104.849 23.8662C104.912 23.562 104.976 23.2071 105.039 22.8142C105.052 22.7002 105.09 22.4847 105.153 22.1805C105.559 20.0893 105.761 18.5684 105.761 17.6052C105.761 17.4658 105.736 17.4024 105.673 17.4024C104.988 17.339 104.646 17.0729 104.646 16.5786C104.646 16.2744 104.735 16.0336 104.912 15.8435C105.09 15.6533 105.318 15.5646 105.609 15.552C106.04 15.5266 106.357 15.4632 106.585 15.3238C106.813 15.2098 107.016 15.1591 107.194 15.1591C107.485 15.1591 107.726 15.2224 107.916 15.3238C108.068 15.4125 108.512 15.4506 109.247 15.4506C109.26 15.4506 109.817 15.4379 110.933 15.3999C112.048 15.3618 112.631 15.3365 112.694 15.3238C112.758 15.2985 112.859 15.2604 113.024 15.1971C113.252 15.0957 113.467 15.0577 113.695 15.0577C113.873 15.0577 114.012 15.0703 114.101 15.0957C114.177 15.1337 114.253 15.1464 114.329 15.1464L115.115 15.0957C115.318 15.083 115.521 15.1337 115.698 15.2604C115.875 15.3872 115.964 15.59 115.964 15.8688C115.964 16.1603 115.863 16.4138 115.647 16.6166C115.432 16.8194 115.191 16.9334 114.912 16.9588C114.849 16.9588 114.785 16.9968 114.709 17.0729C114.646 17.1362 114.532 17.5671 114.355 18.3656C114.19 19.1641 114.025 20.3681 113.873 21.9651C113.721 23.5747 113.645 25.0322 113.645 26.3377C113.645 26.6292 113.531 26.87 113.315 27.0728C113.1 27.2755 112.922 27.3769 112.808 27.3769C111.997 27.3769 111.604 26.7179 111.604 25.3998C111.604 24.2084 111.896 21.5595 112.479 17.4657C112.504 17.2756 112.517 17.1742 112.517 17.1489C112.517 17.1109 112.466 17.0729 112.377 17.0602C112.289 17.0475 111.883 17.0348 111.186 17.0348H109.703C109.158 17.0348 108.74 17.0729 108.461 17.1235C108.182 17.1742 108.005 17.2376 107.941 17.2883C107.878 17.3517 107.802 17.5545 107.726 17.9347C107.65 18.3022 107.574 18.8853 107.51 19.6711ZM129.209 19.8358C128.955 22.0918 128.828 23.7394 128.828 24.8041C128.828 25.0069 128.879 25.311 128.968 25.7166C129.057 26.1349 129.095 26.4264 129.095 26.6165C129.095 26.9207 128.98 27.1615 128.778 27.3389C128.562 27.5163 128.271 27.6051 127.891 27.6051C127.498 27.6051 127.206 27.4023 127.016 27.0094C126.826 26.6165 126.724 25.9448 126.724 25.0069C126.724 23.9676 126.902 22.1425 127.257 19.5316L127.295 19.1387C127.231 19.2021 127.155 19.2908 127.079 19.3795C126.674 19.8612 126.42 20.14 126.332 20.2287L126.344 20.216C125.318 21.3567 124.456 22.2186 123.784 22.7889C123.455 23.0677 123.036 23.4353 122.529 23.8915C122.022 24.3478 121.655 24.652 121.414 24.8294C120.742 25.3237 120.299 25.742 120.109 26.0715C119.779 26.6418 119.564 26.9714 119.462 27.0474H119.475C119.272 27.2882 118.93 27.4023 118.461 27.4023C117.891 27.4023 117.599 27.0854 117.599 26.4517C117.599 26.2996 117.688 25.6659 117.865 24.5506C118.03 23.486 118.284 21.1413 118.638 17.5038C118.727 16.5786 118.803 15.9955 118.867 15.7294C118.93 15.4632 119.082 15.2224 119.31 14.9943C119.538 14.7662 119.754 14.6521 119.969 14.6521C120.299 14.6521 120.565 14.7788 120.768 15.0196C120.97 15.2604 121.072 15.5139 121.072 15.7674C121.072 15.8688 121.021 16.1476 120.92 16.6166C120.831 17.0729 120.768 17.3897 120.755 17.5545C120.755 17.5671 120.704 17.9474 120.603 18.6698L120.324 20.6089C120.223 21.1413 120.096 22.1932 119.944 23.7648C120.438 23.3339 121.338 22.5101 122.656 21.2807C122.808 21.1413 122.897 21.0525 122.948 21.0272C123.987 20.14 124.697 19.4556 125.077 18.9613C125.115 18.9233 125.749 18.1502 126.978 16.6546C127.079 16.5279 127.143 16.4518 127.168 16.4265C127.485 15.9955 127.764 15.704 127.967 15.552C128.182 15.3872 128.423 15.3111 128.689 15.3111C128.98 15.3111 129.209 15.4125 129.386 15.6153C129.551 15.8181 129.64 16.0336 129.64 16.2617L129.196 19.8485L129.209 19.8358ZM140.945 20.3935C140.78 20.4822 140.032 20.8878 138.702 21.6102C138.233 21.8637 137.688 22.0918 137.067 22.2819C136.446 22.472 135.888 22.5734 135.394 22.5734C134.659 22.5734 134.088 22.3706 133.67 21.9524C133.252 21.5341 133.049 20.5456 133.049 18.974C133.049 18.3149 133.15 17.4784 133.353 16.4898C133.556 15.5013 133.86 14.9309 134.253 14.7535C134.646 14.5887 134.937 14.5 135.127 14.5C135.33 14.5 135.495 14.6141 135.622 14.8422C135.748 15.0703 135.812 15.3618 135.812 15.7167C135.812 15.8435 135.685 16.4011 135.419 17.4151C135.153 18.4543 135.026 19.2401 135.026 19.7978C135.026 20.1907 135.089 20.4568 135.203 20.5963C135.318 20.7357 135.508 20.799 135.748 20.799C136.091 20.799 136.813 20.5582 137.928 20.0766C139.044 19.595 139.779 19.2148 140.146 18.9106C140.514 18.6191 140.755 18.391 140.894 18.2515C141.034 18.1121 141.11 17.7066 141.11 17.0348C141.11 16.7687 141.097 16.4772 141.072 16.1603C141.034 15.6533 141.148 15.2478 141.439 14.9689C141.718 14.6774 142.073 14.538 142.466 14.538C142.707 14.538 142.935 14.6267 143.15 14.8169C143.366 14.9943 143.467 15.2478 143.467 15.552C143.467 15.7167 143.416 16.0969 143.315 16.6673C143.201 17.3263 143.023 18.7458 142.795 20.9131C142.567 23.0804 142.44 24.5506 142.402 25.3364C142.377 25.8941 142.352 26.3377 142.326 26.6799C142.301 27.0094 142.162 27.2755 141.895 27.4783C141.642 27.6811 141.338 27.7698 140.996 27.7698C140.704 27.7698 140.489 27.6304 140.324 27.3643C140.159 27.0981 140.083 26.7812 140.083 26.4137C140.083 25.9574 140.197 25.0956 140.438 23.8408C140.514 23.3846 140.679 22.2312 140.907 20.3935H140.945ZM157.801 15.4632C157.801 15.8688 157.662 16.7306 157.396 18.0614C156.838 20.8497 156.521 23.6 156.458 26.2743C156.458 26.6038 156.306 26.8953 156.014 27.1234C155.723 27.3643 155.406 27.4783 155.089 27.4783C154.848 27.4783 154.62 27.3896 154.418 27.1995C154.215 27.0221 154.113 26.8193 154.113 26.6038C154.113 26.3757 154.202 25.742 154.379 24.69C154.557 23.6507 154.646 22.903 154.646 22.4594C154.646 22.2946 154.608 22.2059 154.532 22.2059C154.367 22.2059 153.911 22.2439 153.137 22.3199C152.364 22.396 151.87 22.434 151.642 22.434C151.49 22.434 150.983 22.472 150.121 22.5227C149.272 22.5861 148.803 22.6368 148.701 22.6875C148.676 22.6875 148.638 23.2959 148.575 24.5126C148.511 25.6406 148.385 26.4264 148.22 26.8446C148.042 27.2629 147.776 27.4656 147.396 27.4656C147.003 27.4656 146.712 27.3389 146.522 27.0728C146.331 26.8193 146.243 26.5531 146.243 26.287C146.243 26.0842 146.306 25.7039 146.445 25.1463C146.56 24.69 146.876 22.1172 147.421 17.4024L147.586 15.8815C147.611 15.666 147.713 15.4886 147.89 15.3365C148.068 15.1844 148.258 15.1084 148.473 15.1084C148.803 15.1084 149.094 15.1971 149.335 15.3872C149.576 15.5773 149.703 15.7928 149.715 16.0462V16.249C149.715 16.7433 149.601 17.5164 149.361 18.5684C149.132 19.595 149.018 20.3174 149.018 20.7484C149.018 20.8244 149.145 20.8624 149.399 20.8624C150.362 20.8624 151.502 20.8117 152.821 20.6977C154.126 20.5836 154.836 20.4442 154.937 20.2794C155.039 20.0386 155.153 19.4049 155.279 18.4036C155.406 17.3897 155.495 16.4011 155.52 15.4252C155.52 15.2985 155.66 15.1337 155.913 14.9182C156.179 14.7028 156.433 14.5887 156.686 14.5887C156.94 14.5887 157.193 14.6648 157.434 14.8042C157.675 14.9436 157.801 15.1464 157.801 15.3872V15.4379V15.4632ZM167.751 23.1438L167.763 23.1311C167.586 23.1311 167.079 23.1945 166.242 23.3339C165.406 23.4606 164.772 23.5874 164.367 23.7014C163.327 24.0056 162.668 24.145 162.39 24.145C162.212 24.145 162.06 24.1197 161.933 24.069H161.946C161.87 24.0436 161.819 24.031 161.819 24.031C161.769 24.031 161.616 24.2844 161.35 24.8041C160.894 25.7039 160.526 26.287 160.248 26.5911C159.969 26.8826 159.703 27.0347 159.462 27.0347C159.246 27.0347 158.993 26.9207 158.714 26.7052C158.423 26.4897 158.283 26.2616 158.283 26.0335C158.283 25.7927 158.651 25.159 159.398 24.145C160.78 22.2819 161.819 20.723 162.491 19.4556C163.518 17.5545 164.291 16.2617 164.798 15.5646C165.317 14.8802 165.736 14.5253 166.052 14.5253C166.864 14.5253 167.269 14.8295 167.269 15.4252C167.269 15.6153 167.244 15.7801 167.206 15.9449C167.459 16.7433 167.675 17.339 167.827 17.7446C167.877 17.846 168.359 19.1007 169.284 21.5341C169.525 22.1932 169.855 22.8903 170.26 23.6127C170.666 24.3478 171.008 24.8168 171.261 25.0449C172.098 25.742 172.516 26.287 172.516 26.7052C172.516 27.0221 172.402 27.3009 172.199 27.529C171.984 27.7572 171.73 27.8839 171.439 27.8839C170.767 27.8839 169.994 27.1488 169.094 25.6913C168.207 24.2211 167.751 23.3719 167.751 23.1311V23.1438ZM167.079 21.4581C166.762 20.6343 166.445 19.7471 166.116 18.7965C165.85 18.0488 165.71 17.6685 165.697 17.6432C165.659 17.7066 164.899 19.0373 163.391 21.6482C163.264 21.8764 163.175 22.0284 163.137 22.1045L167.079 21.4454V21.4581ZM184.328 15.5013C184.328 15.6787 184.176 16.1096 183.872 16.8067C183.568 17.4784 183.264 18.6571 182.96 20.3301C182.643 22.0031 182.491 23.3085 182.491 24.2591L182.617 26.7559V27.0347C182.617 27.1615 182.516 27.2882 182.326 27.415C182.136 27.5417 181.958 27.6177 181.832 27.6177C181.109 27.6177 180.691 27.2882 180.59 26.6165L180.577 26.3757C180.564 26.1982 180.577 25.6786 180.602 24.7787C180.628 23.8789 180.678 23.0424 180.754 22.2439C180.488 22.472 179.639 23.2198 178.182 24.5126C177.599 25.0322 177.244 25.3364 177.142 25.4251C175.989 26.3883 175.216 27.0981 174.836 27.5924C174.798 27.6558 174.671 27.7445 174.481 27.8585C174.291 27.9599 174.138 28.0233 174.05 28.0233C173.467 28.0233 173.074 27.6177 172.846 26.8066C172.846 26.6165 173.239 26.1982 174.024 25.5645L174.126 25.4758C175.038 24.6647 176.432 23.5874 178.321 22.2566C178.258 22.2566 178.182 22.2692 178.093 22.2946C177.649 22.3706 177.358 22.4087 177.206 22.4087C176.382 22.4087 175.659 22.1679 175.013 21.6736C174.367 21.1793 174.05 20.5582 174.05 19.7851C174.05 18.9866 174.354 18.2389 174.988 17.5418C175.609 16.8574 176.458 16.2617 177.535 15.7801C178.612 15.2985 179.614 14.9816 180.552 14.8422C181.489 14.7028 181.996 14.6267 182.098 14.6267C182.225 14.6267 182.389 14.6648 182.605 14.7281C182.681 14.6901 182.833 14.6648 183.061 14.6648C183.327 14.6648 183.593 14.7408 183.86 14.9056C184.126 15.0703 184.29 15.2604 184.328 15.5013ZM181.832 16.718C181.806 16.6673 181.743 16.6039 181.629 16.5405C181.515 16.4772 181.426 16.4518 181.375 16.4518C180.919 16.4518 180.26 16.5659 179.398 16.8067C178.536 17.0475 177.776 17.4404 177.117 17.9854C176.458 18.5304 176.128 19.1387 176.128 19.7851C176.128 20.0766 176.255 20.3048 176.521 20.4949C176.787 20.685 177.079 20.7737 177.421 20.7737C178.029 20.7737 178.688 20.723 179.398 20.6216C180.108 20.5202 180.64 20.3935 181.008 20.2287H180.995C181.084 20.1273 181.249 19.6077 181.489 18.6571C181.73 17.7066 181.857 17.0729 181.857 16.7687V16.7053L181.832 16.718Z" fill="white"/>
<path d="M184.328 15.5013C184.328 15.6787 184.176 16.1096 183.872 16.8067C183.568 17.4784 183.264 18.6571 182.96 20.3301C182.643 22.0031 182.491 23.3085 182.491 24.2591L182.617 26.7559V27.0347C182.617 27.1615 182.516 27.2882 182.326 27.415C182.136 27.5417 181.958 27.6177 181.832 27.6177C181.109 27.6177 180.691 27.2882 180.59 26.6165L180.577 26.3757C180.564 26.1982 180.577 25.6786 180.602 24.7787C180.628 23.8789 180.678 23.0424 180.754 22.2439C180.488 22.472 179.639 23.2198 178.182 24.5126C177.599 25.0322 177.244 25.3364 177.142 25.4251C175.989 26.3883 175.216 27.0981 174.836 27.5924C174.798 27.6558 174.671 27.7445 174.481 27.8585C174.291 27.9599 174.138 28.0233 174.05 28.0233C173.467 28.0233 173.074 27.6177 172.846 26.8066C172.846 26.6165 173.239 26.1982 174.024 25.5645L174.126 25.4758C175.038 24.6647 176.432 23.5874 178.321 22.2566C178.258 22.2566 178.182 22.2692 178.093 22.2946C177.649 22.3706 177.358 22.4087 177.206 22.4087C176.382 22.4087 175.659 22.1679 175.013 21.6736C174.367 21.1793 174.05 20.5582 174.05 19.7851C174.05 18.9866 174.354 18.2389 174.988 17.5418C175.609 16.8574 176.458 16.2617 177.535 15.7801C178.612 15.2985 179.614 14.9816 180.552 14.8422C181.489 14.7028 181.996 14.6267 182.098 14.6267C182.225 14.6267 182.389 14.6648 182.605 14.7281C182.681 14.6901 182.833 14.6648 183.061 14.6648C183.327 14.6648 183.593 14.7408 183.86 14.9056C184.126 15.0703 184.29 15.2604 184.328 15.5013ZM184.328 15.5013V15.5139M83.9873 17.5291C83.9366 17.5671 83.8986 17.6939 83.8605 17.884C83.8225 18.0868 83.7085 18.9993 83.531 20.6343C83.3536 22.2692 83.2522 23.5747 83.2522 24.5506C83.2522 24.9815 83.3156 25.4378 83.4296 25.9194C83.4676 26.0335 83.4803 26.1222 83.4803 26.1729C83.4803 26.4517 83.3916 26.7052 83.2015 26.946C83.0241 27.1741 82.7959 27.3009 82.5298 27.3009C82.3523 27.3009 82.1242 27.2122 81.8454 27.0474C81.5665 26.87 81.4018 26.5785 81.3511 26.1729C81.3004 25.7546 81.275 25.2223 81.275 24.5506C81.275 23.7014 81.3891 22.358 81.6045 20.5202C81.82 18.6825 81.9467 17.7573 81.9721 17.7319C81.82 17.7319 81.2243 17.7699 80.1597 17.846C79.0951 17.922 78.474 17.96 78.3093 17.96C77.7516 17.96 77.3587 17.884 77.1432 17.7446C76.9278 17.6052 76.8137 17.377 76.8137 17.0729C76.8137 16.8067 76.9278 16.5912 77.1559 16.4518C77.3841 16.3124 77.9671 16.2364 78.9176 16.2364C80.4765 16.2364 82.0101 16.135 83.5183 15.9322C85.2167 15.6787 86.4968 15.552 87.3713 15.552C88.3472 15.552 88.9429 15.666 89.1583 15.8942C89.3738 16.1223 89.4752 16.3504 89.4752 16.5659C89.4752 17.0855 89.2471 17.339 88.7781 17.339C88.626 17.339 88.3852 17.3263 88.043 17.2883C87.7008 17.263 87.2952 17.2503 86.839 17.2503C85.4702 17.2503 84.5196 17.339 83.9873 17.5291ZM101.047 19.8231C100.793 22.0791 100.666 23.7268 100.666 24.7914C100.666 24.9942 100.717 25.2984 100.806 25.7039C100.895 26.1222 100.933 26.4137 100.933 26.6038C100.933 26.908 100.819 27.1488 100.616 27.3262C100.4 27.5037 100.109 27.5924 99.7286 27.5924C99.3357 27.5924 99.0442 27.3896 98.8541 26.9967C98.6639 26.6038 98.5626 25.9321 98.5626 24.9942C98.5626 23.9549 98.74 22.1298 99.0949 19.519L99.1329 19.1261C99.0695 19.1894 98.9935 19.2782 98.9174 19.3669C98.5119 19.8485 98.2584 20.1273 98.1697 20.216L98.1823 20.2034C97.1557 21.344 96.2939 22.2059 95.6221 22.7762C95.2926 23.055 94.8744 23.4226 94.3674 23.8789C93.8604 24.3351 93.4929 24.6393 93.2521 24.8168C92.5804 25.311 92.1368 25.7293 91.9467 26.0588C91.6171 26.6292 91.4017 26.9587 91.3003 27.0347H91.3129C91.1102 27.2755 90.768 27.3896 90.299 27.3896C89.7287 27.3896 89.4372 27.0728 89.4372 26.439C89.4372 26.287 89.5259 25.6532 89.7033 24.5379C89.8681 23.4733 90.1216 21.1286 90.4764 17.4911C90.5652 16.5659 90.6412 15.9829 90.7046 15.7167C90.768 15.4506 90.92 15.2098 91.1482 14.9816C91.3763 14.7535 91.5918 14.6394 91.8072 14.6394C92.1368 14.6394 92.4029 14.7662 92.6057 15.007C92.8085 15.2478 92.9099 15.5013 92.9099 15.7547C92.9099 15.8561 92.8592 16.135 92.7578 16.6039C92.6691 17.0602 92.6057 17.377 92.593 17.5418C92.593 17.5545 92.5423 17.9347 92.4409 18.6571L92.1621 20.5963C92.0607 21.1286 91.934 22.1805 91.7819 23.7521C92.2762 23.3212 93.176 22.4974 94.4941 21.268C94.6462 21.1286 94.735 21.0399 94.7857 21.0145C95.8249 20.1273 96.5347 19.4429 96.9149 18.9486C96.9529 18.9106 97.5866 18.1375 98.816 16.6419C98.9174 16.5152 98.9808 16.4391 99.0061 16.4138C99.323 15.9829 99.6018 15.6914 99.8046 15.5393C100.02 15.3872 100.261 15.2985 100.527 15.2985C100.819 15.2985 101.047 15.3999 101.224 15.6027C101.389 15.8054 101.478 16.0209 101.478 16.249L101.034 19.8358L101.047 19.8231ZM107.51 19.6711V19.6584C107.485 19.9245 107.32 20.9892 107.004 22.8649C106.889 23.5493 106.813 23.9549 106.801 24.069L106.75 24.4492C106.649 25.235 106.598 25.7673 106.598 26.0461L106.636 26.5278C106.636 27.1361 106.306 27.4403 105.66 27.4403C104.912 27.4403 104.532 27.0347 104.532 26.2236C104.532 25.742 104.633 24.9562 104.849 23.8662C104.912 23.562 104.976 23.2071 105.039 22.8142C105.052 22.7002 105.09 22.4847 105.153 22.1805C105.559 20.0893 105.761 18.5684 105.761 17.6052C105.761 17.4658 105.736 17.4024 105.673 17.4024C104.988 17.339 104.646 17.0729 104.646 16.5786C104.646 16.2744 104.735 16.0336 104.912 15.8435C105.09 15.6533 105.318 15.5646 105.609 15.552C106.04 15.5266 106.357 15.4632 106.585 15.3238C106.813 15.2098 107.016 15.1591 107.194 15.1591C107.485 15.1591 107.726 15.2224 107.916 15.3238C108.068 15.4125 108.512 15.4506 109.247 15.4506C109.26 15.4506 109.817 15.4379 110.933 15.3999C112.048 15.3618 112.631 15.3365 112.694 15.3238C112.758 15.2985 112.859 15.2604 113.024 15.1971C113.252 15.0957 113.467 15.0577 113.695 15.0577C113.873 15.0577 114.012 15.0703 114.101 15.0957C114.177 15.1337 114.253 15.1464 114.329 15.1464L115.115 15.0957C115.318 15.083 115.521 15.1337 115.698 15.2604C115.875 15.3872 115.964 15.59 115.964 15.8688C115.964 16.1603 115.863 16.4138 115.647 16.6166C115.432 16.8194 115.191 16.9334 114.912 16.9588C114.849 16.9588 114.785 16.9968 114.709 17.0729C114.646 17.1362 114.532 17.5671 114.355 18.3656C114.19 19.1641 114.025 20.3681 113.873 21.9651C113.721 23.5747 113.645 25.0322 113.645 26.3377C113.645 26.6292 113.531 26.87 113.315 27.0728C113.1 27.2755 112.922 27.3769 112.808 27.3769C111.997 27.3769 111.604 26.7179 111.604 25.3998C111.604 24.2084 111.896 21.5595 112.479 17.4657C112.504 17.2756 112.517 17.1742 112.517 17.1489C112.517 17.1109 112.466 17.0729 112.377 17.0602C112.289 17.0475 111.883 17.0348 111.186 17.0348H109.703C109.158 17.0348 108.74 17.0729 108.461 17.1235C108.182 17.1742 108.005 17.2376 107.941 17.2883C107.878 17.3517 107.802 17.5545 107.726 17.9347C107.65 18.3022 107.574 18.8853 107.51 19.6711ZM129.209 19.8358C128.955 22.0918 128.828 23.7394 128.828 24.8041C128.828 25.0069 128.879 25.311 128.968 25.7166C129.057 26.1349 129.095 26.4264 129.095 26.6165C129.095 26.9207 128.98 27.1615 128.778 27.3389C128.562 27.5163 128.271 27.6051 127.891 27.6051C127.498 27.6051 127.206 27.4023 127.016 27.0094C126.826 26.6165 126.724 25.9448 126.724 25.0069C126.724 23.9676 126.902 22.1425 127.257 19.5316L127.295 19.1387C127.231 19.2021 127.155 19.2908 127.079 19.3795C126.674 19.8612 126.42 20.14 126.332 20.2287L126.344 20.216C125.318 21.3567 124.456 22.2186 123.784 22.7889C123.455 23.0677 123.036 23.4353 122.529 23.8915C122.022 24.3478 121.655 24.652 121.414 24.8294C120.742 25.3237 120.299 25.742 120.109 26.0715C119.779 26.6418 119.564 26.9714 119.462 27.0474H119.475C119.272 27.2882 118.93 27.4023 118.461 27.4023C117.891 27.4023 117.599 27.0854 117.599 26.4517C117.599 26.2996 117.688 25.6659 117.865 24.5506C118.03 23.486 118.284 21.1413 118.638 17.5038C118.727 16.5786 118.803 15.9955 118.867 15.7294C118.93 15.4632 119.082 15.2224 119.31 14.9943C119.538 14.7662 119.754 14.6521 119.969 14.6521C120.299 14.6521 120.565 14.7788 120.768 15.0196C120.97 15.2604 121.072 15.5139 121.072 15.7674C121.072 15.8688 121.021 16.1476 120.92 16.6166C120.831 17.0729 120.768 17.3897 120.755 17.5545C120.755 17.5671 120.704 17.9474 120.603 18.6698L120.324 20.6089C120.223 21.1413 120.096 22.1932 119.944 23.7648C120.438 23.3339 121.338 22.5101 122.656 21.2807C122.808 21.1413 122.897 21.0525 122.948 21.0272C123.987 20.14 124.697 19.4556 125.077 18.9613C125.115 18.9233 125.749 18.1502 126.978 16.6546C127.079 16.5279 127.143 16.4518 127.168 16.4265C127.485 15.9955 127.764 15.704 127.967 15.552C128.182 15.3872 128.423 15.3111 128.689 15.3111C128.98 15.3111 129.209 15.4125 129.386 15.6153C129.551 15.8181 129.64 16.0336 129.64 16.2617L129.196 19.8485L129.209 19.8358ZM140.945 20.3935C140.78 20.4822 140.032 20.8878 138.702 21.6102C138.233 21.8637 137.688 22.0918 137.067 22.2819C136.446 22.472 135.888 22.5734 135.394 22.5734C134.659 22.5734 134.088 22.3706 133.67 21.9524C133.252 21.5341 133.049 20.5456 133.049 18.974C133.049 18.3149 133.15 17.4784 133.353 16.4898C133.556 15.5013 133.86 14.9309 134.253 14.7535C134.646 14.5887 134.937 14.5 135.127 14.5C135.33 14.5 135.495 14.6141 135.622 14.8422C135.748 15.0703 135.812 15.3618 135.812 15.7167C135.812 15.8435 135.685 16.4011 135.419 17.4151C135.153 18.4543 135.026 19.2401 135.026 19.7978C135.026 20.1907 135.089 20.4568 135.203 20.5963C135.318 20.7357 135.508 20.799 135.748 20.799C136.091 20.799 136.813 20.5582 137.928 20.0766C139.044 19.595 139.779 19.2148 140.146 18.9106C140.514 18.6191 140.755 18.391 140.894 18.2515C141.034 18.1121 141.11 17.7066 141.11 17.0348C141.11 16.7687 141.097 16.4772 141.072 16.1603C141.034 15.6533 141.148 15.2478 141.439 14.9689C141.718 14.6774 142.073 14.538 142.466 14.538C142.707 14.538 142.935 14.6267 143.15 14.8169C143.366 14.9943 143.467 15.2478 143.467 15.552C143.467 15.7167 143.416 16.0969 143.315 16.6673C143.201 17.3263 143.023 18.7458 142.795 20.9131C142.567 23.0804 142.44 24.5506 142.402 25.3364C142.377 25.8941 142.352 26.3377 142.326 26.6799C142.301 27.0094 142.162 27.2755 141.895 27.4783C141.642 27.6811 141.338 27.7698 140.996 27.7698C140.704 27.7698 140.489 27.6304 140.324 27.3643C140.159 27.0981 140.083 26.7812 140.083 26.4137C140.083 25.9574 140.197 25.0956 140.438 23.8408C140.514 23.3846 140.679 22.2312 140.907 20.3935H140.945ZM157.801 15.4632C157.801 15.8688 157.662 16.7306 157.396 18.0614C156.838 20.8497 156.521 23.6 156.458 26.2743C156.458 26.6038 156.306 26.8953 156.014 27.1234C155.723 27.3643 155.406 27.4783 155.089 27.4783C154.848 27.4783 154.62 27.3896 154.418 27.1995C154.215 27.0221 154.113 26.8193 154.113 26.6038C154.113 26.3757 154.202 25.742 154.379 24.69C154.557 23.6507 154.646 22.903 154.646 22.4594C154.646 22.2946 154.608 22.2059 154.532 22.2059C154.367 22.2059 153.911 22.2439 153.137 22.3199C152.364 22.396 151.87 22.434 151.642 22.434C151.49 22.434 150.983 22.472 150.121 22.5227C149.272 22.5861 148.803 22.6368 148.701 22.6875C148.676 22.6875 148.638 23.2959 148.575 24.5126C148.511 25.6406 148.385 26.4264 148.22 26.8446C148.042 27.2629 147.776 27.4656 147.396 27.4656C147.003 27.4656 146.712 27.3389 146.522 27.0728C146.331 26.8193 146.243 26.5531 146.243 26.287C146.243 26.0842 146.306 25.7039 146.445 25.1463C146.56 24.69 146.876 22.1172 147.421 17.4024L147.586 15.8815C147.611 15.666 147.713 15.4886 147.89 15.3365C148.068 15.1844 148.258 15.1084 148.473 15.1084C148.803 15.1084 149.094 15.1971 149.335 15.3872C149.576 15.5773 149.703 15.7928 149.715 16.0462V16.249C149.715 16.7433 149.601 17.5164 149.361 18.5684C149.132 19.595 149.018 20.3174 149.018 20.7484C149.018 20.8244 149.145 20.8624 149.399 20.8624C150.362 20.8624 151.502 20.8117 152.821 20.6977C154.126 20.5836 154.836 20.4442 154.937 20.2794C155.039 20.0386 155.153 19.4049 155.279 18.4036C155.406 17.3897 155.495 16.4011 155.52 15.4252C155.52 15.2985 155.66 15.1337 155.913 14.9182C156.179 14.7028 156.433 14.5887 156.686 14.5887C156.94 14.5887 157.193 14.6648 157.434 14.8042C157.675 14.9436 157.801 15.1464 157.801 15.3872V15.4379V15.4632ZM167.751 23.1438L167.763 23.1311C167.586 23.1311 167.079 23.1945 166.242 23.3339C165.406 23.4606 164.772 23.5874 164.367 23.7014C163.327 24.0056 162.668 24.145 162.39 24.145C162.212 24.145 162.06 24.1197 161.933 24.069H161.946C161.87 24.0436 161.819 24.031 161.819 24.031C161.769 24.031 161.616 24.2844 161.35 24.8041C160.894 25.7039 160.526 26.287 160.248 26.5911C159.969 26.8826 159.703 27.0347 159.462 27.0347C159.246 27.0347 158.993 26.9207 158.714 26.7052C158.423 26.4897 158.283 26.2616 158.283 26.0335C158.283 25.7927 158.651 25.159 159.398 24.145C160.78 22.2819 161.819 20.723 162.491 19.4556C163.518 17.5545 164.291 16.2617 164.798 15.5646C165.317 14.8802 165.736 14.5253 166.052 14.5253C166.864 14.5253 167.269 14.8295 167.269 15.4252C167.269 15.6153 167.244 15.7801 167.206 15.9449C167.459 16.7433 167.675 17.339 167.827 17.7446C167.877 17.846 168.359 19.1007 169.284 21.5341C169.525 22.1932 169.855 22.8903 170.26 23.6127C170.666 24.3478 171.008 24.8168 171.261 25.0449C172.098 25.742 172.516 26.287 172.516 26.7052C172.516 27.0221 172.402 27.3009 172.199 27.529C171.984 27.7572 171.73 27.8839 171.439 27.8839C170.767 27.8839 169.994 27.1488 169.094 25.6913C168.207 24.2211 167.751 23.3719 167.751 23.1311V23.1438ZM167.079 21.4581C166.762 20.6343 166.445 19.7471 166.116 18.7965C165.85 18.0488 165.71 17.6685 165.697 17.6432C165.659 17.7066 164.899 19.0373 163.391 21.6482C163.264 21.8764 163.175 22.0284 163.137 22.1045L167.079 21.4454V21.4581ZM181.832 16.718C181.806 16.6673 181.743 16.6039 181.629 16.5405C181.515 16.4772 181.426 16.4518 181.375 16.4518C180.919 16.4518 180.26 16.5659 179.398 16.8067C178.536 17.0475 177.776 17.4404 177.117 17.9854C176.458 18.5304 176.128 19.1387 176.128 19.7851C176.128 20.0766 176.255 20.3048 176.521 20.4949C176.787 20.685 177.079 20.7737 177.421 20.7737C178.029 20.7737 178.688 20.723 179.398 20.6216C180.108 20.5202 180.64 20.3935 181.008 20.2287H180.995C181.084 20.1273 181.249 19.6077 181.489 18.6571C181.73 17.7066 181.857 17.0729 181.857 16.7687V16.7053L181.832 16.718Z" stroke="white" stroke-width="0.160982" stroke-miterlimit="22.9256" stroke-linecap="round" stroke-linejoin="round"/>
<path d="M78.1191 41.1918V41.2045C78.1825 41.0905 78.2458 40.9764 78.2965 40.8877C78.4993 40.5455 79.2471 39.0372 80.5272 36.363C81.1229 35.1083 81.4904 34.3732 81.6172 34.1577C81.7439 33.9549 81.9467 33.7648 82.2382 33.6127C82.5297 33.4606 82.8212 33.3719 83.1127 33.3592C83.6957 33.3592 84.0759 33.486 84.2407 33.7268C84.4055 33.9803 84.5956 34.728 84.8364 35.9954C84.9251 36.4771 85.0138 36.87 85.1026 37.1995C85.1786 37.491 85.2166 37.6684 85.2293 37.7572C85.5461 39.164 85.9137 40.4948 86.3319 41.7242C86.7502 42.9536 87.0797 43.7267 87.3205 44.0182C87.4853 43.9928 87.6754 43.9928 87.8782 43.9928C88.2711 43.9928 88.5372 44.0562 88.6767 44.1703C88.8161 44.297 88.8794 44.5378 88.8794 44.8927C88.8794 45.6785 88.8161 46.8318 88.702 48.3654C88.6513 48.9104 88.6386 49.2019 88.6386 49.2526C88.6386 49.4554 88.5372 49.6582 88.3218 49.861C88.119 50.0511 87.8528 50.1525 87.5233 50.1525C87.3839 50.1525 87.2445 50.1018 87.0924 50.0131C86.9403 49.9243 86.8389 49.8356 86.7755 49.7596C86.7122 49.6835 86.6741 49.5314 86.6741 49.3033C86.6741 49.0878 86.7122 48.6442 86.7882 47.9725C86.8516 47.3515 86.8769 46.9713 86.8769 46.8065C86.8769 46.1855 86.8136 45.8686 86.6995 45.8686C85.5968 45.8686 82.4283 46.0967 77.1939 46.5657C76.6869 46.6037 76.4208 46.6544 76.3954 46.7304C76.1419 47.4782 76.0025 48.2133 76.0025 48.9231V49.354C76.0025 50.0384 75.673 50.4059 75.0139 50.482L74.9252 50.4947C74.6591 50.52 74.4436 50.4566 74.2662 50.3046C74.0887 50.1525 74 49.9243 74 49.6328C74 49.2906 74.0887 48.4288 74.2788 47.0093C74.3042 46.7431 74.3295 46.4896 74.3422 46.2615C74.3549 45.932 74.4182 45.6531 74.5577 45.4504C74.6844 45.2476 74.9506 45.1082 75.3435 45.0448C75.635 44.9687 75.8884 44.7786 76.1039 44.4745C76.1546 44.3984 76.2053 44.3224 76.2687 44.2463C76.5602 43.8027 77.1685 42.8015 78.1064 41.2172L78.1191 41.1918ZM78.3599 44.7913L84.8998 44.259C84.735 43.6126 84.5195 42.9155 84.2661 42.1678C83.9999 41.42 83.8225 40.875 83.7337 40.5455C83.3789 39.3161 83.1254 38.2768 82.9733 37.4276L82.7325 36.2743C82.6438 36.4644 82.1748 37.415 81.313 39.126C80.4511 40.837 79.8301 42.041 79.4499 42.7127C78.7401 43.9675 78.3726 44.6519 78.3599 44.7533L78.3726 44.7786L78.3599 44.7913ZM95.7995 46.5657H94.3166C93.3914 46.5657 92.5676 46.0841 91.8452 45.1082C91.1228 44.1449 90.7679 43.2197 90.7679 42.3198C90.7679 41.0017 91.1228 39.6456 91.8198 38.2768C92.5169 36.908 93.4041 35.7927 94.4687 34.9562C95.5334 34.1197 96.56 33.7014 97.5739 33.7014C97.6119 33.7014 97.8527 33.6761 98.309 33.6254C98.7653 33.5747 99.2089 33.5493 99.6144 33.5493C100.312 33.5493 100.895 33.6634 101.363 33.9042C101.832 34.1324 102.301 34.4872 102.796 34.9435C103.277 35.3998 103.657 35.9574 103.924 36.6165C104.19 37.2882 104.329 37.9599 104.329 38.657C104.329 39.5696 103.848 40.6722 102.884 41.965C101.921 43.2577 100.755 44.3477 99.4117 45.2349C98.0682 46.1221 96.8642 46.5657 95.7869 46.5657H95.7995ZM102.124 38.7457C102.149 37.4783 101.82 36.5531 101.11 35.9954C100.413 35.4378 99.8426 35.1463 99.3863 35.1463C99.2722 35.1463 99.0695 35.1843 98.7906 35.2477C98.4357 35.3237 98.1696 35.3744 98.0175 35.3871C96.4586 35.7546 95.1785 36.7052 94.1899 38.2261C93.2013 39.747 92.707 41.1285 92.707 42.3579C92.707 43.093 92.9352 43.7013 93.3788 44.1829C93.835 44.6772 94.3547 44.918 94.9504 44.918C95.9389 44.918 96.9782 44.5758 98.0809 43.9168C99.1708 43.2451 100.121 42.4339 100.895 41.5087C101.68 40.5708 102.073 39.8864 102.086 39.4682L102.099 38.7584L102.124 38.7457ZM115.128 43.1944C115.546 43.1944 115.761 43.3971 115.761 43.8027C115.761 44.3097 115.14 44.9307 113.911 45.6658C112.681 46.4009 111.477 46.7685 110.324 46.7685C109.297 46.7685 108.36 46.4389 107.51 45.7799C106.649 45.1335 106.23 44.1703 106.23 42.9282C106.23 41.6481 106.674 40.2413 107.574 38.6824C108.474 37.1234 109.576 35.8687 110.907 34.8801C112.238 33.9042 113.531 33.4226 114.785 33.4226C115.533 33.4226 116.142 33.6381 116.585 34.0817C117.041 34.5252 117.257 35.0322 117.257 35.6279C117.257 36.2616 117.206 36.7179 117.105 36.9967C117.003 37.2755 116.788 37.5163 116.458 37.7065C116.129 37.9092 115.863 38.0106 115.647 37.998C115.432 37.998 115.254 37.9219 115.09 37.7698C114.937 37.6304 114.849 37.415 114.849 37.1741C114.849 36.9967 114.899 36.7432 114.988 36.401C115.077 36.0715 115.115 35.78 115.115 35.5645C115.115 35.1843 114.988 34.9942 114.722 34.9942C113.911 34.9942 113.011 35.4124 112.01 36.2616C111.008 37.1108 110.147 38.1627 109.437 39.4175C108.714 40.6722 108.36 41.7749 108.36 42.7381C108.36 43.3718 108.55 43.9168 108.917 44.3477C109.297 44.7913 109.842 45.0068 110.565 45.0068C110.983 45.0068 111.528 44.8927 112.175 44.6646C112.821 44.4364 113.417 44.1322 113.962 43.752C114.519 43.3591 114.899 43.169 115.102 43.169L115.128 43.1944ZM124.963 36.287C124.912 36.325 124.861 36.4517 124.823 36.6545C124.785 36.8573 124.671 37.7952 124.481 39.4935C124.291 41.1792 124.202 42.5226 124.202 43.5366C124.202 43.9802 124.266 44.4491 124.38 44.9434C124.418 45.0701 124.443 45.1462 124.443 45.1969C124.443 45.4884 124.354 45.7545 124.152 45.9953C123.961 46.2362 123.733 46.3502 123.455 46.3502C123.277 46.3502 123.036 46.2615 122.757 46.0841C122.479 45.9066 122.301 45.6024 122.25 45.1715C122.2 44.7406 122.162 44.1829 122.174 43.4985C122.174 42.624 122.288 41.2425 122.517 39.3414C122.745 37.4403 122.871 36.4897 122.897 36.4644C122.745 36.4644 122.124 36.5024 121.021 36.5911C119.918 36.6672 119.285 36.7179 119.107 36.7179C118.537 36.7179 118.131 36.6418 117.903 36.5024C117.675 36.3503 117.574 36.1222 117.574 35.818C117.574 35.5392 117.688 35.3237 117.929 35.1716C118.169 35.0195 118.778 34.9562 119.741 34.9562C121.351 34.9562 122.935 34.8548 124.494 34.6393C126.243 34.3732 127.561 34.2464 128.461 34.2464C129.475 34.2464 130.083 34.3605 130.299 34.6013C130.514 34.8294 130.628 35.0702 130.628 35.2984C130.628 35.8307 130.387 36.0968 129.906 36.0968C129.754 36.0968 129.5 36.0842 129.158 36.0461C128.803 36.0208 128.397 36.0081 127.916 36.0081C126.496 36.0081 125.52 36.1095 124.975 36.2996L124.963 36.287ZM137.928 42.0537L137.941 42.041C137.751 42.041 137.231 42.1171 136.369 42.2438C135.508 42.3832 134.861 42.51 134.43 42.624C133.353 42.9282 132.681 43.0803 132.402 43.0803C132.225 43.0803 132.073 43.0549 131.934 43.0043H131.946C131.857 42.9789 131.819 42.9662 131.807 42.9662C131.756 42.9662 131.591 43.2324 131.325 43.7647C130.856 44.6899 130.476 45.2983 130.197 45.6024C129.906 45.9066 129.639 46.0587 129.386 46.0587C129.171 46.0587 128.904 45.9447 128.613 45.7165C128.309 45.4884 128.157 45.2602 128.157 45.0194C128.157 44.766 128.537 44.1196 129.31 43.0676C130.742 41.1412 131.807 39.5315 132.504 38.2388C133.556 36.2743 134.354 34.9435 134.887 34.2337C135.419 33.524 135.85 33.1691 136.179 33.1691C137.016 33.1691 137.434 33.4733 137.434 34.0943C137.434 34.2844 137.409 34.4619 137.371 34.6266C137.637 35.4505 137.852 36.0715 138.017 36.4771C138.068 36.5785 138.575 37.8712 139.525 40.3807C139.779 41.0524 140.108 41.7749 140.539 42.5353C140.957 43.2958 141.3 43.7774 141.566 44.0055C142.428 44.7153 142.859 45.2856 142.859 45.7165C142.859 46.046 142.745 46.3375 142.529 46.5657C142.314 46.8065 142.047 46.9332 141.743 46.9332C141.059 46.9332 140.248 46.1855 139.335 44.6646C138.41 43.1563 137.954 42.2691 137.954 42.0283L137.928 42.0537ZM137.231 40.3173C136.902 39.4682 136.572 38.5556 136.243 37.567C135.977 36.7939 135.824 36.401 135.812 36.3883C135.774 36.4517 134.988 37.8332 133.429 40.5201C133.29 40.7609 133.201 40.913 133.163 40.9891L137.231 40.3173ZM152.96 35.9954V35.9574C152.96 35.818 152.82 35.6532 152.542 35.4631C152.263 35.273 151.946 35.1716 151.604 35.1716C150.577 35.1716 149.665 35.2857 148.853 35.5138C148.613 35.5772 148.461 35.6406 148.397 35.6913C148.334 35.7546 148.144 36.3503 147.865 37.4783C147.573 38.619 147.333 39.8357 147.155 41.1285L147.092 41.5847C146.826 43.1817 146.686 44.259 146.686 44.8166C146.686 45.2476 146.572 45.5644 146.331 45.7926C146.091 46.0207 145.786 46.1221 145.393 46.1221C145.115 46.1221 144.886 45.9953 144.709 45.7165C144.532 45.4504 144.443 45.1208 144.443 44.7406C144.443 44.6139 144.494 44.3097 144.608 43.8281C144.785 43.0803 145.077 41.7622 145.469 39.8611C145.875 37.9599 146.065 36.984 146.065 36.946C146.065 36.6545 145.989 36.5151 145.824 36.5151C145.571 36.5151 145.343 36.439 145.153 36.2616C144.963 36.0968 144.874 35.9067 144.874 35.6786C144.874 35.0829 145.685 34.5506 147.295 34.107C148.904 33.6634 150.526 33.4353 152.136 33.4353C152.846 33.4353 153.53 33.6888 154.202 34.1704C154.874 34.6647 155.203 35.2223 155.203 35.8307C155.203 36.1856 154.988 36.6799 154.544 37.3136C154.101 37.9473 153.543 38.5683 152.846 39.164C154.417 39.4935 155.203 40.5328 155.203 42.2818C155.203 43.0296 154.57 43.9421 153.302 45.0194C152.035 46.0967 150.564 46.6291 148.904 46.6291C148.473 46.6291 148.118 46.5657 147.84 46.4263C147.573 46.2868 147.434 46.0967 147.434 45.8686C147.434 45.6912 147.497 45.5011 147.637 45.2856C147.764 45.0828 147.928 44.9307 148.106 44.8293C148.296 44.7279 148.575 44.6772 148.98 44.6392C150.26 44.5632 151.236 44.2336 151.921 43.6633C152.592 43.093 152.935 42.624 152.935 42.2565C152.935 41.8636 152.782 41.4707 152.466 41.0651C152.149 40.6595 151.769 40.4694 151.338 40.4694C151.287 40.4694 151.198 40.4948 151.046 40.5455C150.26 40.837 149.791 40.9891 149.639 40.9891C149.082 40.9891 148.727 40.913 148.549 40.7483C148.372 40.5835 148.283 40.3427 148.283 40.0132C148.283 39.7723 148.537 39.5442 149.044 39.3161C149.791 38.9865 150.4 38.695 150.856 38.4162C151.312 38.1374 151.743 37.7698 152.136 37.3262C152.529 36.8826 152.795 36.4264 152.947 35.9701L152.96 35.9954ZM160.59 41.9016C160.64 42.2438 160.628 42.6747 160.552 43.2197C160.387 44.3731 160.298 45.1082 160.298 45.425C160.298 45.6912 160.146 45.9447 159.855 46.1728C159.563 46.4009 159.234 46.515 158.879 46.515C158.448 46.515 158.22 46.1601 158.22 45.463C158.22 45.387 158.245 44.9814 158.308 44.2717L158.46 42.4212C158.486 42.0537 158.549 40.6722 158.638 38.2895C158.727 35.9067 158.777 34.5506 158.777 34.2211C158.777 33.8282 158.904 33.524 159.17 33.3085C159.436 33.0804 159.728 32.979 160.057 32.979C160.349 32.979 160.602 33.0931 160.78 33.3339C160.97 33.5747 161.071 33.8028 161.071 34.0183C161.071 35.2603 160.983 36.6418 160.793 38.1501V38.1374C160.742 38.7711 160.716 39.24 160.716 39.5696C161.401 39.1006 162.288 38.3148 163.403 37.2375C164.481 36.2109 165.292 35.5012 165.824 35.1209C165.888 35.0702 165.964 34.9815 166.065 34.8801C166.521 34.4239 166.965 34.107 167.396 33.9422H167.383C167.446 33.9042 167.548 33.8915 167.675 33.8915C167.953 33.8915 168.232 34.0056 168.536 34.2211C168.828 34.4365 168.98 34.6266 168.98 34.7787C168.98 34.8801 168.917 34.9688 168.815 35.0449C168.334 35.6025 167.446 36.4137 166.141 37.491C164.772 38.6063 163.72 39.5315 162.947 40.292C164.062 40.7609 165.14 41.1538 166.179 41.4834C166.179 41.4834 166.217 41.496 166.28 41.5214C166.623 41.6861 166.825 41.7875 166.901 41.8129C167.155 41.8762 167.51 42.0157 167.991 42.2311C168.6 42.4973 169.183 42.7001 169.753 42.8648C170.323 43.0296 170.653 43.1056 170.716 43.1056C170.767 43.0169 170.906 42.9662 171.135 42.9662C171.439 42.9662 171.705 43.1183 171.946 43.4098C172.187 43.714 172.313 43.9421 172.313 44.1196C172.313 44.4238 172.199 44.6772 171.958 44.8927C171.718 45.1082 171.426 45.2095 171.084 45.2095C170.716 45.2095 170.083 45.0575 169.145 44.7406C168.22 44.4238 167.459 44.1449 166.838 43.8788C165.926 43.4985 164.798 43.0549 163.454 42.548C162.111 42.041 161.338 41.7875 161.135 41.7875C160.907 41.7875 160.729 41.8256 160.59 41.9016ZM182.263 42.0664L182.275 42.0537C182.085 42.0537 181.565 42.1297 180.704 42.2565C179.842 42.3959 179.195 42.5226 178.764 42.6367C177.687 42.9409 177.015 43.093 176.737 43.093C176.559 43.093 176.407 43.0676 176.268 43.0169H176.28C176.192 42.9916 176.154 42.9789 176.141 42.9789C176.09 42.9789 175.925 43.2451 175.659 43.7774C175.19 44.7026 174.81 45.3109 174.531 45.6151C174.24 45.9193 173.974 46.0714 173.72 46.0714C173.505 46.0714 173.239 45.9573 172.947 45.7292C172.643 45.5011 172.491 45.2729 172.491 45.0321C172.491 44.7786 172.871 44.1322 173.644 43.0803C175.076 41.1538 176.141 39.5442 176.838 38.2514C177.89 36.287 178.688 34.9562 179.221 34.2464C179.753 33.5367 180.184 33.1818 180.514 33.1818C181.35 33.1818 181.768 33.486 181.768 34.107C181.768 34.2971 181.743 34.4745 181.705 34.6393C181.971 35.4631 182.186 36.0842 182.351 36.4897C182.402 36.5911 182.909 37.8839 183.859 40.3934C184.113 41.0651 184.442 41.7875 184.873 42.548C185.292 43.3084 185.634 43.79 185.9 44.0182C186.762 44.7279 187.193 45.2983 187.193 45.7292C187.193 46.0587 187.079 46.3502 186.863 46.5784C186.648 46.8192 186.382 46.9459 186.077 46.9459C185.393 46.9459 184.582 46.1981 183.669 44.6772C182.744 43.169 182.288 42.2818 182.288 42.041L182.263 42.0664ZM181.565 40.33C181.236 39.4808 180.906 38.5683 180.577 37.5797C180.311 36.8066 180.159 36.4137 180.146 36.401C180.108 36.4644 179.322 37.8459 177.763 40.5328C177.624 40.7736 177.535 40.9257 177.497 41.0017L181.565 40.33Z" fill="white" stroke="white" stroke-width="0.160982" stroke-miterlimit="22.9256" stroke-linecap="round" stroke-linejoin="round"/>
</g>
<defs>
<clipPath id="clip0_1340_8916">
<rect width="187.193" height="65" fill="white"/>
</clipPath>
</defs>
</svg>
