<svg width="65" height="65" viewBox="0 0 65 65" fill="none" xmlns="http://www.w3.org/2000/svg">
<path fill-rule="evenodd" clip-rule="evenodd" d="M32.5 0C50.4504 0 65 14.5496 65 32.5C65 50.4504 50.4504 65 32.5 65C14.5496 65 0 50.4504 0 32.5C0 14.5496 14.5496 0 32.5 0Z" fill="white"/>
<path d="M22.1645 27.236C22.1054 27.2951 22.0463 27.4725 22.0167 27.7683C21.9723 28.064 21.8392 29.3947 21.6175 31.8049C21.4104 34.2002 21.2922 36.1224 21.2922 37.5567C21.2922 38.1925 21.3661 38.8579 21.4992 39.5676C21.5435 39.7451 21.5583 39.8633 21.5583 39.9373C21.5583 40.3513 21.4548 40.7209 21.233 41.061C21.0112 41.4011 20.7451 41.5785 20.4346 41.5785C20.2276 41.5785 19.9466 41.4602 19.6361 41.1941C19.3108 40.9427 19.1186 40.5139 19.0447 39.9077C18.9855 39.3015 18.9559 38.503 18.9559 37.5271C18.9559 36.2851 19.089 34.3037 19.3404 31.5979C19.5917 28.892 19.7396 27.5317 19.7692 27.5021C19.5917 27.5021 18.882 27.5612 17.6104 27.6795C16.3388 27.7978 15.6143 27.857 15.422 27.857C14.7567 27.857 14.2983 27.7535 14.0321 27.5465C13.7808 27.3395 13.6477 27.0142 13.6477 26.5706C13.6477 26.1713 13.7808 25.8756 14.0617 25.6538C14.3279 25.4468 15.0376 25.3433 16.1466 25.3433C17.9948 25.3433 19.8283 25.1955 21.6027 24.8997C23.6136 24.5301 25.1366 24.3379 26.1716 24.3379C27.3397 24.3379 28.0346 24.5005 28.286 24.8406C28.5374 25.1659 28.6557 25.506 28.6557 25.8313C28.6557 26.5854 28.3747 26.9698 27.8276 26.9698C27.6502 26.9698 27.3545 26.9402 26.9553 26.8959C26.556 26.8515 26.0681 26.8367 25.5358 26.8367C23.9093 26.8367 22.7708 26.9698 22.1498 27.2507L22.1645 27.236ZM28.7592 40.8392C28.3747 40.8392 28.0938 40.7505 27.9016 40.5583C27.7094 40.3661 27.6206 39.8929 27.6206 39.1092C27.6206 38.6804 27.6354 38.3404 27.665 38.1038C27.6946 37.8672 27.8572 37.6898 28.1382 37.5567C28.4191 37.4236 28.8183 37.3645 29.3506 37.3645C29.7498 37.3645 30.0456 37.468 30.2526 37.6898C30.4596 37.9116 30.5631 38.1629 30.5631 38.4143C30.5631 38.8579 30.5039 39.198 30.4004 39.4198C30.2821 39.6563 30.0456 39.9521 29.6611 40.2921C29.2915 40.647 28.981 40.8097 28.7592 40.8097V40.8392ZM36.9064 34.2298V34.2446C36.9803 34.0819 37.0542 33.9341 37.1134 33.7862C37.3499 33.2983 38.2075 31.1543 39.6861 27.3542C40.3811 25.5651 40.7951 24.5153 40.943 24.2196C41.0908 23.9238 41.3274 23.6577 41.6675 23.4507C42.0076 23.2289 42.3329 23.1106 42.673 23.0958C43.3531 23.0958 43.7819 23.2733 43.9741 23.6281C44.1664 23.983 44.3882 25.0624 44.6543 26.8515C44.7578 27.5317 44.8465 28.1083 44.95 28.5667C45.0387 28.9807 45.0831 29.2321 45.0979 29.3504C45.4675 31.3613 45.8816 33.2391 46.3695 34.9987C46.8574 36.7582 47.2419 37.8376 47.508 38.2516C47.6855 38.2221 47.9073 38.2073 48.1586 38.2073C48.617 38.2073 48.9275 38.296 49.0754 38.4587C49.238 38.6361 49.3119 38.9762 49.3119 39.4937C49.3119 40.6174 49.2528 42.2587 49.1049 44.4323C49.0458 45.2011 49.031 45.6152 49.031 45.6891C49.031 45.9848 48.9127 46.2805 48.6761 46.5467C48.4396 46.8276 48.1291 46.9607 47.7594 46.9607C47.5967 46.9607 47.4341 46.9016 47.2567 46.7685C47.0792 46.6354 46.9609 46.5171 46.887 46.3988C46.8131 46.2805 46.7687 46.0735 46.7687 45.7482C46.7687 45.4377 46.8131 44.8019 46.9018 43.8556C46.9757 42.9832 47.0053 42.4213 47.0053 42.1848C47.0053 41.2976 46.9314 40.854 46.7983 40.854C45.5415 40.854 41.8893 41.1793 35.8713 41.8447C35.2799 41.9038 34.9841 41.9778 34.9546 42.0813C34.6589 43.1607 34.511 44.1957 34.4962 45.2011V45.8074C34.4962 46.7833 34.1118 47.3156 33.3577 47.4191L33.2542 47.4339C32.9437 47.4782 32.7071 47.3895 32.5001 47.1677C32.2931 46.9607 32.2043 46.6354 32.2043 46.2066C32.2043 45.7334 32.3078 44.4914 32.5296 42.4805C32.5592 42.096 32.5888 41.7412 32.6036 41.4307C32.6184 40.9575 32.6923 40.5731 32.8402 40.2774C32.988 39.9816 33.2985 39.7894 33.7569 39.7007C34.097 39.5972 34.3927 39.331 34.6293 38.8875C34.6884 38.7692 34.7476 38.6657 34.8215 38.5622C35.1616 37.9264 35.8565 36.4921 36.9359 34.2446L36.9064 34.2298ZM37.1873 39.3606L44.6987 38.5917C44.5064 37.675 44.2699 36.6695 43.9594 35.6049C43.6488 34.5403 43.4566 33.7714 43.3383 33.2983C42.9391 31.5387 42.6434 30.0601 42.4512 28.8624L42.1702 27.2212C42.0815 27.4873 41.5344 28.8476 40.5437 31.2874C39.5531 33.7271 38.8433 35.4275 38.3998 36.4034C37.5865 38.1925 37.1725 39.1684 37.1577 39.3162L37.1725 39.3458L37.1873 39.3606ZM52.3875 40.8392C52.003 40.8392 51.7221 40.7505 51.5299 40.5583C51.3377 40.3661 51.2489 39.8929 51.2489 39.1092C51.2489 38.6804 51.2637 38.3404 51.2933 38.1038C51.3229 37.8672 51.4855 37.6898 51.7664 37.5567C52.0474 37.4236 52.4466 37.3645 52.9789 37.3645C53.3781 37.3645 53.6739 37.468 53.8809 37.6898C54.0879 37.9116 54.1914 38.1629 54.1914 38.4143C54.1914 38.8579 54.1322 39.198 54.0287 39.4198C53.9104 39.6563 53.6739 39.9521 53.2894 40.2921C52.9198 40.647 52.6093 40.8097 52.3875 40.8097V40.8392Z" fill="black"/>
<path d="M62.5577 32.4872C62.5577 49.0875 49.1005 62.5447 32.5003 62.5447C15.9 62.5447 2.44287 49.0875 2.44287 32.4872C2.44287 15.887 15.9 2.42981 32.5003 2.42981C49.1005 2.42981 62.5577 15.887 62.5577 32.4872Z" stroke="black"/>
</svg>
