<svg width="115" height="37" viewBox="0 0 115 37" fill="none" xmlns="http://www.w3.org/2000/svg">
<path d="M10.9873 3.52912C10.9366 3.56714 10.8986 3.69388 10.8605 3.884C10.8225 4.08678 10.7085 4.99932 10.531 6.63429C10.3536 8.26925 10.2522 9.57469 10.2522 10.5506C10.2522 10.9815 10.3156 11.4378 10.4296 11.9194C10.4676 12.0335 10.4803 12.1222 10.4803 12.1729C10.4803 12.4517 10.3916 12.7052 10.2015 12.946C10.0241 13.1741 9.79592 13.3009 9.52976 13.3009C9.35232 13.3009 9.12419 13.2122 8.84536 13.0474C8.56653 12.87 8.40176 12.5785 8.35107 12.1729C8.30037 11.7546 8.27501 11.2223 8.27501 10.5506C8.27501 9.70143 8.38908 8.35797 8.60455 6.52022C8.82001 4.68247 8.94675 3.75725 8.9721 3.73191C8.82001 3.73191 8.22432 3.76993 7.15969 3.84597C6.09507 3.92202 5.47403 3.96004 5.30927 3.96004C4.75161 3.96004 4.35871 3.884 4.14325 3.74458C3.92779 3.60516 3.81372 3.37703 3.81372 3.07285C3.81372 2.80669 3.92779 2.59123 4.15592 2.45182C4.38406 2.3124 4.96707 2.23636 5.91763 2.23636C7.47655 2.23636 9.01012 2.13496 10.5183 1.93218C12.2167 1.67869 13.4968 1.55195 14.3713 1.55195C15.3472 1.55195 15.9429 1.66602 16.1583 1.89416C16.3738 2.12229 16.4752 2.35042 16.4752 2.56588C16.4752 3.08552 16.2471 3.33901 15.7781 3.33901C15.626 3.33901 15.3852 3.32633 15.043 3.28831C14.7008 3.26296 14.2952 3.25029 13.839 3.25029C12.4702 3.25029 11.5196 3.33901 10.9873 3.52912ZM28.0467 5.82314C27.7932 8.07914 27.6665 9.72678 27.6665 10.7914C27.6665 10.9942 27.7172 11.2984 27.8059 11.7039C27.8946 12.1222 27.9326 12.4137 27.9326 12.6038C27.9326 12.908 27.8185 13.1488 27.6158 13.3262C27.4003 13.5037 27.1088 13.5924 26.7286 13.5924C26.3357 13.5924 26.0442 13.3896 25.8541 12.9967C25.6639 12.6038 25.5626 11.9321 25.5626 10.9942C25.5626 9.95491 25.74 8.12983 26.0949 5.51896L26.1329 5.12606C26.0695 5.18943 25.9935 5.27815 25.9174 5.36687C25.5119 5.84849 25.2584 6.12732 25.1697 6.21604L25.1823 6.20336C24.1557 7.34404 23.2939 8.20588 22.6221 8.77622C22.2926 9.05505 21.8744 9.4226 21.3674 9.87887C20.8604 10.3351 20.4929 10.6393 20.2521 10.8168C19.5804 11.311 19.1368 11.7293 18.9467 12.0588C18.6171 12.6292 18.4017 12.9587 18.3003 13.0347H18.3129C18.1102 13.2755 17.768 13.3896 17.299 13.3896C16.7287 13.3896 16.4372 13.0728 16.4372 12.439C16.4372 12.287 16.5259 11.6532 16.7033 10.5379C16.8681 9.47329 17.1216 7.12858 17.4764 3.4911C17.5652 2.56589 17.6412 1.98287 17.7046 1.71672C17.768 1.45056 17.92 1.20975 18.1482 0.981616C18.3763 0.753482 18.5918 0.639416 18.8072 0.639416C19.1368 0.639416 19.4029 0.766157 19.6057 1.00697C19.8085 1.24777 19.9099 1.50126 19.9099 1.75474C19.9099 1.85613 19.8592 2.13496 19.7578 2.60391C19.6691 3.06018 19.6057 3.37703 19.593 3.54179C19.593 3.55447 19.5423 3.93469 19.4409 4.65712L19.1621 6.59626C19.0607 7.12858 18.934 8.18053 18.7819 9.75212C19.2762 9.3212 20.176 8.49738 21.4941 7.26799C21.6462 7.12858 21.735 7.03986 21.7857 7.01451C22.8249 6.12732 23.5347 5.44292 23.9149 4.94862C23.9529 4.9106 24.5866 4.13748 25.816 2.64193C25.9174 2.51519 25.9808 2.43914 26.0061 2.4138C26.323 1.98288 26.6018 1.69137 26.8046 1.53928C27.0201 1.38719 27.2609 1.29847 27.527 1.29847C27.8185 1.29847 28.0467 1.39987 28.2241 1.60265C28.3889 1.80544 28.4776 2.0209 28.4776 2.24903L28.034 5.83581L28.0467 5.82314ZM34.5105 5.67105V5.65838C34.4851 5.92453 34.3204 6.98916 34.0035 8.86493C33.8895 9.54934 33.8134 9.95491 33.8007 10.069L33.7501 10.4492C33.6487 11.235 33.598 11.7673 33.598 12.0461L33.636 12.5278C33.636 13.1361 33.3065 13.4403 32.6601 13.4403C31.9123 13.4403 31.5321 13.0347 31.5321 12.2236C31.5321 11.742 31.6335 10.9562 31.8489 9.86619C31.9123 9.56201 31.9757 9.20714 32.039 8.81424C32.0517 8.70017 32.0897 8.48471 32.1531 8.18053C32.5587 6.0893 32.7615 4.5684 32.7615 3.60517C32.7615 3.46575 32.7361 3.40238 32.6727 3.40238C31.9883 3.33901 31.6461 3.07285 31.6461 2.57856C31.6461 2.27438 31.7349 2.03357 31.9123 1.84346C32.0897 1.65335 32.3179 1.56463 32.6094 1.55195C33.0403 1.52661 33.3571 1.46323 33.5853 1.32382C33.8134 1.20975 34.0162 1.15906 34.1936 1.15906C34.4851 1.15906 34.726 1.22243 34.9161 1.32382C35.0682 1.41254 35.5117 1.45056 36.2468 1.45056C36.2595 1.45056 36.8172 1.43789 37.9325 1.39986C39.0478 1.36184 39.6308 1.33649 39.6942 1.32382C39.7576 1.29847 39.859 1.26045 40.0237 1.19708C40.2519 1.09568 40.4673 1.05766 40.6955 1.05766C40.8729 1.05766 41.0123 1.07034 41.101 1.09568C41.1771 1.13371 41.2531 1.14638 41.3292 1.14638L42.115 1.09568C42.3178 1.08301 42.5206 1.13371 42.698 1.26045C42.8754 1.38719 42.9641 1.58998 42.9641 1.86881C42.9641 2.16031 42.8628 2.4138 42.6473 2.61658C42.4318 2.81937 42.191 2.93344 41.9122 2.95878C41.8488 2.95878 41.7855 2.99681 41.7094 3.07285C41.646 3.13622 41.532 3.56714 41.3545 4.36561C41.1898 5.16408 41.025 6.36813 40.8729 7.96507C40.7208 9.57469 40.6448 11.0322 40.6448 12.3377C40.6448 12.6292 40.5307 12.87 40.3153 13.0728C40.0998 13.2755 39.9224 13.3769 39.8083 13.3769C38.9971 13.3769 38.6042 12.7179 38.6042 11.3998C38.6042 10.2084 38.8957 7.5595 39.4788 3.46575C39.5041 3.27564 39.5168 3.17424 39.5168 3.1489C39.5168 3.11087 39.4661 3.07285 39.3774 3.06018C39.2886 3.0475 38.8831 3.03483 38.186 3.03483H36.7031C36.1581 3.03483 35.7399 3.07285 35.4611 3.12355C35.1822 3.17424 35.0048 3.23762 34.9414 3.28831C34.878 3.35168 34.802 3.55447 34.726 3.93469C34.6499 4.30224 34.5739 4.88525 34.5105 5.67105ZM56.2086 5.83581C55.9551 8.09181 55.8284 9.73945 55.8284 10.8041C55.8284 11.0069 55.8791 11.311 55.9678 11.7166C56.0565 12.1349 56.0946 12.4264 56.0946 12.6165C56.0946 12.9207 55.9805 13.1615 55.7777 13.3389C55.5622 13.5163 55.2707 13.6051 54.8905 13.6051C54.4976 13.6051 54.2061 13.4023 54.016 13.0094C53.8259 12.6165 53.7245 11.9448 53.7245 11.0069C53.7245 9.96759 53.9019 8.14251 54.2568 5.53163L54.2948 5.13874C54.2315 5.20211 54.1554 5.29083 54.0794 5.37955C53.6738 5.86116 53.4203 6.13999 53.3316 6.22871L53.3443 6.21604C52.3177 7.35671 51.4558 8.21855 50.7841 8.78889C50.4546 9.06772 50.0363 9.43527 49.5294 9.89154C49.0224 10.3478 48.6548 10.652 48.414 10.8294C47.7423 11.3237 47.2987 11.742 47.1086 12.0715C46.7791 12.6418 46.5636 12.9714 46.4622 13.0474H46.4749C46.2721 13.2882 45.9299 13.4023 45.461 13.4023C44.8906 13.4023 44.5991 13.0854 44.5991 12.4517C44.5991 12.2996 44.6878 11.6659 44.8653 10.5506C45.03 9.48597 45.2835 7.14125 45.6384 3.50377C45.7271 2.57856 45.8032 1.99555 45.8665 1.72939C45.9299 1.46323 46.082 1.22243 46.3101 0.994291C46.5383 0.766156 46.7537 0.652091 46.9692 0.652091C47.2987 0.652091 47.5649 0.778831 47.7677 1.01964C47.9704 1.26045 48.0718 1.51393 48.0718 1.76741C48.0718 1.86881 48.0211 2.14764 47.9197 2.61658C47.831 3.07285 47.7676 3.3897 47.755 3.55447C47.755 3.56714 47.7043 3.94737 47.6029 4.66979L47.3241 6.60894C47.2227 7.14125 47.0959 8.1932 46.9438 9.7648C47.4381 9.33388 48.338 8.51006 49.6561 7.28067C49.8082 7.14125 49.8969 7.05253 49.9476 7.02718C50.9869 6.13999 51.6966 5.45559 52.0769 4.9613C52.1149 4.92328 52.7486 4.15015 53.978 2.65461C54.0794 2.52786 54.1427 2.45182 54.1681 2.42647C54.485 1.99555 54.7638 1.70404 54.9666 1.55195C55.182 1.38719 55.4228 1.31114 55.689 1.31114C55.9805 1.31114 56.2086 1.41254 56.3861 1.61532C56.5508 1.81811 56.6395 2.03357 56.6395 2.26171L56.196 5.84849L56.2086 5.83581ZM67.9449 6.39348C67.7801 6.4822 67.0323 6.88777 65.7016 7.6102C65.2326 7.86368 64.6876 8.09181 64.0666 8.28192C63.4456 8.47204 62.8879 8.57343 62.3936 8.57343C61.6585 8.57343 61.0882 8.37064 60.6699 7.9524C60.2517 7.53415 60.0489 6.54557 60.0489 4.97397C60.0489 4.31492 60.1503 3.47842 60.3531 2.48984C60.5559 1.50126 60.86 0.930922 61.2529 0.753484C61.6458 0.58872 61.9373 0.5 62.1275 0.5C62.3302 0.5 62.495 0.614068 62.6217 0.842202C62.7485 1.07034 62.8119 1.36184 62.8119 1.71672C62.8119 1.84346 62.6851 2.40112 62.419 3.41505C62.1528 4.45433 62.0261 5.24013 62.0261 5.79779C62.0261 6.19069 62.0894 6.45685 62.2035 6.59626C62.3176 6.73568 62.5077 6.79905 62.7485 6.79905C63.0907 6.79905 63.8131 6.55824 64.9284 6.07662C66.0438 5.59501 66.7789 5.21478 67.1464 4.9106C67.514 4.6191 67.7548 4.39096 67.8942 4.25155C68.0336 4.11213 68.1097 3.70656 68.1097 3.03483C68.1097 2.76867 68.097 2.47717 68.0716 2.16031C68.0336 1.65335 68.1477 1.24778 68.4392 0.968944C68.718 0.677439 69.0729 0.538023 69.4658 0.538023C69.7066 0.538023 69.9347 0.626741 70.1502 0.816854C70.3656 0.994292 70.467 1.24777 70.467 1.55195C70.467 1.71672 70.4163 2.09694 70.3149 2.66728C70.2009 3.32633 70.0234 4.74584 69.7953 6.91312C69.5672 9.08039 69.4404 10.5506 69.4024 11.3364C69.3771 11.8941 69.3517 12.3377 69.3264 12.6799C69.301 13.0094 69.1616 13.2755 68.8954 13.4783C68.642 13.6811 68.3378 13.7698 67.9956 13.7698C67.7041 13.7698 67.4886 13.6304 67.3239 13.3643C67.1591 13.0981 67.083 12.7812 67.083 12.4137C67.083 11.9574 67.1971 11.0956 67.4379 9.84085C67.514 9.38458 67.6787 8.23123 67.9069 6.39348H67.9449ZM84.8015 1.46324C84.8015 1.86881 84.6621 2.73065 84.3959 4.06143C83.8383 6.84975 83.5214 9.60004 83.458 12.2743C83.458 12.6038 83.3059 12.8953 83.0144 13.1234C82.7229 13.3643 82.4061 13.4783 82.0892 13.4783C81.8484 13.4783 81.6203 13.3896 81.4175 13.1995C81.2147 13.0221 81.1133 12.8193 81.1133 12.6038C81.1133 12.3757 81.202 11.742 81.3795 10.69C81.5569 9.65073 81.6456 8.90296 81.6456 8.45936C81.6456 8.2946 81.6076 8.20588 81.5316 8.20588C81.3668 8.20588 80.9105 8.2439 80.1374 8.31995C79.3643 8.39599 78.87 8.43401 78.6419 8.43401C78.4898 8.43401 77.9828 8.47204 77.121 8.52273C76.2718 8.5861 75.8029 8.6368 75.7015 8.6875C75.6761 8.6875 75.6381 9.29585 75.5747 10.5126C75.5114 11.6406 75.3846 12.4264 75.2198 12.8446C75.0424 13.2629 74.7763 13.4656 74.396 13.4656C74.0031 13.4656 73.7116 13.3389 73.5215 13.0728C73.3314 12.8193 73.2427 12.5531 73.2427 12.287C73.2427 12.0842 73.3061 11.7039 73.4455 11.1463C73.5595 10.69 73.8764 8.11716 74.4214 3.40238L74.5861 1.88148C74.6115 1.66602 74.7129 1.48858 74.8903 1.33649C75.0678 1.1844 75.2579 1.10836 75.4733 1.10836C75.8029 1.10836 76.0944 1.19708 76.3352 1.38719C76.576 1.5773 76.7027 1.79276 76.7154 2.04624V2.24903C76.7154 2.74332 76.6013 3.51644 76.3605 4.5684C76.1324 5.595 76.0183 6.31743 76.0183 6.74835C76.0183 6.8244 76.1451 6.86242 76.3985 6.86242C77.3618 6.86242 78.5024 6.81172 79.8206 6.69766C81.126 6.58359 81.8357 6.44417 81.9371 6.27941C82.0385 6.0386 82.1526 5.40489 82.2794 4.40364C82.4061 3.3897 82.4948 2.40112 82.5201 1.42521C82.5201 1.29847 82.6596 1.13371 82.9131 0.918247C83.1792 0.702786 83.4327 0.588719 83.6862 0.588719C83.9397 0.588719 84.1931 0.664764 84.4339 0.804179C84.6748 0.943595 84.8015 1.14638 84.8015 1.38719V1.43789V1.46324ZM94.7507 9.14377L94.7634 9.13109C94.5859 9.13109 94.079 9.19446 93.2425 9.33388C92.406 9.46062 91.7723 9.58736 91.3667 9.70143C90.3274 10.0056 89.6684 10.145 89.3895 10.145C89.2121 10.145 89.06 10.1197 88.9333 10.069H88.9459C88.8699 10.0436 88.8192 10.031 88.8192 10.031C88.7685 10.031 88.6164 10.2844 88.3503 10.8041C87.894 11.7039 87.5264 12.287 87.2476 12.5911C86.9688 12.8826 86.7026 13.0347 86.4618 13.0347C86.2463 13.0347 85.9929 12.9207 85.714 12.7052C85.4225 12.4897 85.2831 12.2616 85.2831 12.0335C85.2831 11.7927 85.6507 11.159 86.3984 10.145C87.7799 8.28192 88.8192 6.723 89.4909 5.45559C90.5175 3.55447 91.2907 2.26171 91.7976 1.56463C92.3173 0.880224 92.7355 0.525349 93.0524 0.525349C93.8635 0.525349 94.2691 0.829527 94.2691 1.42521C94.2691 1.61532 94.2437 1.78009 94.2057 1.94485C94.4592 2.74332 94.6747 3.33901 94.8267 3.74458C94.8774 3.84597 95.3591 5.10071 96.2843 7.53415C96.5251 8.1932 96.8546 8.89028 97.2602 9.61271C97.6657 10.3478 98.008 10.8168 98.2614 11.0449C99.0979 11.742 99.5162 12.287 99.5162 12.7052C99.5162 13.0221 99.4021 13.3009 99.1993 13.529C98.9839 13.7572 98.7304 13.8839 98.4389 13.8839C97.7672 13.8839 96.994 13.1488 96.0942 11.6913C95.207 10.2211 94.7507 9.3719 94.7507 9.13109V9.14377ZM94.079 7.4581C93.7621 6.63428 93.4453 5.74709 93.1157 4.79653C92.8496 4.04876 92.7102 3.66854 92.6975 3.64319C92.6595 3.70656 91.899 5.03734 90.3908 7.64822C90.264 7.87635 90.1753 8.02844 90.1373 8.10449L94.079 7.44543V7.4581ZM111.328 1.50126C111.328 1.6787 111.176 2.10962 110.872 2.80669C110.568 3.47842 110.264 4.65712 109.96 6.33011C109.643 8.00309 109.491 9.30853 109.491 10.2591L109.617 12.7559V13.0347C109.617 13.1615 109.516 13.2882 109.326 13.415C109.136 13.5417 108.958 13.6177 108.832 13.6177C108.109 13.6177 107.691 13.2882 107.59 12.6165L107.577 12.3757C107.564 12.1982 107.577 11.6786 107.602 10.7787C107.628 9.87887 107.678 9.04237 107.754 8.2439C107.488 8.47204 106.639 9.21981 105.182 10.5126C104.599 11.0322 104.244 11.3364 104.142 11.4251C102.989 12.3883 102.216 13.0981 101.836 13.5924C101.798 13.6558 101.671 13.7445 101.481 13.8585C101.291 13.9599 101.138 14.0233 101.05 14.0233C100.467 14.0233 100.074 13.6177 99.8457 12.8066C99.8457 12.6165 100.239 12.1982 101.024 11.5645L101.126 11.4758C102.038 10.6647 103.432 9.58736 105.321 8.25658C105.258 8.25658 105.182 8.26925 105.093 8.2946C104.649 8.37064 104.358 8.40867 104.206 8.40867C103.382 8.40867 102.659 8.16786 102.013 7.67356C101.367 7.17927 101.05 6.55824 101.05 5.78512C101.05 4.98665 101.354 4.23887 101.988 3.54179C102.609 2.85739 103.458 2.26171 104.535 1.78009C105.612 1.29847 106.614 0.981618 107.552 0.842202C108.489 0.702787 108.996 0.626742 109.098 0.626742C109.225 0.626742 109.389 0.664764 109.605 0.728135C109.681 0.690113 109.833 0.664763 110.061 0.664763C110.327 0.664763 110.593 0.740808 110.86 0.905572C111.126 1.07034 111.29 1.26045 111.328 1.50126ZM108.832 2.71798C108.806 2.66728 108.743 2.60391 108.629 2.54054C108.515 2.47717 108.426 2.45182 108.375 2.45182C107.919 2.45182 107.26 2.56589 106.398 2.80669C105.536 3.0475 104.776 3.4404 104.117 3.98539C103.458 4.53038 103.128 5.13874 103.128 5.78512C103.128 6.07662 103.255 6.30476 103.521 6.49487C103.787 6.68498 104.079 6.7737 104.421 6.7737C105.029 6.7737 105.688 6.723 106.398 6.62161C107.108 6.52022 107.64 6.39348 108.008 6.22871H107.995C108.084 6.12732 108.249 5.60768 108.489 4.65712C108.73 3.70656 108.857 3.07285 108.857 2.76867V2.7053L108.832 2.71798Z" fill="white"/>
<path d="M111.328 1.50126C111.328 1.6787 111.176 2.10962 110.872 2.80669C110.568 3.47842 110.264 4.65712 109.96 6.33011C109.643 8.00309 109.491 9.30853 109.491 10.2591L109.617 12.7559V13.0347C109.617 13.1615 109.516 13.2882 109.326 13.415C109.136 13.5417 108.958 13.6177 108.832 13.6177C108.109 13.6177 107.691 13.2882 107.59 12.6165L107.577 12.3757C107.564 12.1982 107.577 11.6786 107.602 10.7787C107.628 9.87887 107.678 9.04237 107.754 8.2439C107.488 8.47204 106.639 9.21981 105.182 10.5126C104.599 11.0322 104.244 11.3364 104.142 11.4251C102.989 12.3883 102.216 13.0981 101.836 13.5924C101.798 13.6558 101.671 13.7445 101.481 13.8585C101.291 13.9599 101.138 14.0233 101.05 14.0233C100.467 14.0233 100.074 13.6177 99.8457 12.8066C99.8457 12.6165 100.239 12.1982 101.024 11.5645L101.126 11.4758C102.038 10.6647 103.432 9.58736 105.321 8.25658C105.258 8.25658 105.182 8.26925 105.093 8.2946C104.649 8.37064 104.358 8.40867 104.206 8.40867C103.382 8.40867 102.659 8.16786 102.013 7.67356C101.367 7.17927 101.05 6.55824 101.05 5.78512C101.05 4.98665 101.354 4.23887 101.988 3.54179C102.609 2.85739 103.458 2.26171 104.535 1.78009C105.612 1.29847 106.614 0.981618 107.552 0.842202C108.489 0.702787 108.996 0.626742 109.098 0.626742C109.225 0.626742 109.389 0.664764 109.605 0.728135C109.681 0.690113 109.833 0.664763 110.061 0.664763C110.327 0.664763 110.593 0.740808 110.86 0.905572C111.126 1.07034 111.29 1.26045 111.328 1.50126ZM111.328 1.50126V1.51393M10.9873 3.52912C10.9366 3.56714 10.8986 3.69388 10.8605 3.884C10.8225 4.08678 10.7085 4.99932 10.531 6.63429C10.3536 8.26925 10.2522 9.57469 10.2522 10.5506C10.2522 10.9815 10.3156 11.4378 10.4296 11.9194C10.4676 12.0335 10.4803 12.1222 10.4803 12.1729C10.4803 12.4517 10.3916 12.7052 10.2015 12.946C10.0241 13.1741 9.79592 13.3009 9.52976 13.3009C9.35232 13.3009 9.12419 13.2122 8.84536 13.0474C8.56653 12.87 8.40176 12.5785 8.35107 12.1729C8.30037 11.7546 8.27501 11.2223 8.27501 10.5506C8.27501 9.70143 8.38908 8.35797 8.60455 6.52022C8.82001 4.68247 8.94675 3.75725 8.9721 3.73191C8.82001 3.73191 8.22432 3.76993 7.15969 3.84597C6.09507 3.92202 5.47403 3.96004 5.30927 3.96004C4.75161 3.96004 4.35871 3.884 4.14325 3.74458C3.92779 3.60516 3.81372 3.37703 3.81372 3.07285C3.81372 2.80669 3.92779 2.59123 4.15592 2.45182C4.38406 2.3124 4.96707 2.23636 5.91763 2.23636C7.47655 2.23636 9.01012 2.13496 10.5183 1.93218C12.2167 1.67869 13.4968 1.55195 14.3713 1.55195C15.3472 1.55195 15.9429 1.66602 16.1583 1.89416C16.3738 2.12229 16.4752 2.35042 16.4752 2.56588C16.4752 3.08552 16.2471 3.33901 15.7781 3.33901C15.626 3.33901 15.3852 3.32633 15.043 3.28831C14.7008 3.26296 14.2952 3.25029 13.839 3.25029C12.4702 3.25029 11.5196 3.33901 10.9873 3.52912ZM28.0467 5.82314C27.7932 8.07914 27.6665 9.72678 27.6665 10.7914C27.6665 10.9942 27.7172 11.2984 27.8059 11.7039C27.8946 12.1222 27.9326 12.4137 27.9326 12.6038C27.9326 12.908 27.8185 13.1488 27.6158 13.3262C27.4003 13.5037 27.1088 13.5924 26.7286 13.5924C26.3357 13.5924 26.0442 13.3896 25.8541 12.9967C25.6639 12.6038 25.5626 11.9321 25.5626 10.9942C25.5626 9.95491 25.74 8.12983 26.0949 5.51896L26.1329 5.12606C26.0695 5.18943 25.9935 5.27815 25.9174 5.36687C25.5119 5.84849 25.2584 6.12732 25.1697 6.21604L25.1823 6.20336C24.1557 7.34404 23.2939 8.20588 22.6221 8.77622C22.2926 9.05505 21.8744 9.4226 21.3674 9.87887C20.8604 10.3351 20.4929 10.6393 20.2521 10.8168C19.5804 11.311 19.1368 11.7293 18.9467 12.0588C18.6171 12.6292 18.4017 12.9587 18.3003 13.0347H18.3129C18.1102 13.2755 17.768 13.3896 17.299 13.3896C16.7287 13.3896 16.4372 13.0728 16.4372 12.439C16.4372 12.287 16.5259 11.6532 16.7033 10.5379C16.8681 9.47329 17.1216 7.12858 17.4764 3.4911C17.5652 2.56589 17.6412 1.98287 17.7046 1.71672C17.768 1.45056 17.92 1.20975 18.1482 0.981616C18.3763 0.753482 18.5918 0.639416 18.8072 0.639416C19.1368 0.639416 19.4029 0.766157 19.6057 1.00697C19.8085 1.24777 19.9099 1.50126 19.9099 1.75474C19.9099 1.85613 19.8592 2.13496 19.7578 2.60391C19.6691 3.06018 19.6057 3.37703 19.593 3.54179C19.593 3.55447 19.5423 3.93469 19.4409 4.65712L19.1621 6.59626C19.0607 7.12858 18.934 8.18053 18.7819 9.75212C19.2762 9.3212 20.176 8.49738 21.4941 7.26799C21.6462 7.12858 21.735 7.03986 21.7857 7.01451C22.8249 6.12732 23.5347 5.44292 23.9149 4.94862C23.9529 4.9106 24.5866 4.13748 25.816 2.64193C25.9174 2.51519 25.9808 2.43914 26.0061 2.4138C26.323 1.98288 26.6018 1.69137 26.8046 1.53928C27.0201 1.38719 27.2609 1.29847 27.527 1.29847C27.8185 1.29847 28.0467 1.39987 28.2241 1.60265C28.3889 1.80544 28.4776 2.0209 28.4776 2.24903L28.034 5.83581L28.0467 5.82314ZM34.5105 5.67105V5.65838C34.4851 5.92453 34.3204 6.98916 34.0035 8.86494C33.8895 9.54934 33.8134 9.95491 33.8007 10.069L33.7501 10.4492C33.6487 11.235 33.598 11.7673 33.598 12.0461L33.636 12.5278C33.636 13.1361 33.3065 13.4403 32.6601 13.4403C31.9123 13.4403 31.5321 13.0347 31.5321 12.2236C31.5321 11.742 31.6335 10.9562 31.8489 9.86619C31.9123 9.56201 31.9757 9.20714 32.039 8.81424C32.0517 8.70017 32.0897 8.48471 32.1531 8.18053C32.5587 6.0893 32.7615 4.5684 32.7615 3.60517C32.7615 3.46575 32.7361 3.40238 32.6727 3.40238C31.9883 3.33901 31.6461 3.07285 31.6461 2.57856C31.6461 2.27438 31.7349 2.03357 31.9123 1.84346C32.0897 1.65335 32.3179 1.56463 32.6094 1.55195C33.0403 1.52661 33.3571 1.46323 33.5853 1.32382C33.8134 1.20975 34.0162 1.15906 34.1936 1.15906C34.4851 1.15906 34.726 1.22243 34.9161 1.32382C35.0682 1.41254 35.5117 1.45056 36.2468 1.45056C36.2595 1.45056 36.8172 1.43789 37.9325 1.39986C39.0478 1.36184 39.6308 1.33649 39.6942 1.32382C39.7576 1.29847 39.859 1.26045 40.0237 1.19708C40.2519 1.09568 40.4673 1.05766 40.6955 1.05766C40.8729 1.05766 41.0123 1.07034 41.101 1.09568C41.1771 1.13371 41.2531 1.14638 41.3292 1.14638L42.115 1.09568C42.3178 1.08301 42.5206 1.13371 42.698 1.26045C42.8754 1.38719 42.9641 1.58998 42.9641 1.86881C42.9641 2.16031 42.8628 2.4138 42.6473 2.61658C42.4318 2.81937 42.191 2.93344 41.9122 2.95878C41.8488 2.95878 41.7855 2.99681 41.7094 3.07285C41.646 3.13622 41.532 3.56714 41.3545 4.36561C41.1898 5.16408 41.025 6.36813 40.8729 7.96507C40.7208 9.57469 40.6448 11.0322 40.6448 12.3377C40.6448 12.6292 40.5307 12.87 40.3153 13.0728C40.0998 13.2755 39.9224 13.3769 39.8083 13.3769C38.9971 13.3769 38.6042 12.7179 38.6042 11.3998C38.6042 10.2084 38.8957 7.5595 39.4788 3.46575C39.5041 3.27564 39.5168 3.17424 39.5168 3.1489C39.5168 3.11087 39.4661 3.07285 39.3774 3.06018C39.2886 3.0475 38.8831 3.03483 38.186 3.03483H36.7031C36.1581 3.03483 35.7399 3.07285 35.4611 3.12355C35.1822 3.17424 35.0048 3.23762 34.9414 3.28831C34.878 3.35168 34.802 3.55447 34.726 3.93469C34.6499 4.30224 34.5739 4.88525 34.5105 5.67105ZM56.2086 5.83581C55.9551 8.09181 55.8284 9.73945 55.8284 10.8041C55.8284 11.0069 55.8791 11.311 55.9678 11.7166C56.0565 12.1349 56.0946 12.4264 56.0946 12.6165C56.0946 12.9207 55.9805 13.1615 55.7777 13.3389C55.5622 13.5163 55.2707 13.6051 54.8905 13.6051C54.4976 13.6051 54.2061 13.4023 54.016 13.0094C53.8259 12.6165 53.7245 11.9448 53.7245 11.0069C53.7245 9.96759 53.9019 8.14251 54.2568 5.53163L54.2948 5.13874C54.2315 5.20211 54.1554 5.29083 54.0794 5.37955C53.6738 5.86116 53.4203 6.13999 53.3316 6.22871L53.3443 6.21604C52.3177 7.35671 51.4558 8.21855 50.7841 8.78889C50.4546 9.06772 50.0363 9.43527 49.5294 9.89154C49.0224 10.3478 48.6548 10.652 48.414 10.8294C47.7423 11.3237 47.2987 11.742 47.1086 12.0715C46.7791 12.6418 46.5636 12.9714 46.4622 13.0474H46.4749C46.2721 13.2882 45.9299 13.4023 45.461 13.4023C44.8906 13.4023 44.5991 13.0854 44.5991 12.4517C44.5991 12.2996 44.6878 11.6659 44.8653 10.5506C45.03 9.48597 45.2835 7.14125 45.6384 3.50377C45.7271 2.57856 45.8032 1.99555 45.8665 1.72939C45.9299 1.46323 46.082 1.22243 46.3101 0.994291C46.5383 0.766156 46.7537 0.652091 46.9692 0.652091C47.2987 0.652091 47.5649 0.778831 47.7677 1.01964C47.9704 1.26045 48.0718 1.51393 48.0718 1.76741C48.0718 1.86881 48.0211 2.14764 47.9197 2.61658C47.831 3.07285 47.7676 3.3897 47.755 3.55447C47.755 3.56714 47.7043 3.94737 47.6029 4.66979L47.3241 6.60894C47.2227 7.14125 47.0959 8.1932 46.9438 9.7648C47.4381 9.33388 48.338 8.51006 49.6561 7.28067C49.8082 7.14125 49.8969 7.05253 49.9476 7.02718C50.9869 6.13999 51.6966 5.45559 52.0769 4.9613C52.1149 4.92328 52.7486 4.15015 53.978 2.65461C54.0794 2.52786 54.1427 2.45182 54.1681 2.42647C54.4849 1.99555 54.7638 1.70404 54.9666 1.55195C55.182 1.38719 55.4228 1.31114 55.689 1.31114C55.9805 1.31114 56.2086 1.41254 56.3861 1.61532C56.5508 1.81811 56.6396 2.03357 56.6396 2.26171L56.196 5.84849L56.2086 5.83581ZM67.9449 6.39348C67.7801 6.4822 67.0323 6.88777 65.7016 7.6102C65.2326 7.86368 64.6876 8.09181 64.0666 8.28192C63.4456 8.47204 62.8879 8.57343 62.3936 8.57343C61.6585 8.57343 61.0882 8.37064 60.6699 7.9524C60.2517 7.53415 60.0489 6.54557 60.0489 4.97397C60.0489 4.31492 60.1503 3.47842 60.3531 2.48984C60.5559 1.50126 60.86 0.930922 61.2529 0.753484C61.6458 0.58872 61.9373 0.5 62.1275 0.5C62.3302 0.5 62.495 0.614068 62.6217 0.842202C62.7485 1.07034 62.8119 1.36184 62.8119 1.71672C62.8119 1.84346 62.6851 2.40112 62.419 3.41505C62.1528 4.45433 62.0261 5.24013 62.0261 5.79779C62.0261 6.19069 62.0894 6.45685 62.2035 6.59626C62.3176 6.73568 62.5077 6.79905 62.7485 6.79905C63.0907 6.79905 63.8131 6.55824 64.9284 6.07662C66.0438 5.59501 66.7789 5.21478 67.1464 4.9106C67.514 4.6191 67.7548 4.39096 67.8942 4.25155C68.0336 4.11213 68.1097 3.70656 68.1097 3.03483C68.1097 2.76867 68.097 2.47717 68.0716 2.16031C68.0336 1.65335 68.1477 1.24778 68.4392 0.968944C68.718 0.677439 69.0729 0.538023 69.4658 0.538023C69.7066 0.538023 69.9347 0.626741 70.1502 0.816854C70.3656 0.994292 70.467 1.24777 70.467 1.55195C70.467 1.71672 70.4163 2.09694 70.315 2.66728C70.2009 3.32633 70.0234 4.74584 69.7953 6.91312C69.5672 9.08039 69.4404 10.5506 69.4024 11.3364C69.3771 11.8941 69.3517 12.3377 69.3264 12.6799C69.301 13.0094 69.1616 13.2755 68.8954 13.4783C68.642 13.6811 68.3378 13.7698 67.9956 13.7698C67.7041 13.7698 67.4886 13.6304 67.3239 13.3643C67.1591 13.0981 67.083 12.7812 67.083 12.4137C67.083 11.9574 67.1971 11.0956 67.4379 9.84084C67.514 9.38458 67.6787 8.23123 67.9069 6.39348H67.9449ZM84.8015 1.46324C84.8015 1.86881 84.6621 2.73065 84.3959 4.06143C83.8383 6.84975 83.5214 9.60004 83.458 12.2743C83.458 12.6038 83.3059 12.8953 83.0144 13.1234C82.7229 13.3643 82.4061 13.4783 82.0892 13.4783C81.8484 13.4783 81.6203 13.3896 81.4175 13.1995C81.2147 13.0221 81.1133 12.8193 81.1133 12.6038C81.1133 12.3757 81.202 11.742 81.3795 10.69C81.5569 9.65073 81.6456 8.90296 81.6456 8.45936C81.6456 8.2946 81.6076 8.20588 81.5316 8.20588C81.3668 8.20588 80.9105 8.2439 80.1374 8.31995C79.3643 8.39599 78.87 8.43401 78.6419 8.43401C78.4898 8.43401 77.9828 8.47204 77.121 8.52273C76.2718 8.5861 75.8029 8.6368 75.7015 8.6875C75.6761 8.6875 75.6381 9.29586 75.5747 10.5126C75.5114 11.6406 75.3846 12.4264 75.2198 12.8446C75.0424 13.2629 74.7763 13.4656 74.396 13.4656C74.0031 13.4656 73.7116 13.3389 73.5215 13.0728C73.3314 12.8193 73.2427 12.5531 73.2427 12.287C73.2427 12.0842 73.3061 11.7039 73.4455 11.1463C73.5595 10.69 73.8764 8.11716 74.4214 3.40238L74.5861 1.88148C74.6115 1.66602 74.7129 1.48858 74.8903 1.33649C75.0678 1.1844 75.2579 1.10836 75.4733 1.10836C75.8029 1.10836 76.0944 1.19708 76.3352 1.38719C76.576 1.5773 76.7027 1.79276 76.7154 2.04624V2.24903C76.7154 2.74332 76.6013 3.51644 76.3605 4.5684C76.1324 5.595 76.0183 6.31743 76.0183 6.74835C76.0183 6.8244 76.1451 6.86242 76.3985 6.86242C77.3618 6.86242 78.5024 6.81172 79.8206 6.69766C81.126 6.58359 81.8357 6.44417 81.9371 6.27941C82.0385 6.0386 82.1526 5.40489 82.2793 4.40364C82.4061 3.3897 82.4948 2.40112 82.5201 1.42521C82.5201 1.29847 82.6596 1.13371 82.9131 0.918247C83.1792 0.702786 83.4327 0.588719 83.6862 0.588719C83.9397 0.588719 84.1931 0.664764 84.4339 0.804179C84.6748 0.943595 84.8015 1.14638 84.8015 1.38719V1.43789V1.46324ZM94.7507 9.14377L94.7634 9.13109C94.5859 9.13109 94.079 9.19446 93.2425 9.33388C92.406 9.46062 91.7723 9.58736 91.3667 9.70143C90.3274 10.0056 89.6684 10.145 89.3895 10.145C89.2121 10.145 89.06 10.1197 88.9333 10.069H88.9459C88.8699 10.0436 88.8192 10.031 88.8192 10.031C88.7685 10.031 88.6164 10.2844 88.3503 10.8041C87.894 11.7039 87.5264 12.287 87.2476 12.5911C86.9688 12.8826 86.7026 13.0347 86.4618 13.0347C86.2463 13.0347 85.9929 12.9207 85.714 12.7052C85.4225 12.4897 85.2831 12.2616 85.2831 12.0335C85.2831 11.7927 85.6507 11.159 86.3984 10.145C87.7799 8.28192 88.8192 6.723 89.4909 5.45559C90.5175 3.55447 91.2907 2.26171 91.7976 1.56463C92.3173 0.880224 92.7355 0.525349 93.0524 0.525349C93.8635 0.525349 94.2691 0.829527 94.2691 1.42521C94.2691 1.61532 94.2437 1.78009 94.2057 1.94485C94.4592 2.74332 94.6747 3.33901 94.8267 3.74458C94.8774 3.84597 95.3591 5.10071 96.2843 7.53415C96.5251 8.1932 96.8546 8.89028 97.2602 9.61271C97.6657 10.3478 98.008 10.8168 98.2614 11.0449C99.0979 11.742 99.5162 12.287 99.5162 12.7052C99.5162 13.0221 99.4021 13.3009 99.1993 13.529C98.9839 13.7572 98.7304 13.8839 98.4389 13.8839C97.7671 13.8839 96.994 13.1488 96.0942 11.6913C95.207 10.2211 94.7507 9.3719 94.7507 9.13109V9.14377ZM94.079 7.4581C93.7621 6.63429 93.4453 5.74709 93.1157 4.79653C92.8496 4.04876 92.7102 3.66854 92.6975 3.64319C92.6595 3.70656 91.899 5.03734 90.3908 7.64822C90.264 7.87635 90.1753 8.02844 90.1373 8.10449L94.079 7.44543V7.4581ZM108.832 2.71798C108.806 2.66728 108.743 2.60391 108.629 2.54054C108.515 2.47717 108.426 2.45182 108.375 2.45182C107.919 2.45182 107.26 2.56588 106.398 2.80669C105.536 3.0475 104.776 3.4404 104.117 3.98539C103.458 4.53038 103.128 5.13874 103.128 5.78512C103.128 6.07662 103.255 6.30476 103.521 6.49487C103.787 6.68498 104.079 6.7737 104.421 6.7737C105.029 6.7737 105.688 6.723 106.398 6.62161C107.108 6.52022 107.64 6.39348 108.008 6.22871H107.995C108.084 6.12732 108.249 5.60768 108.489 4.65712C108.73 3.70656 108.857 3.07285 108.857 2.76867V2.7053L108.832 2.71798Z" stroke="white" stroke-width="0.160982" stroke-miterlimit="22.9256" stroke-linecap="round" stroke-linejoin="round"/>
<path d="M5.1191 27.1918V27.2045C5.18247 27.0905 5.24584 26.9764 5.29653 26.8877C5.49932 26.5455 6.2471 25.0372 7.52718 22.363C8.12287 21.1083 8.49042 20.3732 8.61716 20.1577C8.7439 19.9549 8.94669 19.7648 9.23819 19.6127C9.5297 19.4606 9.82121 19.3719 10.1127 19.3592C10.6957 19.3592 11.0759 19.486 11.2407 19.7268C11.4055 19.9803 11.5956 20.728 11.8364 21.9954C11.9251 22.4771 12.0138 22.87 12.1026 23.1995C12.1786 23.491 12.2166 23.6684 12.2293 23.7572C12.5461 25.164 12.9137 26.4948 13.3319 27.7242C13.7502 28.9536 14.0797 29.7267 14.3205 30.0182C14.4853 29.9928 14.6754 29.9928 14.8782 29.9928C15.2711 29.9928 15.5372 30.0562 15.6767 30.1703C15.8161 30.297 15.8794 30.5378 15.8794 30.8927C15.8794 31.6785 15.8161 32.8318 15.702 34.3654C15.6513 34.9104 15.6386 35.2019 15.6386 35.2526C15.6386 35.4554 15.5372 35.6582 15.3218 35.861C15.119 36.0511 14.8528 36.1525 14.5233 36.1525C14.3839 36.1525 14.2445 36.1018 14.0924 36.0131C13.9403 35.9243 13.8389 35.8356 13.7755 35.7596C13.7122 35.6835 13.6741 35.5314 13.6741 35.3033C13.6741 35.0878 13.7122 34.6442 13.7882 33.9725C13.8516 33.3515 13.8769 32.9713 13.8769 32.8065C13.8769 32.1855 13.8136 31.8686 13.6995 31.8686C12.5968 31.8686 9.42831 32.0967 4.19388 32.5657C3.68692 32.6037 3.42076 32.6544 3.39541 32.7304C3.14193 33.4782 3.00252 34.2133 3.00252 34.9231V35.354C3.00252 36.0384 2.67299 36.4059 2.01394 36.482L1.92521 36.4947C1.65905 36.52 1.4436 36.4566 1.26616 36.3046C1.08872 36.1525 1 35.9243 1 35.6328C1 35.2906 1.08872 34.4288 1.27883 33.0093C1.30418 32.7431 1.32953 32.4896 1.3422 32.2615C1.35488 31.932 1.41825 31.6531 1.55767 31.4504C1.68441 31.2476 1.95056 31.1082 2.34346 31.0448C2.63497 30.9687 2.88845 30.7786 3.10391 30.4745C3.1546 30.3984 3.2053 30.3224 3.26867 30.2463C3.56018 29.8027 4.16854 28.8015 5.10642 27.2172L5.1191 27.1918ZM5.35991 30.7913L11.8998 30.259C11.735 29.6126 11.5195 28.9155 11.2661 28.1678C10.9999 27.42 10.8225 26.875 10.7337 26.5455C10.3789 25.3161 10.1254 24.2768 9.9733 23.4276L9.73248 22.2743C9.64376 22.4644 9.17483 23.415 8.31299 25.126C7.45114 26.837 6.83011 28.041 6.44988 28.7127C5.74013 29.9675 5.37258 30.6519 5.35991 30.7533L5.37258 30.7786L5.35991 30.7913ZM22.7995 32.5657H21.3166C20.3914 32.5657 19.5676 32.0841 18.8452 31.1082C18.1228 30.1449 17.7679 29.2197 17.7679 28.3198C17.7679 27.0017 18.1228 25.6456 18.8198 24.2768C19.5169 22.908 20.4041 21.7927 21.4687 20.9562C22.5334 20.1197 23.56 19.7014 24.5739 19.7014C24.6119 19.7014 24.8527 19.6761 25.309 19.6254C25.7653 19.5747 26.2089 19.5493 26.6144 19.5493C27.3115 19.5493 27.8945 19.6634 28.3635 19.9042C28.8324 20.1324 29.3014 20.4872 29.7957 20.9435C30.2773 21.3998 30.6575 21.9574 30.9237 22.6165C31.1898 23.2882 31.3292 23.9599 31.3292 24.657C31.3292 25.5696 30.8476 26.6722 29.8844 27.965C28.9211 29.2577 27.7551 30.3477 26.4117 31.2349C25.0682 32.1221 23.8642 32.5657 22.7869 32.5657H22.7995ZM29.1239 24.7457C29.1493 23.4783 28.8197 22.5531 28.11 21.9954C27.4129 21.4378 26.8426 21.1463 26.3863 21.1463C26.2722 21.1463 26.0695 21.1843 25.7906 21.2477C25.4357 21.3237 25.1696 21.3744 25.0175 21.3871C23.4586 21.7546 22.1785 22.7052 21.1899 24.2261C20.2013 25.747 19.707 27.1285 19.707 28.3579C19.707 29.093 19.9352 29.7013 20.3788 30.1829C20.835 30.6772 21.3547 30.918 21.9504 30.918C22.9389 30.918 23.9782 30.5758 25.0809 29.9168C26.1708 29.2451 27.1214 28.4339 27.8945 27.5087C28.6803 26.5708 29.0732 25.8864 29.0859 25.4682L29.0986 24.7584L29.1239 24.7457ZM42.1276 29.1944C42.5458 29.1944 42.7613 29.3971 42.7613 29.8027C42.7613 30.3097 42.1403 30.9307 40.9109 31.6658C39.6815 32.4009 38.4774 32.7685 37.3241 32.7685C36.2975 32.7685 35.3596 32.4389 34.5104 31.7799C33.6486 31.1335 33.2303 30.1703 33.2303 28.9282C33.2303 27.6481 33.6739 26.2413 34.5738 24.6824C35.4737 23.1234 36.5763 21.8687 37.9071 20.8801C39.2379 19.9042 40.5307 19.4226 41.7854 19.4226C42.5332 19.4226 43.1415 19.6381 43.5851 20.0817C44.0414 20.5252 44.2569 21.0322 44.2569 21.6279C44.2569 22.2616 44.2062 22.7179 44.1048 22.9967C44.0034 23.2755 43.7879 23.5163 43.4584 23.7065C43.1288 23.9092 42.8627 24.0106 42.6472 23.998C42.4318 23.998 42.2543 23.9219 42.0896 23.7698C41.9375 23.6304 41.8488 23.415 41.8488 23.1741C41.8488 22.9967 41.8995 22.7432 41.9882 22.401C42.0769 22.0715 42.1149 21.78 42.1149 21.5645C42.1149 21.1843 41.9882 20.9942 41.722 20.9942C40.9109 20.9942 40.011 21.4124 39.0098 22.2616C38.0085 23.1108 37.1467 24.1627 36.4369 25.4175C35.7145 26.6722 35.3596 27.7749 35.3596 28.7381C35.3596 29.3718 35.5497 29.9168 35.9173 30.3477C36.2975 30.7913 36.8425 31.0068 37.5649 31.0068C37.9831 31.0068 38.5281 30.8927 39.1745 30.6646C39.8209 30.4364 40.4166 30.1322 40.9616 29.752C41.5192 29.3591 41.8995 29.169 42.1022 29.169L42.1276 29.1944ZM51.9627 22.287C51.912 22.325 51.8613 22.4517 51.8233 22.6545C51.7853 22.8573 51.6712 23.7952 51.4811 25.4935C51.291 27.1792 51.2023 28.5226 51.2023 29.5366C51.2023 29.9802 51.2656 30.4491 51.3797 30.9434C51.4177 31.0701 51.4431 31.1462 51.4431 31.1969C51.4431 31.4884 51.3544 31.7545 51.1516 31.9953C50.9615 32.2362 50.7333 32.3502 50.4545 32.3502C50.2771 32.3502 50.0363 32.2615 49.7574 32.0841C49.4786 31.9066 49.3012 31.6024 49.2505 31.1715C49.1998 30.7406 49.1617 30.1829 49.1744 29.4985C49.1744 28.624 49.2885 27.2425 49.5166 25.3414C49.7447 23.4403 49.8715 22.4897 49.8968 22.4644C49.7448 22.4644 49.1237 22.5024 48.0211 22.5911C46.9184 22.6672 46.2847 22.7179 46.1073 22.7179C45.5369 22.7179 45.1314 22.6418 44.9032 22.5024C44.6751 22.3503 44.5737 22.1222 44.5737 21.818C44.5737 21.5392 44.6878 21.3237 44.9286 21.1716C45.1694 21.0195 45.7777 20.9562 46.741 20.9562C48.3506 20.9562 49.9349 20.8548 51.4938 20.6393C53.2428 20.3732 54.5609 20.2464 55.4608 20.2464C56.4747 20.2464 57.0831 20.3605 57.2985 20.6013C57.514 20.8294 57.6281 21.0702 57.6281 21.2984C57.6281 21.8307 57.3873 22.0968 56.9056 22.0968C56.7536 22.0968 56.5001 22.0842 56.1579 22.0461C55.803 22.0208 55.3974 22.0081 54.9158 22.0081C53.4963 22.0081 52.5204 22.1095 51.9754 22.2996L51.9627 22.287ZM64.9284 28.0537L64.9411 28.041C64.7509 28.041 64.2313 28.1171 63.3695 28.2438C62.5076 28.3832 61.8612 28.51 61.4303 28.624C60.353 28.9282 59.6813 29.0803 59.4025 29.0803C59.225 29.0803 59.0729 29.0549 58.9335 29.0043H58.9462C58.8575 28.9789 58.8194 28.9662 58.8068 28.9662C58.7561 28.9662 58.5913 29.2324 58.3251 29.7647C57.8562 30.6899 57.476 31.2983 57.1972 31.6024C56.9056 31.9066 56.6395 32.0587 56.386 32.0587C56.1705 32.0587 55.9044 31.9447 55.6129 31.7165C55.3087 31.4884 55.1566 31.2602 55.1566 31.0194C55.1566 30.766 55.5368 30.1196 56.31 29.0676C57.7421 27.1412 58.8068 25.5315 59.5038 24.2388C60.5558 22.2743 61.3543 20.9435 61.8866 20.2337C62.4189 19.524 62.8498 19.1691 63.1793 19.1691C64.0158 19.1691 64.4341 19.4733 64.4341 20.0943C64.4341 20.2844 64.4087 20.4619 64.3707 20.6266C64.6369 21.4505 64.8523 22.0715 65.0171 22.4771C65.0678 22.5785 65.5748 23.8712 66.5253 26.3807C66.7788 27.0524 67.1083 27.7749 67.5392 28.5353C67.9575 29.2958 68.2997 29.7774 68.5658 30.0055C69.4277 30.7153 69.8586 31.2856 69.8586 31.7165C69.8586 32.046 69.7445 32.3375 69.5291 32.5657C69.3136 32.8065 69.0475 32.9332 68.7433 32.9332C68.0589 32.9332 67.2477 32.1855 66.3352 30.6646C65.41 29.1563 64.9537 28.2691 64.9537 28.0283L64.9284 28.0537ZM64.2313 26.3173C63.9018 25.4682 63.5722 24.5556 63.2427 23.567C62.9766 22.7939 62.8245 22.401 62.8118 22.3883C62.7738 22.4517 61.988 23.8332 60.4291 26.5201C60.2896 26.7609 60.2009 26.913 60.1629 26.9891L64.2313 26.3173ZM79.9599 21.9954V21.9574C79.9599 21.818 79.8205 21.6532 79.5417 21.4631C79.2628 21.273 78.946 21.1716 78.6038 21.1716C77.5772 21.1716 76.6646 21.2857 75.8535 21.5138C75.6127 21.5772 75.4606 21.6406 75.3972 21.6913C75.3338 21.7546 75.1437 22.3503 74.8649 23.4783C74.5734 24.619 74.3326 25.8357 74.1552 27.1285L74.0918 27.5847C73.8256 29.1817 73.6862 30.259 73.6862 30.8166C73.6862 31.2476 73.5721 31.5644 73.3313 31.7926C73.0905 32.0207 72.7863 32.1221 72.3934 32.1221C72.1146 32.1221 71.8865 31.9953 71.709 31.7165C71.5316 31.4504 71.4429 31.1208 71.4429 30.7406C71.4429 30.6139 71.4936 30.3097 71.6076 29.8281C71.7851 29.0803 72.0766 27.7622 72.4695 25.8611C72.8751 23.9599 73.0652 22.984 73.0652 22.946C73.0652 22.6545 72.9891 22.5151 72.8244 22.5151C72.5709 22.5151 72.3427 22.439 72.1526 22.2616C71.9625 22.0968 71.8738 21.9067 71.8738 21.6786C71.8738 21.0829 72.685 20.5506 74.2946 20.107C75.9042 19.6634 77.5265 19.4353 79.1361 19.4353C79.8458 19.4353 80.5302 19.6888 81.202 20.1704C81.8737 20.6647 82.2032 21.2223 82.2032 21.8307C82.2032 22.1856 81.9878 22.6799 81.5442 23.3136C81.1006 23.9473 80.5429 24.5683 79.8458 25.164C81.4174 25.4935 82.2032 26.5328 82.2032 28.2818C82.2032 29.0296 81.5695 29.9421 80.3021 31.0194C79.0347 32.0967 77.5645 32.6291 75.9042 32.6291C75.4733 32.6291 75.1184 32.5657 74.8396 32.4263C74.5734 32.2868 74.434 32.0967 74.434 31.8686C74.434 31.6912 74.4973 31.5011 74.6368 31.2856C74.7635 31.0828 74.9283 30.9307 75.1057 30.8293C75.2958 30.7279 75.5747 30.6772 75.9802 30.6392C77.2603 30.5632 78.2362 30.2336 78.9206 29.6633C79.5924 29.093 79.9346 28.624 79.9346 28.2565C79.9346 27.8636 79.7825 27.4707 79.4656 27.0651C79.1488 26.6595 78.7685 26.4694 78.3376 26.4694C78.2869 26.4694 78.1982 26.4948 78.0461 26.5455C77.2603 26.837 76.7914 26.9891 76.6393 26.9891C76.0816 26.9891 75.7267 26.913 75.5493 26.7483C75.3719 26.5835 75.2831 26.3427 75.2831 26.0132C75.2831 25.7723 75.5366 25.5442 76.0436 25.3161C76.7914 24.9865 77.3997 24.695 77.856 24.4162C78.3123 24.1374 78.7432 23.7698 79.1361 23.3262C79.529 22.8826 79.7951 22.4264 79.9472 21.9701L79.9599 21.9954ZM87.5897 27.9016C87.6404 28.2438 87.6278 28.6747 87.5517 29.2197C87.387 30.3731 87.2982 31.1082 87.2982 31.425C87.2982 31.6912 87.1461 31.9447 86.8546 32.1728C86.5631 32.4009 86.2336 32.515 85.8787 32.515C85.4478 32.515 85.2197 32.1601 85.2197 31.463C85.2197 31.387 85.245 30.9814 85.3084 30.2717L85.4605 28.4212C85.4858 28.0537 85.5492 26.6722 85.6379 24.2895C85.7266 21.9067 85.7773 20.5506 85.7773 20.2211C85.7773 19.8282 85.9041 19.524 86.1702 19.3085C86.4364 19.0804 86.7279 18.979 87.0574 18.979C87.3489 18.979 87.6024 19.0931 87.7799 19.3339C87.97 19.5747 88.0714 19.8028 88.0714 20.0183C88.0714 21.2603 87.9826 22.6418 87.7925 24.1501V24.1374C87.7418 24.7711 87.7165 25.24 87.7165 25.5696C88.4009 25.1006 89.2881 24.3148 90.4034 23.2375C91.4807 22.2109 92.2918 21.5012 92.8242 21.1209C92.8875 21.0702 92.9636 20.9815 93.065 20.8801C93.5212 20.4239 93.9648 20.107 94.3958 19.9422H94.3831C94.4465 19.9042 94.5478 19.8915 94.6746 19.8915C94.9534 19.8915 95.2322 20.0056 95.5364 20.2211C95.8279 20.4365 95.98 20.6266 95.98 20.7787C95.98 20.8801 95.9166 20.9688 95.8153 21.0449C95.3336 21.6025 94.4464 22.4137 93.141 23.491C91.7722 24.6063 90.7203 25.5315 89.9471 26.292C91.0625 26.7609 92.1397 27.1538 93.179 27.4834C93.179 27.4834 93.2171 27.496 93.2804 27.5214C93.6226 27.6861 93.8254 27.7875 93.9015 27.8129C94.1549 27.8762 94.5098 28.0157 94.9914 28.2311C95.5998 28.4973 96.1828 28.7001 96.7532 28.8648C97.3235 29.0296 97.653 29.1056 97.7164 29.1056C97.7671 29.0169 97.9065 28.9662 98.1346 28.9662C98.4388 28.9662 98.705 29.1183 98.9458 29.4098C99.1866 29.714 99.3133 29.9421 99.3133 30.1196C99.3133 30.4238 99.1993 30.6772 98.9585 30.8927C98.7176 31.1082 98.4261 31.2095 98.0839 31.2095C97.7164 31.2095 97.0827 31.0575 96.1448 30.7406C95.2196 30.4238 94.4591 30.1449 93.8381 29.8788C92.9256 29.4985 91.7976 29.0549 90.4541 28.548C89.1106 28.041 88.3375 27.7875 88.1347 27.7875C87.9066 27.7875 87.7292 27.8256 87.5897 27.9016ZM109.263 28.0664L109.275 28.0537C109.085 28.0537 108.565 28.1297 107.704 28.2565C106.842 28.3959 106.195 28.5226 105.764 28.6367C104.687 28.9409 104.015 29.093 103.737 29.093C103.559 29.093 103.407 29.0676 103.268 29.0169H103.28C103.192 28.9916 103.154 28.9789 103.141 28.9789C103.09 28.9789 102.925 29.2451 102.659 29.7774C102.19 30.7026 101.81 31.3109 101.531 31.6151C101.24 31.9193 100.974 32.0714 100.72 32.0714C100.505 32.0714 100.239 31.9573 99.947 31.7292C99.6429 31.5011 99.4908 31.2729 99.4908 31.0321C99.4908 30.7786 99.871 30.1322 100.644 29.0803C102.076 27.1538 103.141 25.5442 103.838 24.2514C104.89 22.287 105.688 20.9562 106.221 20.2464C106.753 19.5367 107.184 19.1818 107.514 19.1818C108.35 19.1818 108.768 19.486 108.768 20.107C108.768 20.2971 108.743 20.4745 108.705 20.6393C108.971 21.4631 109.186 22.0842 109.351 22.4897C109.402 22.5911 109.909 23.8839 110.859 26.3934C111.113 27.0651 111.442 27.7875 111.873 28.548C112.292 29.3084 112.634 29.79 112.9 30.0182C113.762 30.7279 114.193 31.2983 114.193 31.7292C114.193 32.0587 114.079 32.3502 113.863 32.5784C113.648 32.8192 113.382 32.9459 113.077 32.9459C112.393 32.9459 111.582 32.1981 110.669 30.6772C109.744 29.169 109.288 28.2818 109.288 28.041L109.263 28.0664ZM108.565 26.33C108.236 25.4808 107.906 24.5683 107.577 23.5797C107.311 22.8066 107.159 22.4137 107.146 22.401C107.108 22.4644 106.322 23.8459 104.763 26.5328C104.624 26.7736 104.535 26.9257 104.497 27.0017L108.565 26.33Z" fill="white" stroke="white" stroke-width="0.160982" stroke-miterlimit="22.9256" stroke-linecap="round" stroke-linejoin="round"/>
</svg>
