<svg width="369" height="22" viewBox="0 0 369 22" fill="none" xmlns="http://www.w3.org/2000/svg">
<g clip-path="url(#clip0_264_4746)">
<path d="M85.832 4.78888L88.4962 9.55095V12.4557L85.8351 17.2084L85.832 4.78888Z" fill="#5B57A2"/>
<path d="M96.0605 7.81775L98.557 6.28765L103.666 6.2829L96.0605 10.9421V7.81775Z" fill="#D90751"/>
<path d="M96.0469 4.76062L96.061 11.0654L93.3906 9.42462V0L96.0469 4.76062Z" fill="#FAB718"/>
<path d="M103.667 6.28302L98.5573 6.28778L96.0469 4.76062L93.3906 0L103.667 6.28302Z" fill="#ED6F26"/>
<path d="M96.061 17.2348V14.1759L93.3906 12.5662L93.3921 22.0002L96.061 17.2348Z" fill="#63B22F"/>
<path d="M98.5517 15.7187L88.496 9.55096L85.832 4.78888L103.656 15.7124L98.5517 15.7187Z" fill="#1487C9"/>
<path d="M93.3926 22.0002L96.0612 17.2348L98.5514 15.7186L103.656 15.7124L93.3926 22.0002Z" fill="#017F36"/>
<path d="M85.8359 17.2081L93.4137 12.5661L90.8661 11.003L88.497 12.4554L85.8359 17.2081Z" fill="#984995"/>
<path fill-rule="evenodd" clip-rule="evenodd" d="M114.962 13.9476C116.681 13.9476 117.958 12.8934 117.958 11.2954C117.958 9.7485 117.016 8.74429 115.442 8.74429C114.715 8.74429 114.116 8.99993 113.664 9.44125C113.772 8.52926 114.543 7.86324 115.392 7.86324C115.588 7.86324 117.064 7.8602 117.064 7.8602L117.898 6.26355C117.898 6.26355 116.046 6.3058 115.185 6.3058C113.217 6.34 111.888 8.12838 111.888 10.3004C111.888 12.8311 113.184 13.9476 114.962 13.9476ZM114.972 10.1585C115.611 10.1585 116.053 10.5779 116.053 11.2952C116.053 11.9406 115.66 12.4725 114.972 12.474C114.314 12.474 113.872 11.9811 113.872 11.3061C113.872 10.5887 114.314 10.1585 114.972 10.1585ZM124.597 8.37672V13.7553H122.676V9.98232H120.827V13.7553H118.906V8.37636L124.597 8.37672ZM109.194 12.2656C109.871 12.2162 110.325 11.9546 110.325 11.9546L111.035 13.2696C110.58 13.562 109.833 13.7521 109.292 13.7722C107.355 13.8078 106.008 12.6292 106.008 10.912C106.008 9.21659 107.441 8.00989 109.292 8.00989C110.025 8.00989 110.656 8.20661 111.129 8.56543C111.03 8.74196 110.894 8.98651 110.765 9.2205L110.559 9.59613L110.372 9.93916C110.372 9.93916 109.69 9.58179 109.174 9.58179C108.333 9.58179 107.721 10.0704 107.721 10.9228C107.721 11.7968 108.415 12.2887 109.194 12.2656Z" fill="white"/>
</g>
<path d="M163.574 10.3278L163.885 9.35006L162.873 9.3821C162.398 9.36461 161.941 9.20456 161.557 8.92231H161.694C162.311 8.91941 162.875 8.56727 163.149 8.01439L163.594 7.06285C163.245 7.06575 162.896 7.04536 162.55 7.00171C162.218 6.92316 161.921 6.74276 161.697 6.48667C161.394 6.16367 160.975 5.98033 160.533 5.97743C160.361 5.97743 160.19 6.00653 160.024 6.05888C160.047 5.98033 160.067 5.90178 160.082 5.82028C160.152 5.25284 159.992 4.67956 159.64 4.22853L158.871 3.28279L158.4 4.38856C158.324 4.54571 158.211 4.68251 158.065 4.78141C157.984 4.38566 157.792 4.02483 157.507 3.73965C157.029 3.25078 156.375 2.97724 155.691 2.98306C155.571 2.98306 155.452 2.99179 155.336 3.00925L154.416 3.18967C154.495 2.88121 154.62 2.58731 154.789 2.31668L155.295 1.52808L154.02 1.64739L153.613 0.774397L152.827 1.20216L152.1 0.483398L151.372 1.20216L150.587 0.794767L150.179 1.64739L148.905 1.50189L149.411 2.2934C149.58 2.56403 149.705 2.85793 149.783 3.16639L148.911 2.9947H148.881C148.759 2.97724 148.637 2.96851 148.515 2.96851C147.831 2.96269 147.176 3.23623 146.699 3.7251C146.411 4.01319 146.213 4.37986 146.134 4.78141C145.995 4.68541 145.881 4.55446 145.806 4.40021L145.331 3.2857L144.557 4.23435C144.211 4.68541 144.057 5.25574 144.124 5.82028C144.138 5.90178 144.159 5.98033 144.182 6.05888C144.016 6.00653 143.844 5.97743 143.673 5.97743C143.23 5.98033 142.811 6.16367 142.509 6.48667C142.287 6.73981 141.994 6.92026 141.665 7.00171C141.315 7.05411 140.96 7.07446 140.605 7.06285L141.039 8.02894C141.313 8.58182 141.877 8.93396 142.494 8.93686H142.631C142.253 9.21331 141.801 9.37335 141.333 9.39371L140.314 9.35006L140.626 10.3278C140.859 11.0932 141.519 11.6548 142.314 11.7566C142.232 12.2717 141.906 12.7169 141.441 12.9497L140.661 13.2669L141.08 13.9973C141.426 14.5356 142.023 14.8557 142.66 14.8499C142.826 14.8499 142.992 14.8324 143.155 14.7975C143.195 14.975 143.248 15.1525 143.306 15.3242C143.451 15.7084 143.46 16.1274 143.335 16.5173L142.957 17.3117L143.804 17.5358C143.993 17.5853 144.191 17.6086 144.386 17.6086C144.525 17.6086 144.662 17.594 144.799 17.562C144.898 17.5387 144.997 17.5096 145.09 17.4718C145.197 17.6668 145.334 17.8472 145.488 18.0072C146.03 18.5631 146.798 18.8453 147.773 18.8453H148.468L147.034 19.4418L148.122 19.9802C148.561 20.1955 149.009 20.3905 149.466 20.5622L149.335 20.9405L149.711 21.1122C150.333 21.3566 150.994 21.4934 151.663 21.5166H152.557C153.223 21.4934 153.881 21.3537 154.501 21.1093L154.864 20.9405L154.736 20.5622C155.199 20.3847 155.653 20.1839 156.095 19.9598L157.163 19.4418L155.731 18.8598H156.43C157.405 18.8598 158.176 18.5689 158.714 18.0218C158.871 17.8617 159.005 17.6813 159.113 17.4863C159.206 17.5242 159.305 17.5533 159.404 17.5766C159.541 17.6086 159.677 17.6231 159.817 17.6231C160.012 17.6231 160.21 17.5969 160.399 17.5504L161.249 17.3263L160.879 16.5464C160.74 16.1507 160.745 15.7171 160.894 15.3242C160.955 15.1467 161.004 14.9663 161.045 14.7859C161.208 14.8208 161.377 14.8383 161.543 14.8383C162.186 14.8441 162.785 14.5123 163.126 13.9653L163.539 13.2436L162.771 12.9293C162.305 12.6965 161.979 12.2513 161.898 11.7363C162.692 11.6315 163.353 11.0728 163.585 10.3045L163.574 10.3278Z" fill="white"/>
<path d="M155.598 13.418H148.614V16.0369C148.614 17.1137 149.391 17.7829 150.54 17.7829C151.501 17.7829 151.754 17.8207 152.109 18.1758C152.333 17.9342 152.65 17.7975 152.982 17.8033V17.7625L153.203 17.0816L152.828 16.6713C152.676 16.7179 152.519 16.7354 152.362 16.7266C152.126 16.7237 151.893 16.7004 151.663 16.6539H151.591C151.559 16.6539 151.559 16.6539 151.55 16.6713L151.506 16.7441L151.428 16.875L151.276 16.8401L150.604 16.683L150.511 16.8343V16.8518L150.593 16.942L150.558 17.0584C150.497 17.201 150.409 17.329 150.299 17.4396L150.13 17.62L149.976 17.4279L149.862 17.2853C149.74 17.1253 149.711 16.9158 149.781 16.7266L149.592 16.8052L149.507 16.619L149.461 16.488C149.341 16.2115 149.432 15.8914 149.673 15.7168L150.214 15.4258L150.729 15.5277C150.729 15.4782 150.761 15.3007 150.776 15.2571H150.747L150.456 15.3676L150.165 15.1698C150.107 15.1116 150.104 15.0156 150.165 14.9545L150.441 14.5354L149.74 13.6624L150.791 14.0756L150.863 13.9883L151.009 13.8137L151.175 13.9709C151.218 14.0145 151.247 14.0669 151.262 14.128C151.553 14.2444 152.091 14.5849 152.135 15.1378L151.969 15.2047C151.989 15.2338 152.016 15.2571 152.048 15.2716L152.816 15.3473L152.886 15.3269C153.017 15.2774 153.156 15.2512 153.296 15.2483C153.436 15.2483 153.572 15.2803 153.698 15.3414C153.753 15.3211 153.814 15.3094 153.872 15.3065H153.91C154.32 15.3065 154.527 15.615 154.69 15.8594L154.774 15.9817C154.917 16.1854 155.106 16.4822 155.115 16.4938L155.199 16.6248L155.094 16.747C154.998 16.875 154.847 16.9478 154.687 16.9478C154.64 16.9507 154.594 16.9507 154.547 16.9478C154.507 16.9391 154.466 16.9274 154.425 16.91C154.425 16.9507 154.425 17.0002 154.402 17.0409L154.282 17.7276C155.074 17.5676 155.633 16.8576 155.601 16.0486L155.598 13.418ZM148.605 13.2055H154.044C153.823 12.9727 153.747 12.6381 153.846 12.3326C153.773 12.2977 153.703 12.2511 153.642 12.1987C153.43 12.3559 152.769 12.8273 152.612 12.9465L152.577 12.9698L150.441 12.5916H150.398C150.328 12.5945 150.258 12.5945 150.188 12.5916C150.168 12.6876 150.083 12.7545 149.987 12.7545H149.952C149.839 12.7342 149.76 12.6265 149.778 12.513V12.4664C149.501 12.2686 149.37 11.9252 149.443 11.5934V11.5556L149.475 11.5323C149.475 11.5323 149.516 11.5032 149.571 11.4712L149.417 11.4479C149.359 11.4363 149.321 11.3839 149.33 11.3257C149.338 11.2675 149.391 11.2297 149.449 11.2384H149.452L149.822 11.2966L149.856 9.99586L150.406 9.41388L150.75 10.1355L150.389 11.3868L150.715 11.4392C150.773 11.4508 150.811 11.5032 150.802 11.5614C150.793 11.6138 150.75 11.6487 150.697 11.6487H150.68L150.415 11.6051V11.6254C150.444 11.6778 150.488 11.7186 150.543 11.7447L152.17 11.7709L152.586 11.3606C152.269 11.25 152.042 10.9707 152.004 10.636C151.8 10.5575 151.634 10.4062 151.541 10.2112C151.463 10.0279 151.448 9.82127 151.503 9.62922C151.247 9.52737 151.015 9.37313 150.825 9.17523H148.41C148.527 9.46043 148.594 9.76307 148.605 10.0686V13.2055Z" fill="#FCE527"/>
<path d="M150.837 14.5617C150.802 14.5617 150.77 14.5879 150.768 14.6228V14.6257C150.765 14.6635 150.794 14.6984 150.832 14.7013H150.834C150.875 14.7013 150.904 14.6693 150.904 14.6315C150.904 14.5908 150.875 14.5617 150.837 14.5617ZM150.835 14.5587C150.837 14.5587 150.837 14.5617 150.837 14.5617C150.84 14.5617 150.84 14.5587 150.843 14.5587H150.835ZM155.589 19.3311L155.188 19.1769L155.298 18.7607L155.421 18.3068C154.871 18.589 154.294 18.816 153.701 18.9848C153.41 19.0663 153.2 19.1041 153.2 19.1041V19.398C152.842 19.4562 152.482 19.4882 152.118 19.4912H152.086C151.722 19.4882 151.361 19.4562 151.003 19.398V19.107C151.003 19.107 150.791 19.0663 150.5 18.9848C149.906 18.816 149.33 18.589 148.78 18.3068L148.899 18.7607L149.013 19.1769L148.608 19.3311L148.172 19.497C148.771 19.8083 149.397 20.0673 150.043 20.271L149.889 20.69C150.59 20.9578 151.341 21.0887 152.092 21.0713H152.109C152.86 21.0887 153.611 20.9578 154.312 20.69L154.161 20.271C154.804 20.0673 155.429 19.8083 156.029 19.497L155.589 19.3311ZM148.658 19.5232L149.31 19.3049L149.115 18.6647C149.542 18.8771 149.985 19.0547 150.442 19.1943L150.122 20.0673C149.618 19.9335 149.126 19.7502 148.658 19.5232ZM152.118 20.8646L152.103 20.853C151.463 20.8501 150.826 20.7628 150.209 20.594L150.602 19.529C151.091 19.6512 151.594 19.7181 152.1 19.721H152.132C152.639 19.7152 153.142 19.6512 153.631 19.529L154.024 20.594C153.404 20.7686 152.761 20.8588 152.118 20.8646ZM154.102 20.0848V20.076L153.782 19.2031C154.239 19.0634 154.681 18.8859 155.109 18.6734L154.914 19.3136L155.575 19.5348C155.103 19.7647 154.609 19.9509 154.102 20.0848ZM152.1 2.72101C152.758 2.70355 153.404 2.90143 153.939 3.28263C154.024 2.85196 154.184 2.43874 154.414 2.06336L153.753 2.13901L153.41 1.4028L152.743 1.74617L152.1 1.10889L151.457 1.74617L150.791 1.4028L150.447 2.13901L149.787 2.06336C150.017 2.43874 150.177 2.85196 150.261 3.28263C150.797 2.90143 151.443 2.70355 152.1 2.72101ZM150.418 2.39509L150.602 2.41546L150.68 2.2496L150.91 1.7549L151.338 1.97606L151.504 2.06045L151.638 1.93823L152.1 1.46972L152.563 1.93823L152.697 2.06918L152.863 1.98479L153.288 1.76363L153.52 2.25833L153.599 2.42419L153.782 2.40382L153.957 2.38345C153.887 2.5435 153.826 2.70937 153.776 2.87815C152.726 2.33981 151.478 2.33981 150.427 2.87815C150.378 2.70937 150.316 2.5435 150.247 2.38345L150.418 2.39509ZM160.731 8.72715L160.653 8.63115C160.111 7.94146 159.596 7.28673 158.677 6.98699C158.715 6.95499 158.752 6.92589 158.793 6.89969C159.23 6.65234 159.538 6.2275 159.637 5.73571C159.687 5.29047 159.561 4.8453 159.288 4.49026L158.997 4.12653L158.814 4.56011C158.814 4.58631 158.491 5.28177 157.839 5.28177H157.647C157.682 4.8249 157.516 4.37386 157.193 4.04796C156.8 3.64638 156.259 3.42232 155.697 3.42523C155.592 3.42523 155.488 3.43396 155.386 3.44851L154.94 3.5358L155.217 3.89955C155.432 4.19054 155.627 4.69395 155.397 4.96459C155.287 5.06064 155.162 5.13627 155.025 5.18862C154.734 5.32542 154.315 5.52037 154.315 6.00926C154.315 6.32645 154.562 6.65819 155.007 6.94044C156.32 7.77272 157.132 8.63115 157.484 9.59723C158.028 11.0697 157.318 11.9078 156.628 12.3501L156.32 12.548L156.59 12.7953C156.832 13.0019 157.129 13.13 157.446 13.162H157.711C157.981 13.162 158.249 13.1242 158.508 13.0456C158.444 13.1591 158.366 13.2667 158.281 13.3656C157.888 13.8225 157.306 14.0728 156.704 14.0408H156.445L156.425 14.2998C156.422 14.6635 156.582 15.0069 156.858 15.2426C156.931 15.3066 157.012 15.359 157.1 15.3997C156.669 15.8187 156.425 16.392 156.416 16.9944C156.416 17.3232 156.34 17.6492 156.198 17.9459L155.907 18.3824H156.425C157.28 18.3824 157.935 18.1467 158.389 17.6783C158.624 17.4309 158.799 17.1312 158.901 16.8052C159.07 16.9478 159.268 17.0468 159.483 17.0962C159.585 17.1195 159.69 17.1312 159.794 17.1312C159.951 17.1312 160.109 17.1108 160.26 17.0759L160.592 16.9886L160.446 16.6801C160.263 16.1883 160.263 15.6441 160.446 15.1524C160.554 14.8323 160.629 14.5005 160.67 14.163C160.932 14.2968 161.223 14.3638 161.517 14.3609C162 14.3667 162.451 14.1281 162.713 13.7236L162.873 13.4326L162.582 13.3103C161.607 12.9059 161.392 11.8176 161.348 11.2297C161.444 11.2501 161.54 11.2617 161.639 11.2646L161.721 11.3199C162.78 11.3199 163.135 10.2404 163.149 10.1938L163.269 9.81257H162.87C162.032 9.78347 161.249 9.38773 160.731 8.72715ZM161.724 11.026H161.683C161.47 11.0289 161.261 10.9707 161.08 10.8602C161.08 10.8602 160.926 12.9641 162.495 13.6159V13.6246C162.288 13.9389 161.933 14.1252 161.558 14.1193C161.133 14.1455 160.723 13.9651 160.455 13.6363C160.464 14.131 160.382 14.6257 160.216 15.0913C160.004 15.6529 160.004 16.2756 160.216 16.8373C160.085 16.8693 159.954 16.8867 159.82 16.8867C159.739 16.8867 159.655 16.878 159.576 16.8576C159.189 16.7645 158.881 16.4793 158.755 16.1039C158.755 16.1039 158.817 18.1234 156.462 18.1234H156.445C156.622 17.7859 156.716 17.4105 156.713 17.0293C156.814 15.5365 157.827 15.3241 157.827 15.3241C157.548 15.2892 157.283 15.1902 157.05 15.0331C156.838 14.8556 156.716 14.5937 156.71 14.3172C157.391 14.3463 158.048 14.064 158.494 13.5461C158.761 13.2405 158.939 12.8681 159.014 12.4694C158.639 12.7517 158.176 12.8943 157.708 12.8739H157.469C157.216 12.8477 156.975 12.7488 156.78 12.5829C157.676 12.0009 158.304 11.0057 157.749 9.49538C157.3 8.28486 156.227 7.37988 155.147 6.69894C154.789 6.47775 154.574 6.2275 154.574 6.01216C154.574 5.50582 155.293 5.49127 155.589 5.13917C155.93 4.74345 155.717 4.10325 155.421 3.71913C155.505 3.70458 155.592 3.69876 155.677 3.69876C156.163 3.69294 156.631 3.88791 156.969 4.2371C157.312 4.563 157.443 5.0548 157.312 5.50877L157.469 5.54077C157.565 5.55822 157.661 5.56696 157.76 5.56987H157.824C158.677 5.56987 159.061 4.6765 159.061 4.6765C159.061 4.6765 159.969 5.79391 158.633 6.66689C158.403 6.81534 158.301 6.95789 158.342 7.10338L158.363 7.19943L158.459 7.21688C159.428 7.47877 159.914 8.14811 160.516 8.90759C161.086 9.63218 161.948 10.0687 162.87 10.1007H162.888C162.888 10.1007 162.597 11.026 161.724 11.026Z" fill="#222220"/>
<path d="M159.855 7.11831C160.181 7.30455 160.463 7.55775 160.685 7.86039C160.85 8.11644 161.086 8.32013 161.365 8.44238C161.47 8.47728 161.584 8.49473 161.694 8.49473C162.139 8.49473 162.547 8.24158 162.751 7.84584L162.919 7.46755L162.509 7.44425C162.067 7.36275 161.668 7.13581 161.374 6.79532C161.156 6.55962 160.85 6.42282 160.527 6.41992C160.277 6.42282 160.036 6.49852 159.826 6.63237L159.448 6.89716L159.855 7.11831ZM160.536 6.70222L160.527 6.70512C160.775 6.70512 161.008 6.81277 161.173 6.99611C161.514 7.38605 161.979 7.64505 162.492 7.72944C162.334 8.02334 162.029 8.20664 161.694 8.20958C161.613 8.20958 161.531 8.19503 161.453 8.16884C160.981 8.00879 160.815 7.29585 159.998 6.86516C160.158 6.76042 160.344 6.70512 160.536 6.70222ZM160.047 10.8693L160.041 10.8635C159.803 8.94287 158.409 7.55485 156.858 6.71387C156.715 6.63527 156.581 6.57127 156.453 6.51017C157.094 6.64112 157.76 6.48397 158.275 6.08238C158.275 6.08238 157.376 6.74297 155.537 6.14348C156.046 6.47522 157.035 6.94081 157.94 7.6974C160.199 9.682 158.584 11.6201 158.584 11.6201C159.259 10.9799 159.494 10.0021 159.192 9.12331C159.669 9.9177 159.899 10.8373 159.849 11.7627C159.785 13.2875 158.939 14.6202 158.066 15.6824C157.804 16.017 157.623 16.4099 157.548 16.8289C157.696 16.4128 157.92 16.0287 158.211 15.6969C159.157 14.5882 159.957 13.4388 160.071 11.783C160.169 12.074 160.571 12.9208 161.211 13.238C161.211 13.238 160.408 12.7549 160.047 10.8693ZM148 17.9667C147.86 17.6699 147.785 17.344 147.782 17.0151C147.773 16.4128 147.526 15.8395 147.095 15.4205C147.182 15.3797 147.264 15.3274 147.337 15.2633C147.613 15.0276 147.773 14.6842 147.77 14.3205L147.753 14.0615H147.491C146.891 14.0906 146.309 13.8433 145.916 13.3864C145.832 13.2875 145.756 13.1798 145.689 13.0663C145.948 13.1449 146.216 13.1827 146.487 13.1827H146.752C147.069 13.1507 147.369 13.0227 147.61 12.816L147.881 12.5687L147.572 12.3708C146.88 11.9285 146.173 11.0904 146.717 9.618C147.069 8.66062 147.881 7.79634 149.205 6.96411C149.65 6.67312 149.894 6.35012 149.894 6.03293C149.894 5.54404 149.484 5.3491 149.184 5.2123C149.048 5.1599 148.922 5.08425 148.812 4.98824C148.579 4.7176 148.774 4.20253 148.992 3.92317L149.283 3.55943L148.835 3.47213C148.733 3.45467 148.629 3.44885 148.524 3.44885C147.956 3.43139 147.409 3.64964 147.008 4.04831C146.679 4.37131 146.507 4.82524 146.539 5.28505H146.365C145.71 5.28505 145.401 4.59245 145.39 4.56335L145.206 4.12978L144.915 4.49355C144.645 4.84855 144.52 5.2938 144.569 5.73899C144.668 6.23078 144.974 6.65567 145.41 6.90301C145.451 6.92916 145.492 6.95826 145.527 6.99031C144.607 7.2813 144.092 7.94479 143.551 8.63443L143.472 8.73337C142.954 9.39391 142.168 9.7897 141.33 9.8188H140.932L141.054 10.2C141.054 10.2465 141.421 11.3262 142.483 11.3262H142.535C142.634 11.3232 142.73 11.3116 142.826 11.2912C142.782 11.8732 142.567 12.9674 141.589 13.3719L141.298 13.4941L141.458 13.7851C141.72 14.1896 142.171 14.4282 142.654 14.4224C142.948 14.4253 143.236 14.3584 143.498 14.2245C143.539 14.562 143.615 14.8938 143.722 15.2139C143.906 15.7057 143.906 16.2498 143.722 16.7416L143.577 17.05L143.909 17.1373C144.06 17.1723 144.217 17.1926 144.374 17.1926C144.479 17.1926 144.584 17.181 144.686 17.1577C144.901 17.1082 145.099 17.0093 145.268 16.8667C145.369 17.1926 145.544 17.4924 145.78 17.7397C146.237 18.2082 146.891 18.441 147.744 18.4439H148.262L148 17.9667ZM147.75 18.1297C145.396 18.1297 145.454 16.1102 145.454 16.1102C145.329 16.4855 145.02 16.7707 144.633 16.8638C144.555 16.8842 144.47 16.8929 144.389 16.8929C144.255 16.8929 144.124 16.8754 143.996 16.8434C144.208 16.2818 144.208 15.6591 143.996 15.0975C143.83 14.6319 143.751 14.1372 143.76 13.6425C143.492 13.9713 143.082 14.1518 142.657 14.1256H142.643C142.264 14.1314 141.909 13.9422 141.703 13.6279C143.271 12.9761 143.117 10.8722 143.117 10.8722C142.937 10.9828 142.727 11.041 142.515 11.0381H142.483C141.61 11.0381 141.319 10.1127 141.319 10.1127H141.336C142.259 10.0836 143.123 9.6471 143.693 8.92252C144.293 8.16303 144.782 7.4937 145.751 7.23181L145.847 7.21436L145.867 7.11836C145.893 6.96991 145.791 6.82732 145.576 6.68182C144.24 5.80884 145.148 4.6914 145.148 4.6914C145.148 4.6914 145.527 5.58479 146.385 5.58479H146.426C146.525 5.58189 146.621 5.57314 146.717 5.55569L146.874 5.52369C146.74 5.06969 146.874 4.5779 147.217 4.25201C147.555 3.9028 148.023 3.70784 148.509 3.71366C148.594 3.71366 148.681 3.71948 148.765 3.73403C148.474 4.12105 148.259 4.76125 148.599 5.1541C148.89 5.49459 149.612 5.50914 149.612 6.02708C149.612 6.24243 149.411 6.49267 149.053 6.71677C147.971 7.3977 146.897 8.30268 146.452 9.51326C145.896 11.0235 146.525 12.0275 147.421 12.6007C147.226 12.7637 146.984 12.8655 146.731 12.8917H146.49C146.021 12.9121 145.559 12.7695 145.183 12.4872C145.259 12.8859 145.436 13.2584 145.701 13.5639C146.146 14.079 146.807 14.3642 147.488 14.3351C147.482 14.6115 147.36 14.8734 147.147 15.0509C146.915 15.208 146.65 15.307 146.37 15.3419C146.37 15.3419 147.386 15.5485 147.497 17.0471C147.494 17.4283 147.587 17.8037 147.764 18.1413L147.75 18.1297Z" fill="#222220"/>
<path d="M142.502 8.49183H142.505C142.616 8.49183 142.729 8.47438 142.834 8.43948C143.114 8.31724 143.349 8.11354 143.515 7.85745C143.733 7.55485 144.016 7.30166 144.342 7.11541L144.749 6.89717L144.371 6.63237C144.161 6.49853 143.92 6.42283 143.672 6.41993C143.349 6.42283 143.044 6.55962 142.826 6.79822C142.535 7.13581 142.133 7.36571 141.694 7.44715L141.283 7.46755L141.449 7.84585C141.653 8.24159 142.057 8.48893 142.502 8.49183ZM143.026 6.99611C143.189 6.81277 143.422 6.70512 143.669 6.70512C143.859 6.70802 144.045 6.76622 144.205 6.86807C143.381 7.30746 143.21 8.01169 142.75 8.17174C142.674 8.19794 142.593 8.21249 142.511 8.21249C142.174 8.21249 141.865 8.02624 141.708 7.72945C142.22 7.64505 142.686 7.38606 143.026 6.99611ZM144.356 11.7743C144.307 10.8489 144.534 9.92935 145.014 9.13497C144.711 10.0137 144.947 10.9915 145.622 11.6317C145.622 11.6317 144.004 9.69366 146.265 7.70905C147.17 6.95247 148.157 6.48688 148.666 6.15513C146.827 6.75457 145.928 6.09403 145.928 6.09403C146.443 6.49562 147.106 6.65272 147.746 6.52178C147.618 6.58292 147.484 6.64982 147.342 6.72547C145.791 7.5694 144.388 8.95742 144.158 10.878V10.8635C143.798 12.7491 142.994 13.2322 142.994 13.2322C143.632 12.9179 144.036 12.0682 144.132 11.7772C144.24 13.4359 145.049 14.5853 145.995 15.6911C146.283 16.0228 146.51 16.407 146.658 16.8231C146.579 16.407 146.399 16.0141 146.134 15.6824C145.261 14.6202 144.417 13.2875 144.356 11.7743ZM151.567 8.27069C151.669 8.17174 151.811 8.12519 151.954 8.14264V8.69263C151.951 8.82938 151.916 8.96032 151.849 9.07967H152.399C152.332 8.96032 152.297 8.82938 152.295 8.69263V8.14264C152.434 8.12519 152.577 8.17174 152.679 8.27069V7.88949H151.567V8.27069ZM151.337 5.63134H151.331C151.416 5.70409 151.515 5.76229 151.622 5.79719L151.692 5.82924V5.4684L151.046 5.19775C151.078 5.37815 151.183 5.5353 151.337 5.63134ZM152.871 5.62844L152.868 5.63134C153.022 5.5353 153.127 5.37815 153.159 5.19775L152.513 5.4684V5.82629L152.58 5.79429C152.687 5.75939 152.786 5.70119 152.871 5.62844Z" fill="#222220"/>
<path d="M154.029 4.17031C154.029 3.62614 153.113 3.13727 152.103 3.13727C151.093 3.13727 150.176 3.62614 150.176 4.17031L150.197 4.30417L150.601 6.63213L150.197 6.86782L149.141 7.46731C149.141 7.46731 148.905 7.58951 148.794 7.66226C148.396 7.95325 148.311 8.34319 148.541 8.51199C148.599 8.1162 148.946 7.8252 149.347 7.83685C149.682 7.8456 149.993 8.01435 150.182 8.29079C150.241 8.36064 150.293 8.43629 150.339 8.51199C150.401 8.61089 150.462 8.69818 150.523 8.78258H147.828C148.055 9.17252 148.186 9.61191 148.215 10.063V16.0488C148.215 17.5038 149.33 18.1876 150.543 18.1876C151.474 18.1876 151.599 18.144 152.112 18.6561C152.624 18.144 152.749 18.1876 153.68 18.1876C154.885 18.1876 156.008 17.4979 156.008 16.0488V10.0688C156.037 9.61776 156.168 9.17837 156.395 8.78843H153.671C153.732 8.70403 153.794 8.61673 153.855 8.51779C153.904 8.44214 153.957 8.36649 154.012 8.29664C154.204 8.0202 154.515 7.8514 154.85 7.84265C155.251 7.83105 155.598 8.12204 155.656 8.51779C155.889 8.35194 155.804 7.9358 155.403 7.66806C155.295 7.59241 155.059 7.47311 155.059 7.47311L154.012 6.85617L153.607 6.62048L154.012 4.29253L154.029 4.17031ZM150.566 4.43804L151.986 4.91818V7.14722L150.942 6.59428L150.566 4.43804ZM148.41 9.17542H150.857C151.047 9.37332 151.279 9.53046 151.535 9.62941C151.48 9.82146 151.495 10.0281 151.573 10.2114C151.666 10.4063 151.832 10.5577 152.036 10.6362C152.074 10.9709 152.301 11.2502 152.618 11.3608C152.443 11.5383 152.272 11.7042 152.202 11.7711L150.575 11.745C150.52 11.7188 150.476 11.678 150.447 11.6256V11.6053L150.712 11.6489H150.729C150.782 11.6489 150.825 11.614 150.834 11.5616C150.843 11.5034 150.805 11.451 150.747 11.4394L150.421 11.387L150.782 10.1358L150.438 9.41407L149.888 9.99605L149.853 11.2968L149.484 11.2386C149.426 11.227 149.373 11.2648 149.362 11.323V11.3259C149.353 11.3841 149.391 11.4365 149.449 11.4481L149.603 11.4714C149.548 11.5034 149.51 11.5267 149.507 11.5325L149.475 11.5558V11.5936C149.402 11.9254 149.536 12.2688 149.81 12.4666V12.5132C149.792 12.6266 149.871 12.7343 149.984 12.7547H150.019C150.115 12.7547 150.2 12.6878 150.22 12.5917C150.29 12.5946 150.357 12.5946 150.427 12.5917H150.47L152.603 12.9788L152.638 12.9555C152.807 12.8362 153.456 12.3735 153.668 12.2076C153.73 12.26 153.799 12.3066 153.872 12.3415C153.773 12.647 153.849 12.9817 154.07 13.2145H148.605V10.0688C148.593 9.76326 148.527 9.46062 148.41 9.17542ZM153.485 12.0534C153.264 12.2164 152.72 12.6121 152.522 12.7518L150.587 12.4143V12.3619C150.619 12.2309 150.636 12.0971 150.639 11.9632L152.269 11.9894L152.301 11.9574C152.327 11.9312 152.842 11.4336 153.104 11.1455C153.174 11.2328 153.255 11.3055 153.348 11.3637C153.302 11.6024 153.351 11.8497 153.485 12.0534ZM150.252 11.7042V11.7129C150.296 11.7944 150.36 11.8643 150.438 11.9108C150.435 12.0301 150.424 12.1465 150.403 12.2629C150.403 12.2891 150.403 12.3153 150.383 12.3415V12.3822C150.249 12.3822 150.118 12.3619 149.99 12.3211C149.757 12.196 149.626 11.9399 149.664 11.678C149.769 11.6053 149.888 11.5587 150.014 11.5412C150.121 11.5383 150.217 11.6024 150.252 11.7042ZM150.051 11.3172L150.083 10.0863L150.374 9.79526L150.552 10.1649L150.206 11.3637L150.051 11.3172ZM153.471 17.8006H153.191L153.409 17.0877C153.444 16.9887 153.264 16.8607 153.188 16.7472C153.366 16.8549 153.549 16.9509 153.738 17.0382C153.738 17.0615 153.471 17.8006 153.471 17.8006ZM154.218 17.0033L154.195 16.9829L154.044 17.7686C153.948 17.7686 153.846 17.7889 153.753 17.7948L153.913 17.0382C153.959 16.8141 153.357 16.7472 153.06 16.302C152.865 16.4649 152.615 16.5406 152.365 16.5144C152.144 16.5115 151.925 16.4882 151.71 16.4446C151.672 16.4416 151.634 16.4416 151.597 16.4446C151.506 16.4387 151.419 16.4853 151.372 16.5639L151.329 16.6366L150.499 16.4358L150.302 16.7792C150.27 16.8258 150.275 16.8898 150.316 16.9305L150.371 16.9916C150.316 17.0993 150.246 17.1982 150.162 17.2826L150.04 17.1313C149.947 16.98 149.955 16.785 150.06 16.6424L150.386 16.0924L151.082 16.1972L150.974 15.9498C150.828 15.6239 151.049 15.2078 151.073 14.9692C151.073 15.0419 150.997 15.0565 150.921 15.0565H150.721C150.706 15.0536 150.689 15.0536 150.674 15.0565L150.485 15.17L150.337 15.0332C150.313 14.9895 150.322 14.9372 150.357 14.9051L150.7 14.5182L150.293 14.0438L150.875 14.3348L151.049 14.1253C151.096 14.1719 151.076 14.2941 151.076 14.2941C151.498 14.3989 151.792 14.783 151.78 15.2194V15.3038C151.838 15.3969 151.931 15.461 152.036 15.4872L152.825 15.5657C152.982 15.5163 153.142 15.4842 153.305 15.4639C153.444 15.4639 153.584 15.5075 153.7 15.5832C153.756 15.5454 153.823 15.5221 153.89 15.5192H153.916C154.268 15.5192 154.416 15.8393 154.605 16.1012C154.748 16.302 154.94 16.6046 154.94 16.6046C154.885 16.6861 154.795 16.7356 154.696 16.7356C154.661 16.7385 154.629 16.7385 154.594 16.7356C154.216 16.6657 154.16 15.8858 153.945 15.8247H153.91C153.869 15.8247 153.831 15.848 153.811 15.8858C153.91 16.1506 153.852 16.2583 153.959 16.4678C154.038 16.593 154.137 16.7065 154.25 16.8025C154.25 16.8025 154.236 16.9189 154.218 17.0033ZM149.979 16.2409H149.973L150.008 16.3311C149.984 16.4096 149.717 16.5231 149.717 16.5231L149.658 16.3951C149.583 16.2118 149.638 16.0022 149.798 15.8829L150.238 15.6152L150.706 15.7141C150.703 15.8073 150.732 15.8975 150.788 15.9731L150.296 15.88L150.005 16.0837C149.958 16.1245 149.949 16.1885 149.979 16.2409ZM155.607 16.0517C155.639 16.8607 155.077 17.5707 154.282 17.7278L154.416 17.0237C154.416 16.9829 154.431 16.9334 154.437 16.8927C154.477 16.9102 154.518 16.9218 154.559 16.9305C154.605 16.9334 154.652 16.9334 154.699 16.9305C154.859 16.9305 155.01 16.8578 155.106 16.7297L155.211 16.6075L155.123 16.4882C155.123 16.4882 154.928 16.1797 154.783 15.976L154.701 15.8538C154.539 15.6094 154.332 15.3009 153.922 15.3009H153.884C153.826 15.3038 153.764 15.3155 153.709 15.3358C153.584 15.2747 153.447 15.2427 153.308 15.2427C153.168 15.2456 153.028 15.2718 152.897 15.3213L152.827 15.3417L152.059 15.266C152.027 15.2514 152.001 15.2282 151.981 15.1991L152.147 15.1321C152.1 14.5764 151.565 14.2359 151.274 14.1224C151.259 14.0613 151.23 14.0089 151.186 13.9653L151.02 13.8081L150.875 13.9827L150.802 14.07L149.725 13.6277L150.427 14.5007L150.15 14.9197C150.092 14.9779 150.089 15.0739 150.15 15.135L150.441 15.3329L150.732 15.2223H150.761C150.761 15.266 150.729 15.4435 150.715 15.493L150.208 15.4057L149.667 15.6967C149.417 15.8771 149.33 16.2088 149.461 16.4882L149.522 16.6192L149.606 16.8054L149.795 16.7268C149.725 16.916 149.755 17.1255 149.877 17.2855L149.99 17.431L150.142 17.6231L150.31 17.4426C150.421 17.3321 150.508 17.204 150.569 17.0615L150.604 16.9451L150.523 16.8549V16.8374L150.616 16.6861L151.288 16.8432L151.439 16.8781L151.521 16.7443L151.565 16.6715C151.565 16.657 151.565 16.6541 151.605 16.6541H151.678C151.908 16.7006 152.141 16.7239 152.374 16.7268C152.531 16.7356 152.688 16.7181 152.839 16.6715L153.212 17.0964L152.99 17.7773V17.818C152.659 17.8122 152.341 17.949 152.117 18.1905C151.759 17.8355 151.506 17.7977 150.549 17.7977C149.4 17.7977 148.623 17.1255 148.623 16.0517V13.4327H155.607V16.0517ZM155.796 9.17542C155.676 9.45772 155.612 9.76036 155.601 10.0688V12.0301C155.348 11.9748 155.158 11.7595 155.141 11.5005V11.4103H155.054C154.902 11.3987 154.763 11.3288 154.658 11.2211C154.53 11.0727 154.46 10.8865 154.457 10.6915C154.332 10.8952 154.344 11.1571 154.489 11.3492C154.603 11.4918 154.768 11.5878 154.949 11.6111C155.001 11.9487 155.272 12.2106 155.609 12.2542V13.2145H154.387C154.067 13.0515 153.933 12.6703 154.076 12.3415L154.122 12.2367L154.015 12.196C153.666 12.0738 153.473 11.6984 153.584 11.3434L153.607 11.2561L153.526 11.2182C153.22 11.0407 153.052 10.6944 153.101 10.3452C152.941 10.5082 152.9 10.7555 153.002 10.9592C152.944 11.0262 152.868 11.1047 152.784 11.192C152.478 11.128 152.257 10.8632 152.245 10.5518V10.4791L152.179 10.4529C152.001 10.4005 151.856 10.2783 151.771 10.1154C151.716 9.9815 151.704 9.83021 151.742 9.69051C151.8 9.70216 151.858 9.71086 151.917 9.71671C151.975 9.71961 152.036 9.71961 152.094 9.71671C152.566 9.71671 153.014 9.51301 153.328 9.16382L155.796 9.17542ZM153.91 7.19086L154.387 7.48186L154.507 7.55166C154.259 7.61861 154.035 7.75245 153.858 7.9387L153.837 7.95615C153.796 7.9998 153.759 8.04345 153.721 8.09005L153.698 8.11914C153.66 8.16569 153.625 8.21514 153.593 8.26754L153.575 8.29374C153.535 8.35194 153.497 8.41594 153.459 8.47994C153.194 9.00668 152.679 9.35877 152.094 9.41697C151.509 9.35877 150.994 9.00668 150.729 8.47994C150.692 8.41594 150.654 8.35484 150.616 8.29374L150.593 8.26169L150.499 8.1104L150.473 8.0784C150.435 8.03185 150.398 7.98815 150.36 7.94745L150.339 7.92705C150.162 7.7408 149.938 7.60696 149.691 7.54006L149.813 7.47021L150.293 7.17922L150.785 6.88822L152.097 7.60116L153.409 6.91147L153.91 7.19086ZM153.264 6.60883L152.219 7.15882V4.92108L153.636 4.44094L153.264 6.60883ZM152.1 4.68538L150.546 4.06264C150.677 3.74836 151.288 3.48065 152.1 3.48065C152.912 3.48065 153.523 3.74836 153.654 4.06264L152.1 4.68538Z" fill="#222220"/>
<g clip-path="url(#clip1_264_4746)">
<path fill-rule="evenodd" clip-rule="evenodd" d="M183.889 6V6.00437C183.884 6.00437 182.509 6 182.142 7.31441C181.806 8.51965 180.858 11.8472 180.832 11.9389H180.57C180.57 11.9389 179.601 8.53712 179.26 7.31004C178.893 5.99563 177.513 6 177.513 6H174.369V16H177.513V10.0611H177.644H177.775L179.609 16H181.793L183.627 10.0655H183.889V16H187.033V6H183.889Z" fill="#4DB45E"/>
<path fill-rule="evenodd" clip-rule="evenodd" d="M195.374 6C195.374 6 194.452 6.08297 194.02 7.04803L191.793 11.9389H191.531V6H188.387V16H191.356C191.356 16 192.321 15.9127 192.754 14.952L194.937 10.0611H195.199V16H198.343V6H195.374Z" fill="#4DB45E"/>
<path fill-rule="evenodd" clip-rule="evenodd" d="M199.74 10.5415V16H202.884V12.8122H206.29C207.775 12.8122 209.033 11.8646 209.5 10.5415H199.74Z" fill="#4DB45E"/>
<path fill-rule="evenodd" clip-rule="evenodd" d="M206.29 6H199.299C199.648 7.90393 201.076 9.43231 202.923 9.93013C203.342 10.0437 203.784 10.1048 204.238 10.1048H209.626C209.674 9.87773 209.696 9.64629 209.696 9.40611C209.696 7.52402 208.172 6 206.29 6Z" fill="url(#paint0_linear_264_4746)"/>
</g>
<g clip-path="url(#clip2_264_4746)">
<path d="M233.06 15.8333H230.545L232.117 6.17262H234.632L233.06 15.8333ZM228.429 6.17262L226.031 12.8173L225.747 11.3865L225.747 11.387L224.901 7.04246C224.901 7.04246 224.799 6.17262 223.708 6.17262H219.744L219.697 6.3362C219.697 6.3362 220.91 6.58842 222.328 7.44042L224.513 15.8336H227.134L231.136 6.17262H228.429ZM248.212 15.8333H250.521L248.508 6.17236H246.486C245.552 6.17236 245.325 6.89232 245.325 6.89232L241.574 15.8333H244.196L244.72 14.3983H247.917L248.212 15.8333ZM245.444 12.416L246.766 8.80073L247.509 12.416H245.444ZM241.77 8.4958L242.129 6.42122C242.129 6.42122 241.022 6 239.867 6C238.619 6 235.655 6.54552 235.655 9.19818C235.655 11.694 239.134 11.725 239.134 13.0359C239.134 14.3469 236.013 14.112 234.983 13.2853L234.61 15.4545C234.61 15.4545 235.733 16 237.449 16C239.165 16 241.754 15.1113 241.754 12.6925C241.754 10.1807 238.244 9.94682 238.244 8.85474C238.244 7.76241 240.694 7.90273 241.77 8.4958Z" fill="#2566AF"/>
<path d="M225.747 11.3867L224.901 7.0422C224.901 7.0422 224.799 6.17236 223.708 6.17236H219.744L219.697 6.33594C219.697 6.33594 221.603 6.7308 223.43 8.21025C225.178 9.62431 225.747 11.3867 225.747 11.3867Z" fill="#E6A540"/>
</g>
<path d="M274.911 5.49823H268.789V16.4987H274.911V5.49823Z" fill="#FF5F00"/>
<path d="M269.176 10.9984C269.176 8.86048 270.167 6.81976 271.838 5.49815C268.806 3.10759 264.395 3.63234 262.004 6.68371C259.633 9.71564 260.158 14.1081 263.209 16.4986C265.755 18.5005 269.312 18.5005 271.858 16.4986C270.167 15.177 269.176 13.1363 269.176 10.9984Z" fill="#EB001B"/>
<path d="M283.169 10.9984C283.169 14.866 280.04 17.9951 276.172 17.9951C274.598 17.9951 273.082 17.4704 271.857 16.4986C274.889 14.1081 275.414 9.71564 273.024 6.66427C272.674 6.23669 272.285 5.82855 271.857 5.49815C274.889 3.10759 279.301 3.63234 281.672 6.68371C282.644 7.90814 283.169 9.42411 283.169 10.9984Z" fill="#F79E1B"/>
<defs>
<linearGradient id="paint0_linear_264_4746" x1="199.3" y1="8.0524" x2="209.696" y2="8.0524" gradientUnits="userSpaceOnUse">
<stop offset="0.3" stop-color="#00B4E6"/>
<stop offset="1" stop-color="#088CCB"/>
</linearGradient>
<clipPath id="clip0_264_4746">
<rect width="44" height="22" fill="white" transform="translate(85.832)"/>
</clipPath>
<clipPath id="clip1_264_4746">
<rect width="35.3275" height="10" fill="white" transform="translate(174.369 6)"/>
</clipPath>
<clipPath id="clip2_264_4746">
<rect width="30.8241" height="10" fill="white" transform="translate(219.697 6)"/>
</clipPath>
</defs>
</svg>
