<svg width="73" height="42" viewBox="0 0 73 42" fill="none" xmlns="http://www.w3.org/2000/svg">
<path d="M73 28.0504C73 32.4687 69.4183 36.0504 65 36.0504H43.6098C41.5726 36.0504 39.6746 37.0841 38.5694 38.7954L37.3069 40.7506C36.9216 41.3472 36.0545 41.3632 35.6474 40.7813L34.1291 38.611C33.0064 37.0062 31.1712 36.0504 29.2127 36.0504H8C3.58173 36.0504 0 32.4687 0 28.0504V8C0 3.58172 3.58172 0 8 0H36.5L65 0C69.4183 0 73 3.58172 73 8V28.0504Z" fill="black" fill-opacity="0.7"/>
<path d="M72.5 28.0504C72.5 32.1925 69.1421 35.5504 65 35.5504H43.6098C41.4028 35.5504 39.3466 36.6702 38.1494 38.5242L36.8868 40.4793C36.6942 40.7776 36.2607 40.7857 36.0571 40.4947L34.5388 38.3244C33.3225 36.5859 31.3344 35.5504 29.2127 35.5504H8C3.85787 35.5504 0.5 32.1925 0.5 28.0504V8C0.5 3.85786 3.85786 0.5 8 0.5H36.5L65 0.5C69.1421 0.5 72.5 3.85786 72.5 8V28.0504Z" stroke="white" stroke-opacity="0.1"/>
</svg>
